<svg width="16" height="16" viewBox="0 0 16 16" version="1.1" xmlns="http://www.w3.org/2000/svg" xmlns:xlink="http://www.w3.org/1999/xlink"><g id="Canvas" transform="translate(-3193 -271)"><g id="android-call"><g id="Vector"><use xlink:href="#path0_fill" transform="translate(3193 271)" fill="#A22033"/></g></g></g><defs><path id="path0_fill" d="M 15.1111 11.1111C 14 11.1111 12.9331 10.9332 11.9557 10.6224C 11.6445 10.5334 11.289 10.5777 11.0669 10.8446L 9.11108 12.8C 6.57767 11.5113 4.53342 9.46663 3.24433 6.93317L 5.20012 4.97787C 5.42229 4.75567 5.51104 4.40021 5.42229 4.089C 5.06658 3.06687 4.88887 2 4.88887 0.888875C 4.88887 0.400167 4.48892 0 4 0L 0.888875 0C 0.399958 0 0 0.400167 0 0.888875C 0 9.24433 6.75567 16 15.1111 16C 15.5998 16 16 15.5998 16 15.1111L 16 12C 16 11.5113 15.5998 11.1111 15.1111 11.1111Z"/></defs></svg>
