<?xml version="1.0" encoding="utf-8"?>
<!-- Generator: Adobe Illustrator 15.1.0, SVG Export Plug-In . SVG Version: 6.00 Build 0)  -->
<!DOCTYPE svg PUBLIC "-//W3C//DTD SVG 1.1//EN" "http://www.w3.org/Graphics/SVG/1.1/DTD/svg11.dtd">
<svg version="1.1" id="Lager_1" xmlns="http://www.w3.org/2000/svg" xmlns:xlink="http://www.w3.org/1999/xlink" x="0px" y="0px"
	 width="993px" height="199px" viewBox="0 0 993 199" enable-background="new 0 0 993 199" xml:space="preserve">
<g>
	<path fill="#3E3E3F" d="M24,7h6v16h16v6H30v16h-6V29H8v-6h16V7z"/>
</g>
<g>
	<path fill="#3E3E3F" d="M78.146,21.646L92.396,7v10.292l-14.25,15.042l-14.25-15.042V7L78.146,21.646z"/>
</g>
<g>
	<path fill="#3E3E3F" d="M752.623,6.375l11.084,11.084l11.082-11.083l4.75,4.75l-11.082,11.083l11.082,11.084l-4.749,4.75
		l-11.084-11.084l-11.083,11.084l-4.75-4.75l11.083-11.084l-11.083-11.084L752.623,6.375z"/>
</g>
<g>
	<path fill="#3E3E3F" d="M256.125,7l-15.438,20.583H239.5L224.458,7H256.125z"/>
</g>
<g>
	<path fill="#3E3E3F" d="M272.009,7l20.583,15.438v1.188l-20.583,15.042V7z"/>
</g>
<g>
	<path fill="#3E3E3F" d="M327.163,14.821c2.677,0,4.847,2.17,4.847,4.846s-2.17,4.846-4.847,4.846c-2.676,0-4.846-2.17-4.846-4.846
		S324.487,14.821,327.163,14.821z M327.163,6.744c11.309,0,21,8.077,21,12.923s-9.691,12.923-21,12.923
		c-11.308,0-21-8.077-21-12.923S315.856,6.744,327.163,6.744z M327.163,10.782c-4.906,0-8.885,3.978-8.885,8.885
		s3.979,8.885,8.885,8.885s8.886-3.979,8.886-8.885S332.07,10.782,327.163,10.782z"/>
</g>
<g>
	<path fill="#3E3E3F" d="M362.886,6.997h1.584c0.875,0,1.583,0.709,1.583,1.583v34.838c0,0.875-0.709,1.584-1.583,1.584h-1.584
		c-0.875,0-1.583-0.709-1.583-1.584V8.581C361.303,7.706,362.012,6.997,362.886,6.997z M367.637,11.748
		c1.583-1.056,3.167-2.111,5.807-1.847c2.639,0.264,6.333,1.848,9.238,1.848c2.902,0,5.014-1.584,7.125-3.167v14.252
		c-2.111,1.583-4.223,3.167-7.125,3.167c-2.904,0-6.6-1.583-9.238-1.848c-2.64-0.264-4.223,0.792-5.807,1.848V11.748z"/>
</g>
<g>
	<path fill="#3E3E3F" d="M405,6.25h8v8h-8V6.25z M405,17.25h8v8h-8V17.25z M417,6.25h26v8h-26V6.25z M405,28.25h8v8h-8V28.25z
		 M417,17.25h26v8h-26V17.25z M417,28.25h26v8h-26V28.25z"/>
</g>
<g>
	<path fill="#3E3E3F" d="M455.5,7.418h38v5.605h-38V7.418z M455.5,15.827h38v5.605h-38V15.827z M455.5,24.235h38v5.605h-38V24.235z
		 M455.5,32.643h38v5.605h-38V32.643z"/>
</g>
<g>
	<path fill="#3E3E3F" d="M876.577,39.389c-1.235,1.237-3.638,1.237-4.875,0l-8.393-8.166c-1.795,0.975-3.853,1.133-6.037,1.133
		c-6.996,0-12.666-5.275-12.666-12.271s5.67-12.667,12.666-12.667s12.271,5.671,12.271,12.667c0,2.305-0.222,4.465-1.296,6.326
		l8.328,8.104C877.814,35.752,877.814,38.153,876.577,39.389z M849.357,20.085c0,4.372,3.544,7.917,7.916,7.917
		c4.373,0,7.916-3.545,7.916-7.917c0-4.373-3.543-7.917-7.916-7.917C852.901,12.168,849.357,15.712,849.357,20.085z"/>
</g>
<g>
	<path fill="#3E3E3F" d="M532.832,7H545.5v12.667l-4.75,4.75v-8.708l-17.418,17.417l-3.957-3.959l17.416-17.416h-8.707L532.832,7z
		 M507.5,13.333h23.75l-4.75,4.75h-14.25V40.25h22.166V26l4.75-4.75V45H507.5V13.333z"/>
</g>
<g>
	<path fill="#3E3E3F" d="M944.791,7.093c3.456,0,6.259,2.802,6.259,6.259s-2.803,6.26-6.259,6.26c-3.457,0-6.261-2.803-6.261-6.26
		S941.334,7.093,944.791,7.093z M938.531,28.124c-0.834,0.418-2.504,3.756-2.504,3.756s-0.834,1.252-1.252,6.259l-3.755-1.251
		l1.251-6.26c0,0,2.504-8.763,7.512-8.763h10.016c5.008,0,7.511,8.763,7.511,8.763l1.252,6.26l-3.755,1.251
		c-0.417-5.007-1.252-6.259-1.252-6.259s-1.669-3.338-2.504-3.756l0.506,11.369c-1.903,0.742-3.975,1.149-6.141,1.149
		c-2.639,0-5.138-0.605-7.362-1.685L938.531,28.124z M953.811,8.893h18v3h-18V8.893z M953.811,14.893h18v3h-18V14.893z
		 M955.811,20.893h16v3h-16V20.893z M958.811,26.893h13v3h-13V26.893z M960.811,32.893h11v3h-11V32.893z"/>
</g>
<g>
	<path fill="#3E3E3F" d="M803.576,15.466V7h22.013v8.466h-3.388v-5.08h-15.237v5.08H803.576z M795.957,16.313h37.25v19.472h-6.771
		v-4.233h2.539V20.545h-28.783v11.006h2.539v4.233h-6.771V16.313H795.957z M803.576,25.625h2.54v11.006h5.927v5.926h11.006V25.625
		h2.54v19.472H810.35l-6.772-6.773L803.576,25.625L803.576,25.625z M821.355,39.17h-6.772v-2.54h6.772V39.17z M821.355,34.091
		H807.81v-2.54h13.545V34.091z M821.355,29.011H807.81v-2.54h13.545V29.011z"/>
</g>
<g>
	<path fill="#3E3E3F" d="M640.75,7.418c20.986,0,38,17.013,38,38h-7.918c0-16.614-13.113-30.083-29.291-30.083l-0.793,0.01V7.418
		H640.75z M640.75,20.085c13.99,0,25.332,11.342,25.332,25.333h-7.916c0-9.619-7.798-17.417-17.418-17.417v-7.916H640.75z
		 M646.291,34.334c3.061,0,5.541,2.482,5.541,5.543s-2.48,5.541-5.541,5.541c-3.062,0-5.543-2.48-5.543-5.541
		S643.23,34.334,646.291,34.334z"/>
</g>
<g>
	<path fill="#3E3E3F" d="M579.413,6.375h-8v24.75l-10-10v10.5l14,14l14-14v-10.5l-10,10V6.375z"/>
</g>
<g>
	<path fill="#3E3E3F" d="M610.75,45.625h8v-24.75l10,10v-10.5l-14-14l-14,14v10.5l10-10V45.625z"/>
</g>
<g>
	<path fill="#3E3E3F" d="M181.639,27.582L197.077,7h1.188l15.042,20.582H181.639z"/>
</g>
<g>
	<path fill="#3E3E3F" d="M117.23,17.688l-14.25,14.646V22.042L117.23,7l14.25,15.042v10.292L117.23,17.688z"/>
</g>
<g>
	<path fill="#3E3E3F" d="M693.25,7.418h38v6h-38V7.418z"/>
</g>
<g>
	<path fill="#3E3E3F" d="M886.916,7h21.715l10.855,10.857V45h-32.57V7L886.916,7z M890.534,10.619v30.762h25.333v-19h-11.762V10.619
		H890.534z M907.726,10.619v8.143h8.143L907.726,10.619z"/>
</g>
<g>
	<path fill="#3E3E3F" d="M160.436,21.25L145.79,7h10.292l15.042,14.25L156.082,35.5H145.79L160.436,21.25z"/>
</g>
<g>
	<path fill="#5C86B2" d="M24,57.354h6v16h16v6H30v16h-6v-16H8v-6h16V57.354z"/>
</g>
<g>
	<path fill="#5C86B2" d="M78.146,72l14.25-14.646v10.291l-14.25,15.043l-14.25-15.043V57.354L78.146,72z"/>
</g>
<g>
	<path fill="#5C86B2" d="M752.623,56.729l11.084,11.084l11.082-11.083l4.75,4.75l-11.081,11.083l11.081,11.084l-4.748,4.75
		l-11.084-11.084l-11.084,11.084l-4.75-4.75l11.084-11.084l-11.084-11.084L752.623,56.729z"/>
</g>
<g>
	<path fill="#5C86B2" d="M256.125,57.353l-15.438,20.583H239.5l-15.042-20.583H256.125z"/>
</g>
<g>
	<path fill="#5C86B2" d="M272.009,57.354l20.583,15.438v1.188l-20.583,15.042V57.354z"/>
</g>
<g>
	<path fill="#5C86B2" d="M327.163,65.174c2.677,0,4.847,2.17,4.847,4.847s-2.17,4.847-4.847,4.847c-2.676,0-4.846-2.17-4.846-4.847
		S324.487,65.174,327.163,65.174z M327.163,57.097c11.309,0,21,8.077,21,12.923s-9.691,12.923-21,12.923
		c-11.308,0-21-8.076-21-12.923S315.856,57.097,327.163,57.097z M327.163,61.136c-4.906,0-8.885,3.979-8.885,8.885
		s3.979,8.886,8.885,8.886s8.886-3.979,8.886-8.886S332.07,61.136,327.163,61.136z"/>
</g>
<g>
	<path fill="#5C86B2" d="M362.886,57.351h1.584c0.875,0,1.583,0.709,1.583,1.583v34.838c0,0.875-0.709,1.584-1.583,1.584h-1.584
		c-0.875,0-1.583-0.709-1.583-1.584V58.934C361.303,58.06,362.012,57.351,362.886,57.351z M367.637,62.101
		c1.583-1.056,3.167-2.111,5.807-1.847c2.639,0.264,6.333,1.848,9.238,1.848c2.902,0,5.014-1.584,7.125-3.167v14.251
		c-2.111,1.584-4.223,3.168-7.125,3.168c-2.904,0-6.6-1.584-9.238-1.848c-2.64-0.264-4.223,0.791-5.807,1.848V62.101z"/>
</g>
<g>
	<path fill="#5C86B2" d="M405,56.604h8v8h-8V56.604z M405,67.604h8v8h-8V67.604z M417,56.604h26v8h-26V56.604z M405,78.604h8v8h-8
		V78.604z M417,67.604h26v8h-26V67.604z M417,78.604h26v8h-26V78.604z"/>
</g>
<g>
	<path fill="#5C86B2" d="M455.5,57.772h38v5.605h-38V57.772z M455.5,66.18h38v5.605h-38V66.18z M455.5,74.588h38v5.605h-38V74.588z
		 M455.5,82.996h38v5.605h-38V82.996z"/>
</g>
<g>
	<path fill="#5C86B2" d="M876.577,89.742c-1.235,1.238-3.638,1.238-4.875,0l-8.393-8.166c-1.795,0.975-3.853,1.133-6.037,1.133
		c-6.996,0-12.666-5.275-12.666-12.27c0-6.996,5.67-12.667,12.666-12.667s12.271,5.671,12.271,12.667
		c0,2.305-0.222,4.465-1.296,6.326l8.328,8.104C877.814,86.105,877.814,88.506,876.577,89.742z M849.357,70.439
		c0,4.371,3.544,7.916,7.916,7.916c4.373,0,7.916-3.545,7.916-7.916c0-4.373-3.543-7.917-7.916-7.917
		C852.901,62.522,849.357,66.066,849.357,70.439z"/>
</g>
<g>
	<path fill="#5C86B2" d="M532.832,57.354H545.5V70.02l-4.75,4.75v-8.707l-17.418,17.416l-3.957-3.959l17.416-17.416h-8.707
		L532.832,57.354z M507.5,63.688h23.75l-4.75,4.75h-14.25v22.166h22.166v-14.25l4.75-4.75v23.75H507.5V63.688z"/>
</g>
<g>
	<path fill="#5C86B2" d="M944.791,57.446c3.456,0,6.259,2.802,6.259,6.259s-2.803,6.26-6.259,6.26c-3.457,0-6.261-2.803-6.261-6.26
		S941.334,57.446,944.791,57.446z M938.531,78.478c-0.834,0.418-2.504,3.756-2.504,3.756s-0.834,1.252-1.252,6.259l-3.755-1.251
		l1.251-6.26c0,0,2.504-8.763,7.512-8.763h10.016c5.008,0,7.511,8.763,7.511,8.763l1.252,6.26l-3.755,1.251
		c-0.417-5.007-1.252-6.259-1.252-6.259s-1.669-3.338-2.504-3.756l0.506,11.369c-1.903,0.742-3.975,1.149-6.141,1.149
		c-2.639,0-5.138-0.605-7.362-1.685L938.531,78.478z M953.811,59.246h18v3h-18V59.246z M953.811,65.246h18v3h-18V65.246z
		 M955.811,71.246h16v3h-16V71.246z M958.811,77.246h13v3h-13V77.246z M960.811,83.246h11v3h-11V83.246z"/>
</g>
<g>
	<path fill="#5C86B2" d="M803.576,65.819v-8.466h22.013v8.466h-3.388v-5.08h-15.237v5.08H803.576z M795.957,66.666h37.25v19.472
		h-6.771v-4.233h2.539V70.898h-28.783v11.006h2.539v4.233h-6.771V66.666H795.957z M803.576,75.979h2.54v11.006h5.927v5.926h11.006
		V75.979h2.54V95.45H810.35l-6.772-6.772L803.576,75.979L803.576,75.979z M821.355,89.523h-6.772v-2.539h6.772V89.523z
		 M821.355,84.444H807.81v-2.54h13.545V84.444z M821.355,79.365H807.81v-2.54h13.545V79.365z"/>
</g>
<g>
	<path fill="#5C86B2" d="M640.75,57.772c20.986,0,38,17.013,38,38h-7.918c0-16.613-13.113-30.082-29.291-30.082l-0.793,0.01v-7.928
		H640.75z M640.75,70.439c13.99,0,25.332,11.342,25.332,25.332h-7.916c0-9.619-7.798-17.416-17.418-17.416v-7.916H640.75z
		 M646.291,84.688c3.061,0,5.541,2.482,5.541,5.543s-2.48,5.541-5.541,5.541c-3.062,0-5.543-2.48-5.543-5.541
		S643.23,84.688,646.291,84.688z"/>
</g>
<g>
	<path fill="#5C86B2" d="M579.413,56.729h-8v24.75l-10-10v10.5l14,14l14-14v-10.5l-10,10V56.729z"/>
</g>
<g>
	<path fill="#5C86B2" d="M610.75,95.979h8v-24.75l10,10v-10.5l-14-14l-14,14v10.5l10-10V95.979z"/>
</g>
<g>
	<path fill="#5C86B2" d="M181.639,77.936l15.438-20.582h1.188l15.042,20.582H181.639z"/>
</g>
<g>
	<path fill="#5C86B2" d="M117.23,68.042l-14.25,14.646V72.396l14.25-15.042l14.25,15.042v10.292L117.23,68.042z"/>
</g>
<g>
	<path fill="#5C86B2" d="M693.25,57.772h38v6h-38V57.772z"/>
</g>
<g>
	<path fill="#5C86B2" d="M886.916,57.354h21.715l10.855,10.857v27.143h-32.57V57.354L886.916,57.354z M890.534,60.973v30.762h25.333
		v-19h-11.762V60.973H890.534z M907.726,60.973v8.143h8.143L907.726,60.973z"/>
</g>
<g>
	<path fill="#5C86B2" d="M160.436,71.604l-14.646-14.25h10.292l15.042,14.25l-15.042,14.25H145.79L160.436,71.604z"/>
</g>
<rect x="0" y="105" fill="none" width="993" height="47"/>
<g>
	<path fill="#FFFFFF" d="M24,109.563h6v16h16v6H30v16h-6v-16H8v-6h16V109.563z"/>
</g>
<g>
	<path fill="#FFFFFF" d="M78.146,124.209l14.25-14.646v10.291l-14.25,15.043l-14.25-15.043v-10.291L78.146,124.209z"/>
</g>
<g>
	<path fill="#FFFFFF" d="M752.622,108.938l11.084,11.084l11.082-11.082l4.75,4.75l-11.082,11.082l11.082,11.084l-4.748,4.75
		l-11.084-11.084l-11.084,11.084l-4.75-4.75l11.084-11.084l-11.084-11.084L752.622,108.938z"/>
</g>
<g>
	<path fill="#FFFFFF" d="M256.125,109.563l-15.438,20.582H239.5l-15.042-20.582H256.125z"/>
</g>
<g>
	<path fill="#FFFFFF" d="M272.009,109.563L292.592,125v1.188l-20.583,15.043V109.563z"/>
</g>
<g>
	<path fill="#FFFFFF" d="M327.163,117.383c2.677,0,4.847,2.17,4.847,4.848c0,2.677-2.17,4.847-4.847,4.847
		c-2.676,0-4.846-2.17-4.846-4.847C322.318,119.553,324.487,117.383,327.163,117.383z M327.163,109.307c11.309,0,21,8.076,21,12.924
		c0,4.847-9.691,12.922-21,12.922c-11.308,0-21-8.075-21-12.922C306.163,117.383,315.856,109.307,327.163,109.307z M327.163,113.345
		c-4.906,0-8.885,3.979-8.885,8.886c0,4.906,3.979,8.886,8.885,8.886s8.886-3.979,8.886-8.886
		C336.049,117.323,332.07,113.345,327.163,113.345z"/>
</g>
<g>
	<path fill="#FFFFFF" d="M362.886,109.561h1.584c0.875,0,1.583,0.709,1.583,1.582v34.84c0,0.875-0.709,1.584-1.583,1.584h-1.584
		c-0.875,0-1.583-0.709-1.583-1.584v-34.84C361.303,110.27,362.012,109.561,362.886,109.561z M367.637,114.311
		c1.583-1.057,3.167-2.11,5.807-1.848c2.639,0.264,6.333,1.848,9.238,1.848c2.902,0,5.014-1.584,7.125-3.168v14.252
		c-2.111,1.584-4.223,3.168-7.125,3.168c-2.904,0-6.6-1.584-9.238-1.848c-2.64-0.264-4.223,0.791-5.807,1.848V114.311z"/>
</g>
<g>
	<path fill="#FFFFFF" d="M405,108.813h8v8h-8V108.813z M405,119.813h8v8h-8V119.813z M417,108.813h26v8h-26V108.813z M405,130.813h8
		v8h-8V130.813z M417,119.813h26v8h-26V119.813z M417,130.813h26v8h-26V130.813z"/>
</g>
<g>
	<path fill="#FFFFFF" d="M455.5,109.98h38v5.604h-38V109.98z M455.5,118.389h38v5.605h-38V118.389z M455.5,126.797h38v5.605h-38
		V126.797z M455.5,135.205h38v5.605h-38V135.205z"/>
</g>
<g>
	<path fill="#FFFFFF" d="M876.577,141.951c-1.235,1.238-3.639,1.238-4.875,0l-8.393-8.166c-1.795,0.975-3.853,1.133-6.037,1.133
		c-6.996,0-12.666-5.275-12.666-12.27c0-6.996,5.67-12.668,12.666-12.668s12.271,5.672,12.271,12.668
		c0,2.305-0.222,4.465-1.296,6.326l8.328,8.104C877.814,138.314,877.814,140.715,876.577,141.951z M849.357,122.648
		c0,4.371,3.543,7.916,7.916,7.916s7.916-3.545,7.916-7.916c0-4.373-3.543-7.918-7.916-7.918S849.357,118.275,849.357,122.648z"/>
</g>
<g>
	<path fill="#FFFFFF" d="M532.834,109.563H545.5v12.666l-4.75,4.75v-8.707l-17.416,17.416l-3.959-3.959l17.416-17.416h-8.707
		L532.834,109.563z M507.5,115.896h23.75l-4.75,4.75h-14.25v22.166h22.166v-14.25l4.75-4.75v23.75H507.5V115.896z"/>
</g>
<g>
	<path fill="#FFFFFF" d="M944.791,109.655c3.456,0,6.258,2.802,6.258,6.259s-2.802,6.26-6.258,6.26c-3.457,0-6.261-2.803-6.261-6.26
		S941.334,109.655,944.791,109.655z M938.531,130.688c-0.834,0.418-2.504,3.756-2.504,3.756s-0.834,1.252-1.252,6.259l-3.756-1.251
		l1.252-6.26c0,0,2.504-8.764,7.512-8.764h10.015c5.008,0,7.512,8.764,7.512,8.764l1.252,6.26l-3.756,1.251
		c-0.416-5.007-1.252-6.259-1.252-6.259s-1.668-3.338-2.504-3.756l0.506,11.369c-1.902,0.741-3.974,1.148-6.139,1.148
		c-2.64,0-5.14-0.605-7.363-1.686L938.531,130.688z M953.811,111.455h18v3h-18V111.455z M953.811,117.455h18v3h-18V117.455z
		 M955.811,123.455h16v3h-16V123.455z M958.811,129.455h13v3h-13V129.455z M960.811,135.455h11v3h-11V135.455z"/>
</g>
<g>
	<path fill="#FFFFFF" d="M803.575,118.027v-8.465h22.013v8.465H822.2v-5.078h-15.237v5.078H803.575z M795.956,118.875h37.25v19.473
		h-6.771v-4.233h2.539v-11.007h-28.783v11.007h2.539v4.233h-6.773L795.956,118.875L795.956,118.875z M803.575,128.188h2.541v11.006
		h5.927v5.927h11.006v-16.933h2.539v19.473H810.35l-6.773-6.771L803.575,128.188L803.575,128.188z M821.355,141.732h-6.773v-2.539
		h6.773V141.732z M821.355,136.652H807.81v-2.539h13.545V136.652z M821.355,131.574H807.81v-2.54h13.545V131.574z"/>
</g>
<g>
	<path fill="#FFFFFF" d="M640.75,109.98c20.985,0,38,17.014,38,38h-7.918c0-16.613-13.113-30.082-29.291-30.082l-0.791,0.01V109.98z
		 M640.75,122.648c13.989,0,25.332,11.342,25.332,25.332h-7.916c0-9.619-7.798-17.416-17.416-17.416V122.648z M646.291,136.896
		c3.061,0,5.541,2.481,5.541,5.543c0,3.061-2.48,5.541-5.541,5.541c-3.062,0-5.541-2.48-5.541-5.541
		C640.75,139.378,643.23,136.896,646.291,136.896z"/>
</g>
<g>
	<path fill="#FFFFFF" d="M579.413,108.938h-8v24.75l-10-10v10.5l14,14l14-14v-10.5l-10,10V108.938z"/>
</g>
<g>
	<path fill="#FFFFFF" d="M610.75,148.188h8v-24.75l10,10v-10.5l-14-14l-14,14v10.5l10-10V148.188z"/>
</g>
<g>
	<path fill="#FFFFFF" d="M181.639,130.145l15.438-20.582h1.188l15.042,20.582H181.639z"/>
</g>
<g>
	<path fill="#FFFFFF" d="M117.23,120.251l-14.25,14.646v-10.291l14.25-15.043l14.25,15.043v10.291L117.23,120.251z"/>
</g>
<g>
	<path fill="#FFFFFF" d="M693.25,109.98h38v6h-38V109.98z"/>
</g>
<g>
	<path fill="#FFFFFF" d="M886.916,109.563h21.715l10.854,10.857v27.143h-32.569V109.563z M890.534,113.182v30.762h25.332v-19
		h-11.762v-11.762H890.534z M907.725,113.182v8.144h8.143L907.725,113.182z"/>
</g>
<g>
	<path fill="#FFFFFF" d="M160.436,123.813l-14.646-14.25h10.292l15.042,14.25l-15.042,14.25H145.79L160.436,123.813z"/>
</g>
<rect x="0" y="152" fill="none" width="993" height="47"/>
<g>
	<path fill="#E5E6E7" d="M24,156.563h6v16h16v6H30v16h-6v-16H8v-6h16V156.563z"/>
</g>
<g>
	<path fill="#E5E6E7" d="M78.146,171.209l14.25-14.646v10.291l-14.25,15.043l-14.25-15.043v-10.291L78.146,171.209z"/>
</g>
<g>
	<path fill="#E5E6E7" d="M752.622,155.938l11.084,11.084l11.082-11.082l4.75,4.75l-11.082,11.082l11.082,11.084l-4.748,4.75
		l-11.084-11.084l-11.084,11.084l-4.75-4.75l11.084-11.084l-11.084-11.084L752.622,155.938z"/>
</g>
<g>
	<path fill="#E5E6E7" d="M256.125,156.563l-15.438,20.582H239.5l-15.042-20.582H256.125z"/>
</g>
<g>
	<path fill="#E5E6E7" d="M272.009,156.563L292.592,172v1.188l-20.583,15.043V156.563z"/>
</g>
<g>
	<path fill="#E5E6E7" d="M327.163,164.383c2.677,0,4.847,2.17,4.847,4.848c0,2.677-2.17,4.847-4.847,4.847
		c-2.676,0-4.846-2.17-4.846-4.847C322.318,166.553,324.487,164.383,327.163,164.383z M327.163,156.307c11.309,0,21,8.076,21,12.924
		c0,4.847-9.691,12.922-21,12.922c-11.308,0-21-8.075-21-12.922C306.163,164.383,315.856,156.307,327.163,156.307z M327.163,160.345
		c-4.906,0-8.885,3.979-8.885,8.886c0,4.906,3.979,8.886,8.885,8.886s8.886-3.979,8.886-8.886
		C336.049,164.323,332.07,160.345,327.163,160.345z"/>
</g>
<g>
	<path fill="#E5E6E7" d="M362.886,156.561h1.584c0.875,0,1.583,0.709,1.583,1.582v34.84c0,0.875-0.709,1.584-1.583,1.584h-1.584
		c-0.875,0-1.583-0.709-1.583-1.584v-34.84C361.303,157.27,362.012,156.561,362.886,156.561z M367.637,161.311
		c1.583-1.057,3.167-2.11,5.807-1.848c2.639,0.264,6.333,1.848,9.238,1.848c2.902,0,5.014-1.584,7.125-3.168v14.252
		c-2.111,1.584-4.223,3.168-7.125,3.168c-2.904,0-6.6-1.584-9.238-1.848c-2.64-0.264-4.223,0.791-5.807,1.848V161.311z"/>
</g>
<g>
	<path fill="#E5E6E7" d="M405,155.813h8v8h-8V155.813z M405,166.813h8v8h-8V166.813z M417,155.813h26v8h-26V155.813z M405,177.813h8
		v8h-8V177.813z M417,166.813h26v8h-26V166.813z M417,177.813h26v8h-26V177.813z"/>
</g>
<g>
	<path fill="#E5E6E7" d="M455.5,156.98h38v5.604h-38V156.98z M455.5,165.389h38v5.605h-38V165.389z M455.5,173.797h38v5.605h-38
		V173.797z M455.5,182.205h38v5.605h-38V182.205z"/>
</g>
<g>
	<path fill="#E5E6E7" d="M876.577,188.951c-1.235,1.238-3.639,1.238-4.875,0l-8.393-8.166c-1.795,0.975-3.853,1.133-6.037,1.133
		c-6.996,0-12.666-5.275-12.666-12.27c0-6.996,5.67-12.668,12.666-12.668s12.271,5.672,12.271,12.668
		c0,2.305-0.222,4.465-1.296,6.326l8.328,8.104C877.814,185.314,877.814,187.715,876.577,188.951z M849.357,169.648
		c0,4.371,3.543,7.916,7.916,7.916s7.916-3.545,7.916-7.916c0-4.373-3.543-7.918-7.916-7.918S849.357,165.275,849.357,169.648z"/>
</g>
<g>
	<path fill="#E5E6E7" d="M532.834,156.563H545.5v12.666l-4.75,4.75v-8.707l-17.416,17.416l-3.959-3.959l17.416-17.416h-8.707
		L532.834,156.563z M507.5,162.896h23.75l-4.75,4.75h-14.25v22.166h22.166v-14.25l4.75-4.75v23.75H507.5V162.896z"/>
</g>
<g>
	<path fill="#E5E6E7" d="M944.791,156.655c3.456,0,6.258,2.802,6.258,6.259s-2.802,6.26-6.258,6.26c-3.457,0-6.261-2.803-6.261-6.26
		S941.334,156.655,944.791,156.655z M938.531,177.688c-0.834,0.418-2.504,3.756-2.504,3.756s-0.834,1.252-1.252,6.259l-3.756-1.251
		l1.252-6.26c0,0,2.504-8.764,7.512-8.764h10.015c5.008,0,7.512,8.764,7.512,8.764l1.252,6.26l-3.756,1.251
		c-0.416-5.007-1.252-6.259-1.252-6.259s-1.668-3.338-2.504-3.756l0.506,11.369c-1.902,0.741-3.974,1.148-6.139,1.148
		c-2.64,0-5.14-0.605-7.363-1.686L938.531,177.688z M953.811,158.455h18v3h-18V158.455z M953.811,164.455h18v3h-18V164.455z
		 M955.811,170.455h16v3h-16V170.455z M958.811,176.455h13v3h-13V176.455z M960.811,182.455h11v3h-11V182.455z"/>
</g>
<g>
	<path fill="#E5E6E7" d="M803.575,165.027v-8.465h22.013v8.465H822.2v-5.078h-15.237v5.078H803.575z M795.956,165.875h37.25v19.473
		h-6.771v-4.233h2.539v-11.007h-28.783v11.007h2.539v4.233h-6.773L795.956,165.875L795.956,165.875z M803.575,175.188h2.541v11.006
		h5.927v5.927h11.006v-16.933h2.539v19.473H810.35l-6.773-6.771L803.575,175.188L803.575,175.188z M821.355,188.732h-6.773v-2.539
		h6.773V188.732z M821.355,183.652H807.81v-2.539h13.545V183.652z M821.355,178.574H807.81v-2.54h13.545V178.574z"/>
</g>
<g>
	<path fill="#E5E6E7" d="M640.75,156.98c20.985,0,38,17.014,38,38h-7.918c0-16.613-13.113-30.082-29.291-30.082l-0.791,0.01V156.98z
		 M640.75,169.648c13.989,0,25.332,11.342,25.332,25.332h-7.916c0-9.619-7.798-17.416-17.416-17.416V169.648z M646.291,183.896
		c3.061,0,5.541,2.481,5.541,5.543c0,3.061-2.48,5.541-5.541,5.541c-3.062,0-5.541-2.48-5.541-5.541
		C640.75,186.378,643.23,183.896,646.291,183.896z"/>
</g>
<g>
	<path fill="#E5E6E7" d="M579.413,155.938h-8v24.75l-10-10v10.5l14,14l14-14v-10.5l-10,10V155.938z"/>
</g>
<g>
	<path fill="#E5E6E7" d="M610.75,195.188h8v-24.75l10,10v-10.5l-14-14l-14,14v10.5l10-10V195.188z"/>
</g>
<g>
	<path fill="#E5E6E7" d="M181.639,177.145l15.438-20.582h1.188l15.042,20.582H181.639z"/>
</g>
<g>
	<path fill="#E5E6E7" d="M117.23,167.251l-14.25,14.646v-10.291l14.25-15.043l14.25,15.043v10.291L117.23,167.251z"/>
</g>
<g>
	<path fill="#E5E6E7" d="M693.25,156.98h38v6h-38V156.98z"/>
</g>
<g>
	<path fill="#E5E6E7" d="M886.916,156.563h21.715l10.854,10.857v27.143h-32.569V156.563z M890.534,160.182v30.762h25.332v-19
		h-11.762v-11.762H890.534z M907.725,160.182v8.144h8.143L907.725,160.182z"/>
</g>
<g>
	<path fill="#E5E6E7" d="M160.436,170.813l-14.646-14.25h10.292l15.042,14.25l-15.042,14.25H145.79L160.436,170.813z"/>
</g>
</svg>
