<?xml version="1.0" encoding="utf-8"?>
<!-- Generator: Adobe Illustrator 15.0.2, SVG Export Plug-In  -->
<!DOCTYPE svg PUBLIC "-//W3C//DTD SVG 1.1//EN" "http://www.w3.org/Graphics/SVG/1.1/DTD/svg11.dtd" [
	<!ENTITY ns_flows "http://ns.adobe.com/Flows/1.0/">
]>
<svg version="1.1"
	 xmlns="http://www.w3.org/2000/svg" xmlns:xlink="http://www.w3.org/1999/xlink" xmlns:a="http://ns.adobe.com/AdobeSVGViewerExtensions/3.0/"
	 x="0px" y="0px" width="185px" height="404px" viewBox="-6.03 -8.699 185 404" enable-background="new -6.03 -8.699 185 404"
	 xml:space="preserve">
<defs>
</defs>
<path d="M32.446,266.721h2.197v5.859h5.858v2.197h-5.858v5.858h-2.197v-5.858h-5.858v-2.197h5.858V266.721z"/>
<path d="M52.274,272.084l5.217-5.363v3.77l-5.217,5.508l-5.219-5.508v-3.77L52.274,272.084z"/>
<path fill="#3E3E3F" d="M3.476,100.987l2.702,2.659l2.702-2.657l1.157,1.139l-2.702,2.659l2.702,2.658l-1.157,1.14l-2.702-2.659
	l-2.702,2.659l-1.159-1.14l2.702-2.658l-2.702-2.659L3.476,100.987z"/>
<path fill="#3E3E3F" d="M7.764,19.939l-3.763,5.017h-0.29l-3.666-5.017H7.764z"/>
<path d="M2.317,155.764l7.537,5.653v0.435l-7.537,5.508V155.764z"/>
<path d="M22.514,158.629c0.979,0,1.773,0.794,1.773,1.773c0,0.98-0.794,1.774-1.773,1.774c-0.98,0-1.775-0.794-1.775-1.774
	C20.739,159.423,21.534,158.629,22.514,158.629z M22.514,155.671c4.139,0,7.688,2.958,7.688,4.731c0,1.774-3.55,4.731-7.688,4.731
	c-4.142,0-7.691-2.957-7.691-4.731C14.823,158.629,18.374,155.671,22.514,155.671z M22.514,157.15c-1.798,0-3.254,1.457-3.254,3.252
	c0,1.797,1.457,3.254,3.254,3.254c1.795,0,3.252-1.457,3.252-3.254C25.768,158.605,24.311,157.15,22.514,157.15z"/>
<path d="M35.593,155.764h0.58c0.32,0,0.58,0.26,0.58,0.58V169.1c0,0.32-0.259,0.58-0.58,0.58h-0.58c-0.319,0-0.579-0.26-0.579-0.58
	v-12.756C35.014,156.023,35.274,155.764,35.593,155.764z M37.333,157.503c0.58-0.388,1.16-0.773,2.126-0.677
	s2.318,0.677,3.382,0.677s1.835-0.58,2.609-1.16v5.218c-0.774,0.58-1.548,1.16-2.609,1.16c-1.063,0-2.417-0.58-3.382-0.677
	c-0.967-0.097-1.546,0.29-2.126,0.677V157.503z"/>
<rect x="0.118" y="40.241" fill="#3E3E3F" width="2.977" height="3.487"/>
<rect x="0.118" y="45.036" fill="#3E3E3F" width="2.977" height="3.486"/>
<rect x="5.396" y="40.241" fill="#3E3E3F" width="8.87" height="3.487"/>
<rect x="0.118" y="49.832" fill="#3E3E3F" width="2.977" height="3.486"/>
<rect x="5.396" y="45.036" fill="#3E3E3F" width="8.87" height="3.486"/>
<rect x="5.396" y="49.832" fill="#3E3E3F" width="8.87" height="3.486"/>
<path d="M56.618,249.471c-0.453,0.453-1.332,0.453-1.786,0l-3.073-2.99c-0.656,0.357-1.409,0.415-2.21,0.415
	c-2.562,0-4.638-1.933-4.638-4.493s2.076-4.638,4.638-4.638c2.563,0,4.494,2.075,4.494,4.638c0,0.844-0.081,1.635-0.475,2.316
	l3.05,2.968C57.071,248.139,57.071,249.018,56.618,249.471z M46.651,242.401c0,1.601,1.298,2.899,2.898,2.899
	c1.602,0,2.898-1.299,2.898-2.899s-1.297-2.899-2.898-2.899C47.949,239.502,46.651,240.801,46.651,242.401z"/>
<path d="M19.246,199.822h4.639v4.639l-1.739,1.738v-3.188l-6.377,6.377l-1.449-1.449l6.377-6.377h-3.188L19.246,199.822z
	 M9.969,202.143h8.696l-1.738,1.739h-5.218v8.117h8.116v-5.218l1.739-1.739v8.696H9.969V202.143z"/>
<path d="M81.594,237.645c1.267,0,2.293,1.025,2.293,2.292s-1.026,2.292-2.293,2.292c-1.266,0-2.291-1.025-2.291-2.292
	S80.329,237.645,81.594,237.645z M79.303,245.346c-0.306,0.152-0.918,1.375-0.918,1.375s-0.305,0.458-0.457,2.292l-1.375-0.458
	l0.457-2.292c0,0,0.918-3.208,2.75-3.208h3.668c1.832,0,2.75,3.208,2.75,3.208l0.457,2.292l-1.375,0.458
	c-0.151-1.833-0.457-2.292-0.457-2.292s-0.611-1.223-0.918-1.375l0.186,4.162c-0.696,0.271-1.455,0.422-2.248,0.422
	c-0.966,0-1.881-0.223-2.696-0.617L79.303,245.346z M84.898,238.304h6.591v1.099h-6.591V238.304z M84.898,240.5h6.591v1.099h-6.591
	V240.5z M85.63,242.696h5.858v1.099H85.63V242.696z M86.729,244.895h4.76v1.1h-4.76V244.895z M87.46,247.09h4.028v1.1H87.46V247.09
	L87.46,247.09z"/>
<path d="M29.888,240.711v-3.101h8.06v3.101h-1.24v-1.86h-5.58v1.86H29.888z M27.097,241.021h13.64v7.13h-2.479v-1.55h0.931v-4.03
	h-10.54v4.03h0.93v1.55h-2.48V241.021L27.097,241.021z M29.888,244.431h0.93v4.03h2.169v2.17h4.03v-6.2h0.93v7.13h-5.581
	l-2.479-2.48L29.888,244.431L29.888,244.431z M36.398,249.39h-2.48v-0.931h2.48V249.39z M36.398,247.529h-4.96v-0.93h4.96V247.529z
	 M36.398,245.67h-4.96v-0.931h4.96V245.67z"/>
<path d="M58.761,199.977c7.685,0,13.914,6.229,13.914,13.914h-2.898c0-6.084-4.803-11.016-10.727-11.016l-0.289,0.004V199.977z
	 M58.761,204.615c5.123,0,9.275,4.152,9.275,9.275h-2.898c0-3.521-2.854-6.377-6.377-6.377V204.615z M60.791,209.833
	c1.121,0,2.029,0.909,2.029,2.03c0,1.119-0.909,2.029-2.029,2.029c-1.119,0-2.029-0.91-2.029-2.029
	C58.761,210.742,59.671,209.833,60.791,209.833z"/>
<path fill="#3E3E3F" d="M0.046,5.017L3.809,0h0.29l3.665,5.017H0.046z"/>
<path d="M66.583,270.635l-5.218,5.363v-3.77l5.218-5.508l5.218,5.508v3.77L66.583,270.635z"/>
<path d="M77.986,199.977H91.9v2.196H77.986V199.977z"/>
<path d="M60.404,237.609h7.951l3.976,3.977v9.938H60.404V237.609z M61.729,238.936v11.264h9.275v-6.957h-4.306v-4.307H61.729z
	 M68.023,238.936v2.982h2.98L68.023,238.936z"/>
<path d="M82.405,271.939l-5.363-5.218h3.77l5.508,5.218l-5.508,5.217h-3.77L82.405,271.939z"/>
<rect y="70.721" fill="#3E3E3F" width="14.265" height="2.012"/>
<rect y="74.456" fill="#3E3E3F" width="14.265" height="2.014"/>
<rect y="78.192" fill="#3E3E3F" width="14.265" height="2.013"/>
<rect y="81.786" fill="#3E3E3F" width="14.265" height="2.012"/>
<path fill="#FFFFFF" d="M32.312,100.987l2.702,2.659l2.702-2.657l1.157,1.139l-2.702,2.659l2.702,2.658l-1.157,1.14l-2.702-2.659
	l-2.702,2.659l-1.159-1.14l2.702-2.658l-2.702-2.659L32.312,100.987z"/>
<path fill="#FFFFFF" d="M36.599,19.939l-3.763,5.017h-0.29l-3.666-5.017H36.599z"/>
<path fill="#FFFFFF" d="M28.881,5.017L32.644,0h0.29l3.665,5.017H28.881z"/>
<path fill="#B0B0B0" d="M63.219,100.987l2.702,2.659l2.702-2.657l1.157,1.139l-2.702,2.659l2.702,2.658l-1.157,1.14l-2.702-2.659
	l-2.702,2.659l-1.159-1.14l2.702-2.658l-2.702-2.659L63.219,100.987z"/>
<path fill="#B0B0B0" d="M67.507,19.939l-3.763,5.017h-0.29l-3.666-5.017H67.507z"/>
<path fill="#B0B0B0" d="M59.789,5.017L63.552,0h0.29l3.665,5.017H59.789z"/>
<path fill="#E5E6E7" d="M93.281,100.987l2.702,2.659l2.702-2.657l1.157,1.139l-2.702,2.659l2.702,2.658l-1.157,1.14l-2.702-2.659
	l-2.702,2.659l-1.159-1.14l2.702-2.658l-2.702-2.659L93.281,100.987z"/>
<path fill="#E5E6E7" d="M97.569,19.939l-3.763,5.017h-0.29l-3.666-5.017H97.569z"/>
<path fill="#E5E6E7" d="M89.851,5.017L93.614,0h0.29l3.665,5.017H89.851z"/>
<path fill="#5C85B1" d="M120.669,102.001l2.702,2.659l2.702-2.657l1.157,1.139l-2.702,2.659l2.702,2.658l-1.157,1.14l-2.702-2.659
	l-2.702,2.659l-1.159-1.14l2.702-2.658l-2.702-2.659L120.669,102.001z"/>
<path fill="#5C85B1" d="M124.957,20.953l-3.763,5.017h-0.29l-3.666-5.017H124.957z"/>
<path fill="#5C85B1" d="M117.239,6.03l3.763-5.017h0.29l3.665,5.017H117.239z"/>
<path fill="#005BAA" d="M150.491,102.001l2.702,2.659l2.702-2.657l1.157,1.139l-2.702,2.659l2.702,2.658l-1.157,1.14l-2.702-2.659
	l-2.702,2.659l-1.159-1.14l2.702-2.658l-2.702-2.659L150.491,102.001z"/>
<path fill="#005BAA" d="M154.779,20.953l-3.763,5.017h-0.29l-3.666-5.017H154.779z"/>
<path fill="#005BAA" d="M147.061,6.03l3.763-5.017h0.29l3.665,5.017H147.061z"/>
<rect x="29.583" y="40.241" fill="#FFFFFF" width="2.977" height="3.487"/>
<rect x="29.583" y="45.036" fill="#FFFFFF" width="2.977" height="3.486"/>
<rect x="34.861" y="40.241" fill="#FFFFFF" width="8.87" height="3.487"/>
<rect x="29.583" y="49.832" fill="#FFFFFF" width="2.977" height="3.486"/>
<rect x="34.861" y="45.036" fill="#FFFFFF" width="8.87" height="3.486"/>
<rect x="34.861" y="49.832" fill="#FFFFFF" width="8.87" height="3.486"/>
<rect x="29.466" y="70.721" fill="#FFFFFF" width="14.265" height="2.012"/>
<rect x="29.466" y="74.456" fill="#FFFFFF" width="14.265" height="2.014"/>
<rect x="29.466" y="78.192" fill="#FFFFFF" width="14.265" height="2.013"/>
<rect x="29.466" y="81.786" fill="#FFFFFF" width="14.265" height="2.012"/>
<rect x="59.906" y="40.241" fill="#B0B0B0" width="2.977" height="3.487"/>
<rect x="59.906" y="45.036" fill="#B0B0B0" width="2.977" height="3.486"/>
<rect x="65.184" y="40.241" fill="#B0B0B0" width="8.87" height="3.487"/>
<rect x="59.906" y="49.832" fill="#B0B0B0" width="2.977" height="3.486"/>
<rect x="65.184" y="45.036" fill="#B0B0B0" width="8.87" height="3.486"/>
<rect x="65.184" y="49.832" fill="#B0B0B0" width="8.87" height="3.486"/>
<rect x="59.789" y="70.721" fill="#B0B0B0" width="14.265" height="2.012"/>
<rect x="59.789" y="74.456" fill="#B0B0B0" width="14.265" height="2.014"/>
<rect x="59.789" y="78.192" fill="#B0B0B0" width="14.265" height="2.013"/>
<rect x="59.789" y="81.786" fill="#B0B0B0" width="14.265" height="2.012"/>
<rect x="91.305" y="40.241" fill="#E5E6E7" width="2.977" height="3.487"/>
<rect x="91.305" y="45.036" fill="#E5E6E7" width="2.977" height="3.486"/>
<rect x="96.583" y="40.241" fill="#E5E6E7" width="8.87" height="3.487"/>
<rect x="91.305" y="49.832" fill="#E5E6E7" width="2.977" height="3.486"/>
<rect x="96.583" y="45.036" fill="#E5E6E7" width="8.87" height="3.486"/>
<rect x="96.583" y="49.832" fill="#E5E6E7" width="8.87" height="3.486"/>
<rect x="91.188" y="70.721" fill="#E5E6E7" width="14.265" height="2.012"/>
<rect x="91.188" y="74.456" fill="#E5E6E7" width="14.265" height="2.014"/>
<rect x="91.188" y="78.192" fill="#E5E6E7" width="14.265" height="2.013"/>
<rect x="91.188" y="81.786" fill="#E5E6E7" width="14.265" height="2.012"/>
<rect x="118.926" y="41.255" fill="#5C85B1" width="2.977" height="3.487"/>
<rect x="118.926" y="46.05" fill="#5C85B1" width="2.977" height="3.486"/>
<rect x="124.204" y="41.255" fill="#5C85B1" width="8.87" height="3.487"/>
<rect x="118.926" y="50.846" fill="#5C85B1" width="2.977" height="3.486"/>
<rect x="124.204" y="46.05" fill="#5C85B1" width="8.87" height="3.486"/>
<rect x="124.204" y="50.846" fill="#5C85B1" width="8.87" height="3.486"/>
<rect x="118.808" y="71.734" fill="#5C85B1" width="14.265" height="2.012"/>
<rect x="118.808" y="75.47" fill="#5C85B1" width="14.265" height="2.014"/>
<rect x="118.808" y="79.206" fill="#5C85B1" width="14.265" height="2.013"/>
<rect x="118.808" y="82.8" fill="#5C85B1" width="14.265" height="2.012"/>
<rect x="148.286" y="41.255" fill="#005BAA" width="2.977" height="3.487"/>
<rect x="148.286" y="46.05" fill="#005BAA" width="2.977" height="3.486"/>
<rect x="153.563" y="41.255" fill="#005BAA" width="8.87" height="3.487"/>
<rect x="148.286" y="50.846" fill="#005BAA" width="2.977" height="3.486"/>
<rect x="153.563" y="46.05" fill="#005BAA" width="8.87" height="3.486"/>
<rect x="153.563" y="50.846" fill="#005BAA" width="8.87" height="3.486"/>
<rect x="148.168" y="71.734" fill="#005BAA" width="14.265" height="2.012"/>
<rect x="148.168" y="75.47" fill="#005BAA" width="14.265" height="2.014"/>
<rect x="148.168" y="79.206" fill="#005BAA" width="14.265" height="2.013"/>
<rect x="148.168" y="82.8" fill="#005BAA" width="14.265" height="2.012"/>
</svg>
