<?xml version="1.0" encoding="utf-8"?>
<!-- Generator: Adobe Illustrator 15.0.2, SVG Export Plug-In  -->
<!DOCTYPE svg PUBLIC "-//W3C//DTD SVG 1.1//EN" "http://www.w3.org/Graphics/SVG/1.1/DTD/svg11.dtd" [
	<!ENTITY ns_flows "http://ns.adobe.com/Flows/1.0/">
]>
<svg version="1.1"
	 xmlns="http://www.w3.org/2000/svg" xmlns:xlink="http://www.w3.org/1999/xlink" xmlns:a="http://ns.adobe.com/AdobeSVGViewerExtensions/3.0/"
	 x="0px" y="0px" width="252px" height="666px" viewBox="-24.971 -13.069 252 666" enable-background="new -24.971 -13.069 252 666"
	 xml:space="preserve">
<defs>
</defs>
<text transform="matrix(1 0 0 1 182.2422 136.0942)" fill="#005BAA" font-family="'MyriadPro-BoldCond'" font-size="9.4451">JPG</text>
<text transform="matrix(1 0 0 1 182.2427 121.0308)" fill="#005BAA" font-family="'MyriadPro-BoldCond'" font-size="9.4451">XLS</text>
<text transform="matrix(1 0 0 1 182.2422 106.3325)" fill="#005BAA" font-family="'MyriadPro-BoldCond'" font-size="9.4451">DOC</text>
<text transform="matrix(1 0 0 1 182.2422 91.1479)" fill="#005BAA" font-family="'MyriadPro-BoldCond'" font-size="9.4451">PDF</text>
<text transform="matrix(1 0 0 1 150.2417 136.0942)" fill="#5C85B1" font-family="'MyriadPro-BoldCond'" font-size="9.4451">JPG</text>
<text transform="matrix(1 0 0 1 150.2422 121.0308)" fill="#5C85B1" font-family="'MyriadPro-BoldCond'" font-size="9.4451">XLS</text>
<text transform="matrix(1 0 0 1 150.2417 106.3325)" fill="#5C85B1" font-family="'MyriadPro-BoldCond'" font-size="9.4451">DOC</text>
<text transform="matrix(1 0 0 1 150.2417 91.1479)" fill="#5C85B1" font-family="'MyriadPro-BoldCond'" font-size="9.4451">PDF</text>
<text transform="matrix(1 0 0 1 119.2788 136.0942)" fill="#3E3E3F" font-family="'MyriadPro-BoldCond'" font-size="9.4451">JPG</text>
<text transform="matrix(1 0 0 1 119.2793 121.0308)" fill="#3E3E3F" font-family="'MyriadPro-BoldCond'" font-size="9.4451">XLS</text>
<text transform="matrix(1 0 0 1 119.2788 106.3325)" fill="#3E3E3F" font-family="'MyriadPro-BoldCond'" font-size="9.4451">DOC</text>
<text transform="matrix(1 0 0 1 119.2788 91.1479)" fill="#3E3E3F" font-family="'MyriadPro-BoldCond'" font-size="9.4451">PDF</text>
<path fill="#B0B0B0" d="M95.929,504.865v1.169c0,0.157-0.076,0.294-0.229,0.409c-0.151,0.117-0.331,0.174-0.54,0.174H78.248
	c-0.207,0-0.389-0.057-0.54-0.174c-0.151-0.115-0.229-0.252-0.229-0.409v-1.169c0-0.157,0.077-0.293,0.229-0.41
	c0.151-0.114,0.333-0.173,0.54-0.173H95.16c0.209,0,0.389,0.059,0.54,0.173C95.853,504.572,95.929,504.708,95.929,504.865z
	 M95.929,500.36v1.168c0,0.157-0.076,0.294-0.229,0.41c-0.151,0.116-0.331,0.174-0.54,0.174H78.248c-0.207,0-0.389-0.058-0.54-0.174
	s-0.229-0.253-0.229-0.41v-1.168c0-0.157,0.077-0.294,0.229-0.41c0.151-0.114,0.333-0.174,0.54-0.174H95.16
	c0.209,0,0.389,0.06,0.54,0.174C95.853,500.066,95.929,500.203,95.929,500.36z M95.929,496.233v1.169
	c0,0.157-0.076,0.295-0.229,0.41c-0.151,0.115-0.331,0.173-0.54,0.173H78.248c-0.207,0-0.389-0.058-0.54-0.173
	s-0.229-0.253-0.229-0.41v-1.169c0-0.157,0.077-0.294,0.229-0.409s0.333-0.174,0.54-0.174H95.16c0.209,0,0.389,0.059,0.54,0.174
	C95.853,495.939,95.929,496.076,95.929,496.233z M95.929,509.374v1.168c0,0.158-0.076,0.295-0.229,0.409
	c-0.151,0.117-0.331,0.174-0.54,0.174H78.248c-0.207,0-0.389-0.057-0.54-0.174c-0.151-0.114-0.229-0.251-0.229-0.409v-1.168
	c0-0.158,0.077-0.294,0.229-0.411c0.151-0.114,0.333-0.172,0.54-0.172H95.16c0.209,0,0.389,0.058,0.54,0.172
	C95.853,509.08,95.929,509.215,95.929,509.374z"/>
<path fill="#B0B0B0" d="M81.301,471.671v2.9c0,0.131-0.048,0.244-0.14,0.34c-0.094,0.098-0.205,0.145-0.334,0.145h-2.841
	c-0.128,0-0.238-0.047-0.332-0.145c-0.095-0.096-0.142-0.209-0.142-0.34v-2.9c0-0.131,0.047-0.245,0.142-0.34
	c0.094-0.096,0.204-0.144,0.332-0.144h2.841c0.129,0,0.24,0.048,0.334,0.144C81.253,471.426,81.301,471.541,81.301,471.671z
	 M81.301,465.869v2.9c0,0.132-0.048,0.246-0.14,0.341c-0.094,0.096-0.205,0.144-0.334,0.144h-2.841
	c-0.128,0-0.238-0.048-0.332-0.144c-0.095-0.095-0.142-0.209-0.142-0.341v-2.9c0-0.131,0.047-0.245,0.142-0.34
	c0.094-0.098,0.204-0.146,0.332-0.146h2.841c0.129,0,0.24,0.049,0.334,0.146C81.253,465.624,81.301,465.738,81.301,465.869z
	 M81.301,460.067v2.9c0,0.131-0.048,0.244-0.14,0.342c-0.094,0.094-0.205,0.142-0.334,0.142h-2.841
	c-0.128,0-0.238-0.048-0.332-0.142c-0.095-0.098-0.142-0.211-0.142-0.342v-2.9c0-0.133,0.047-0.246,0.142-0.341
	c0.094-0.097,0.204-0.145,0.332-0.145h2.841c0.129,0,0.24,0.048,0.334,0.145C81.253,459.821,81.301,459.934,81.301,460.067z
	 M95.894,471.671v2.9c0,0.131-0.028,0.244-0.086,0.34c-0.059,0.098-0.125,0.145-0.204,0.145H83.439
	c-0.079,0-0.146-0.047-0.203-0.145c-0.059-0.096-0.087-0.209-0.087-0.34v-2.9c0-0.131,0.028-0.245,0.087-0.34
	c0.057-0.096,0.124-0.144,0.203-0.144h12.165c0.079,0,0.146,0.048,0.204,0.144C95.866,471.426,95.894,471.541,95.894,471.671z
	 M95.894,465.869v2.9c0,0.132-0.028,0.246-0.086,0.341c-0.059,0.096-0.125,0.144-0.204,0.144H83.439
	c-0.079,0-0.146-0.048-0.203-0.144c-0.059-0.095-0.087-0.209-0.087-0.341v-2.9c0-0.131,0.028-0.245,0.087-0.34
	c0.057-0.098,0.124-0.146,0.203-0.146h12.165c0.079,0,0.146,0.049,0.204,0.146C95.866,465.624,95.894,465.738,95.894,465.869z
	 M95.894,460.067v2.9c0,0.131-0.028,0.244-0.086,0.342c-0.059,0.094-0.125,0.142-0.204,0.142H83.439
	c-0.079,0-0.146-0.048-0.203-0.142c-0.059-0.098-0.087-0.211-0.087-0.342v-2.9c0-0.133,0.028-0.246,0.087-0.341
	c0.057-0.097,0.124-0.145,0.203-0.145h12.165c0.079,0,0.146,0.048,0.204,0.145C95.866,459.821,95.894,459.934,95.894,460.067z"/>
<path fill="#FFFFFF" d="M60.074,504.865v1.169c0,0.157-0.076,0.294-0.229,0.409c-0.152,0.117-0.332,0.174-0.541,0.174H42.392
	c-0.207,0-0.388-0.057-0.539-0.174c-0.152-0.115-0.229-0.252-0.229-0.409v-1.169c0-0.157,0.076-0.293,0.229-0.41
	c0.151-0.114,0.332-0.173,0.539-0.173h16.912c0.209,0,0.389,0.059,0.541,0.173C59.998,504.572,60.074,504.708,60.074,504.865z
	 M60.074,500.36v1.168c0,0.157-0.076,0.294-0.229,0.41s-0.332,0.174-0.541,0.174H42.392c-0.207,0-0.388-0.058-0.539-0.174
	c-0.152-0.116-0.229-0.253-0.229-0.41v-1.168c0-0.157,0.076-0.294,0.229-0.41c0.151-0.114,0.332-0.174,0.539-0.174h16.912
	c0.209,0,0.389,0.06,0.541,0.174C59.998,500.066,60.074,500.203,60.074,500.36z M60.074,496.233v1.169
	c0,0.157-0.076,0.295-0.229,0.41s-0.332,0.173-0.541,0.173H42.392c-0.207,0-0.388-0.058-0.539-0.173
	c-0.152-0.115-0.229-0.253-0.229-0.41v-1.169c0-0.157,0.076-0.294,0.229-0.409c0.151-0.115,0.332-0.174,0.539-0.174h16.912
	c0.209,0,0.389,0.059,0.541,0.174S60.074,496.076,60.074,496.233z M60.074,509.374v1.168c0,0.158-0.076,0.295-0.229,0.409
	c-0.152,0.117-0.332,0.174-0.541,0.174H42.392c-0.207,0-0.388-0.057-0.539-0.174c-0.152-0.114-0.229-0.251-0.229-0.409v-1.168
	c0-0.158,0.076-0.294,0.229-0.411c0.151-0.114,0.332-0.172,0.539-0.172h16.912c0.209,0,0.389,0.058,0.541,0.172
	C59.998,509.08,60.074,509.215,60.074,509.374z"/>
<path fill="#FFFFFF" d="M45.447,471.671v2.9c0,0.131-0.048,0.244-0.141,0.34c-0.094,0.098-0.205,0.145-0.333,0.145h-2.841
	c-0.128,0-0.238-0.047-0.332-0.145c-0.095-0.096-0.142-0.209-0.142-0.34v-2.9c0-0.131,0.047-0.245,0.142-0.34
	c0.094-0.096,0.204-0.144,0.332-0.144h2.841c0.128,0,0.239,0.048,0.333,0.144C45.399,471.426,45.447,471.541,45.447,471.671z
	 M45.447,465.869v2.9c0,0.132-0.048,0.246-0.141,0.341c-0.094,0.096-0.205,0.144-0.333,0.144h-2.841
	c-0.128,0-0.238-0.048-0.332-0.144c-0.095-0.095-0.142-0.209-0.142-0.341v-2.9c0-0.131,0.047-0.245,0.142-0.34
	c0.094-0.098,0.204-0.146,0.332-0.146h2.841c0.128,0,0.239,0.049,0.333,0.146C45.399,465.624,45.447,465.738,45.447,465.869z
	 M45.447,460.067v2.9c0,0.131-0.048,0.244-0.141,0.342c-0.094,0.094-0.205,0.142-0.333,0.142h-2.841
	c-0.128,0-0.238-0.048-0.332-0.142c-0.095-0.098-0.142-0.211-0.142-0.342v-2.9c0-0.133,0.047-0.246,0.142-0.341
	c0.094-0.097,0.204-0.145,0.332-0.145h2.841c0.128,0,0.239,0.048,0.333,0.145C45.399,459.821,45.447,459.934,45.447,460.067z
	 M60.039,471.671v2.9c0,0.131-0.027,0.244-0.086,0.34c-0.057,0.098-0.125,0.145-0.203,0.145H47.583
	c-0.078,0-0.146-0.047-0.203-0.145c-0.058-0.096-0.086-0.209-0.086-0.34v-2.9c0-0.131,0.028-0.245,0.086-0.34
	c0.057-0.096,0.125-0.144,0.203-0.144H59.75c0.078,0,0.146,0.048,0.203,0.144C60.011,471.426,60.039,471.541,60.039,471.671z
	 M60.039,465.869v2.9c0,0.132-0.027,0.246-0.086,0.341c-0.057,0.096-0.125,0.144-0.203,0.144H47.583
	c-0.078,0-0.146-0.048-0.203-0.144c-0.058-0.095-0.086-0.209-0.086-0.341v-2.9c0-0.131,0.028-0.245,0.086-0.34
	c0.057-0.098,0.125-0.146,0.203-0.146H59.75c0.078,0,0.146,0.049,0.203,0.146C60.011,465.624,60.039,465.738,60.039,465.869z
	 M60.039,460.067v2.9c0,0.131-0.027,0.244-0.086,0.342c-0.057,0.094-0.125,0.142-0.203,0.142H47.583
	c-0.078,0-0.146-0.048-0.203-0.142c-0.058-0.098-0.086-0.211-0.086-0.342v-2.9c0-0.133,0.028-0.246,0.086-0.341
	c0.057-0.097,0.125-0.145,0.203-0.145H59.75c0.078,0,0.146,0.048,0.203,0.145C60.011,459.821,60.039,459.934,60.039,460.067z"/>
<path fill="#3E3E3F" d="M9.545,471.99v2.9c0,0.131-0.047,0.243-0.14,0.339c-0.094,0.098-0.205,0.146-0.334,0.146H6.231
	c-0.128,0-0.238-0.048-0.332-0.146c-0.094-0.096-0.141-0.208-0.141-0.339v-2.9c0-0.132,0.047-0.246,0.141-0.34
	c0.094-0.097,0.204-0.145,0.332-0.145h2.841c0.129,0,0.24,0.048,0.334,0.145C9.499,471.744,9.545,471.858,9.545,471.99z
	 M9.545,466.186v2.9c0,0.132-0.047,0.246-0.14,0.341c-0.094,0.097-0.205,0.144-0.334,0.144H6.231c-0.128,0-0.238-0.047-0.332-0.144
	c-0.094-0.095-0.141-0.209-0.141-0.341v-2.9c0-0.131,0.047-0.244,0.141-0.34c0.094-0.097,0.204-0.146,0.332-0.146h2.841
	c0.129,0,0.24,0.049,0.334,0.146C9.499,465.942,9.545,466.055,9.545,466.186z M9.545,460.384v2.9c0,0.131-0.047,0.244-0.14,0.342
	c-0.094,0.094-0.205,0.142-0.334,0.142H6.231c-0.128,0-0.238-0.048-0.332-0.142c-0.094-0.098-0.141-0.211-0.141-0.342v-2.9
	c0-0.132,0.047-0.246,0.141-0.341c0.094-0.097,0.204-0.144,0.332-0.144h2.841c0.129,0,0.24,0.047,0.334,0.144
	C9.499,460.138,9.545,460.252,9.545,460.384z M24.138,471.99v2.9c0,0.131-0.028,0.243-0.086,0.339
	c-0.058,0.098-0.125,0.146-0.203,0.146H11.683c-0.079,0-0.146-0.048-0.203-0.146c-0.059-0.096-0.087-0.208-0.087-0.339v-2.9
	c0-0.132,0.028-0.246,0.087-0.34c0.057-0.097,0.124-0.145,0.203-0.145h12.166c0.078,0,0.146,0.048,0.203,0.145
	C24.11,471.744,24.138,471.858,24.138,471.99z M24.138,466.186v2.9c0,0.132-0.028,0.246-0.086,0.341
	c-0.058,0.097-0.125,0.144-0.203,0.144H11.683c-0.079,0-0.146-0.047-0.203-0.144c-0.059-0.095-0.087-0.209-0.087-0.341v-2.9
	c0-0.131,0.028-0.244,0.087-0.34c0.057-0.097,0.124-0.146,0.203-0.146h12.166c0.078,0,0.146,0.049,0.203,0.146
	C24.11,465.942,24.138,466.055,24.138,466.186z M24.138,460.384v2.9c0,0.131-0.028,0.244-0.086,0.342
	c-0.058,0.094-0.125,0.142-0.203,0.142H11.683c-0.079,0-0.146-0.048-0.203-0.142c-0.059-0.098-0.087-0.211-0.087-0.342v-2.9
	c0-0.132,0.028-0.246,0.087-0.341c0.057-0.097,0.124-0.144,0.203-0.144h12.166c0.078,0,0.146,0.047,0.203,0.144
	C24.11,460.138,24.138,460.252,24.138,460.384z"/>
<path fill="#3E3E3F" d="M24.173,505.183v1.168c0,0.158-0.076,0.295-0.229,0.409c-0.152,0.117-0.332,0.174-0.541,0.174H6.492
	c-0.207,0-0.389-0.057-0.54-0.174c-0.151-0.114-0.229-0.251-0.229-0.409v-1.168c0-0.158,0.077-0.294,0.229-0.411
	c0.151-0.114,0.333-0.173,0.54-0.173h16.912c0.209,0,0.389,0.059,0.541,0.173C24.097,504.889,24.173,505.025,24.173,505.183z
	 M24.173,500.678v1.167c0,0.157-0.076,0.295-0.229,0.41c-0.152,0.116-0.332,0.174-0.541,0.174H6.492
	c-0.207,0-0.389-0.058-0.54-0.174c-0.151-0.115-0.229-0.253-0.229-0.41v-1.167c0-0.158,0.077-0.295,0.229-0.411
	c0.151-0.114,0.333-0.174,0.54-0.174h16.912c0.209,0,0.389,0.06,0.541,0.174C24.097,500.383,24.173,500.52,24.173,500.678z
	 M24.173,496.551v1.168c0,0.158-0.076,0.295-0.229,0.411c-0.152,0.114-0.332,0.172-0.541,0.172H6.492
	c-0.207,0-0.389-0.058-0.54-0.172c-0.151-0.116-0.229-0.253-0.229-0.411v-1.168c0-0.158,0.077-0.295,0.229-0.409
	c0.151-0.116,0.333-0.174,0.54-0.174h16.912c0.209,0,0.389,0.058,0.541,0.174C24.097,496.256,24.173,496.393,24.173,496.551z
	 M24.173,509.691v1.168c0,0.158-0.076,0.295-0.229,0.41c-0.152,0.116-0.332,0.174-0.541,0.174H6.492
	c-0.207,0-0.389-0.058-0.54-0.174c-0.151-0.115-0.229-0.252-0.229-0.41v-1.168c0-0.158,0.077-0.293,0.229-0.41
	c0.151-0.115,0.333-0.173,0.54-0.173h16.912c0.209,0,0.389,0.058,0.541,0.173C24.097,509.398,24.173,509.533,24.173,509.691z"/>
<path fill="#3E3E3F" d="M12.959,133.827c0,0.26-0.092,0.48-0.275,0.664l-1.329,1.33c-0.183,0.181-0.403,0.273-0.665,0.273
	s-0.482-0.093-0.664-0.273l-2.875-2.876l-2.875,2.876c-0.182,0.181-0.403,0.273-0.664,0.273s-0.482-0.093-0.664-0.273l-1.329-1.33
	c-0.182-0.184-0.274-0.404-0.274-0.664c0-0.261,0.092-0.483,0.274-0.666l2.874-2.872l-2.874-2.874
	c-0.182-0.184-0.274-0.404-0.274-0.665s0.092-0.482,0.274-0.663l1.329-1.332c0.182-0.183,0.403-0.274,0.664-0.274
	s0.482,0.092,0.664,0.274l2.875,2.874l2.875-2.874c0.181-0.183,0.402-0.274,0.664-0.274s0.482,0.092,0.665,0.274l1.329,1.332
	c0.183,0.181,0.275,0.402,0.275,0.663s-0.092,0.481-0.275,0.665l-2.873,2.874l2.873,2.872
	C12.867,133.343,12.959,133.566,12.959,133.827z"/>
<path d="M0.677,5.369c0-0.157,0.058-0.292,0.171-0.403l4.033-4.034C4.996,0.816,5.13,0.76,5.287,0.76s0.291,0.056,0.405,0.171
	l4.034,4.034c0.114,0.111,0.171,0.246,0.171,0.403c0,0.157-0.058,0.293-0.171,0.405C9.612,5.89,9.478,5.946,9.321,5.946H1.253
	c-0.157,0-0.292-0.056-0.405-0.172C0.735,5.663,0.677,5.526,0.677,5.369z"/>
<path fill="#FFFFFF" d="M31.55,5.243c0-0.157,0.058-0.292,0.172-0.403l4.033-4.034c0.114-0.116,0.249-0.171,0.405-0.171
	s0.291,0.056,0.405,0.171l4.033,4.034c0.114,0.112,0.171,0.246,0.171,0.403s-0.057,0.293-0.171,0.406
	c-0.113,0.115-0.248,0.171-0.404,0.171h-8.067c-0.157,0-0.292-0.056-0.405-0.171C31.608,5.536,31.55,5.4,31.55,5.243z"/>
<path fill="#B0B0B0" d="M64.272,5.242c0-0.157,0.057-0.292,0.171-0.403l4.033-4.035c0.114-0.116,0.249-0.171,0.406-0.171
	c0.156,0,0.291,0.056,0.404,0.171l4.034,4.035c0.113,0.111,0.17,0.246,0.17,0.403s-0.057,0.293-0.17,0.405
	c-0.114,0.116-0.249,0.171-0.405,0.171h-8.067c-0.157,0-0.292-0.056-0.405-0.171C64.329,5.536,64.272,5.399,64.272,5.242z"/>
<path fill="#B0B0B0" d="M73.491,21.91c0,0.157-0.057,0.292-0.171,0.403l-4.033,4.034c-0.114,0.116-0.249,0.172-0.405,0.172
	c-0.156,0-0.291-0.056-0.405-0.172l-4.034-4.034c-0.114-0.112-0.171-0.246-0.171-0.403s0.057-0.293,0.171-0.405
	c0.114-0.116,0.248-0.171,0.405-0.171h8.067c0.157,0,0.292,0.056,0.405,0.171C73.434,21.617,73.491,21.753,73.491,21.91z"/>
<path fill="#FFFFFF" d="M40.77,21.91c0,0.157-0.057,0.292-0.172,0.403l-4.033,4.034c-0.114,0.116-0.249,0.172-0.405,0.172
	s-0.291-0.056-0.405-0.172l-4.034-4.034c-0.114-0.112-0.171-0.246-0.171-0.403s0.058-0.293,0.171-0.405
	c0.114-0.116,0.248-0.171,0.405-0.171h8.067c0.157,0,0.292,0.056,0.404,0.171C40.713,21.617,40.77,21.753,40.77,21.91z"/>
<path d="M9.897,22.252c0,0.157-0.058,0.293-0.172,0.404l-4.033,4.034c-0.114,0.116-0.249,0.172-0.405,0.172
	c-0.157,0-0.291-0.056-0.405-0.172l-4.033-4.034c-0.114-0.111-0.171-0.247-0.171-0.404c0-0.156,0.058-0.292,0.171-0.404
	c0.113-0.116,0.248-0.172,0.404-0.172H9.32c0.157,0,0.292,0.056,0.405,0.172C9.839,21.96,9.897,22.096,9.897,22.252z"/>
<path fill="#3E3E3F" d="M14.89,229.868c0,0.582-0.47,1.052-1.053,1.052H3.307c-0.581,0-1.053-0.47-1.053-1.052
	c0-2.108,2.034-4.071,4.116-4.851c-1.202-0.743-2.01-2.06-2.01-3.575v-1.052c0-2.33,1.886-4.213,4.213-4.213
	c2.325,0,4.211,1.883,4.211,4.213v1.052c0,1.516-0.807,2.832-2.009,3.575C12.855,225.796,14.89,227.759,14.89,229.868z"/>
<path fill="#3E3E3F" d="M157.715,553.542c0,1.205-0.974,2.176-2.179,2.176H133.75c-1.203,0-2.179-0.971-2.179-2.176
	c0-4.36,4.21-8.422,8.515-10.032c-2.484-1.539-4.157-4.265-4.157-7.4v-2.175c0-4.819,3.899-8.72,8.715-8.72
	c4.813,0,8.714,3.9,8.714,8.72v2.175c0,3.136-1.673,5.861-4.157,7.4C153.504,545.121,157.715,549.182,157.715,553.542z"/>
<path fill="#3E3E3F" d="M34.629,551.762c0,0.633-0.221,1.167-0.662,1.613l-1.917,1.933c-0.467,0.441-1.01,0.663-1.629,0.663
	c-0.635,0-1.171-0.222-1.612-0.663l-6.502-6.521c-0.455-0.428-0.682-0.968-0.682-1.612c0-0.633,0.258-1.206,0.77-1.719l-4.584-4.586
	l-2.257,2.256c-0.168,0.167-0.372,0.252-0.609,0.252c-0.239,0-0.443-0.085-0.609-0.252c0.024,0.024,0.099,0.096,0.223,0.218
	c0.125,0.118,0.202,0.195,0.226,0.232c0.023,0.034,0.081,0.102,0.178,0.207c0.095,0.099,0.156,0.18,0.178,0.239
	c0.026,0.061,0.062,0.141,0.109,0.239c0.047,0.105,0.082,0.202,0.098,0.297c0.017,0.097,0.027,0.205,0.027,0.324
	c0,0.453-0.168,0.858-0.502,1.218c-0.036,0.034-0.134,0.143-0.295,0.322c-0.16,0.181-0.275,0.303-0.341,0.367
	c-0.064,0.065-0.175,0.164-0.331,0.297c-0.156,0.131-0.287,0.222-0.394,0.276c-0.108,0.056-0.239,0.106-0.395,0.161
	c-0.154,0.055-0.309,0.081-0.465,0.081c-0.477,0-0.884-0.168-1.217-0.504l-7.31-7.306c-0.336-0.333-0.502-0.74-0.502-1.221
	c0-0.152,0.027-0.309,0.082-0.465c0.054-0.152,0.107-0.284,0.161-0.394c0.054-0.104,0.147-0.239,0.278-0.394
	c0.131-0.157,0.229-0.267,0.295-0.331c0.064-0.065,0.188-0.182,0.368-0.341c0.178-0.161,0.285-0.258,0.321-0.297
	c0.358-0.332,0.765-0.499,1.22-0.499c0.119,0,0.226,0.007,0.322,0.025c0.095,0.021,0.193,0.051,0.293,0.099
	c0.102,0.049,0.182,0.085,0.243,0.108c0.058,0.025,0.139,0.082,0.241,0.18c0.102,0.096,0.171,0.153,0.207,0.177
	c0.036,0.025,0.114,0.097,0.232,0.226c0.121,0.124,0.19,0.2,0.215,0.225c-0.166-0.17-0.251-0.37-0.251-0.609
	s0.085-0.441,0.251-0.609l6.234-6.233c0.167-0.167,0.37-0.252,0.609-0.252c0.237,0,0.441,0.085,0.609,0.252
	c-0.025-0.024-0.1-0.097-0.224-0.216c-0.126-0.119-0.2-0.197-0.224-0.23c-0.025-0.039-0.085-0.107-0.18-0.209
	c-0.095-0.102-0.155-0.182-0.18-0.241c-0.023-0.06-0.059-0.141-0.108-0.242c-0.047-0.101-0.08-0.2-0.097-0.296
	c-0.019-0.095-0.027-0.203-0.027-0.322c0-0.451,0.168-0.86,0.502-1.217c0.036-0.035,0.134-0.144,0.293-0.322
	c0.163-0.18,0.275-0.302,0.343-0.366c0.064-0.066,0.176-0.164,0.329-0.295c0.156-0.135,0.289-0.226,0.397-0.278
	c0.105-0.053,0.238-0.108,0.394-0.161c0.153-0.055,0.309-0.083,0.465-0.083c0.477,0,0.883,0.169,1.219,0.502l7.308,7.308
	c0.334,0.336,0.5,0.74,0.5,1.221c0,0.154-0.027,0.307-0.081,0.465c-0.051,0.154-0.105,0.288-0.16,0.392
	c-0.054,0.108-0.146,0.242-0.278,0.396c-0.132,0.154-0.231,0.268-0.295,0.332s-0.188,0.177-0.366,0.338
	c-0.18,0.161-0.287,0.263-0.322,0.297c-0.36,0.336-0.764,0.504-1.218,0.504c-0.121,0-0.228-0.01-0.323-0.027
	c-0.097-0.019-0.193-0.054-0.295-0.1c-0.102-0.05-0.184-0.083-0.243-0.107c-0.06-0.023-0.141-0.084-0.243-0.18
	c-0.102-0.095-0.168-0.154-0.206-0.178c-0.036-0.025-0.113-0.101-0.232-0.223c-0.119-0.129-0.19-0.202-0.214-0.226
	c0.165,0.168,0.248,0.37,0.248,0.609s-0.083,0.439-0.248,0.609l-2.26,2.256l4.588,4.587c0.513-0.516,1.086-0.772,1.717-0.772
	c0.623,0,1.167,0.223,1.632,0.662l6.502,6.502C34.409,550.596,34.629,551.141,34.629,551.762z"/>
<path fill="#3E3E3F" d="M32.718,635.628c0.215,0.21,0.288,0.39,0.22,0.53c-0.068,0.149-0.248,0.223-0.54,0.223H7.62
	c-0.29,0-0.468-0.073-0.536-0.223c-0.07-0.141,0.005-0.32,0.219-0.53l11.95-11.961c0.102-0.097,0.209-0.166,0.321-0.212H8.159
	c-0.29,0-0.545-0.108-0.757-0.319c-0.214-0.221-0.319-0.468-0.319-0.76v-2.153c0-0.292,0.105-0.545,0.319-0.759
	c0.212-0.212,0.467-0.32,0.757-0.32h23.7c0.292,0,0.545,0.108,0.759,0.32c0.213,0.214,0.32,0.467,0.32,0.759v2.153
	c0,0.292-0.107,0.539-0.32,0.76c-0.214,0.211-0.467,0.319-0.759,0.319H20.451c0.122,0.046,0.227,0.115,0.315,0.212L32.718,635.628z"
	/>
<path fill="#3E3E3F" d="M67.455,553.042h4.715v-4.715h-4.715V553.042z M73.217,553.042h5.24v-4.715h-5.24V553.042z M67.455,547.277
	h4.715v-5.237h-4.715V547.277z M73.217,547.277h5.24v-5.237h-5.24V547.277z M67.455,540.989h4.715v-4.712h-4.715V540.989z
	 M79.505,553.042h5.24v-4.715h-5.24V553.042z M73.217,540.989h5.24v-4.712h-5.24V540.989z M85.792,553.042h4.715v-4.715h-4.715
	V553.042z M79.505,547.277h5.24v-5.237h-5.24V547.277z M73.743,533.133v-4.716c0-0.141-0.054-0.265-0.156-0.368
	c-0.104-0.105-0.228-0.156-0.37-0.156H72.17c-0.143,0-0.263,0.051-0.368,0.156c-0.105,0.104-0.156,0.228-0.156,0.368v4.716
	c0,0.141,0.051,0.263,0.156,0.366c0.105,0.106,0.226,0.156,0.368,0.156h1.047c0.143,0,0.267-0.05,0.37-0.156
	C73.689,533.396,73.743,533.274,73.743,533.133z M85.792,547.277h4.715v-5.237h-4.715V547.277z M79.505,540.989h5.24v-4.712h-5.24
	V540.989z M85.792,540.989h4.715v-4.712h-4.715V540.989z M86.316,533.133v-4.716c0-0.141-0.051-0.265-0.156-0.368
	c-0.104-0.105-0.227-0.156-0.368-0.156h-1.047c-0.143,0-0.265,0.051-0.37,0.156c-0.104,0.104-0.155,0.228-0.155,0.368v4.716
	c0,0.141,0.051,0.263,0.155,0.366c0.105,0.106,0.227,0.156,0.37,0.156h1.047c0.141,0,0.265-0.05,0.368-0.156
	C86.266,533.396,86.316,533.274,86.316,533.133z M92.603,532.084v20.958c0,0.568-0.207,1.06-0.623,1.475
	c-0.414,0.412-0.904,0.619-1.473,0.619H67.455c-0.568,0-1.059-0.207-1.475-0.619c-0.416-0.415-0.621-0.906-0.621-1.475v-20.958
	c0-0.566,0.206-1.058,0.621-1.473c0.416-0.416,0.906-0.623,1.475-0.623h2.096v-1.571c0-0.721,0.256-1.335,0.769-1.851
	c0.512-0.513,1.13-0.77,1.851-0.77h1.047c0.719,0,1.337,0.257,1.851,0.77c0.513,0.516,0.769,1.13,0.769,1.851v1.571h6.287v-1.571
	c0-0.721,0.256-1.335,0.771-1.851c0.514-0.513,1.13-0.77,1.851-0.77h1.047c0.721,0,1.337,0.257,1.851,0.77
	c0.513,0.516,0.767,1.13,0.767,1.851v1.571h2.097c0.568,0,1.059,0.207,1.473,0.623C92.396,531.027,92.603,531.518,92.603,532.084z"
	/>
<path fill="#3E3E3F" d="M215.791,550.785h-2.176v2.177c0,1.205-0.973,2.175-2.178,2.175c-1.203,0-2.176-0.97-2.176-2.175v-2.177
	h-2.176c-1.205,0-2.178-0.973-2.178-2.176c0-1.204,0.973-2.179,2.178-2.179h2.176v-2.175c0-1.203,0.973-2.179,2.176-2.179
	c1.205,0,2.178,0.976,2.178,2.179v2.175h2.176c1.203,0,2.176,0.975,2.176,2.179C217.966,549.812,216.994,550.785,215.791,550.785z
	 M205.214,542.385c-2.691,0.806-4.66,3.271-4.66,6.224c0,2.841,1.824,5.231,4.354,6.126v0.401h-15.236
	c-1.199,0-2.175-0.97-2.175-2.175c0-4.353,4.207-8.414,8.507-10.021c-2.484-1.537-4.154-4.262-4.154-7.393v-2.175
	c0-4.811,3.896-8.708,8.705-8.708s8.707,3.897,8.707,8.708v2.175c0,1.015-0.227,1.956-0.549,2.86
	C207.056,539.196,205.751,540.599,205.214,542.385z"/>
<path fill="#3E3E3F" d="M12.116,306.513v-1.934c2.138-0.762,3.681-2.783,3.681-5.183c0-2.4-1.542-4.427-3.681-5.187v-1.936
	c3.173,0.816,5.521,3.689,5.521,7.122C17.637,302.826,15.289,305.698,12.116,306.513z M5.672,303.076
	c-1.523,0-2.761-1.234-2.761-2.76v-1.841c0-1.523,1.238-2.761,2.761-2.761h0.922l4.6-3.683v14.725l-4.6-3.681H5.672z M9.355,303.076
	v-2.76v-1.841v-2.761l-1.842,1.84H5.672c-0.508,0-0.919,0.413-0.919,0.921v1.841c0,0.507,0.412,0.921,0.919,0.921h1.842
	L9.355,303.076z M14.875,299.397c0,1.711-1.174,3.139-2.76,3.547v-1.962c0.547-0.321,0.92-0.907,0.92-1.585
	c0-0.681-0.373-1.269-0.92-1.589v-1.962C13.701,296.255,14.875,297.68,14.875,299.397z"/>
<path fill="#3E3E3F" d="M11.471,336.614c-5.758,0-8.523-7.457-8.523-7.457s2.765-7.458,8.523-7.458c5.76,0,8.523,7.458,8.523,7.458
	S17.231,336.614,11.471,336.614z M11.471,323.83c-2.942,0-5.326,2.385-5.326,5.327c0,2.941,2.384,5.326,5.326,5.326
	c2.943,0,5.328-2.385,5.328-5.326C16.799,326.214,14.414,323.83,11.471,323.83z M11.471,332.352c-1.766,0-3.195-1.432-3.195-3.195
	c0-0.376,0.078-0.731,0.196-1.066h1.935v-1.934c0.333-0.123,0.69-0.196,1.065-0.196c1.767,0,3.197,1.432,3.197,3.196
	C14.668,330.92,13.238,332.352,11.471,332.352z"/>
<path fill="#FFFFFF" d="M49.569,133.827c0,0.26-0.092,0.48-0.275,0.664l-1.329,1.33c-0.183,0.181-0.403,0.273-0.665,0.273
	s-0.482-0.093-0.664-0.273l-2.875-2.876l-2.875,2.876c-0.182,0.181-0.403,0.273-0.664,0.273s-0.482-0.093-0.664-0.273l-1.33-1.33
	c-0.182-0.184-0.274-0.404-0.274-0.664c0-0.261,0.092-0.483,0.274-0.666l2.874-2.872l-2.874-2.874
	c-0.182-0.184-0.274-0.404-0.274-0.665s0.092-0.482,0.274-0.663l1.33-1.332c0.182-0.183,0.403-0.274,0.664-0.274
	s0.482,0.092,0.664,0.274l2.875,2.874l2.875-2.874c0.181-0.183,0.402-0.274,0.664-0.274s0.482,0.092,0.665,0.274l1.329,1.332
	c0.183,0.181,0.275,0.402,0.275,0.663s-0.092,0.481-0.275,0.665l-2.873,2.874l2.873,2.872
	C49.477,133.343,49.569,133.566,49.569,133.827z"/>
<path fill="#B0B0B0" d="M94.151,133.827c0,0.26-0.092,0.48-0.275,0.664l-1.328,1.33c-0.183,0.181-0.404,0.273-0.666,0.273
	s-0.481-0.093-0.664-0.273l-2.875-2.876l-2.875,2.876c-0.182,0.181-0.403,0.273-0.664,0.273s-0.482-0.093-0.665-0.273l-1.329-1.33
	c-0.181-0.184-0.273-0.404-0.273-0.664c0-0.261,0.092-0.483,0.273-0.666l2.874-2.872l-2.874-2.874
	c-0.181-0.184-0.273-0.404-0.273-0.665s0.092-0.482,0.273-0.663l1.329-1.332c0.183-0.183,0.404-0.274,0.665-0.274
	s0.482,0.092,0.664,0.274l2.875,2.874l2.875-2.874c0.182-0.183,0.402-0.274,0.664-0.274s0.482,0.092,0.666,0.274l1.328,1.332
	c0.183,0.181,0.275,0.402,0.275,0.663s-0.092,0.481-0.275,0.665l-2.872,2.874l2.872,2.872
	C94.059,133.343,94.151,133.566,94.151,133.827z"/>
<path fill="#B0B0B0" d="M94.5,229.271c0,0.582-0.47,1.052-1.053,1.052h-10.53c-0.581,0-1.053-0.47-1.053-1.052
	c0-2.109,2.034-4.071,4.116-4.851c-1.202-0.743-2.011-2.06-2.011-3.575v-1.053c0-2.328,1.886-4.214,4.213-4.214
	c2.325,0,4.211,1.886,4.211,4.214v1.053c0,1.516-0.807,2.832-2.009,3.575C92.465,225.2,94.5,227.162,94.5,229.271z"/>
<path fill="#5C85B1" d="M150.422,229.071c0,0.583-0.469,1.054-1.051,1.054h-10.532c-0.579,0-1.05-0.471-1.05-1.054
	c0-2.106,2.034-4.07,4.114-4.85c-1.203-0.742-2.009-2.06-2.009-3.574v-1.053c0-2.328,1.885-4.214,4.212-4.214
	c2.326,0,4.212,1.886,4.212,4.214v1.053c0,1.515-0.808,2.832-2.009,3.574C148.389,225,150.422,226.964,150.422,229.071z"/>
<path fill="#005BAA" d="M200.322,229.112c0,0.583-0.473,1.052-1.055,1.052h-10.529c-0.583,0-1.054-0.469-1.054-1.052
	c0-2.108,2.035-4.071,4.117-4.848c-1.202-0.744-2.013-2.063-2.013-3.577v-1.052c0-2.328,1.887-4.214,4.214-4.214
	c2.325,0,4.213,1.886,4.213,4.214v1.052c0,1.515-0.809,2.833-2.011,3.577C198.286,225.041,200.322,227.003,200.322,229.112z"/>
<path fill="#B0B0B0" d="M89.465,635.628c0.214,0.21,0.289,0.39,0.221,0.53c-0.068,0.149-0.248,0.223-0.54,0.223h-24.78
	c-0.29,0-0.468-0.073-0.536-0.223c-0.07-0.141,0.005-0.32,0.219-0.53l11.95-11.961c0.102-0.097,0.209-0.166,0.321-0.212H64.906
	c-0.29,0-0.544-0.108-0.757-0.319c-0.214-0.221-0.319-0.468-0.319-0.76v-2.153c0-0.292,0.105-0.545,0.319-0.759
	c0.212-0.212,0.467-0.32,0.757-0.32h23.701c0.292,0,0.544,0.108,0.758,0.32c0.214,0.214,0.321,0.467,0.321,0.759v2.153
	c0,0.292-0.107,0.539-0.321,0.76c-0.214,0.211-0.467,0.319-0.758,0.319H77.197c0.122,0.046,0.227,0.115,0.315,0.212L89.465,635.628z
	"/>
<path fill="#5C85B1" d="M155.685,635.628c0.215,0.21,0.287,0.39,0.221,0.53c-0.07,0.149-0.248,0.223-0.54,0.223h-24.78
	c-0.29,0-0.47-0.073-0.538-0.223c-0.068-0.141,0.006-0.32,0.22-0.53l11.951-11.961c0.1-0.097,0.208-0.166,0.32-0.212h-11.416
	c-0.289,0-0.543-0.108-0.755-0.319c-0.214-0.221-0.32-0.468-0.32-0.76v-2.153c0-0.292,0.106-0.545,0.32-0.759
	c0.212-0.212,0.467-0.32,0.755-0.32h23.7c0.293,0,0.546,0.108,0.76,0.32c0.214,0.214,0.321,0.467,0.321,0.759v2.153
	c0,0.292-0.107,0.539-0.321,0.76c-0.214,0.211-0.467,0.319-0.76,0.319h-11.409c0.124,0.046,0.229,0.115,0.316,0.212L155.685,635.628
	z"/>
<path fill="#B0B0B0" d="M92.569,305.704v-1.936c2.139-0.762,3.679-2.783,3.679-5.183c0-2.4-1.54-4.424-3.679-5.187v-1.937
	c3.173,0.817,5.521,3.69,5.521,7.123C98.089,302.014,95.742,304.886,92.569,305.704z M86.126,302.263
	c-1.525,0-2.761-1.233-2.761-2.759v-1.841c0-1.523,1.236-2.76,2.761-2.76h0.921l4.601-3.683v14.726l-4.601-3.684H86.126z
	 M89.807,302.263v-2.759v-1.841v-2.76l-1.839,1.839h-1.842c-0.509,0-0.919,0.412-0.919,0.921v1.841c0,0.508,0.41,0.923,0.919,0.923
	h1.842L89.807,302.263z M95.328,298.585c0,1.71-1.175,3.139-2.759,3.547v-1.963c0.548-0.32,0.918-0.906,0.918-1.584
	c0-0.681-0.37-1.269-0.918-1.588v-1.964C94.153,295.444,95.328,296.869,95.328,298.585z"/>
<path fill="#005BAA" d="M194.971,304.949v-1.936c2.139-0.76,3.68-2.783,3.68-5.184s-1.541-4.424-3.68-5.186v-1.934
	c3.173,0.814,5.521,3.688,5.521,7.119C200.493,301.259,198.144,304.131,194.971,304.949z M188.527,301.509
	c-1.524,0-2.76-1.235-2.76-2.761v-1.841c0-1.523,1.236-2.76,2.76-2.76h0.921l4.602-3.682v14.725l-4.602-3.682H188.527z
	 M192.209,301.509v-2.761v-1.841v-2.76l-1.841,1.839h-1.842c-0.507,0-0.919,0.414-0.919,0.921v1.841
	c0,0.509,0.412,0.923,0.919,0.923h1.842L192.209,301.509z M197.73,297.83c0,1.713-1.174,3.139-2.759,3.548v-1.963
	c0.548-0.32,0.918-0.907,0.918-1.585c0-0.681-0.37-1.268-0.918-1.588v-1.961C196.556,294.688,197.73,296.115,197.73,297.83z"/>
<path fill="#B0B0B0" d="M90.415,335.917c-5.757,0-8.521-7.457-8.521-7.457s2.764-7.457,8.521-7.457c5.762,0,8.525,7.457,8.525,7.457
	S96.177,335.917,90.415,335.917z M90.415,323.134c-2.941,0-5.325,2.384-5.325,5.326s2.384,5.326,5.325,5.326
	c2.944,0,5.328-2.384,5.328-5.326S93.359,323.134,90.415,323.134z M90.415,331.656c-1.764,0-3.195-1.432-3.195-3.195
	c0-0.376,0.077-0.731,0.197-1.066h1.935v-1.934c0.333-0.122,0.688-0.195,1.063-0.195c1.768,0,3.198,1.432,3.198,3.195
	S92.183,331.656,90.415,331.656z"/>
<path fill="#005BAA" d="M193.978,335.222c-5.759,0-8.523-7.457-8.523-7.457s2.764-7.459,8.523-7.459
	c5.761,0,8.524,7.459,8.524,7.459S199.739,335.222,193.978,335.222z M193.978,322.436c-2.941,0-5.326,2.386-5.326,5.329
	c0,2.94,2.385,5.325,5.326,5.325c2.943,0,5.328-2.385,5.328-5.325C199.306,324.822,196.921,322.436,193.978,322.436z
	 M193.978,330.959c-1.765,0-3.195-1.433-3.195-3.194c0-0.377,0.076-0.731,0.196-1.067h1.935v-1.935
	c0.334-0.121,0.689-0.196,1.064-0.196c1.767,0,3.198,1.434,3.198,3.198C197.176,329.527,195.745,330.959,193.978,330.959z"/>
<path fill="#5C85B1" d="M144.722,305.007v-1.934c2.137-0.763,3.678-2.784,3.678-5.186c0-2.4-1.541-4.424-3.678-5.186v-1.935
	c3.173,0.816,5.52,3.69,5.52,7.12C150.242,301.32,147.895,304.191,144.722,305.007z M138.277,301.569
	c-1.524,0-2.761-1.237-2.761-2.763v-1.838c0-1.525,1.237-2.76,2.761-2.76h0.921l4.602-3.683v14.724l-4.602-3.681H138.277z
	 M141.959,301.569v-2.763v-1.838v-2.76l-1.84,1.836h-1.842c-0.507,0-0.919,0.414-0.919,0.924v1.838c0,0.511,0.412,0.924,0.919,0.924
	h1.842L141.959,301.569z M147.479,297.888c0,1.713-1.173,3.138-2.757,3.549v-1.964c0.547-0.319,0.917-0.907,0.917-1.585
	c0-0.679-0.37-1.267-0.917-1.586v-1.964C146.306,294.749,147.479,296.174,147.479,297.888z"/>
<path fill="#5C85B1" d="M143.728,335.28c-5.759,0-8.523-7.457-8.523-7.457s2.764-7.457,8.523-7.457c5.76,0,8.524,7.457,8.524,7.457
	S149.488,335.28,143.728,335.28z M143.728,322.496c-2.942,0-5.326,2.385-5.326,5.327c0,2.943,2.384,5.327,5.326,5.327
	c2.942,0,5.327-2.384,5.327-5.327C149.055,324.88,146.67,322.496,143.728,322.496z M143.728,331.019
	c-1.766,0-3.195-1.433-3.195-3.196c0-0.375,0.076-0.731,0.196-1.065h1.935v-1.934c0.333-0.122,0.689-0.197,1.064-0.197
	c1.767,0,3.198,1.434,3.198,3.196C146.926,329.586,145.495,331.019,143.728,331.019z"/>
<path d="M10.851,65.814c-0.269,0-0.499-0.099-0.69-0.296l-6.925-6.923c-0.2-0.197-0.296-0.427-0.296-0.696s0.096-0.498,0.296-0.693
	l6.925-6.926c0.191-0.194,0.421-0.293,0.69-0.293c0.27,0,0.505,0.099,0.697,0.293c0.197,0.196,0.293,0.428,0.293,0.695v13.849
	c0,0.27-0.096,0.5-0.293,0.694C11.356,65.715,11.12,65.814,10.851,65.814z"/>
<path fill="#FFFFFF" d="M43.924,63.772c-0.269,0-0.499-0.099-0.69-0.297l-6.925-6.922c-0.2-0.197-0.296-0.428-0.296-0.696
	c0-0.27,0.096-0.498,0.296-0.694l6.925-6.925c0.191-0.194,0.421-0.293,0.69-0.293s0.505,0.099,0.697,0.293
	c0.197,0.196,0.293,0.428,0.293,0.695v13.849c0,0.27-0.096,0.499-0.293,0.693C44.429,63.673,44.193,63.772,43.924,63.772z"/>
<path fill="#B0B0B0" d="M80.612,63.772c-0.269,0-0.5-0.099-0.691-0.297l-6.925-6.922c-0.2-0.197-0.296-0.428-0.296-0.696
	c0-0.27,0.096-0.498,0.296-0.694l6.925-6.925c0.191-0.194,0.422-0.293,0.691-0.293s0.505,0.099,0.697,0.293
	c0.197,0.196,0.293,0.428,0.293,0.695v13.849c0,0.27-0.096,0.499-0.293,0.693C81.118,63.673,80.881,63.772,80.612,63.772z"/>
<path d="M3.97,81.406c0.269,0,0.5,0.099,0.691,0.296l6.925,6.922c0.2,0.197,0.296,0.428,0.296,0.697
	c0,0.269-0.096,0.497-0.296,0.693l-6.925,6.925c-0.191,0.194-0.422,0.293-0.691,0.293s-0.505-0.099-0.697-0.293
	c-0.197-0.195-0.293-0.428-0.293-0.695V82.395c0-0.269,0.096-0.499,0.293-0.693C3.464,81.504,3.701,81.406,3.97,81.406z"/>
<path fill="#FFFFFF" d="M45.944,81.406c0.269,0,0.5,0.099,0.691,0.296l6.925,6.922c0.2,0.197,0.296,0.428,0.296,0.697
	c0,0.269-0.096,0.497-0.296,0.693l-6.925,6.925c-0.191,0.194-0.422,0.293-0.691,0.293s-0.505-0.099-0.697-0.293
	c-0.197-0.195-0.293-0.428-0.293-0.695V82.395c0-0.269,0.096-0.499,0.293-0.693C45.439,81.504,45.675,81.406,45.944,81.406z"/>
<path fill="#B0B0B0" d="M76.374,81.406c0.269,0,0.5,0.099,0.691,0.296l6.925,6.922c0.2,0.197,0.296,0.428,0.296,0.697
	c0,0.269-0.096,0.497-0.296,0.693l-6.925,6.925c-0.191,0.194-0.422,0.293-0.691,0.293s-0.505-0.099-0.697-0.293
	c-0.197-0.195-0.293-0.428-0.293-0.695V82.395c0-0.269,0.096-0.499,0.293-0.693C75.869,81.504,76.105,81.406,76.374,81.406z"/>
<path fill="#3E3E3F" d="M133.531,53.99c0,0.285-0.102,0.529-0.303,0.73l-1.465,1.468c-0.202,0.199-0.445,0.301-0.733,0.301
	c-0.289,0-0.532-0.102-0.732-0.301l-3.17-3.172l-3.169,3.172c-0.2,0.199-0.445,0.301-0.732,0.301s-0.531-0.102-0.732-0.301
	l-1.466-1.468c-0.2-0.201-0.302-0.445-0.302-0.73c0-0.289,0.102-0.534,0.302-0.735l3.169-3.166l-3.169-3.171
	c-0.2-0.201-0.302-0.445-0.302-0.733c0-0.287,0.102-0.53,0.302-0.73l1.466-1.47c0.201-0.199,0.445-0.302,0.732-0.302
	s0.532,0.103,0.732,0.302l3.169,3.171l3.17-3.171c0.2-0.199,0.443-0.302,0.732-0.302c0.288,0,0.531,0.103,0.733,0.302l1.465,1.47
	c0.201,0.2,0.303,0.443,0.303,0.73c0,0.288-0.102,0.532-0.303,0.733l-3.168,3.171l3.168,3.166
	C133.43,53.456,133.531,53.701,133.531,53.99z M127.129,38.002c-6.494,0-11.76,5.265-11.76,11.761
	c0,6.492,5.266,11.759,11.76,11.759c6.494,0,11.759-5.267,11.759-11.759C138.888,43.267,133.623,38.002,127.129,38.002z"/>
<path fill="#5C85B1" d="M155.603,598.875c0,1.205-0.974,2.176-2.179,2.176h-21.787c-1.203,0-2.179-0.971-2.179-2.176
	c0-4.36,4.21-8.422,8.515-10.032c-2.484-1.539-4.157-4.265-4.157-7.4v-2.175c0-4.819,3.899-8.72,8.715-8.72
	c4.813,0,8.714,3.9,8.714,8.72v2.175c0,3.136-1.673,5.861-4.157,7.4C151.392,590.454,155.603,594.515,155.603,598.875z"/>
<path fill="#5C85B1" d="M32.517,597.095c0,0.633-0.221,1.167-0.662,1.613l-1.917,1.933c-0.467,0.441-1.01,0.663-1.629,0.663
	c-0.635,0-1.171-0.222-1.612-0.663l-6.502-6.521c-0.455-0.428-0.682-0.968-0.682-1.612c0-0.633,0.258-1.206,0.77-1.719l-4.584-4.586
	l-2.257,2.256c-0.168,0.167-0.372,0.252-0.609,0.252c-0.239,0-0.443-0.085-0.609-0.252c0.024,0.024,0.099,0.096,0.223,0.218
	c0.125,0.118,0.202,0.195,0.226,0.232c0.023,0.034,0.081,0.102,0.178,0.207c0.095,0.099,0.156,0.18,0.178,0.239
	c0.026,0.061,0.062,0.141,0.109,0.239c0.047,0.105,0.082,0.202,0.098,0.297c0.017,0.097,0.027,0.205,0.027,0.324
	c0,0.453-0.168,0.858-0.502,1.218c-0.036,0.034-0.134,0.143-0.295,0.322c-0.16,0.181-0.275,0.303-0.341,0.367
	c-0.064,0.065-0.175,0.164-0.331,0.297c-0.156,0.131-0.287,0.222-0.394,0.276c-0.108,0.056-0.239,0.106-0.395,0.161
	c-0.154,0.055-0.309,0.081-0.465,0.081c-0.477,0-0.884-0.168-1.217-0.504l-7.31-7.306c-0.336-0.333-0.502-0.74-0.502-1.221
	c0-0.152,0.027-0.309,0.082-0.465c0.054-0.152,0.107-0.284,0.161-0.394c0.054-0.104,0.147-0.239,0.278-0.394
	c0.131-0.157,0.229-0.267,0.295-0.331c0.064-0.065,0.188-0.182,0.368-0.341c0.178-0.161,0.285-0.258,0.321-0.297
	c0.358-0.332,0.765-0.499,1.22-0.499c0.119,0,0.226,0.007,0.322,0.025c0.095,0.021,0.193,0.051,0.293,0.099
	c0.102,0.049,0.182,0.085,0.243,0.108c0.058,0.025,0.139,0.082,0.241,0.18c0.102,0.096,0.171,0.153,0.207,0.177
	c0.036,0.025,0.114,0.097,0.232,0.226c0.121,0.124,0.19,0.2,0.215,0.225c-0.166-0.17-0.251-0.37-0.251-0.609
	s0.085-0.441,0.251-0.609l6.234-6.233c0.167-0.167,0.37-0.252,0.609-0.252c0.237,0,0.441,0.085,0.609,0.252
	c-0.025-0.024-0.1-0.097-0.224-0.216c-0.126-0.119-0.2-0.197-0.224-0.23c-0.025-0.039-0.085-0.107-0.18-0.209
	c-0.095-0.102-0.155-0.182-0.18-0.241c-0.023-0.06-0.059-0.141-0.108-0.242c-0.047-0.101-0.08-0.2-0.097-0.296
	c-0.019-0.095-0.027-0.203-0.027-0.322c0-0.451,0.168-0.86,0.502-1.217c0.036-0.035,0.134-0.144,0.293-0.322
	c0.163-0.18,0.275-0.302,0.343-0.366c0.064-0.066,0.176-0.164,0.329-0.295c0.156-0.135,0.289-0.226,0.397-0.278
	c0.105-0.053,0.238-0.108,0.394-0.161c0.153-0.055,0.309-0.083,0.465-0.083c0.477,0,0.883,0.169,1.219,0.502l7.308,7.308
	c0.334,0.336,0.5,0.74,0.5,1.221c0,0.154-0.027,0.307-0.081,0.465c-0.051,0.154-0.105,0.288-0.16,0.392
	c-0.054,0.108-0.146,0.242-0.278,0.396c-0.132,0.154-0.231,0.268-0.295,0.332s-0.188,0.177-0.366,0.338
	c-0.18,0.161-0.287,0.263-0.322,0.297c-0.36,0.336-0.764,0.504-1.218,0.504c-0.121,0-0.228-0.01-0.323-0.027
	c-0.097-0.019-0.193-0.054-0.295-0.1c-0.102-0.05-0.184-0.083-0.243-0.107c-0.06-0.023-0.141-0.084-0.243-0.18
	c-0.102-0.095-0.168-0.154-0.206-0.178c-0.036-0.025-0.113-0.101-0.232-0.223c-0.119-0.129-0.19-0.202-0.214-0.226
	c0.165,0.168,0.248,0.37,0.248,0.609s-0.083,0.439-0.248,0.609l-2.26,2.256l4.588,4.587c0.513-0.516,1.086-0.772,1.717-0.772
	c0.623,0,1.167,0.223,1.632,0.662l6.502,6.502C32.296,595.929,32.517,596.474,32.517,597.095z"/>
<path fill="#5C85B1" d="M65.343,598.375h4.715v-4.715h-4.715V598.375z M71.105,598.375h5.24v-4.715h-5.24V598.375z M65.343,592.61
	h4.715v-5.237h-4.715V592.61z M71.105,592.61h5.24v-5.237h-5.24V592.61z M65.343,586.322h4.715v-4.712h-4.715V586.322z
	 M77.393,598.375h5.24v-4.715h-5.24V598.375z M71.105,586.322h5.24v-4.712h-5.24V586.322z M83.68,598.375h4.715v-4.715H83.68
	V598.375z M77.393,592.61h5.24v-5.237h-5.24V592.61z M71.631,578.466v-4.716c0-0.141-0.054-0.265-0.156-0.368
	c-0.104-0.105-0.228-0.156-0.37-0.156h-1.047c-0.143,0-0.263,0.051-0.368,0.156c-0.105,0.104-0.156,0.228-0.156,0.368v4.716
	c0,0.141,0.051,0.263,0.156,0.366c0.105,0.106,0.226,0.156,0.368,0.156h1.047c0.143,0,0.267-0.05,0.37-0.156
	C71.577,578.729,71.631,578.607,71.631,578.466z M83.68,592.61h4.715v-5.237H83.68V592.61z M77.393,586.322h5.24v-4.712h-5.24
	V586.322z M83.68,586.322h4.715v-4.712H83.68V586.322z M84.204,578.466v-4.716c0-0.141-0.051-0.265-0.156-0.368
	c-0.104-0.105-0.227-0.156-0.368-0.156h-1.047c-0.143,0-0.265,0.051-0.37,0.156c-0.104,0.104-0.155,0.228-0.155,0.368v4.716
	c0,0.141,0.051,0.263,0.155,0.366c0.105,0.106,0.227,0.156,0.37,0.156h1.047c0.141,0,0.265-0.05,0.368-0.156
	C84.153,578.729,84.204,578.607,84.204,578.466z M90.491,577.417v20.958c0,0.568-0.207,1.06-0.623,1.475
	c-0.414,0.412-0.904,0.619-1.473,0.619H65.343c-0.568,0-1.059-0.207-1.475-0.619c-0.416-0.415-0.621-0.906-0.621-1.475v-20.958
	c0-0.566,0.206-1.058,0.621-1.473c0.416-0.416,0.906-0.623,1.475-0.623h2.096v-1.571c0-0.721,0.256-1.335,0.769-1.851
	c0.512-0.513,1.13-0.77,1.851-0.77h1.047c0.719,0,1.337,0.257,1.851,0.77c0.513,0.516,0.769,1.13,0.769,1.851v1.571h6.287v-1.571
	c0-0.721,0.256-1.335,0.771-1.851c0.514-0.513,1.13-0.77,1.851-0.77h1.047c0.721,0,1.337,0.257,1.851,0.77
	c0.513,0.516,0.767,1.13,0.767,1.851v1.571h2.097c0.568,0,1.059,0.207,1.473,0.623C90.284,576.36,90.491,576.851,90.491,577.417z"/>
<path fill="#5C85B1" d="M213.679,596.118h-2.178v2.177c0,1.205-0.971,2.175-2.176,2.175c-1.203,0-2.176-0.97-2.176-2.175v-2.177
	h-2.178c-1.203,0-2.176-0.973-2.176-2.176c0-1.204,0.973-2.179,2.176-2.179h2.178v-2.175c0-1.203,0.973-2.179,2.176-2.179
	c1.205,0,2.176,0.976,2.176,2.179v2.175h2.178c1.203,0,2.176,0.975,2.176,2.179C215.855,595.145,214.882,596.118,213.679,596.118z
	 M203.103,587.718c-2.691,0.806-4.66,3.271-4.66,6.224c0,2.841,1.824,5.231,4.354,6.126v0.401h-15.238
	c-1.199,0-2.174-0.97-2.174-2.175c0-4.353,4.206-8.414,8.508-10.021c-2.484-1.537-4.154-4.262-4.154-7.393v-2.175
	c0-4.811,3.896-8.708,8.705-8.708s8.707,3.897,8.707,8.708v2.175c0,1.015-0.227,1.956-0.549,2.86
	C204.945,584.529,203.64,585.932,203.103,587.718z"/>
<path fill="#005BAA" d="M211.044,635.628c0.215,0.21,0.287,0.39,0.221,0.53c-0.07,0.149-0.248,0.223-0.539,0.223h-24.78
	c-0.29,0-0.47-0.073-0.538-0.223c-0.068-0.141,0.006-0.32,0.22-0.53l11.951-11.961c0.1-0.097,0.209-0.166,0.32-0.212h-11.417
	c-0.288,0-0.542-0.108-0.755-0.319c-0.214-0.221-0.32-0.468-0.32-0.76v-2.153c0-0.292,0.106-0.545,0.32-0.759
	c0.212-0.212,0.467-0.32,0.755-0.32h23.702c0.293,0,0.545,0.108,0.76,0.32c0.213,0.214,0.32,0.467,0.32,0.759v2.153
	c0,0.292-0.107,0.539-0.32,0.76c-0.215,0.211-0.467,0.319-0.76,0.319h-11.41c0.125,0.046,0.23,0.115,0.316,0.212L211.044,635.628z"
	/>
<path fill="#3E3E3F" d="M150.44,472.585v1.648c0,0.223-0.076,0.416-0.229,0.577c-0.152,0.165-0.332,0.245-0.541,0.245h-16.912
	c-0.207,0-0.389-0.08-0.54-0.245c-0.151-0.161-0.229-0.354-0.229-0.577v-1.648c0-0.224,0.077-0.415,0.229-0.58
	c0.151-0.162,0.333-0.244,0.54-0.244h16.912c0.209,0,0.389,0.082,0.541,0.244C150.364,472.17,150.44,472.362,150.44,472.585z
	 M150.44,466.228v1.647c0,0.221-0.076,0.416-0.229,0.579s-0.332,0.245-0.541,0.245h-16.912c-0.207,0-0.389-0.082-0.54-0.245
	s-0.229-0.358-0.229-0.579v-1.647c0-0.223,0.077-0.416,0.229-0.58c0.151-0.161,0.333-0.245,0.54-0.245h16.912
	c0.209,0,0.389,0.084,0.541,0.245C150.364,465.812,150.44,466.005,150.44,466.228z M150.44,460.404v1.648
	c0,0.224-0.076,0.416-0.229,0.58c-0.152,0.162-0.332,0.242-0.541,0.242h-16.912c-0.207,0-0.389-0.08-0.54-0.242
	c-0.151-0.164-0.229-0.356-0.229-0.58v-1.648c0-0.223,0.077-0.416,0.229-0.577c0.151-0.164,0.333-0.245,0.54-0.245h16.912
	c0.209,0,0.389,0.081,0.541,0.245C150.364,459.988,150.44,460.181,150.44,460.404z"/>
<path fill="#FFFFFF" d="M201.765,472.585v1.648c0,0.223-0.076,0.416-0.229,0.577c-0.152,0.165-0.332,0.245-0.541,0.245h-16.912
	c-0.207,0-0.389-0.08-0.54-0.245c-0.151-0.161-0.229-0.354-0.229-0.577v-1.648c0-0.224,0.077-0.415,0.229-0.58
	c0.151-0.162,0.333-0.244,0.54-0.244h16.912c0.209,0,0.389,0.082,0.541,0.244C201.689,472.17,201.765,472.362,201.765,472.585z
	 M201.765,466.228v1.647c0,0.221-0.076,0.416-0.229,0.579s-0.332,0.245-0.541,0.245h-16.912c-0.207,0-0.389-0.082-0.54-0.245
	s-0.229-0.358-0.229-0.579v-1.647c0-0.223,0.077-0.416,0.229-0.58c0.151-0.161,0.333-0.245,0.54-0.245h16.912
	c0.209,0,0.389,0.084,0.541,0.245C201.689,465.812,201.765,466.005,201.765,466.228z M201.765,460.404v1.648
	c0,0.224-0.076,0.416-0.229,0.58c-0.152,0.162-0.332,0.242-0.541,0.242h-16.912c-0.207,0-0.389-0.08-0.54-0.242
	c-0.151-0.164-0.229-0.356-0.229-0.58v-1.648c0-0.223,0.077-0.416,0.229-0.577c0.151-0.164,0.333-0.245,0.54-0.245h16.912
	c0.209,0,0.389,0.081,0.541,0.245C201.689,459.988,201.765,460.181,201.765,460.404z"/>
<path fill="#3E3E3F" d="M172.883,48.997c0,0.196-0.07,0.364-0.208,0.503l-1.007,1.01c-0.139,0.138-0.306,0.207-0.504,0.207
	s-0.366-0.069-0.503-0.207l-2.18-2.181l-2.18,2.181c-0.138,0.138-0.306,0.207-0.504,0.207s-0.365-0.069-0.504-0.207l-1.008-1.01
	c-0.138-0.139-0.208-0.307-0.208-0.503c0-0.198,0.07-0.366,0.208-0.505l2.18-2.177l-2.18-2.182
	c-0.138-0.138-0.208-0.307-0.208-0.504s0.07-0.365,0.208-0.502l1.008-1.012c0.139-0.137,0.306-0.206,0.504-0.206
	s0.366,0.069,0.504,0.206l2.18,2.182l2.18-2.182c0.138-0.137,0.305-0.206,0.503-0.206s0.365,0.069,0.504,0.206l1.007,1.012
	c0.139,0.137,0.208,0.305,0.208,0.502s-0.07,0.366-0.208,0.504l-2.179,2.182l2.179,2.177
	C172.813,48.63,172.883,48.798,172.883,48.997z M168.48,38.003c-4.466,0-8.087,3.62-8.087,8.087c0,4.465,3.621,8.087,8.087,8.087
	c4.466,0,8.087-3.622,8.087-8.087C176.567,41.624,172.946,38.003,168.48,38.003z"/>
<path fill="#3E3E3F" d="M144.642,499.958c0-1.107-0.393-2.056-1.181-2.844c-0.788-0.786-1.734-1.18-2.842-1.18
	s-2.056,0.394-2.843,1.18c-0.788,0.788-1.182,1.736-1.182,2.844s0.394,2.055,1.182,2.843c0.788,0.787,1.735,1.182,2.843,1.182
	s2.055-0.395,2.842-1.182C144.249,502.012,144.642,501.065,144.642,499.958z M149.24,507.43c0,0.311-0.113,0.581-0.341,0.809
	c-0.228,0.228-0.497,0.341-0.809,0.341c-0.324,0-0.592-0.113-0.808-0.341l-3.081-3.072c-1.071,0.742-2.266,1.114-3.583,1.114
	c-0.856,0-1.676-0.167-2.457-0.499s-1.455-0.781-2.021-1.347c-0.566-0.566-1.015-1.239-1.347-2.021
	c-0.331-0.781-0.498-1.6-0.498-2.456s0.167-1.675,0.498-2.456c0.333-0.781,0.781-1.455,1.347-2.021
	c0.566-0.565,1.24-1.015,2.021-1.347c0.781-0.333,1.601-0.499,2.457-0.499c0.856,0,1.675,0.166,2.456,0.499
	c0.781,0.332,1.455,0.781,2.021,1.347c0.565,0.566,1.015,1.24,1.347,2.021c0.333,0.781,0.5,1.6,0.5,2.456
	c0,1.317-0.371,2.511-1.114,3.584l3.081,3.08C149.13,506.843,149.24,507.113,149.24,507.43z"/>
<path fill="#FFFFFF" d="M194.566,498.208c0-1.107-0.393-2.056-1.182-2.844c-0.787-0.786-1.734-1.18-2.842-1.18
	s-2.055,0.394-2.844,1.18c-0.788,0.788-1.181,1.736-1.181,2.844s0.394,2.055,1.181,2.843c0.789,0.787,1.736,1.182,2.844,1.182
	s2.055-0.395,2.842-1.182C194.173,500.262,194.566,499.315,194.566,498.208z M199.164,505.68c0,0.311-0.113,0.581-0.34,0.809
	c-0.229,0.228-0.498,0.341-0.809,0.341c-0.324,0-0.594-0.113-0.809-0.341l-3.08-3.072c-1.072,0.742-2.268,1.114-3.584,1.114
	c-0.855,0-1.676-0.167-2.457-0.499c-0.782-0.332-1.455-0.781-2.021-1.347c-0.566-0.566-1.015-1.239-1.347-2.021
	c-0.331-0.781-0.498-1.6-0.498-2.456s0.167-1.675,0.498-2.456c0.333-0.781,0.781-1.455,1.347-2.021
	c0.566-0.565,1.239-1.015,2.021-1.347c0.781-0.333,1.602-0.499,2.457-0.499s1.676,0.166,2.457,0.499
	c0.781,0.332,1.455,0.781,2.02,1.347c0.566,0.566,1.016,1.24,1.348,2.021s0.498,1.6,0.498,2.456c0,1.317-0.371,2.511-1.113,3.584
	l3.08,3.08C199.054,505.093,199.164,505.363,199.164,505.68z"/>
<path fill="#3E3E3F" stroke="#3E3E3F" stroke-width="0.5" stroke-miterlimit="10" d="M11.471,384.824c-1.212,0-2.346,0.207-3.4,0.62
	c-1.055,0.414-1.894,0.971-2.515,1.672c-0.621,0.7-0.931,1.458-0.931,2.272c0,0.666,0.212,1.3,0.637,1.904
	c0.425,0.604,1.024,1.125,1.796,1.563l0.775,0.447l-0.241,0.854c-0.142,0.542-0.35,1.053-0.624,1.533
	c0.904-0.373,1.721-0.882,2.452-1.523l0.384-0.339l0.508,0.054c0.41,0.048,0.796,0.072,1.159,0.072c1.213,0,2.346-0.207,3.401-0.621
	c1.055-0.413,1.893-0.971,2.515-1.671c0.621-0.702,0.931-1.46,0.931-2.274s-0.31-1.572-0.931-2.272
	c-0.622-0.701-1.46-1.258-2.515-1.672C13.817,385.031,12.684,384.824,11.471,384.824z M19.459,389.388
	c0,1.035-0.356,1.99-1.07,2.867c-0.713,0.876-1.683,1.569-2.906,2.076c-1.225,0.509-2.562,0.763-4.012,0.763
	c-0.415,0-0.846-0.023-1.292-0.071c-1.177,1.041-2.544,1.76-4.101,2.158c-0.292,0.082-0.63,0.148-1.017,0.195H5.017
	c-0.089,0-0.17-0.031-0.241-0.093c-0.071-0.063-0.119-0.145-0.142-0.246v-0.009c-0.018-0.024-0.02-0.059-0.004-0.106
	c0.014-0.048,0.021-0.077,0.018-0.089c-0.003-0.013,0.01-0.04,0.041-0.085l0.053-0.081c0,0,0.021-0.024,0.063-0.075
	c0.041-0.051,0.065-0.077,0.071-0.079c0.042-0.049,0.134-0.151,0.277-0.31c0.143-0.156,0.245-0.27,0.307-0.338
	c0.063-0.069,0.154-0.186,0.276-0.352s0.219-0.317,0.29-0.454c0.071-0.139,0.152-0.313,0.24-0.526
	c0.09-0.215,0.167-0.44,0.232-0.678c-0.933-0.529-1.668-1.184-2.206-1.961c-0.538-0.779-0.807-1.615-0.807-2.507
	c0-1.033,0.356-1.99,1.07-2.865c0.713-0.876,1.683-1.57,2.906-2.077c1.225-0.509,2.562-0.763,4.012-0.763
	c1.45,0,2.788,0.254,4.012,0.763c1.224,0.507,2.193,1.201,2.906,2.077C19.104,387.398,19.459,388.355,19.459,389.388z"/>
<path fill="#3E3E3F" stroke="#3E3E3F" stroke-width="0.5" stroke-miterlimit="10" d="M18.496,422.267v-6.397
	c-0.178,0.199-0.369,0.383-0.574,0.55c-1.489,1.143-2.672,2.082-3.55,2.814c-0.283,0.241-0.514,0.427-0.692,0.56
	s-0.417,0.267-0.72,0.404c-0.302,0.136-0.587,0.203-0.854,0.203h-0.009h-0.009c-0.267,0-0.551-0.067-0.854-0.203
	c-0.302-0.138-0.542-0.271-0.72-0.404c-0.177-0.133-0.409-0.318-0.691-0.56c-0.878-0.732-2.062-1.672-3.55-2.814
	c-0.206-0.167-0.396-0.351-0.575-0.55v6.397c0,0.072,0.027,0.136,0.079,0.188c0.053,0.053,0.115,0.08,0.188,0.08h12.265
	c0.073,0,0.135-0.027,0.188-0.08C18.469,422.403,18.496,422.339,18.496,422.267z M18.496,413.511v-0.093v-0.111
	c0,0-0.001-0.036-0.004-0.108c-0.002-0.073-0.01-0.107-0.024-0.104c-0.014,0.003-0.029-0.022-0.046-0.075
	c-0.016-0.053-0.041-0.073-0.075-0.062c-0.034,0.011-0.073,0.004-0.117-0.021H5.964c-0.073,0-0.135,0.027-0.188,0.078
	c-0.052,0.054-0.079,0.117-0.079,0.187c0,0.936,0.409,1.723,1.225,2.368c1.072,0.845,2.186,1.726,3.341,2.64
	c0.033,0.03,0.131,0.112,0.292,0.246c0.162,0.138,0.289,0.241,0.383,0.313c0.095,0.073,0.218,0.162,0.371,0.265
	c0.152,0.102,0.293,0.177,0.42,0.227c0.128,0.052,0.248,0.076,0.358,0.076h0.009h0.009c0.11,0,0.229-0.024,0.358-0.076
	c0.127-0.05,0.268-0.125,0.42-0.227c0.153-0.103,0.277-0.191,0.371-0.265c0.094-0.071,0.223-0.175,0.383-0.313
	c0.161-0.134,0.258-0.216,0.292-0.246c1.155-0.914,2.269-1.795,3.341-2.64c0.3-0.239,0.579-0.56,0.836-0.962
	C18.367,414.203,18.496,413.839,18.496,413.511z M19.563,413.201v9.066c0,0.367-0.13,0.681-0.392,0.942
	c-0.261,0.261-0.575,0.392-0.941,0.392H5.964c-0.366,0-0.68-0.131-0.941-0.392c-0.262-0.262-0.392-0.575-0.392-0.942v-9.066
	c0-0.365,0.13-0.678,0.392-0.939c0.261-0.261,0.575-0.392,0.941-0.392h12.265c0.367,0,0.681,0.131,0.941,0.392
	C19.432,412.523,19.563,412.835,19.563,413.201z"/>
<path fill="#B0B0B0" stroke="#B0B0B0" stroke-width="0.5" stroke-miterlimit="10" d="M89.173,383.052c-1.212,0-2.346,0.207-3.4,0.62
	c-1.055,0.414-1.894,0.971-2.515,1.672c-0.621,0.7-0.931,1.458-0.931,2.272c0,0.666,0.212,1.3,0.637,1.904
	c0.425,0.604,1.024,1.125,1.796,1.563l0.775,0.447l-0.241,0.854c-0.142,0.542-0.35,1.053-0.624,1.533
	c0.904-0.373,1.721-0.882,2.452-1.523l0.384-0.339l0.508,0.054c0.41,0.048,0.796,0.072,1.159,0.072c1.213,0,2.346-0.207,3.401-0.621
	c1.055-0.413,1.893-0.971,2.515-1.671c0.621-0.702,0.931-1.46,0.931-2.274s-0.31-1.572-0.931-2.272
	c-0.622-0.701-1.46-1.258-2.515-1.672C91.52,383.259,90.386,383.052,89.173,383.052z M97.162,387.617c0,1.035-0.356,1.99-1.07,2.867
	c-0.713,0.876-1.683,1.569-2.906,2.076c-1.225,0.509-2.562,0.763-4.012,0.763c-0.415,0-0.846-0.023-1.292-0.071
	c-1.177,1.041-2.544,1.76-4.101,2.158c-0.292,0.082-0.63,0.148-1.017,0.195h-0.044c-0.089,0-0.17-0.031-0.241-0.093
	c-0.071-0.063-0.119-0.145-0.142-0.246v-0.009c-0.018-0.024-0.02-0.059-0.004-0.106c0.014-0.048,0.021-0.077,0.018-0.089
	c-0.003-0.013,0.01-0.04,0.041-0.085l0.053-0.081c0,0,0.021-0.024,0.063-0.075c0.041-0.051,0.065-0.077,0.071-0.079
	c0.042-0.049,0.134-0.151,0.277-0.31c0.143-0.156,0.245-0.27,0.307-0.338c0.063-0.069,0.154-0.186,0.276-0.352
	s0.219-0.317,0.29-0.454c0.071-0.139,0.152-0.313,0.24-0.526c0.09-0.215,0.167-0.44,0.232-0.678
	c-0.933-0.529-1.668-1.184-2.206-1.961c-0.538-0.779-0.807-1.615-0.807-2.507c0-1.033,0.356-1.99,1.07-2.865
	c0.713-0.876,1.683-1.57,2.906-2.077c1.225-0.509,2.562-0.763,4.012-0.763c1.45,0,2.788,0.254,4.012,0.763
	c1.224,0.507,2.193,1.201,2.906,2.077C96.806,385.626,97.162,386.583,97.162,387.617z"/>
<path fill="#5C85B1" stroke="#5C85B1" stroke-width="0.5" stroke-miterlimit="10" d="M142.485,383.226
	c-1.212,0-2.346,0.207-3.4,0.62c-1.055,0.414-1.894,0.971-2.515,1.672c-0.621,0.7-0.931,1.458-0.931,2.272
	c0,0.666,0.212,1.3,0.637,1.904c0.425,0.604,1.024,1.125,1.796,1.563l0.775,0.447l-0.241,0.854c-0.142,0.542-0.35,1.053-0.624,1.533
	c0.904-0.373,1.721-0.882,2.452-1.523l0.384-0.339l0.508,0.054c0.41,0.048,0.796,0.072,1.159,0.072c1.213,0,2.346-0.207,3.401-0.621
	c1.055-0.413,1.893-0.971,2.515-1.671c0.621-0.702,0.931-1.46,0.931-2.274s-0.31-1.572-0.931-2.272
	c-0.622-0.701-1.46-1.258-2.515-1.672C144.831,383.433,143.698,383.226,142.485,383.226z M150.473,387.791
	c0,1.035-0.356,1.99-1.07,2.867c-0.713,0.876-1.683,1.569-2.906,2.076c-1.225,0.509-2.562,0.763-4.012,0.763
	c-0.415,0-0.846-0.023-1.292-0.071c-1.177,1.041-2.544,1.76-4.101,2.158c-0.292,0.082-0.63,0.148-1.017,0.195h-0.044
	c-0.089,0-0.17-0.031-0.241-0.093c-0.071-0.063-0.119-0.145-0.142-0.246v-0.009c-0.018-0.024-0.02-0.059-0.004-0.106
	c0.014-0.048,0.021-0.077,0.018-0.089c-0.003-0.013,0.01-0.04,0.041-0.085l0.053-0.081c0,0,0.021-0.024,0.063-0.075
	c0.041-0.051,0.065-0.077,0.071-0.079c0.042-0.049,0.134-0.151,0.277-0.31c0.143-0.156,0.245-0.27,0.307-0.338
	c0.063-0.069,0.154-0.186,0.276-0.352s0.219-0.317,0.29-0.454c0.071-0.139,0.152-0.313,0.24-0.526
	c0.09-0.215,0.167-0.44,0.232-0.678c-0.933-0.529-1.668-1.184-2.206-1.961c-0.538-0.779-0.807-1.615-0.807-2.507
	c0-1.033,0.356-1.99,1.07-2.865c0.713-0.876,1.683-1.57,2.906-2.077c1.225-0.509,2.562-0.763,4.012-0.763
	c1.45,0,2.788,0.254,4.012,0.763c1.224,0.507,2.193,1.201,2.906,2.077C150.117,385.8,150.473,386.757,150.473,387.791z"/>
<path fill="#005BAA" stroke="#005BAA" stroke-width="0.5" stroke-miterlimit="10" d="M193.978,383.4c-1.212,0-2.346,0.207-3.4,0.62
	c-1.055,0.414-1.894,0.971-2.516,1.672c-0.62,0.7-0.93,1.458-0.93,2.272c0,0.666,0.212,1.3,0.637,1.904
	c0.425,0.604,1.023,1.125,1.797,1.563l0.775,0.447l-0.242,0.854c-0.142,0.542-0.35,1.053-0.623,1.533
	c0.904-0.373,1.721-0.882,2.451-1.523l0.385-0.339l0.508,0.054c0.409,0.048,0.796,0.072,1.158,0.072
	c1.213,0,2.346-0.207,3.401-0.621c1.055-0.413,1.894-0.971,2.515-1.671c0.621-0.702,0.932-1.46,0.932-2.274
	s-0.311-1.572-0.932-2.272c-0.621-0.701-1.46-1.258-2.515-1.672C196.324,383.607,195.191,383.4,193.978,383.4z M201.966,387.964
	c0,1.035-0.355,1.99-1.07,2.867c-0.713,0.876-1.682,1.569-2.906,2.076c-1.225,0.509-2.562,0.763-4.012,0.763
	c-0.415,0-0.846-0.023-1.292-0.071c-1.177,1.041-2.544,1.76-4.101,2.158c-0.292,0.082-0.631,0.148-1.018,0.195h-0.044
	c-0.089,0-0.17-0.031-0.241-0.093c-0.071-0.063-0.119-0.145-0.142-0.246v-0.009c-0.018-0.024-0.02-0.059-0.004-0.106
	c0.014-0.048,0.021-0.077,0.018-0.089c-0.003-0.013,0.01-0.04,0.041-0.085l0.053-0.081c0,0,0.021-0.024,0.063-0.075
	c0.041-0.051,0.065-0.077,0.071-0.079c0.042-0.049,0.134-0.151,0.277-0.31c0.143-0.156,0.245-0.27,0.307-0.338
	c0.063-0.069,0.154-0.186,0.277-0.352c0.121-0.166,0.219-0.317,0.289-0.454c0.071-0.139,0.152-0.313,0.24-0.526
	c0.09-0.215,0.167-0.44,0.232-0.678c-0.933-0.529-1.668-1.184-2.206-1.961c-0.538-0.779-0.807-1.615-0.807-2.507
	c0-1.033,0.356-1.99,1.07-2.865c0.713-0.876,1.683-1.57,2.906-2.077c1.225-0.509,2.563-0.763,4.012-0.763
	c1.45,0,2.787,0.254,4.012,0.763c1.225,0.507,2.193,1.201,2.906,2.077C201.611,385.974,201.966,386.931,201.966,387.964z"/>
<path fill="#3E3E3F" d="M131.526,16.446c0,0.274-0.097,0.507-0.29,0.7l-1.401,1.403c-0.193,0.19-0.425,0.288-0.701,0.288
	c-0.276,0-0.509-0.098-0.7-0.288l-3.032-3.033l-3.031,3.033c-0.192,0.19-0.425,0.288-0.701,0.288c-0.275,0-0.508-0.098-0.7-0.288
	l-1.401-1.403c-0.192-0.193-0.29-0.426-0.29-0.7s0.097-0.51,0.29-0.702l3.03-3.028l-3.03-3.031c-0.192-0.193-0.29-0.427-0.29-0.701
	c0-0.275,0.097-0.509,0.29-0.699l1.401-1.405c0.192-0.192,0.425-0.289,0.7-0.289c0.275,0,0.509,0.097,0.701,0.289l3.031,3.031
	l3.032-3.031c0.191-0.192,0.424-0.289,0.7-0.289c0.275,0,0.508,0.097,0.701,0.289l1.401,1.405c0.193,0.19,0.29,0.424,0.29,0.699
	c0,0.274-0.097,0.508-0.29,0.701l-3.03,3.031l3.03,3.028C131.429,15.937,131.526,16.172,131.526,16.446z"/>
<circle fill="none" stroke="#3E3E3F" stroke-width="2" stroke-miterlimit="10" cx="125.402" cy="12.714" r="11.714"/>
<path fill="#3E3E3F" d="M170.952,12.828c0,0.161-0.058,0.298-0.171,0.413l-0.83,0.832c-0.114,0.111-0.251,0.17-0.414,0.17
	c-0.165,0-0.303-0.059-0.416-0.17l-1.794-1.796l-1.794,1.796c-0.114,0.111-0.252,0.17-0.415,0.17s-0.301-0.059-0.415-0.17
	l-0.83-0.832c-0.114-0.115-0.171-0.252-0.171-0.413c0-0.163,0.058-0.303,0.171-0.417l1.794-1.792l-1.794-1.794
	c-0.114-0.115-0.171-0.254-0.171-0.416s0.058-0.301,0.171-0.413l0.83-0.833c0.114-0.113,0.251-0.172,0.415-0.172
	s0.301,0.059,0.415,0.172l1.794,1.795l1.794-1.795c0.113-0.113,0.251-0.172,0.416-0.172c0.163,0,0.3,0.059,0.414,0.172l0.83,0.833
	c0.113,0.112,0.171,0.251,0.171,0.413s-0.058,0.301-0.171,0.416l-1.793,1.794l1.793,1.792
	C170.895,12.525,170.952,12.665,170.952,12.828z"/>
<circle fill="none" stroke="#3E3E3F" stroke-width="2" stroke-miterlimit="10" cx="167.327" cy="10.617" r="6.935"/>
<path fill="#3E3E3F" d="M5.669,263.517h7.969v-2.276H5.669V263.517z M5.669,257.826h7.969v-3.416h-1.423
	c-0.237,0-0.438-0.082-0.604-0.248c-0.166-0.167-0.249-0.368-0.249-0.605v-1.423H5.669V257.826z M15.915,258.394
	c0-0.153-0.056-0.287-0.169-0.399c-0.113-0.113-0.246-0.169-0.4-0.169c-0.154,0-0.287,0.056-0.4,0.169
	c-0.113,0.112-0.169,0.246-0.169,0.399c0,0.155,0.056,0.288,0.169,0.4c0.113,0.113,0.246,0.17,0.4,0.17
	c0.154,0,0.288-0.057,0.4-0.17C15.858,258.682,15.915,258.549,15.915,258.394z M17.053,258.394v3.7c0,0.077-0.028,0.144-0.084,0.2
	c-0.057,0.057-0.123,0.084-0.2,0.084h-1.992v1.423c0,0.237-0.083,0.439-0.249,0.605s-0.368,0.249-0.605,0.249H5.385
	c-0.237,0-0.439-0.083-0.605-0.249s-0.249-0.368-0.249-0.605v-1.423H2.539c-0.077,0-0.144-0.027-0.2-0.084
	c-0.057-0.057-0.084-0.123-0.084-0.2v-3.7c0-0.468,0.167-0.869,0.502-1.204s0.737-0.503,1.205-0.503h0.569v-4.838
	c0-0.237,0.083-0.439,0.249-0.604c0.166-0.167,0.368-0.25,0.605-0.25h5.977c0.237,0,0.498,0.06,0.782,0.179
	c0.285,0.118,0.51,0.261,0.676,0.427l1.352,1.352c0.166,0.166,0.308,0.391,0.427,0.676s0.178,0.545,0.178,0.782v2.277h0.569
	c0.469,0,0.87,0.168,1.206,0.503C16.886,257.525,17.053,257.926,17.053,258.394z"/>
<path fill="#FFFFFF" d="M42.419,262.687h7.969v-2.276h-7.969V262.687z M42.419,256.996h7.969v-3.416h-1.423
	c-0.237,0-0.438-0.082-0.604-0.248c-0.166-0.167-0.249-0.368-0.249-0.605v-1.423h-5.692V256.996z M52.665,257.564
	c0-0.153-0.056-0.287-0.169-0.399c-0.113-0.113-0.246-0.169-0.4-0.169c-0.154,0-0.287,0.056-0.4,0.169
	c-0.113,0.112-0.169,0.246-0.169,0.399c0,0.155,0.056,0.288,0.169,0.4c0.113,0.113,0.246,0.17,0.4,0.17
	c0.154,0,0.288-0.057,0.4-0.17C52.608,257.852,52.665,257.719,52.665,257.564z M53.803,257.564v3.7c0,0.077-0.028,0.144-0.084,0.2
	c-0.057,0.057-0.123,0.084-0.2,0.084h-1.992v1.423c0,0.237-0.083,0.439-0.249,0.605s-0.368,0.249-0.605,0.249h-8.538
	c-0.237,0-0.439-0.083-0.605-0.249s-0.249-0.368-0.249-0.605v-1.423h-1.992c-0.077,0-0.144-0.027-0.2-0.084
	c-0.057-0.057-0.084-0.123-0.084-0.2v-3.7c0-0.468,0.167-0.869,0.502-1.204s0.737-0.503,1.205-0.503h0.569v-4.838
	c0-0.237,0.083-0.439,0.249-0.604c0.166-0.167,0.368-0.25,0.605-0.25h5.977c0.237,0,0.498,0.06,0.782,0.179
	c0.285,0.118,0.51,0.261,0.676,0.427l1.352,1.352c0.166,0.166,0.308,0.391,0.427,0.676s0.178,0.545,0.178,0.782v2.277h0.569
	c0.469,0,0.87,0.168,1.206,0.503C53.636,256.695,53.803,257.096,53.803,257.564z"/>
<path fill="#B0B0B0" d="M84.563,263.517h7.969v-2.276h-7.969V263.517z M84.563,257.826h7.969v-3.416h-1.423
	c-0.237,0-0.438-0.082-0.604-0.248c-0.166-0.167-0.249-0.368-0.249-0.605v-1.423h-5.692V257.826z M94.808,258.394
	c0-0.153-0.056-0.287-0.169-0.399c-0.113-0.113-0.246-0.169-0.4-0.169c-0.154,0-0.287,0.056-0.4,0.169
	c-0.113,0.112-0.169,0.246-0.169,0.399c0,0.155,0.056,0.288,0.169,0.4c0.113,0.113,0.246,0.17,0.4,0.17
	c0.154,0,0.288-0.057,0.4-0.17C94.752,258.682,94.808,258.549,94.808,258.394z M95.947,258.394v3.7c0,0.077-0.028,0.144-0.084,0.2
	c-0.057,0.057-0.123,0.084-0.2,0.084H93.67v1.423c0,0.237-0.083,0.439-0.249,0.605s-0.368,0.249-0.605,0.249h-8.538
	c-0.237,0-0.439-0.083-0.605-0.249s-0.249-0.368-0.249-0.605v-1.423h-1.992c-0.077,0-0.144-0.027-0.2-0.084
	c-0.057-0.057-0.084-0.123-0.084-0.2v-3.7c0-0.468,0.167-0.869,0.502-1.204s0.737-0.503,1.205-0.503h0.569v-4.838
	c0-0.237,0.083-0.439,0.249-0.604c0.166-0.167,0.368-0.25,0.605-0.25h5.977c0.237,0,0.498,0.06,0.782,0.179
	c0.285,0.118,0.51,0.261,0.676,0.427l1.352,1.352c0.166,0.166,0.308,0.391,0.427,0.676s0.178,0.545,0.178,0.782v2.277h0.569
	c0.469,0,0.87,0.168,1.206,0.503C95.779,257.525,95.947,257.926,95.947,258.394z"/>
<path fill="#5C85B1" d="M138.866,262.687h7.969v-2.276h-7.969V262.687z M138.866,256.996h7.969v-3.416h-1.423
	c-0.237,0-0.438-0.082-0.604-0.248c-0.166-0.167-0.249-0.368-0.249-0.605v-1.423h-5.692V256.996z M149.111,257.564
	c0-0.153-0.056-0.287-0.169-0.399c-0.113-0.113-0.246-0.169-0.4-0.169c-0.154,0-0.287,0.056-0.4,0.169
	c-0.113,0.112-0.169,0.246-0.169,0.399c0,0.155,0.056,0.288,0.169,0.4c0.113,0.113,0.246,0.17,0.4,0.17
	c0.154,0,0.288-0.057,0.4-0.17C149.055,257.852,149.111,257.719,149.111,257.564z M150.25,257.564v3.7
	c0,0.077-0.028,0.144-0.084,0.2c-0.057,0.057-0.123,0.084-0.2,0.084h-1.992v1.423c0,0.237-0.083,0.439-0.249,0.605
	s-0.368,0.249-0.605,0.249h-8.538c-0.237,0-0.439-0.083-0.605-0.249s-0.249-0.368-0.249-0.605v-1.423h-1.992
	c-0.077,0-0.144-0.027-0.2-0.084c-0.057-0.057-0.084-0.123-0.084-0.2v-3.7c0-0.468,0.167-0.869,0.502-1.204s0.737-0.503,1.205-0.503
	h0.569v-4.838c0-0.237,0.083-0.439,0.249-0.604c0.166-0.167,0.368-0.25,0.605-0.25h5.977c0.237,0,0.498,0.06,0.782,0.179
	c0.285,0.118,0.51,0.261,0.676,0.427l1.352,1.352c0.166,0.166,0.308,0.391,0.427,0.676s0.178,0.545,0.178,0.782v2.277h0.569
	c0.469,0,0.87,0.168,1.206,0.503C150.083,256.695,150.25,257.096,150.25,257.564z"/>
<path fill="#005BAA" d="M189.285,262.857h7.969v-2.276h-7.969V262.857z M189.285,257.166h7.969v-3.416h-1.423
	c-0.237,0-0.438-0.082-0.604-0.248c-0.166-0.167-0.249-0.368-0.249-0.605v-1.423h-5.692V257.166z M199.531,257.734
	c0-0.153-0.057-0.287-0.17-0.399c-0.112-0.113-0.246-0.169-0.4-0.169c-0.153,0-0.287,0.056-0.399,0.169
	c-0.112,0.112-0.169,0.246-0.169,0.399c0,0.155,0.057,0.288,0.169,0.4c0.112,0.113,0.246,0.17,0.399,0.17
	c0.154,0,0.288-0.057,0.4-0.17C199.474,258.022,199.531,257.889,199.531,257.734z M200.669,257.734v3.7
	c0,0.077-0.029,0.144-0.085,0.2c-0.057,0.057-0.123,0.084-0.2,0.084h-1.992v1.423c0,0.237-0.083,0.439-0.249,0.605
	s-0.368,0.249-0.604,0.249H189c-0.237,0-0.438-0.083-0.604-0.249s-0.25-0.368-0.25-0.605v-1.423h-1.992
	c-0.077,0-0.144-0.027-0.2-0.084c-0.057-0.057-0.084-0.123-0.084-0.2v-3.7c0-0.468,0.167-0.869,0.502-1.204s0.737-0.503,1.206-0.503
	h0.568v-4.838c0-0.237,0.084-0.439,0.25-0.604c0.166-0.167,0.367-0.25,0.604-0.25h5.977c0.237,0,0.498,0.06,0.782,0.179
	c0.285,0.118,0.51,0.261,0.676,0.427l1.353,1.352c0.165,0.166,0.308,0.391,0.427,0.676s0.178,0.545,0.178,0.782v2.277h0.568
	c0.469,0,0.871,0.168,1.206,0.503S200.669,257.266,200.669,257.734z"/>
<path fill="none" stroke="#3E3E3F" stroke-width="1.8" stroke-miterlimit="10" d="M18.604,363.002c0.402,0.401,0.402,1.053,0,1.454
	l-4.725,4.725c-0.401,0.4-1.052,0.401-1.453,0l-8.087-8.087c-0.401-0.401-0.401-1.052,0-1.453l4.725-4.724
	c0.402-0.401,1.052-0.402,1.454,0L18.604,363.002z M5.066,355.644c-0.903,0.901-0.903,2.368,0,3.271
	c0.903,0.901,2.368,0.902,3.271,0c0.904-0.903,0.903-2.369,0-3.271C7.434,354.74,5.97,354.74,5.066,355.644z"/>
<path fill="none" stroke="#B0B0B0" stroke-width="1.8" stroke-miterlimit="10" d="M98.638,363.002c0.402,0.401,0.402,1.053,0,1.454
	l-4.725,4.725c-0.401,0.4-1.052,0.401-1.453,0l-8.087-8.087c-0.401-0.401-0.401-1.052,0-1.453l4.725-4.724
	c0.402-0.401,1.052-0.402,1.454,0L98.638,363.002z M85.101,355.644c-0.903,0.901-0.903,2.368,0,3.271
	c0.903,0.901,2.368,0.902,3.271,0c0.904-0.903,0.903-2.369,0-3.271C87.469,354.74,86.004,354.74,85.101,355.644z"/>
<path fill="none" stroke="#5C85B1" stroke-width="1.8" stroke-miterlimit="10" d="M150.86,363.002c0.402,0.401,0.402,1.053,0,1.454
	l-4.725,4.725c-0.401,0.4-1.052,0.401-1.453,0l-8.087-8.087c-0.401-0.401-0.401-1.052,0-1.453l4.725-4.724
	c0.402-0.401,1.052-0.402,1.454,0L150.86,363.002z M137.322,355.644c-0.903,0.901-0.903,2.368,0,3.271
	c0.903,0.901,2.368,0.902,3.271,0c0.904-0.903,0.903-2.369,0-3.271C139.69,354.74,138.226,354.74,137.322,355.644z"/>
<path fill="none" stroke="#005BAA" stroke-width="1.8" stroke-miterlimit="10" d="M201.134,363.002c0.402,0.401,0.402,1.053,0,1.454
	l-4.725,4.725c-0.4,0.4-1.052,0.401-1.453,0l-8.086-8.087c-0.401-0.401-0.401-1.052,0-1.453l4.725-4.724
	c0.401-0.401,1.052-0.402,1.453,0L201.134,363.002z M187.597,355.644c-0.903,0.901-0.903,2.368,0,3.271
	c0.903,0.901,2.367,0.902,3.271,0c0.903-0.903,0.903-2.369,0-3.271C189.965,354.74,188.501,354.74,187.597,355.644z"/>
<path fill="#B0B0B0" stroke="#B0B0B0" stroke-width="0.5" stroke-miterlimit="10" d="M96.815,422.267v-6.397
	c-0.178,0.199-0.369,0.383-0.574,0.55c-1.489,1.143-2.672,2.082-3.55,2.814c-0.283,0.241-0.514,0.427-0.692,0.56
	s-0.417,0.267-0.72,0.404c-0.302,0.136-0.587,0.203-0.854,0.203h-0.009h-0.009c-0.267,0-0.551-0.067-0.854-0.203
	c-0.302-0.138-0.542-0.271-0.72-0.404c-0.177-0.133-0.409-0.318-0.691-0.56c-0.878-0.732-2.062-1.672-3.55-2.814
	c-0.206-0.167-0.396-0.351-0.575-0.55v6.397c0,0.072,0.027,0.136,0.079,0.188c0.053,0.053,0.115,0.08,0.188,0.08h12.265
	c0.073,0,0.135-0.027,0.188-0.08C96.789,422.403,96.815,422.339,96.815,422.267z M96.815,413.511v-0.093v-0.111
	c0,0-0.001-0.036-0.004-0.108c-0.002-0.073-0.01-0.107-0.024-0.104c-0.014,0.003-0.029-0.022-0.046-0.075
	c-0.016-0.053-0.041-0.073-0.075-0.062c-0.034,0.011-0.073,0.004-0.117-0.021H84.284c-0.073,0-0.135,0.027-0.188,0.078
	c-0.052,0.054-0.079,0.117-0.079,0.187c0,0.936,0.409,1.723,1.225,2.368c1.072,0.845,2.186,1.726,3.341,2.64
	c0.033,0.03,0.131,0.112,0.292,0.246c0.162,0.138,0.289,0.241,0.383,0.313c0.095,0.073,0.218,0.162,0.371,0.265
	c0.152,0.102,0.293,0.177,0.42,0.227c0.128,0.052,0.248,0.076,0.358,0.076h0.009h0.009c0.11,0,0.229-0.024,0.358-0.076
	c0.127-0.05,0.268-0.125,0.42-0.227c0.153-0.103,0.277-0.191,0.371-0.265c0.094-0.071,0.223-0.175,0.383-0.313
	c0.161-0.134,0.258-0.216,0.292-0.246c1.155-0.914,2.269-1.795,3.341-2.64c0.3-0.239,0.579-0.56,0.836-0.962
	C96.687,414.203,96.815,413.839,96.815,413.511z M97.882,413.201v9.066c0,0.367-0.13,0.681-0.392,0.942
	c-0.261,0.261-0.575,0.392-0.941,0.392H84.284c-0.366,0-0.68-0.131-0.941-0.392c-0.262-0.262-0.392-0.575-0.392-0.942v-9.066
	c0-0.365,0.13-0.678,0.392-0.939c0.261-0.261,0.575-0.392,0.941-0.392h12.265c0.367,0,0.681,0.131,0.941,0.392
	C97.752,412.523,97.882,412.835,97.882,413.201z"/>
<path fill="#5C85B1" stroke="#5C85B1" stroke-width="0.5" stroke-miterlimit="10" d="M149.277,422.267v-6.397
	c-0.178,0.199-0.369,0.383-0.574,0.55c-1.489,1.143-2.672,2.082-3.55,2.814c-0.283,0.241-0.514,0.427-0.692,0.56
	s-0.417,0.267-0.72,0.404c-0.302,0.136-0.587,0.203-0.854,0.203h-0.009h-0.009c-0.267,0-0.551-0.067-0.854-0.203
	c-0.302-0.138-0.542-0.271-0.72-0.404c-0.177-0.133-0.409-0.318-0.691-0.56c-0.878-0.732-2.062-1.672-3.55-2.814
	c-0.206-0.167-0.396-0.351-0.575-0.55v6.397c0,0.072,0.027,0.136,0.079,0.188c0.053,0.053,0.115,0.08,0.188,0.08h12.265
	c0.073,0,0.135-0.027,0.188-0.08C149.251,422.403,149.277,422.339,149.277,422.267z M149.277,413.511v-0.093v-0.111
	c0,0-0.001-0.036-0.004-0.108c-0.002-0.073-0.01-0.107-0.024-0.104c-0.014,0.003-0.029-0.022-0.046-0.075
	c-0.016-0.053-0.041-0.073-0.075-0.062c-0.034,0.011-0.073,0.004-0.117-0.021h-12.265c-0.073,0-0.135,0.027-0.188,0.078
	c-0.052,0.054-0.079,0.117-0.079,0.187c0,0.936,0.409,1.723,1.225,2.368c1.072,0.845,2.186,1.726,3.341,2.64
	c0.033,0.03,0.131,0.112,0.292,0.246c0.162,0.138,0.289,0.241,0.383,0.313c0.095,0.073,0.218,0.162,0.371,0.265
	c0.152,0.102,0.293,0.177,0.42,0.227c0.128,0.052,0.248,0.076,0.358,0.076h0.009h0.009c0.11,0,0.229-0.024,0.358-0.076
	c0.127-0.05,0.268-0.125,0.42-0.227c0.153-0.103,0.277-0.191,0.371-0.265c0.094-0.071,0.223-0.175,0.383-0.313
	c0.161-0.134,0.258-0.216,0.292-0.246c1.155-0.914,2.269-1.795,3.341-2.64c0.3-0.239,0.579-0.56,0.836-0.962
	C149.149,414.203,149.277,413.839,149.277,413.511z M150.344,413.201v9.066c0,0.367-0.13,0.681-0.392,0.942
	c-0.261,0.261-0.575,0.392-0.941,0.392h-12.265c-0.366,0-0.68-0.131-0.941-0.392c-0.262-0.262-0.392-0.575-0.392-0.942v-9.066
	c0-0.365,0.13-0.678,0.392-0.939c0.261-0.261,0.575-0.392,0.941-0.392h12.265c0.367,0,0.681,0.131,0.941,0.392
	C150.214,412.523,150.344,412.835,150.344,413.201z"/>
<path fill="#005BAA" stroke="#005BAA" stroke-width="0.5" stroke-miterlimit="10" d="M200.376,422.267v-6.397
	c-0.178,0.199-0.368,0.383-0.574,0.55c-1.488,1.143-2.672,2.082-3.549,2.814c-0.283,0.241-0.515,0.427-0.692,0.56
	s-0.417,0.267-0.72,0.404c-0.303,0.136-0.588,0.203-0.854,0.203h-0.01h-0.008c-0.268,0-0.552-0.067-0.855-0.203
	c-0.302-0.138-0.542-0.271-0.72-0.404c-0.177-0.133-0.409-0.318-0.69-0.56c-0.879-0.732-2.063-1.672-3.551-2.814
	c-0.205-0.167-0.396-0.351-0.574-0.55v6.397c0,0.072,0.026,0.136,0.078,0.188c0.053,0.053,0.115,0.08,0.188,0.08h12.266
	c0.072,0,0.135-0.027,0.188-0.08C200.351,422.403,200.376,422.339,200.376,422.267z M200.376,413.511v-0.093v-0.111
	c0,0-0.001-0.036-0.004-0.108c-0.002-0.073-0.01-0.107-0.024-0.104c-0.014,0.003-0.028-0.022-0.046-0.075
	c-0.017-0.053-0.041-0.073-0.075-0.062c-0.034,0.011-0.073,0.004-0.116-0.021h-12.266c-0.072,0-0.135,0.027-0.188,0.078
	c-0.052,0.054-0.078,0.117-0.078,0.187c0,0.936,0.408,1.723,1.225,2.368c1.072,0.845,2.186,1.726,3.341,2.64
	c0.033,0.03,0.131,0.112,0.292,0.246c0.161,0.138,0.289,0.241,0.383,0.313c0.096,0.073,0.218,0.162,0.371,0.265
	c0.152,0.102,0.293,0.177,0.42,0.227c0.129,0.052,0.248,0.076,0.359,0.076h0.008h0.01c0.109,0,0.229-0.024,0.357-0.076
	c0.127-0.05,0.268-0.125,0.42-0.227c0.154-0.103,0.277-0.191,0.371-0.265c0.094-0.071,0.223-0.175,0.383-0.313
	c0.162-0.134,0.259-0.216,0.293-0.246c1.154-0.914,2.269-1.795,3.341-2.64c0.3-0.239,0.579-0.56,0.837-0.962
	C200.249,414.203,200.376,413.839,200.376,413.511z M201.444,413.201v9.066c0,0.367-0.13,0.681-0.392,0.942
	c-0.262,0.261-0.575,0.392-0.941,0.392h-12.266c-0.366,0-0.68-0.131-0.94-0.392c-0.262-0.262-0.392-0.575-0.392-0.942v-9.066
	c0-0.365,0.13-0.678,0.392-0.939c0.261-0.261,0.575-0.392,0.94-0.392h12.266c0.366,0,0.68,0.131,0.941,0.392
	C201.314,412.523,201.444,412.835,201.444,413.201z"/>
<path fill="#3E3E3F" d="M14.861,164.659c0,1.539-1.248,2.786-2.786,2.786h-1.631l0.818-0.818c0.299-0.3,0.52-0.655,0.654-1.039
	h0.159c0.514,0,0.929-0.415,0.929-0.929V156.3H1.858v8.358c0,0.514,0.416,0.929,0.929,0.929h0.158
	c0.135,0.385,0.356,0.743,0.658,1.044l0.815,0.813H2.787c-1.54,0-2.787-1.247-2.787-2.786v-9.288c0-1.538,1.247-2.786,2.787-2.786
	h9.289c1.539,0,2.786,1.248,2.786,2.786V164.659z M2.787,153.513c-0.513,0-0.929,0.416-0.929,0.929s0.416,0.929,0.929,0.929
	c0.512,0,0.929-0.416,0.929-0.929S3.299,153.513,2.787,153.513z M5.573,163.73h0.929v-2.786c0-0.514,0.416-0.929,0.929-0.929
	c0.514,0,0.929,0.415,0.929,0.929v2.786h0.929c0.375,0,0.715,0.226,0.857,0.574c0.144,0.349,0.063,0.748-0.201,1.013l-1.857,1.857
	c-0.182,0.182-0.419,0.272-0.657,0.272s-0.476-0.091-0.657-0.272l-1.858-1.857c-0.265-0.265-0.344-0.667-0.201-1.013
	C4.857,163.956,5.197,163.73,5.573,163.73z"/>
<path fill="#5C85B1" d="M160.385,191.925l-1.374,1.372c-0.857,0.856-2.128,1.027-3.162,0.538l3.162-3.163
	c0.363-0.364,0.363-0.95,0-1.313l-1.313-1.316c-0.363-0.364-0.95-0.364-1.313,0l-3.163,3.164c-0.493-1.033-0.321-2.307,0.536-3.164
	l1.371-1.372c1.088-1.087,2.854-1.087,3.94,0l1.315,1.314C161.473,189.075,161.473,190.837,160.385,191.925z M151.132,195.922
	c-0.363-0.361-0.363-0.947,0-1.312l3.94-3.938c0.364-0.364,0.95-0.364,1.314,0c0.363,0.361,0.363,0.947,0,1.312l-3.94,3.938
	C152.083,196.288,151.494,196.288,151.132,195.922z M148.504,197.239l1.313,1.313c0.363,0.363,0.95,0.363,1.313,0l3.163-3.164
	c0.493,1.033,0.321,2.307-0.535,3.164l-1.256,1.372c-1.089,1.089-2.852,1.089-3.94,0l-1.431-1.429c-1.088-1.09-1.088-2.853,0-3.941
	l1.373-1.257c0.858-0.856,2.128-1.028,3.164-0.536l-3.164,3.161C148.142,196.288,148.142,196.877,148.504,197.239z M161.201,195.364
	v3.486c0,0.135-0.049,0.251-0.148,0.35c-0.098,0.099-0.215,0.147-0.35,0.147c-0.135,0-0.251-0.049-0.35-0.147l-1.121-1.12
	l-2.583,2.583c-0.052,0.052-0.111,0.078-0.179,0.078s-0.127-0.026-0.179-0.078l-0.887-0.887c-0.052-0.052-0.078-0.111-0.078-0.179
	c0-0.068,0.026-0.128,0.078-0.18l2.583-2.583l-1.12-1.121c-0.099-0.098-0.148-0.215-0.148-0.35s0.049-0.251,0.148-0.351
	c0.098-0.099,0.215-0.147,0.35-0.147h3.486c0.135,0,0.252,0.049,0.35,0.147C161.151,195.113,161.201,195.229,161.201,195.364z"/>
<path fill="#3E3E3F" d="M15.098,191.925l-1.374,1.372c-0.857,0.856-2.128,1.027-3.162,0.538l3.162-3.163
	c0.363-0.364,0.363-0.95,0-1.313l-1.313-1.316c-0.363-0.364-0.95-0.364-1.313,0l-3.163,3.164c-0.493-1.033-0.321-2.307,0.536-3.164
	l1.371-1.372c1.088-1.087,2.854-1.087,3.94,0l1.315,1.314C16.185,189.075,16.185,190.837,15.098,191.925z M5.844,195.922
	c-0.363-0.361-0.363-0.947,0-1.312l3.94-3.938c0.364-0.364,0.95-0.364,1.314,0c0.363,0.361,0.363,0.947,0,1.312l-3.94,3.938
	C6.795,196.288,6.207,196.288,5.844,195.922z M3.217,197.239l1.313,1.313c0.363,0.363,0.95,0.363,1.313,0l3.163-3.164
	c0.493,1.033,0.321,2.307-0.535,3.164l-1.256,1.372c-1.089,1.089-2.852,1.089-3.94,0l-1.431-1.429c-1.088-1.09-1.088-2.853,0-3.941
	l1.373-1.257c0.858-0.856,2.128-1.028,3.164-0.536l-3.164,3.161C2.854,196.288,2.854,196.877,3.217,197.239z"/>
<path fill="#5C85B1" d="M51.582,191.925l-1.374,1.372c-0.857,0.856-2.128,1.027-3.162,0.538l3.162-3.163
	c0.363-0.364,0.363-0.95,0-1.313l-1.313-1.316c-0.363-0.364-0.95-0.364-1.313,0l-3.163,3.164c-0.493-1.033-0.321-2.307,0.536-3.164
	l1.371-1.372c1.088-1.087,2.854-1.087,3.94,0l1.315,1.314C52.669,189.075,52.669,190.837,51.582,191.925z M42.328,195.922
	c-0.363-0.361-0.363-0.947,0-1.312l3.94-3.938c0.364-0.364,0.95-0.364,1.314,0c0.363,0.361,0.363,0.947,0,1.312l-3.94,3.938
	C43.279,196.288,42.69,196.288,42.328,195.922z M39.701,197.239l1.313,1.313c0.363,0.363,0.95,0.363,1.313,0l3.163-3.164
	c0.493,1.033,0.321,2.307-0.535,3.164l-1.256,1.372c-1.089,1.089-2.852,1.089-3.94,0l-1.431-1.429c-1.088-1.09-1.088-2.853,0-3.941
	l1.373-1.257c0.858-0.856,2.128-1.028,3.164-0.536l-3.164,3.161C39.338,196.288,39.338,196.877,39.701,197.239z"/>
<path fill="#005BAA" d="M87.774,191.925l-1.374,1.372c-0.857,0.856-2.128,1.027-3.162,0.538l3.162-3.163
	c0.363-0.364,0.363-0.95,0-1.313l-1.313-1.316c-0.363-0.364-0.95-0.364-1.313,0l-3.163,3.164c-0.493-1.033-0.321-2.307,0.536-3.164
	l1.371-1.372c1.088-1.087,2.854-1.087,3.94,0l1.315,1.314C88.862,189.075,88.862,190.837,87.774,191.925z M78.521,195.922
	c-0.363-0.361-0.363-0.947,0-1.312l3.94-3.938c0.364-0.364,0.95-0.364,1.314,0c0.363,0.361,0.363,0.947,0,1.312l-3.94,3.938
	C79.472,196.288,78.883,196.288,78.521,195.922z M75.894,197.239l1.313,1.313c0.363,0.363,0.95,0.363,1.313,0l3.163-3.164
	c0.493,1.033,0.321,2.307-0.535,3.164l-1.256,1.372c-1.089,1.089-2.852,1.089-3.94,0l-1.431-1.429c-1.088-1.09-1.088-2.853,0-3.941
	l1.373-1.257c0.858-0.856,2.128-1.028,3.164-0.536l-3.164,3.161C75.531,196.288,75.531,196.877,75.894,197.239z"/>
<path fill="#3E3E3F" d="M122.598,191.925l-1.374,1.372c-0.857,0.856-2.128,1.027-3.162,0.538l3.162-3.163
	c0.363-0.364,0.363-0.95,0-1.313l-1.313-1.316c-0.363-0.364-0.95-0.364-1.313,0l-3.163,3.164c-0.493-1.033-0.321-2.307,0.536-3.164
	l1.371-1.372c1.088-1.087,2.854-1.087,3.94,0l1.315,1.314C123.686,189.075,123.686,190.837,122.598,191.925z M113.345,195.922
	c-0.363-0.361-0.363-0.947,0-1.312l3.94-3.938c0.364-0.364,0.95-0.364,1.314,0c0.363,0.361,0.363,0.947,0,1.312l-3.94,3.938
	C114.296,196.288,113.707,196.288,113.345,195.922z M110.717,197.239l1.313,1.313c0.363,0.363,0.95,0.363,1.313,0l3.163-3.164
	c0.493,1.033,0.321,2.307-0.535,3.164l-1.256,1.372c-1.089,1.089-2.852,1.089-3.94,0l-1.431-1.429c-1.088-1.09-1.088-2.853,0-3.941
	l1.373-1.257c0.858-0.856,2.128-1.028,3.164-0.536l-3.164,3.161C110.355,196.288,110.355,196.877,110.717,197.239z M123.414,195.364
	v3.486c0,0.135-0.049,0.251-0.148,0.35c-0.098,0.099-0.215,0.147-0.35,0.147c-0.135,0-0.251-0.049-0.35-0.147l-1.121-1.12
	l-2.583,2.583c-0.052,0.052-0.111,0.078-0.179,0.078s-0.127-0.026-0.179-0.078l-0.887-0.887c-0.052-0.052-0.078-0.111-0.078-0.179
	c0-0.068,0.026-0.128,0.078-0.18l2.583-2.583l-1.12-1.121c-0.099-0.098-0.148-0.215-0.148-0.35s0.049-0.251,0.148-0.351
	c0.098-0.099,0.215-0.147,0.35-0.147h3.486c0.135,0,0.252,0.049,0.35,0.147C123.364,195.113,123.414,195.229,123.414,195.364z"/>
<path fill="#005BAA" d="M199.756,191.925l-1.374,1.372c-0.856,0.856-2.127,1.027-3.162,0.538l3.162-3.163
	c0.363-0.364,0.363-0.95,0-1.313l-1.313-1.316c-0.363-0.364-0.949-0.364-1.313,0l-3.162,3.164c-0.493-1.033-0.322-2.307,0.535-3.164
	l1.371-1.372c1.088-1.087,2.854-1.087,3.939,0l1.315,1.314C200.843,189.075,200.843,190.837,199.756,191.925z M190.503,195.922
	c-0.363-0.361-0.363-0.947,0-1.312l3.939-3.938c0.363-0.364,0.95-0.364,1.314,0c0.363,0.361,0.363,0.947,0,1.312l-3.939,3.938
	C191.455,196.288,190.865,196.288,190.503,195.922z M187.875,197.239l1.313,1.313c0.363,0.363,0.95,0.363,1.313,0l3.163-3.164
	c0.493,1.033,0.321,2.307-0.535,3.164l-1.256,1.372c-1.09,1.089-2.853,1.089-3.941,0l-1.43-1.429c-1.088-1.09-1.088-2.853,0-3.941
	l1.373-1.257c0.858-0.856,2.128-1.028,3.164-0.536l-3.164,3.161C187.513,196.288,187.513,196.877,187.875,197.239z M200.572,195.364
	v3.486c0,0.135-0.049,0.251-0.148,0.35c-0.098,0.099-0.215,0.147-0.35,0.147s-0.252-0.049-0.35-0.147l-1.121-1.12l-2.584,2.583
	c-0.051,0.052-0.111,0.078-0.178,0.078c-0.068,0-0.128-0.026-0.18-0.078l-0.887-0.887c-0.053-0.052-0.078-0.111-0.078-0.179
	c0-0.068,0.025-0.128,0.078-0.18l2.583-2.583l-1.12-1.121c-0.1-0.098-0.148-0.215-0.148-0.35s0.049-0.251,0.148-0.351
	c0.098-0.099,0.215-0.147,0.35-0.147h3.486c0.135,0,0.252,0.049,0.35,0.147C200.523,195.113,200.572,195.229,200.572,195.364z"/>
<path fill="#5C85B1" d="M53.834,164.659c0,1.539-1.248,2.786-2.786,2.786h-1.631l0.818-0.818c0.299-0.3,0.52-0.655,0.654-1.039
	h0.159c0.514,0,0.929-0.415,0.929-0.929V156.3H40.831v8.358c0,0.514,0.416,0.929,0.929,0.929h0.158
	c0.135,0.385,0.356,0.743,0.658,1.044l0.815,0.813h-1.631c-1.54,0-2.787-1.247-2.787-2.786v-9.288c0-1.538,1.247-2.786,2.787-2.786
	h9.289c1.539,0,2.786,1.248,2.786,2.786V164.659z M41.759,153.513c-0.513,0-0.929,0.416-0.929,0.929s0.416,0.929,0.929,0.929
	c0.512,0,0.929-0.416,0.929-0.929S42.271,153.513,41.759,153.513z M44.546,163.73h0.929v-2.786c0-0.514,0.416-0.929,0.929-0.929
	c0.514,0,0.929,0.415,0.929,0.929v2.786h0.929c0.375,0,0.715,0.226,0.857,0.574c0.144,0.349,0.063,0.748-0.201,1.013l-1.857,1.857
	c-0.182,0.182-0.419,0.272-0.657,0.272s-0.476-0.091-0.657-0.272l-1.858-1.857c-0.265-0.265-0.344-0.667-0.201-1.013
	C43.83,163.956,44.17,163.73,44.546,163.73z"/>
<path fill="#005BAA" d="M89.969,164.659c0,1.539-1.248,2.786-2.786,2.786h-1.631l0.818-0.818c0.299-0.3,0.52-0.655,0.654-1.039
	h0.159c0.514,0,0.929-0.415,0.929-0.929V156.3H76.966v8.358c0,0.514,0.416,0.929,0.929,0.929h0.158
	c0.135,0.385,0.356,0.743,0.658,1.044l0.815,0.813h-1.631c-1.54,0-2.787-1.247-2.787-2.786v-9.288c0-1.538,1.247-2.786,2.787-2.786
	h9.289c1.539,0,2.786,1.248,2.786,2.786V164.659z M77.895,153.513c-0.513,0-0.929,0.416-0.929,0.929s0.416,0.929,0.929,0.929
	c0.512,0,0.929-0.416,0.929-0.929S78.407,153.513,77.895,153.513z M80.681,163.73h0.929v-2.786c0-0.514,0.416-0.929,0.929-0.929
	c0.514,0,0.929,0.415,0.929,0.929v2.786h0.929c0.375,0,0.715,0.226,0.857,0.574c0.144,0.349,0.063,0.748-0.201,1.013l-1.857,1.857
	c-0.182,0.182-0.419,0.272-0.657,0.272s-0.476-0.091-0.657-0.272l-1.858-1.857c-0.265-0.265-0.344-0.667-0.201-1.013
	C79.965,163.956,80.305,163.73,80.681,163.73z"/>
</svg>
