<?xml version="1.0" encoding="utf-8"?>
<!-- Generator: Adobe Illustrator 15.1.0, SVG Export Plug-In . SVG Version: 6.00 Build 0)  -->
<!DOCTYPE svg PUBLIC "-//W3C//DTD SVG 1.1//EN" "http://www.w3.org/Graphics/SVG/1.1/DTD/svg11.dtd">
<svg version="1.1" id="Lager_1" xmlns="http://www.w3.org/2000/svg" xmlns:xlink="http://www.w3.org/1999/xlink" x="0px" y="0px"
	 width="525px" height="1047px" viewBox="-24.75 -12.5 525 1047" enable-background="new -24.75 -12.5 525 1047"
	 xml:space="preserve">
<text transform="matrix(1 0 0 1 182.46 136.0938)" fill="#005BAA" font-family="'MyriadPro-BoldCond'" font-size="9.4451">JPG</text>
<text transform="matrix(1 0 0 1 182.46 121.0313)" fill="#005BAA" font-family="'MyriadPro-BoldCond'" font-size="9.4451">XLS</text>
<text transform="matrix(1 0 0 1 182.46 106.332)" fill="#005BAA" font-family="'MyriadPro-BoldCond'" font-size="9.4451">DOC</text>
<text transform="matrix(1 0 0 1 182.46 91.1475)" fill="#005BAA" font-family="'MyriadPro-BoldCond'" font-size="9.4451">PDF</text>
<text transform="matrix(1 0 0 1 150.459 136.0938)" fill="#5C85B1" font-family="'MyriadPro-BoldCond'" font-size="9.4451">JPG</text>
<text transform="matrix(1 0 0 1 150.46 121.0313)" fill="#5C85B1" font-family="'MyriadPro-BoldCond'" font-size="9.4451">XLS</text>
<text transform="matrix(1 0 0 1 150.459 106.332)" fill="#5C85B1" font-family="'MyriadPro-BoldCond'" font-size="9.4451">DOC</text>
<text transform="matrix(1 0 0 1 150.459 91.1475)" fill="#5C85B1" font-family="'MyriadPro-BoldCond'" font-size="9.4451">PDF</text>
<text transform="matrix(1 0 0 1 119.4961 136.0938)" fill="#3E3E3F" font-family="'MyriadPro-BoldCond'" font-size="9.4451">JPG</text>
<text transform="matrix(1 0 0 1 119.4971 121.0313)" fill="#3E3E3F" font-family="'MyriadPro-BoldCond'" font-size="9.4451">XLS</text>
<text transform="matrix(1 0 0 1 119.4961 106.332)" fill="#3E3E3F" font-family="'MyriadPro-BoldCond'" font-size="9.4451">DOC</text>
<text transform="matrix(1 0 0 1 119.4961 91.1475)" fill="#3E3E3F" font-family="'MyriadPro-BoldCond'" font-size="9.4451">PDF</text>
<path fill="#B0B0B0" d="M96.147,504.865v1.169c0,0.157-0.076,0.294-0.229,0.409c-0.151,0.106-0.331,0.174-0.54,0.174H78.466
	c-0.207,0-0.389-0.063-0.54-0.174c-0.151-0.115-0.229-0.252-0.229-0.409v-1.169c0-0.157,0.077-0.293,0.229-0.41
	c0.151-0.113,0.333-0.173,0.54-0.173h16.912c0.209,0,0.389,0.06,0.54,0.173C96.071,504.572,96.147,504.707,96.147,504.865z
	 M96.147,500.36v1.168c0,0.146-0.076,0.294-0.229,0.404c-0.151,0.111-0.331,0.18-0.54,0.18H78.466c-0.207,0-0.389-0.063-0.54-0.18
	c-0.151-0.11-0.229-0.258-0.229-0.404v-1.168c0-0.157,0.077-0.294,0.229-0.41c0.151-0.113,0.333-0.174,0.54-0.174h16.912
	c0.209,0,0.389,0.061,0.54,0.174C96.071,500.066,96.147,500.202,96.147,500.36z M96.147,496.233v1.169
	c0,0.146-0.076,0.295-0.229,0.399c-0.151,0.114-0.331,0.184-0.54,0.184H78.466c-0.207,0-0.389-0.063-0.54-0.184
	c-0.151-0.104-0.229-0.253-0.229-0.399v-1.169c0-0.157,0.077-0.294,0.229-0.409c0.152-0.114,0.333-0.174,0.54-0.174h16.912
	c0.209,0,0.389,0.06,0.54,0.174C96.071,495.939,96.147,496.075,96.147,496.233z M96.147,509.373v1.168
	c0,0.158-0.076,0.296-0.229,0.409c-0.151,0.117-0.331,0.175-0.54,0.175H78.466c-0.207,0-0.389-0.058-0.54-0.175
	c-0.151-0.113-0.229-0.251-0.229-0.409v-1.168c0-0.157,0.077-0.294,0.229-0.41c0.151-0.114,0.333-0.173,0.54-0.173h16.912
	c0.209,0,0.389,0.059,0.54,0.173C96.071,509.079,96.147,509.215,96.147,509.373z"/>
<path fill="#B0B0B0" d="M81.52,471.671v2.899c0,0.131-0.048,0.243-0.14,0.34c-0.094,0.099-0.205,0.146-0.334,0.146h-2.841
	c-0.128,0-0.238-0.047-0.332-0.146c-0.097-0.097-0.144-0.209-0.144-0.34v-2.899c0-0.132,0.047-0.245,0.144-0.341
	c0.094-0.096,0.204-0.146,0.332-0.146h2.841c0.129,0,0.24,0.059,0.334,0.146C81.472,471.426,81.52,471.54,81.52,471.671z
	 M81.52,465.868v2.896c0,0.143-0.048,0.246-0.14,0.352c-0.094,0.097-0.205,0.145-0.334,0.145h-2.841
	c-0.128,0-0.238-0.048-0.332-0.145c-0.097-0.104-0.144-0.209-0.144-0.352v-2.896c0-0.131,0.047-0.245,0.144-0.34
	c0.094-0.104,0.204-0.146,0.332-0.146h2.841c0.129,0,0.24,0.049,0.334,0.146C81.472,465.623,81.52,465.738,81.52,465.868z
	 M81.52,460.067v2.896c0,0.131-0.048,0.243-0.14,0.342c-0.094,0.104-0.205,0.146-0.334,0.146h-2.841
	c-0.128,0-0.238-0.048-0.332-0.146c-0.097-0.099-0.144-0.211-0.144-0.342v-2.896c0-0.144,0.047-0.246,0.144-0.352
	c0.094-0.098,0.204-0.146,0.332-0.146h2.841c0.129,0,0.24,0.048,0.334,0.146C81.472,459.821,81.52,459.934,81.52,460.067z
	 M96.112,471.671v2.899c0,0.131-0.026,0.243-0.086,0.34c-0.059,0.099-0.125,0.146-0.204,0.146H83.657
	c-0.079,0-0.146-0.047-0.203-0.146c-0.061-0.097-0.087-0.209-0.087-0.34v-2.899c0-0.132,0.026-0.245,0.087-0.341
	c0.057-0.096,0.124-0.146,0.203-0.146H95.82c0.079,0,0.146,0.059,0.204,0.146C96.084,471.421,96.112,471.54,96.112,471.671z
	 M96.112,465.868v2.896c0,0.143-0.026,0.246-0.086,0.352c-0.059,0.097-0.125,0.145-0.204,0.145H83.657
	c-0.079,0-0.146-0.048-0.203-0.145c-0.061-0.104-0.087-0.209-0.087-0.352v-2.896c0-0.131,0.026-0.245,0.087-0.34
	c0.057-0.104,0.124-0.146,0.203-0.146H95.82c0.079,0,0.146,0.049,0.204,0.146C96.084,465.623,96.112,465.738,96.112,465.868z
	 M96.112,460.067v2.896c0,0.131-0.026,0.243-0.086,0.342c-0.059,0.104-0.125,0.146-0.204,0.146H83.657
	c-0.079,0-0.146-0.048-0.203-0.146c-0.061-0.099-0.087-0.211-0.087-0.342v-2.896c0-0.144,0.026-0.246,0.087-0.352
	c0.057-0.098,0.124-0.146,0.203-0.146H95.82c0.079,0,0.146,0.048,0.204,0.146C96.084,459.821,96.112,459.934,96.112,460.067z"/>
<path fill="#FFFFFF" d="M60.292,504.865v1.169c0,0.157-0.076,0.294-0.229,0.409c-0.15,0.106-0.332,0.174-0.541,0.174H42.61
	c-0.207,0-0.388-0.063-0.539-0.174c-0.15-0.115-0.229-0.252-0.229-0.409v-1.169c0-0.157,0.076-0.293,0.229-0.41
	c0.151-0.113,0.332-0.173,0.539-0.173h16.912c0.209,0,0.391,0.06,0.541,0.173C60.216,504.572,60.292,504.707,60.292,504.865z
	 M60.292,500.36v1.168c0,0.146-0.076,0.294-0.229,0.404c-0.151,0.111-0.332,0.18-0.541,0.18H42.61c-0.207,0-0.388-0.063-0.539-0.18
	c-0.15-0.11-0.229-0.258-0.229-0.404v-1.168c0-0.157,0.076-0.294,0.229-0.41c0.151-0.113,0.332-0.174,0.539-0.174h16.912
	c0.209,0,0.391,0.061,0.541,0.174C60.216,500.066,60.292,500.202,60.292,500.36z M60.292,496.233v1.169
	c0,0.146-0.076,0.295-0.229,0.399c-0.151,0.114-0.332,0.184-0.541,0.184H42.61c-0.207,0-0.388-0.063-0.539-0.184
	c-0.15-0.104-0.229-0.253-0.229-0.399v-1.169c0-0.157,0.076-0.294,0.229-0.409c0.151-0.114,0.332-0.174,0.539-0.174h16.912
	c0.209,0,0.391,0.06,0.541,0.174C60.215,495.939,60.292,496.075,60.292,496.233z M60.292,509.373v1.168
	c0,0.158-0.076,0.296-0.229,0.409c-0.15,0.117-0.332,0.175-0.541,0.175H42.61c-0.207,0-0.388-0.058-0.539-0.175
	c-0.15-0.113-0.229-0.251-0.229-0.409v-1.168c0-0.157,0.076-0.294,0.229-0.41c0.151-0.114,0.332-0.173,0.539-0.173h16.912
	c0.209,0,0.391,0.059,0.541,0.173C60.216,509.079,60.292,509.215,60.292,509.373z"/>
<path fill="#FFFFFF" d="M45.665,471.671v2.899c0,0.131-0.048,0.243-0.143,0.34c-0.094,0.099-0.205,0.146-0.333,0.146h-2.84
	c-0.128,0-0.238-0.047-0.332-0.146c-0.095-0.097-0.142-0.209-0.142-0.34v-2.899c0-0.132,0.047-0.245,0.142-0.341
	c0.094-0.096,0.204-0.146,0.332-0.146h2.841c0.128,0,0.239,0.059,0.333,0.146C45.617,471.426,45.665,471.54,45.665,471.671z
	 M45.665,465.868v2.896c0,0.143-0.048,0.246-0.143,0.352c-0.094,0.097-0.205,0.145-0.333,0.145h-2.84
	c-0.128,0-0.238-0.048-0.332-0.145c-0.095-0.104-0.142-0.209-0.142-0.352v-2.896c0-0.131,0.047-0.245,0.142-0.34
	c0.094-0.104,0.204-0.146,0.332-0.146h2.841c0.128,0,0.239,0.049,0.333,0.146C45.617,465.623,45.665,465.738,45.665,465.868z
	 M45.665,460.067v2.896c0,0.131-0.048,0.243-0.143,0.342c-0.094,0.104-0.205,0.146-0.333,0.146h-2.84
	c-0.128,0-0.238-0.048-0.332-0.146c-0.095-0.099-0.142-0.211-0.142-0.342v-2.896c0-0.144,0.047-0.246,0.142-0.352
	c0.094-0.098,0.204-0.146,0.332-0.146h2.841c0.128,0,0.239,0.048,0.333,0.146C45.617,459.821,45.665,459.934,45.665,460.067z
	 M60.257,471.671v2.899c0,0.131-0.027,0.243-0.086,0.34c-0.059,0.099-0.125,0.146-0.203,0.146H47.802
	c-0.078,0-0.146-0.047-0.203-0.146c-0.058-0.097-0.086-0.209-0.086-0.34v-2.899c0-0.132,0.028-0.245,0.086-0.341
	c0.057-0.096,0.125-0.146,0.203-0.146h12.166c0.078,0,0.146,0.059,0.203,0.146C60.229,471.426,60.257,471.54,60.257,471.671z
	 M60.257,465.868v2.896c0,0.143-0.027,0.246-0.086,0.352c-0.059,0.097-0.125,0.145-0.203,0.145H47.802
	c-0.078,0-0.146-0.048-0.203-0.145c-0.058-0.104-0.086-0.209-0.086-0.352v-2.896c0-0.131,0.028-0.245,0.086-0.34
	c0.057-0.104,0.125-0.146,0.203-0.146h12.166c0.078,0,0.146,0.049,0.203,0.146C60.229,465.623,60.257,465.738,60.257,465.868z
	 M60.257,460.067v2.896c0,0.131-0.027,0.243-0.086,0.342c-0.059,0.104-0.125,0.146-0.203,0.146H47.802
	c-0.078,0-0.146-0.048-0.203-0.146c-0.058-0.099-0.086-0.211-0.086-0.342v-2.896c0-0.144,0.028-0.246,0.086-0.352
	c0.057-0.098,0.125-0.146,0.203-0.146h12.166c0.078,0,0.146,0.048,0.203,0.146C60.229,459.821,60.257,459.934,60.257,460.067z"/>
<path fill="#3E3E3F" d="M9.764,471.99v2.896c0,0.131-0.047,0.243-0.14,0.339c-0.096,0.104-0.205,0.146-0.334,0.146H6.449
	c-0.13,0-0.238-0.048-0.332-0.146c-0.096-0.096-0.143-0.208-0.143-0.339v-2.896c0-0.132,0.047-0.246,0.143-0.34
	c0.094-0.104,0.202-0.146,0.332-0.146H9.29c0.129,0,0.238,0.048,0.334,0.146C9.717,471.743,9.764,471.858,9.764,471.99z
	 M9.764,466.188v2.896c0,0.132-0.047,0.245-0.14,0.341c-0.096,0.104-0.205,0.146-0.334,0.146H6.449c-0.13,0-0.238-0.047-0.332-0.146
	c-0.096-0.096-0.143-0.209-0.143-0.341v-2.896c0-0.138,0.047-0.24,0.143-0.347c0.094-0.098,0.202-0.146,0.332-0.146H9.29
	c0.129,0,0.238,0.049,0.334,0.146C9.717,465.942,9.764,466.055,9.764,466.188z M9.764,460.384v2.899c0,0.131-0.047,0.244-0.14,0.343
	c-0.096,0.094-0.205,0.142-0.334,0.142H6.449c-0.13,0-0.238-0.048-0.332-0.142c-0.096-0.099-0.143-0.212-0.143-0.343v-2.899
	c0-0.132,0.047-0.246,0.143-0.341c0.094-0.098,0.202-0.145,0.332-0.145H9.29c0.129,0,0.238,0.047,0.334,0.145
	C9.717,460.138,9.764,460.252,9.764,460.384z M24.356,471.99v2.896c0,0.131-0.026,0.243-0.086,0.339
	c-0.058,0.104-0.125,0.146-0.203,0.146H11.901c-0.079,0-0.146-0.048-0.201-0.146c-0.061-0.096-0.089-0.208-0.089-0.339v-2.896
	c0-0.132,0.028-0.246,0.089-0.34c0.057-0.104,0.122-0.146,0.201-0.146h12.166c0.078,0,0.146,0.048,0.203,0.146
	C24.328,471.743,24.356,471.858,24.356,471.99z M24.356,466.188v2.896c0,0.132-0.026,0.245-0.086,0.341
	c-0.058,0.104-0.125,0.146-0.203,0.146H11.901c-0.079,0-0.146-0.047-0.201-0.146c-0.061-0.096-0.089-0.209-0.089-0.341v-2.896
	c0-0.138,0.028-0.24,0.089-0.347c0.057-0.098,0.122-0.146,0.201-0.146h12.166c0.078,0,0.146,0.049,0.203,0.146
	C24.328,465.942,24.356,466.055,24.356,466.188z M24.356,460.384v2.899c0,0.131-0.026,0.244-0.086,0.343
	c-0.058,0.094-0.125,0.142-0.203,0.142H11.901c-0.079,0-0.146-0.048-0.201-0.142c-0.061-0.099-0.089-0.212-0.089-0.343v-2.899
	c0-0.132,0.028-0.246,0.089-0.341c0.057-0.098,0.122-0.145,0.201-0.145h12.166c0.078,0,0.146,0.047,0.203,0.145
	C24.328,460.138,24.356,460.252,24.356,460.384z"/>
<path fill="#3E3E3F" d="M24.392,505.183v1.168c0,0.158-0.076,0.306-0.229,0.409c-0.152,0.117-0.332,0.174-0.541,0.174H6.71
	c-0.207,0-0.391-0.057-0.54-0.174c-0.151-0.108-0.229-0.251-0.229-0.409v-1.168c0-0.147,0.077-0.294,0.229-0.4
	c0.149-0.113,0.333-0.184,0.54-0.184h16.912c0.209,0,0.389,0.063,0.541,0.184C24.315,504.889,24.392,505.025,24.392,505.183z
	 M24.392,500.678v1.167c0,0.157-0.076,0.295-0.229,0.41c-0.152,0.115-0.332,0.174-0.541,0.174H6.71c-0.207,0-0.391-0.059-0.54-0.174
	c-0.151-0.115-0.229-0.253-0.229-0.41v-1.167c0-0.151,0.077-0.295,0.229-0.411c0.149-0.104,0.333-0.174,0.54-0.174h16.912
	c0.209,0,0.389,0.063,0.541,0.174C24.315,500.383,24.392,500.52,24.392,500.678z M24.392,496.551v1.168
	c0,0.158-0.076,0.295-0.229,0.411c-0.152,0.113-0.332,0.172-0.541,0.172H6.71c-0.207,0-0.391-0.059-0.54-0.172
	c-0.151-0.116-0.229-0.253-0.229-0.411v-1.168c0-0.158,0.077-0.295,0.229-0.409c0.149-0.105,0.333-0.174,0.54-0.174h16.912
	c0.209,0,0.389,0.063,0.541,0.174C24.315,496.256,24.392,496.393,24.392,496.551z M24.392,509.691v1.168
	c0,0.147-0.076,0.295-0.229,0.399c-0.152,0.116-0.332,0.185-0.541,0.185H6.71c-0.207,0-0.391-0.063-0.54-0.185
	c-0.151-0.104-0.229-0.252-0.229-0.399v-1.168c0-0.158,0.077-0.293,0.229-0.41c0.149-0.114,0.333-0.173,0.54-0.173h16.912
	c0.209,0,0.389,0.059,0.541,0.173C24.315,509.398,24.392,509.532,24.392,509.691z"/>
<path fill="#3E3E3F" d="M13.178,133.827c0,0.26-0.092,0.479-0.275,0.664l-1.327,1.329c-0.185,0.182-0.403,0.273-0.665,0.273
	c-0.264,0-0.482-0.093-0.664-0.273l-2.875-2.876l-2.875,2.876c-0.184,0.182-0.403,0.273-0.664,0.273
	c-0.263,0-0.482-0.093-0.664-0.273l-1.329-1.329c-0.184-0.185-0.274-0.404-0.274-0.664c0-0.262,0.093-0.483,0.274-0.666l2.874-2.872
	l-2.874-2.874c-0.184-0.185-0.274-0.404-0.274-0.665c0-0.262,0.093-0.482,0.274-0.663l1.329-1.332
	c0.182-0.184,0.401-0.274,0.664-0.274c0.261,0,0.48,0.092,0.664,0.274l2.875,2.874l2.875-2.874c0.181-0.184,0.4-0.274,0.664-0.274
	c0.262,0,0.48,0.092,0.665,0.274l1.327,1.332c0.185,0.181,0.275,0.401,0.275,0.663c0,0.261-0.092,0.48-0.275,0.665l-2.873,2.874
	l2.873,2.872C13.085,133.343,13.178,133.566,13.178,133.827z"/>
<path d="M0.896,5.369c0-0.157,0.06-0.292,0.171-0.403L5.1,0.932C5.214,0.816,5.349,0.76,5.505,0.76c0.156,0,0.291,0.056,0.405,0.172
	l4.032,4.034c0.114,0.111,0.173,0.246,0.173,0.403c0,0.156-0.06,0.293-0.173,0.404C9.83,5.89,9.696,5.946,9.539,5.946H1.472
	c-0.157,0-0.292-0.056-0.405-0.172C0.953,5.663,0.896,5.526,0.896,5.369z"/>
<path fill="#FFFFFF" d="M31.769,5.243c0-0.157,0.06-0.292,0.172-0.403l4.033-4.034c0.114-0.116,0.249-0.171,0.405-0.171
	c0.156,0,0.291,0.056,0.405,0.171l4.031,4.034c0.114,0.112,0.171,0.246,0.171,0.403c0,0.156-0.057,0.293-0.171,0.405
	c-0.111,0.115-0.248,0.171-0.402,0.171h-8.067c-0.157,0-0.292-0.056-0.405-0.171C31.826,5.536,31.769,5.4,31.769,5.243z"/>
<path fill="#B0B0B0" d="M64.49,5.242c0-0.157,0.057-0.292,0.171-0.403l4.031-4.035c0.114-0.116,0.249-0.171,0.406-0.171
	c0.156,0,0.291,0.056,0.404,0.171l4.034,4.035c0.111,0.111,0.17,0.246,0.17,0.403c0,0.156-0.059,0.293-0.17,0.404
	c-0.114,0.116-0.249,0.171-0.405,0.171h-8.067c-0.155,0-0.292-0.056-0.403-0.171C64.547,5.536,64.49,5.399,64.49,5.242z"/>
<path fill="#B0B0B0" d="M73.709,21.91c0,0.156-0.059,0.292-0.171,0.402l-4.033,4.034c-0.114,0.116-0.249,0.172-0.405,0.172
	c-0.156,0-0.291-0.056-0.405-0.172l-4.032-4.034c-0.114-0.111-0.171-0.246-0.171-0.402c0-0.157,0.057-0.293,0.171-0.405
	c0.112-0.116,0.248-0.171,0.403-0.171h8.067c0.157,0,0.292,0.056,0.405,0.171C73.652,21.617,73.709,21.753,73.709,21.91z"/>
<path fill="#FFFFFF" d="M40.988,21.91c0,0.156-0.057,0.292-0.172,0.402l-4.031,4.034c-0.114,0.116-0.249,0.172-0.405,0.172
	c-0.156,0-0.291-0.056-0.405-0.172l-4.034-4.034c-0.112-0.111-0.171-0.246-0.171-0.402c0-0.157,0.06-0.293,0.171-0.405
	c0.114-0.116,0.248-0.171,0.405-0.171h8.067c0.155,0,0.292,0.056,0.402,0.171C40.931,21.617,40.988,21.753,40.988,21.91z"/>
<path d="M10.115,22.252c0,0.157-0.06,0.293-0.174,0.403L5.91,26.691c-0.114,0.116-0.249,0.172-0.405,0.172
	c-0.157,0-0.291-0.056-0.405-0.172l-4.033-4.033c-0.112-0.111-0.171-0.247-0.171-0.404c0-0.156,0.06-0.292,0.171-0.404
	c0.113-0.116,0.248-0.172,0.404-0.172h8.067c0.155,0,0.292,0.056,0.403,0.172C10.058,21.96,10.115,22.096,10.115,22.252z"/>
<path fill="#3E3E3F" d="M15.108,229.868c0,0.582-0.47,1.052-1.053,1.052H3.525c-0.581,0-1.053-0.47-1.053-1.052
	c0-2.108,2.034-4.071,4.116-4.852c-1.202-0.743-2.01-2.06-2.01-3.575v-1.052c0-2.33,1.886-4.213,4.213-4.213
	c2.325,0,4.211,1.883,4.211,4.213v1.052c0,1.517-0.809,2.832-2.009,3.575C13.074,225.796,15.108,227.759,15.108,229.868z"/>
<path fill="#FFFFFF" d="M44.54,644.229c0,1.813-1.467,3.271-3.282,3.271H8.439c-1.813,0-3.28-1.463-3.28-3.271
	c0-6.566,6.341-12.688,12.824-15.11c-3.74-2.317-6.262-6.424-6.262-11.146v-3.271c0-7.27,5.874-13.146,13.127-13.146
	c7.251,0,13.127,5.877,13.127,13.146v3.271c0,4.729-2.52,8.829-6.262,11.146C38.196,631.543,44.54,637.661,44.54,644.229z"/>
<path fill="#3E3E3F" d="M52.493,565.331c0,0.953-0.333,1.759-0.997,2.432l-2.89,2.911c-0.703,0.665-1.521,0.999-2.454,0.999
	c-0.956,0-1.764-0.334-2.428-0.999l-9.794-9.822c-0.686-0.646-1.027-1.458-1.027-2.429c0-0.953,0.39-1.813,1.16-2.589l-6.904-6.908
	l-3.399,3.397c-0.253,0.251-0.56,0.379-0.917,0.379c-0.36,0-0.667-0.128-0.918-0.379c0.036,0.036,0.148,0.145,0.335,0.328
	c0.189,0.178,0.304,0.294,0.34,0.351c0.035,0.052,0.122,0.152,0.27,0.313c0.143,0.146,0.233,0.271,0.268,0.354
	c0.039,0.092,0.093,0.212,0.164,0.359c0.071,0.156,0.123,0.305,0.146,0.441c0.026,0.146,0.042,0.313,0.042,0.483
	c0,0.688-0.253,1.293-0.757,1.834c-0.054,0.054-0.202,0.216-0.442,0.484c-0.241,0.271-0.414,0.456-0.516,0.554
	c-0.097,0.1-0.263,0.247-0.498,0.446c-0.233,0.191-0.433,0.334-0.593,0.417c-0.164,0.084-0.361,0.157-0.595,0.239
	c-0.232,0.082-0.466,0.119-0.7,0.119c-0.719,0-1.332-0.257-1.833-0.764l-11.013-11c-0.506-0.502-0.757-1.108-0.757-1.839
	c0-0.229,0.041-0.466,0.123-0.7c0.082-0.229,0.159-0.428,0.241-0.593c0.082-0.157,0.224-0.356,0.419-0.596
	c0.197-0.234,0.347-0.398,0.445-0.498c0.097-0.104,0.283-0.271,0.554-0.519c0.271-0.241,0.432-0.393,0.483-0.442
	c0.539-0.502,1.152-0.753,1.837-0.753c0.179,0,0.34,0.014,0.485,0.036c0.144,0.028,0.292,0.075,0.44,0.146
	c0.154,0.071,0.274,0.128,0.366,0.163c0.087,0.037,0.209,0.124,0.363,0.271c0.151,0.146,0.258,0.229,0.312,0.271
	c0.056,0.038,0.171,0.146,0.352,0.34c0.182,0.188,0.286,0.308,0.322,0.342c-0.25-0.26-0.378-0.562-0.378-0.919
	c0-0.354,0.128-0.663,0.378-0.92l9.393-9.391c0.25-0.254,0.558-0.383,0.918-0.383c0.355,0,0.664,0.131,0.917,0.383
	c-0.038-0.036-0.151-0.146-0.337-0.324c-0.189-0.184-0.301-0.299-0.337-0.352c-0.039-0.063-0.128-0.158-0.271-0.313
	c-0.143-0.147-0.231-0.271-0.271-0.358c-0.036-0.095-0.089-0.213-0.164-0.36c-0.071-0.149-0.12-0.306-0.146-0.443
	c-0.026-0.146-0.041-0.309-0.041-0.48c0-0.685,0.253-1.299,0.757-1.832c0.056-0.059,0.201-0.222,0.442-0.479
	c0.246-0.271,0.414-0.455,0.516-0.553c0.099-0.104,0.268-0.246,0.496-0.443c0.235-0.202,0.437-0.34,0.6-0.419
	c0.159-0.079,0.356-0.163,0.593-0.242c0.229-0.082,0.466-0.125,0.7-0.125c0.719,0,1.33,0.255,1.836,0.756l11.008,11.019
	c0.504,0.506,0.754,1.104,0.754,1.839c0,0.229-0.04,0.462-0.122,0.69c-0.077,0.23-0.159,0.438-0.24,0.6
	c-0.082,0.158-0.22,0.354-0.419,0.597c-0.197,0.229-0.348,0.402-0.443,0.501c-0.099,0.097-0.283,0.267-0.554,0.509
	s-0.432,0.396-0.483,0.447c-0.542,0.506-1.15,0.759-1.835,0.759c-0.184,0-0.343-0.016-0.486-0.041
	c-0.146-0.026-0.292-0.081-0.444-0.146c-0.152-0.069-0.274-0.125-0.364-0.158c-0.089-0.033-0.212-0.125-0.365-0.271
	c-0.154-0.144-0.253-0.229-0.312-0.269c-0.054-0.038-0.17-0.15-0.35-0.335c-0.179-0.193-0.286-0.313-0.322-0.349
	c0.248,0.253,0.374,0.563,0.374,0.919c0,0.357-0.126,0.658-0.374,0.921l-3.402,3.396l6.91,6.909
	c0.771-0.776,1.637-1.163,2.588-1.163c0.938,0,1.758,0.335,2.459,0.997l9.794,9.795C52.16,563.575,52.493,564.396,52.493,565.331z"
	/>
<path fill="#3E3E3F" d="M32.292,776.962c0.215,0.21,0.288,0.39,0.22,0.529c-0.068,0.146-0.248,0.224-0.54,0.224H7.193
	c-0.29,0-0.468-0.073-0.534-0.224c-0.07-0.146,0.005-0.319,0.219-0.529L18.828,765c0.102-0.097,0.209-0.166,0.319-0.212H7.733
	c-0.29,0-0.545-0.107-0.757-0.318c-0.214-0.222-0.317-0.468-0.317-0.76v-2.153c0-0.292,0.104-0.545,0.317-0.759
	c0.212-0.212,0.467-0.314,0.757-0.314h23.7c0.292,0,0.545,0.104,0.759,0.314c0.213,0.214,0.32,0.467,0.32,0.759v2.153
	c0,0.292-0.107,0.538-0.32,0.76c-0.214,0.211-0.467,0.318-0.759,0.318H20.024c0.122,0.047,0.229,0.115,0.315,0.212L32.292,776.962z"
	/>
<path fill="#FFFFFF" d="M101.939,567.26h7.104v-7.104h-7.104V567.26z M110.62,567.26h7.893v-7.104h-7.893V567.26z M101.939,558.575
	h7.104v-7.896h-7.104V558.575z M110.62,558.575h7.893v-7.896h-7.893V558.575z M101.939,549.104h7.104V542h-7.104V549.104z
	 M120.092,567.26h7.893v-7.104h-7.893V567.26z M110.62,549.104h7.893V542h-7.893V549.104z M129.563,567.26h7.104v-7.104h-7.104
	V567.26z M120.092,558.575h7.893v-7.896h-7.893V558.575z M111.412,537.271v-7.104c0-0.212-0.082-0.396-0.234-0.555
	c-0.156-0.159-0.343-0.234-0.558-0.234h-1.577c-0.215,0-0.396,0.075-0.556,0.234c-0.156,0.146-0.233,0.343-0.233,0.555v7.104
	c0,0.221,0.077,0.396,0.233,0.561c0.158,0.16,0.341,0.229,0.556,0.229h1.577c0.215,0,0.399-0.064,0.558-0.229
	C111.33,537.666,111.412,537.482,111.412,537.271z M129.563,558.575h7.104v-7.896h-7.104V558.575z M120.092,549.104h7.893V542
	h-7.893V549.104z M129.563,549.104h7.104V542h-7.104V549.104z M130.352,537.271v-7.104c0-0.212-0.076-0.396-0.232-0.555
	c-0.156-0.159-0.344-0.234-0.557-0.234h-1.578c-0.215,0-0.396,0.075-0.557,0.234c-0.156,0.146-0.232,0.343-0.232,0.555v7.104
	c0,0.221,0.078,0.396,0.232,0.561c0.158,0.16,0.342,0.229,0.557,0.229h1.578c0.211,0,0.397-0.064,0.557-0.229
	C130.275,537.666,130.352,537.482,130.352,537.271z M139.82,535.69v31.563c0,0.855-0.313,1.604-0.938,2.229
	c-0.623,0.609-1.361,0.933-2.218,0.933H101.94c-0.854,0-1.594-0.313-2.221-0.933c-0.626-0.626-0.936-1.365-0.936-2.229V535.69
	c0-0.854,0.31-1.604,0.936-2.229c0.627-0.628,1.365-0.938,2.221-0.938h3.157v-2.367c0-1.086,0.385-2.012,1.158-2.788
	c0.771-0.771,1.702-1.159,2.788-1.159h1.577c1.083,0,2.014,0.396,2.789,1.159c0.771,0.774,1.155,1.702,1.155,2.788v2.367h9.472
	v-2.367c0-1.086,0.386-2.012,1.159-2.788c0.774-0.771,1.702-1.159,2.788-1.159h1.578c1.086,0,2.016,0.396,2.787,1.159
	c0.772,0.774,1.156,1.702,1.156,2.788v2.367h3.159c0.854,0,1.595,0.313,2.218,0.938C139.509,534.097,139.82,534.837,139.82,535.69z"
	/>
<path fill="#3E3E3F" d="M132.021,639.779h-3.275v3.271c0,1.814-1.467,3.275-3.28,3.275s-3.278-1.461-3.278-3.275v-3.271h-3.275
	c-1.815,0-3.28-1.472-3.28-3.276c0-1.813,1.465-3.282,3.28-3.282h3.275v-3.271c0-1.813,1.465-3.28,3.278-3.28s3.28,1.47,3.28,3.28
	v3.271h3.275c1.813,0,3.276,1.479,3.276,3.282C135.298,638.313,133.833,639.779,132.021,639.779z M116.09,627.125
	c-4.054,1.214-7.021,4.929-7.021,9.375c0,4.279,2.748,7.881,6.56,9.229v0.604H92.677c-1.807,0-3.277-1.462-3.277-3.276
	c0-6.556,6.336-12.674,12.815-15.096c-3.742-2.313-6.258-6.419-6.258-11.137v-3.274c0-7.247,5.869-13.118,13.111-13.118
	c7.244,0,13.116,5.871,13.116,13.118v3.274c0,1.521-0.341,2.938-0.827,4.31C118.864,622.322,116.899,624.436,116.09,627.125z"/>
<path fill="#3E3E3F" d="M12.334,306.513v-1.935c2.138-0.762,3.681-2.782,3.681-5.183c0-2.399-1.542-4.428-3.681-5.188v-1.937
	c3.173,0.816,5.521,3.689,5.521,7.122S15.507,305.698,12.334,306.513z M5.89,303.075c-1.521,0-2.761-1.233-2.761-2.76v-1.842
	c0-1.521,1.238-2.761,2.761-2.761h0.922l4.602-3.684v14.726l-4.602-3.682L5.89,303.075L5.89,303.075z M9.574,303.075v-2.76v-1.842
	v-2.761l-1.844,1.84H5.89c-0.508,0-0.919,0.413-0.919,0.92v1.842c0,0.507,0.412,0.921,0.919,0.921h1.842L9.574,303.075z
	 M15.094,299.397c0,1.711-1.174,3.139-2.76,3.547v-1.962c0.547-0.321,0.92-0.907,0.92-1.585c0-0.682-0.373-1.27-0.92-1.59v-1.961
	C13.919,296.255,15.094,297.68,15.094,299.397z"/>
<path fill="#3E3E3F" d="M11.689,336.614c-5.758,0-8.521-7.457-8.521-7.457s2.765-7.458,8.521-7.458c5.762,0,8.523,7.458,8.523,7.458
	S17.449,336.614,11.689,336.614z M11.689,323.829c-2.94,0-5.326,2.386-5.326,5.327c0,2.94,2.386,5.326,5.326,5.326
	c2.943,0,5.328-2.386,5.328-5.326C17.017,326.214,14.632,323.829,11.689,323.829z M11.689,332.352c-1.766,0-3.193-1.432-3.193-3.194
	c0-0.376,0.076-0.73,0.194-1.065h1.937v-1.935c0.333-0.123,0.688-0.195,1.063-0.195c1.769,0,3.197,1.432,3.197,3.195
	C14.886,330.92,13.456,332.352,11.689,332.352z"/>
<path fill="#FFFFFF" d="M49.787,133.827c0,0.26-0.094,0.479-0.275,0.664l-1.329,1.329c-0.183,0.182-0.403,0.273-0.665,0.273
	c-0.262,0-0.48-0.093-0.664-0.273l-2.875-2.876l-2.875,2.876c-0.182,0.182-0.401,0.273-0.664,0.273c-0.261,0-0.48-0.093-0.664-0.273
	l-1.33-1.329c-0.182-0.185-0.272-0.404-0.272-0.664c0-0.262,0.092-0.483,0.272-0.666l2.874-2.872l-2.874-2.874
	c-0.182-0.185-0.272-0.404-0.272-0.665c0-0.262,0.092-0.482,0.272-0.663l1.33-1.332c0.184-0.184,0.403-0.274,0.664-0.274
	c0.263,0,0.482,0.092,0.664,0.274l2.875,2.874l2.875-2.874c0.183-0.184,0.402-0.274,0.664-0.274c0.262,0,0.482,0.092,0.665,0.274
	l1.329,1.332c0.183,0.181,0.275,0.401,0.275,0.663c0,0.261-0.094,0.48-0.275,0.665l-2.873,2.874l2.873,2.872
	C49.695,133.343,49.787,133.566,49.787,133.827z"/>
<path fill="#B0B0B0" d="M94.369,133.827c0,0.26-0.094,0.479-0.275,0.664l-1.328,1.329c-0.183,0.182-0.404,0.273-0.666,0.273
	c-0.262,0-0.479-0.093-0.664-0.273l-2.875-2.876l-2.875,2.876c-0.182,0.182-0.401,0.273-0.664,0.273
	c-0.261,0-0.48-0.093-0.665-0.273l-1.329-1.329c-0.181-0.185-0.271-0.404-0.271-0.664c0-0.262,0.092-0.483,0.271-0.666l2.874-2.872
	l-2.874-2.874c-0.181-0.185-0.271-0.404-0.271-0.665c0-0.262,0.092-0.482,0.271-0.663l1.329-1.332
	c0.185-0.184,0.404-0.274,0.665-0.274c0.263,0,0.482,0.092,0.664,0.274l2.875,2.874l2.875-2.874
	c0.184-0.184,0.402-0.274,0.664-0.274c0.262,0,0.482,0.092,0.666,0.274l1.328,1.332c0.183,0.181,0.275,0.401,0.275,0.663
	c0,0.261-0.094,0.48-0.275,0.665l-2.872,2.874l2.872,2.872C94.277,133.343,94.369,133.566,94.369,133.827z"/>
<path fill="#B0B0B0" d="M94.718,229.271c0,0.582-0.47,1.052-1.053,1.052h-10.53c-0.581,0-1.053-0.47-1.053-1.052
	c0-2.108,2.034-4.07,4.114-4.851c-1.2-0.743-2.011-2.061-2.011-3.575v-1.053c0-2.328,1.886-4.214,4.213-4.214
	c2.325,0,4.211,1.886,4.211,4.214v1.053c0,1.516-0.807,2.832-2.009,3.575C92.684,225.2,94.718,227.162,94.718,229.271z"/>
<path fill="#5C85B1" d="M150.641,229.071c0,0.583-0.469,1.055-1.051,1.055h-10.531c-0.58,0-1.051-0.472-1.051-1.055
	c0-2.105,2.034-4.069,4.114-4.85c-1.203-0.742-2.011-2.06-2.011-3.574v-1.053c0-2.328,1.887-4.214,4.214-4.214
	c2.323,0,4.212,1.886,4.212,4.214v1.053c0,1.516-0.811,2.832-2.012,3.574C148.607,225,150.641,226.964,150.641,229.071z"/>
<path fill="#005BAA" d="M200.54,229.112c0,0.583-0.476,1.053-1.058,1.053h-10.526c-0.583,0-1.056-0.47-1.056-1.053
	c0-2.107,2.036-4.07,4.118-4.848c-1.203-0.744-2.02-2.063-2.02-3.577v-1.052c0-2.328,1.893-4.214,4.217-4.214
	c2.322,0,4.217,1.886,4.217,4.214v1.052c0,1.516-0.813,2.833-2.018,3.577C198.504,225.041,200.54,227.003,200.54,229.112z"/>
<path fill="#B0B0B0" d="M89.039,776.962c0.214,0.21,0.289,0.39,0.221,0.529c-0.068,0.146-0.248,0.224-0.54,0.224H63.94
	c-0.29,0-0.468-0.073-0.536-0.224c-0.068-0.146,0.007-0.319,0.221-0.529L75.573,765c0.104-0.097,0.211-0.166,0.321-0.212H64.479
	c-0.29,0-0.544-0.107-0.757-0.318c-0.214-0.222-0.319-0.468-0.319-0.76v-2.153c0-0.292,0.105-0.545,0.319-0.759
	c0.212-0.212,0.467-0.314,0.757-0.314H88.18c0.292,0,0.544,0.104,0.758,0.314c0.214,0.214,0.321,0.467,0.321,0.759v2.153
	c0,0.292-0.107,0.538-0.321,0.76c-0.214,0.211-0.467,0.318-0.758,0.318H76.771c0.122,0.047,0.229,0.115,0.315,0.212L89.039,776.962z
	"/>
<path fill="#5C85B1" d="M155.258,776.962c0.215,0.21,0.287,0.39,0.221,0.529c-0.064,0.146-0.248,0.224-0.539,0.224h-24.78
	c-0.29,0-0.472-0.073-0.538-0.224c-0.068-0.146,0.006-0.319,0.22-0.529L141.793,765c0.102-0.097,0.208-0.166,0.316-0.212h-11.416
	c-0.286,0-0.543-0.107-0.754-0.318c-0.215-0.222-0.318-0.468-0.318-0.76v-2.153c0-0.292,0.104-0.545,0.318-0.759
	c0.211-0.212,0.469-0.314,0.754-0.314h23.702c0.293,0,0.545,0.104,0.764,0.314c0.214,0.214,0.316,0.467,0.316,0.759v2.153
	c0,0.292-0.104,0.538-0.316,0.76c-0.219,0.211-0.471,0.318-0.764,0.318h-11.411c0.125,0.047,0.229,0.115,0.316,0.212
	L155.258,776.962z"/>
<path fill="#B0B0B0" d="M92.787,305.703v-1.937c2.139-0.762,3.679-2.782,3.679-5.183s-1.54-4.424-3.679-5.188v-1.937
	c3.173,0.816,5.521,3.689,5.521,7.122C98.308,302.014,95.96,304.886,92.787,305.703z M86.344,302.263
	c-1.525,0-2.761-1.232-2.761-2.759v-1.841c0-1.523,1.234-2.761,2.761-2.761h0.921l4.603-3.683v14.727l-4.603-3.685L86.344,302.263
	L86.344,302.263z M90.025,302.263v-2.759v-1.841v-2.761l-1.839,1.84h-1.842c-0.509,0-0.919,0.411-0.919,0.921v1.841
	c0,0.508,0.41,0.923,0.919,0.923h1.842L90.025,302.263z M95.546,298.585c0,1.71-1.175,3.139-2.759,3.547v-1.963
	c0.548-0.32,0.918-0.906,0.918-1.585c0-0.681-0.37-1.269-0.918-1.587v-1.965C94.372,295.444,95.546,296.869,95.546,298.585z"/>
<path fill="#005BAA" d="M195.189,304.948v-1.938c2.141-0.76,3.682-2.782,3.682-5.184c0-2.402-1.541-4.425-3.682-5.187v-1.934
	c3.172,0.813,5.521,3.688,5.521,7.119C200.711,301.259,198.361,304.131,195.189,304.948z M188.745,301.509
	c-1.524,0-2.763-1.234-2.763-2.762v-1.84c0-1.523,1.233-2.761,2.763-2.761h0.921l4.602-3.682v14.726l-4.602-3.683L188.745,301.509
	L188.745,301.509z M192.428,301.509v-2.762v-1.84v-2.761l-1.841,1.839h-1.842c-0.509,0-0.919,0.414-0.919,0.921v1.841
	c0,0.51,0.41,0.924,0.919,0.924h1.842L192.428,301.509z M197.948,297.83c0,1.713-1.175,3.139-2.759,3.548v-1.964
	c0.547-0.319,0.918-0.906,0.918-1.584c0-0.682-0.371-1.269-0.918-1.588v-1.962C196.773,294.688,197.948,296.115,197.948,297.83z"/>
<path fill="#B0B0B0" d="M90.633,335.916c-5.757,0-8.521-7.456-8.521-7.456s2.766-7.457,8.521-7.457c5.762,0,8.525,7.457,8.525,7.457
	S96.395,335.916,90.633,335.916z M90.633,323.134c-2.941,0-5.325,2.384-5.325,5.326c0,2.941,2.384,5.325,5.325,5.325
	c2.944,0,5.328-2.384,5.328-5.325C95.961,325.518,93.577,323.134,90.633,323.134z M90.633,331.656c-1.764,0-3.195-1.433-3.195-3.194
	c0-0.376,0.077-0.73,0.197-1.066h1.935v-1.934c0.333-0.122,0.688-0.195,1.063-0.195c1.768,0,3.198,1.433,3.198,3.195
	C93.831,330.223,92.401,331.656,90.633,331.656z"/>
<path fill="#005BAA" d="M194.195,335.222c-5.758,0-8.521-7.457-8.521-7.457s2.765-7.459,8.521-7.459
	c5.764,0,8.526,7.459,8.526,7.459S199.957,335.222,194.195,335.222z M194.195,322.436c-2.938,0-5.323,2.387-5.323,5.329
	c0,2.939,2.385,5.325,5.323,5.325c2.943,0,5.328-2.386,5.328-5.325C199.523,324.822,197.141,322.436,194.195,322.436z
	 M194.195,330.959c-1.764,0-3.192-1.434-3.192-3.194c0-0.377,0.076-0.73,0.194-1.066h1.937v-1.936
	c0.334-0.121,0.688-0.195,1.063-0.195c1.77,0,3.199,1.435,3.199,3.197C197.395,329.527,195.963,330.959,194.195,330.959z"/>
<path fill="#5C85B1" d="M144.939,305.007v-1.935c2.14-0.764,3.681-2.784,3.681-5.188c0-2.4-1.541-4.424-3.681-5.186v-1.937
	c3.174,0.816,5.521,3.69,5.521,7.12C150.46,301.32,148.113,304.191,144.939,305.007z M138.495,301.569
	c-1.524,0-2.763-1.237-2.763-2.764v-1.838c0-1.525,1.236-2.76,2.763-2.76h0.921l4.602-3.684v14.724l-4.602-3.681L138.495,301.569
	L138.495,301.569z M142.177,301.569v-2.764v-1.838v-2.76l-1.84,1.836h-1.842c-0.509,0-0.919,0.414-0.919,0.924v1.838
	c0,0.512,0.41,0.925,0.919,0.925h1.842L142.177,301.569z M147.697,297.888c0,1.713-1.174,3.139-2.758,3.55v-1.965
	c0.547-0.318,0.918-0.906,0.918-1.585c0-0.679-0.371-1.267-0.918-1.585v-1.964C146.523,294.749,147.697,296.174,147.697,297.888z"/>
<path fill="#5C85B1" d="M143.945,335.28c-5.758,0-8.521-7.457-8.521-7.457s2.765-7.457,8.521-7.457c5.763,0,8.526,7.457,8.526,7.457
	S149.706,335.28,143.945,335.28z M143.945,322.495c-2.939,0-5.323,2.386-5.323,5.327c0,2.942,2.384,5.327,5.323,5.327
	c2.943,0,5.328-2.385,5.328-5.327C149.273,324.88,146.889,322.495,143.945,322.495z M143.945,331.019
	c-1.766,0-3.192-1.433-3.192-3.195c0-0.375,0.076-0.73,0.194-1.064h1.937v-1.935c0.333-0.122,0.688-0.196,1.063-0.196
	c1.77,0,3.199,1.434,3.199,3.195C147.145,329.586,145.713,331.019,143.945,331.019z"/>
<path d="M11.069,65.814c-0.269,0-0.499-0.099-0.688-0.296l-6.925-6.923c-0.2-0.197-0.296-0.427-0.296-0.696s0.096-0.498,0.296-0.692
	l6.925-6.927c0.189-0.193,0.421-0.293,0.688-0.293c0.271,0,0.507,0.1,0.697,0.293c0.197,0.196,0.293,0.429,0.293,0.695v13.85
	c0,0.27-0.096,0.5-0.293,0.693C11.574,65.715,11.338,65.814,11.069,65.814z"/>
<path fill="#FFFFFF" d="M44.142,63.772c-0.269,0-0.499-0.099-0.688-0.297l-6.927-6.922c-0.198-0.197-0.296-0.428-0.296-0.696
	c0-0.27,0.098-0.498,0.296-0.693l6.927-6.926c0.189-0.193,0.421-0.293,0.688-0.293c0.271,0,0.505,0.1,0.697,0.293
	c0.197,0.196,0.293,0.429,0.293,0.695v13.849c0,0.271-0.096,0.499-0.293,0.693C44.647,63.673,44.411,63.772,44.142,63.772z"/>
<path fill="#B0B0B0" d="M80.831,63.772c-0.271,0-0.5-0.099-0.691-0.297l-6.925-6.922c-0.2-0.197-0.296-0.428-0.296-0.696
	c0-0.27,0.096-0.498,0.296-0.693l6.925-6.926c0.191-0.193,0.422-0.293,0.691-0.293s0.505,0.1,0.695,0.293
	c0.197,0.196,0.293,0.429,0.293,0.695v13.849c0,0.271-0.096,0.499-0.293,0.693C81.336,63.673,81.1,63.772,80.831,63.772z"/>
<path d="M4.188,81.406c0.271,0,0.5,0.1,0.691,0.297l6.925,6.922c0.2,0.196,0.296,0.428,0.296,0.696c0,0.27-0.096,0.497-0.296,0.693
	l-6.925,6.925c-0.191,0.194-0.422,0.293-0.691,0.293s-0.505-0.099-0.695-0.293C3.296,96.744,3.2,96.511,3.2,96.244v-13.85
	c0-0.269,0.096-0.499,0.293-0.692C3.683,81.504,3.919,81.406,4.188,81.406z"/>
<path fill="#FFFFFF" d="M46.163,81.406c0.269,0,0.5,0.1,0.689,0.297l6.925,6.922c0.2,0.196,0.298,0.428,0.298,0.696
	c0,0.27-0.098,0.497-0.298,0.693l-6.925,6.925c-0.189,0.194-0.422,0.293-0.689,0.293c-0.271,0-0.505-0.099-0.697-0.293
	c-0.197-0.194-0.293-0.428-0.293-0.694v-13.85c0-0.269,0.096-0.499,0.293-0.692C45.657,81.504,45.894,81.406,46.163,81.406z"/>
<path fill="#B0B0B0" d="M76.592,81.406c0.269,0,0.5,0.1,0.691,0.297l6.925,6.922c0.2,0.196,0.296,0.428,0.296,0.696
	c0,0.27-0.096,0.497-0.296,0.693l-6.925,6.925c-0.191,0.194-0.424,0.293-0.691,0.293c-0.267,0-0.505-0.099-0.697-0.293
	c-0.195-0.194-0.293-0.428-0.293-0.694v-13.85c0-0.269,0.098-0.499,0.293-0.692C76.087,81.504,76.323,81.406,76.592,81.406z"/>
<path fill="#3E3E3F" d="M133.75,53.99c0,0.285-0.104,0.529-0.305,0.729l-1.465,1.468c-0.203,0.199-0.443,0.301-0.731,0.301
	c-0.289,0-0.532-0.102-0.731-0.301l-3.17-3.172l-3.169,3.172c-0.2,0.199-0.445,0.301-0.732,0.301c-0.285,0-0.529-0.102-0.73-0.301
	l-1.466-1.468c-0.2-0.201-0.304-0.445-0.304-0.729c0-0.288,0.104-0.533,0.304-0.734l3.169-3.166l-3.169-3.171
	c-0.2-0.201-0.304-0.445-0.304-0.733c0-0.287,0.104-0.53,0.304-0.729l1.466-1.471c0.201-0.198,0.445-0.302,0.73-0.302
	c0.287,0,0.532,0.104,0.732,0.302l3.169,3.171l3.17-3.171c0.199-0.198,0.442-0.302,0.731-0.302c0.288,0,0.528,0.104,0.731,0.302
	l1.465,1.471c0.201,0.199,0.305,0.442,0.305,0.729c0,0.288-0.104,0.532-0.305,0.733l-3.168,3.171l3.168,3.166
	C133.648,53.456,133.75,53.701,133.75,53.99z M127.348,38.002c-6.495,0-11.761,5.265-11.761,11.761
	c0,6.492,5.266,11.759,11.761,11.759c6.493,0,11.758-5.267,11.758-11.759C139.105,43.267,133.841,38.002,127.348,38.002z"/>
<path fill="#005BAA" d="M210.618,776.962c0.215,0.21,0.284,0.39,0.221,0.529c-0.069,0.146-0.248,0.224-0.539,0.224h-24.78
	c-0.289,0-0.47-0.073-0.537-0.224c-0.063-0.146,0.006-0.319,0.227-0.529L197.152,765c0.104-0.097,0.209-0.166,0.32-0.212h-11.416
	c-0.289,0-0.543-0.107-0.756-0.318c-0.214-0.222-0.32-0.468-0.32-0.76v-2.153c0-0.292,0.106-0.545,0.32-0.759
	c0.213-0.212,0.467-0.314,0.756-0.314h23.701c0.293,0,0.545,0.104,0.761,0.314c0.213,0.214,0.319,0.467,0.319,0.759v2.153
	c0,0.292-0.106,0.538-0.319,0.76c-0.216,0.211-0.468,0.318-0.761,0.318h-11.41c0.125,0.047,0.23,0.115,0.316,0.212L210.618,776.962z
	"/>
<path fill="#3E3E3F" d="M150.659,472.585v1.647c0,0.223-0.076,0.416-0.229,0.566c-0.152,0.165-0.332,0.245-0.541,0.245h-16.912
	c-0.207,0-0.389-0.08-0.539-0.245c-0.149-0.15-0.229-0.354-0.229-0.566v-1.647c0-0.225,0.077-0.415,0.229-0.58
	c0.15-0.162,0.332-0.244,0.539-0.244h16.912c0.209,0,0.389,0.082,0.541,0.244C150.583,472.17,150.659,472.362,150.659,472.585z
	 M150.659,466.228v1.647c0,0.221-0.076,0.415-0.229,0.578c-0.152,0.163-0.332,0.245-0.541,0.245h-16.912
	c-0.207,0-0.389-0.082-0.539-0.245c-0.149-0.162-0.229-0.357-0.229-0.578v-1.647c0-0.223,0.077-0.41,0.229-0.569
	c0.15-0.161,0.332-0.245,0.539-0.245h16.912c0.209,0,0.389,0.084,0.541,0.245C150.583,465.813,150.659,466.005,150.659,466.228z
	 M150.659,460.404v1.646c0,0.229-0.076,0.416-0.229,0.58c-0.152,0.161-0.332,0.241-0.541,0.241h-16.912
	c-0.207,0-0.389-0.08-0.539-0.241c-0.149-0.164-0.229-0.354-0.229-0.58v-1.646c0-0.229,0.077-0.416,0.229-0.577
	c0.15-0.164,0.332-0.245,0.539-0.245h16.912c0.209,0,0.389,0.081,0.541,0.245C150.583,459.988,150.659,460.181,150.659,460.404z"/>
<path fill="#FFFFFF" d="M201.982,472.585v1.647c0,0.223-0.073,0.416-0.229,0.566c-0.151,0.165-0.332,0.245-0.541,0.245H184.3
	c-0.207,0-0.389-0.08-0.538-0.245c-0.152-0.15-0.229-0.354-0.229-0.566v-1.647c0-0.225,0.074-0.415,0.229-0.58
	c0.149-0.162,0.331-0.244,0.538-0.244h16.912c0.209,0,0.39,0.082,0.541,0.244C201.907,472.17,201.982,472.362,201.982,472.585z
	 M201.982,466.228v1.647c0,0.221-0.073,0.415-0.229,0.578c-0.151,0.163-0.332,0.245-0.541,0.245H184.3
	c-0.207,0-0.389-0.082-0.538-0.245c-0.152-0.162-0.229-0.357-0.229-0.578v-1.647c0-0.223,0.074-0.41,0.229-0.569
	c0.149-0.161,0.331-0.245,0.538-0.245h16.912c0.209,0,0.39,0.084,0.541,0.245C201.907,465.813,201.982,466.005,201.982,466.228z
	 M201.982,460.404v1.646c0,0.229-0.073,0.416-0.229,0.58c-0.151,0.161-0.332,0.241-0.541,0.241H184.3
	c-0.207,0-0.389-0.08-0.538-0.241c-0.152-0.164-0.229-0.354-0.229-0.58v-1.646c0-0.229,0.074-0.416,0.229-0.577
	c0.149-0.164,0.331-0.245,0.538-0.245h16.912c0.209,0,0.39,0.081,0.541,0.245C201.907,459.988,201.982,460.181,201.982,460.404z"/>
<path fill="#3E3E3F" d="M173.102,48.997c0,0.195-0.063,0.363-0.207,0.503l-1.008,1.01c-0.139,0.138-0.306,0.207-0.504,0.207
	c-0.197,0-0.365-0.069-0.503-0.207l-2.18-2.181l-2.183,2.181c-0.142,0.138-0.31,0.207-0.504,0.207c-0.197,0-0.365-0.069-0.504-0.207
	l-1.01-1.01c-0.141-0.14-0.208-0.308-0.208-0.503c0-0.198,0.067-0.366,0.208-0.505l2.184-2.178l-2.184-2.182
	c-0.141-0.138-0.208-0.307-0.208-0.504c0-0.197,0.067-0.365,0.208-0.502l1.012-1.013c0.139-0.137,0.307-0.205,0.504-0.205
	c0.194,0,0.362,0.068,0.504,0.205l2.183,2.183l2.18-2.183c0.138-0.137,0.306-0.205,0.503-0.205c0.198,0,0.365,0.068,0.504,0.205
	l1.008,1.013c0.145,0.137,0.207,0.305,0.207,0.502c0,0.197-0.063,0.366-0.207,0.504l-2.18,2.182l2.18,2.178
	C173.032,48.63,173.102,48.798,173.102,48.997z M168.698,38.003c-4.466,0-8.087,3.62-8.087,8.087c0,4.465,3.622,8.087,8.087,8.087
	c4.467,0,8.089-3.622,8.089-8.087C176.785,41.624,173.164,38.003,168.698,38.003z"/>
<path fill="#3E3E3F" d="M144.859,499.957c0-1.106-0.394-2.056-1.18-2.844c-0.789-0.786-1.734-1.188-2.844-1.188
	s-2.058,0.396-2.843,1.188c-0.788,0.788-1.184,1.729-1.184,2.844s0.396,2.056,1.184,2.844c0.786,0.787,1.731,1.188,2.843,1.188
	c1.108,0,2.057-0.396,2.844-1.188C144.467,502.012,144.859,501.065,144.859,499.957z M149.458,507.43
	c0,0.313-0.112,0.581-0.341,0.813c-0.229,0.229-0.497,0.342-0.811,0.342c-0.324,0-0.594-0.113-0.81-0.342l-3.081-3.071
	c-1.07,0.741-2.27,1.113-3.583,1.113c-0.854,0-1.676-0.167-2.457-0.499s-1.455-0.78-2.021-1.354
	c-0.563-0.563-1.015-1.229-1.346-2.021c-0.332-0.78-0.498-1.604-0.498-2.456c0-0.854,0.166-1.675,0.498-2.456
	c0.332-0.78,0.78-1.454,1.346-2.021c0.566-0.563,1.24-1.021,2.021-1.354c0.781-0.332,1.603-0.498,2.457-0.498
	s1.676,0.166,2.456,0.498c0.779,0.332,1.455,0.781,2.021,1.354c0.564,0.563,1.018,1.233,1.35,2.021c0.333,0.781,0.5,1.604,0.5,2.456
	c0,1.317-0.371,2.512-1.114,3.584l3.081,3.08C149.348,506.843,149.458,507.113,149.458,507.43z"/>
<path fill="#FFFFFF" d="M194.784,498.207c0-1.106-0.396-2.056-1.185-2.844c-0.787-0.786-1.731-1.188-2.848-1.188
	c-1.104,0-2.057,0.396-2.844,1.188c-0.788,0.788-1.188,1.729-1.188,2.844s0.396,2.056,1.188,2.844
	c0.787,0.787,1.729,1.188,2.844,1.188c1.115,0,2.061-0.396,2.848-1.188C194.393,500.262,194.784,499.315,194.784,498.207z
	 M199.382,505.68c0,0.313-0.112,0.581-0.34,0.813c-0.229,0.229-0.498,0.342-0.812,0.342c-0.321,0-0.594-0.113-0.813-0.342
	l-3.08-3.071c-1.067,0.741-2.271,1.113-3.584,1.113c-0.854,0-1.676-0.167-2.457-0.499c-0.776-0.332-1.45-0.78-2.021-1.354
	c-0.563-0.563-1.016-1.229-1.348-2.021c-0.332-0.78-0.498-1.604-0.498-2.456c0-0.854,0.166-1.675,0.498-2.456
	c0.332-0.78,0.778-1.454,1.348-2.021c0.563-0.563,1.238-1.021,2.021-1.354c0.781-0.332,1.604-0.498,2.457-0.498
	s1.681,0.166,2.457,0.498c0.781,0.332,1.455,0.781,2.021,1.354c0.563,0.563,1.021,1.233,1.354,2.021s0.498,1.604,0.498,2.456
	c0,1.317-0.371,2.512-1.109,3.584l3.076,3.08C199.271,505.093,199.382,505.363,199.382,505.68z"/>
<path fill="#3E3E3F" stroke="#3E3E3F" stroke-width="0.5" stroke-miterlimit="10" d="M11.689,384.823
	c-1.212,0-2.346,0.207-3.398,0.62c-1.057,0.414-1.896,0.971-2.517,1.672c-0.621,0.7-0.931,1.458-0.931,2.271
	c0,0.666,0.212,1.3,0.637,1.903c0.425,0.604,1.024,1.125,1.796,1.563l0.775,0.446l-0.241,0.854c-0.142,0.542-0.35,1.053-0.624,1.533
	c0.904-0.373,1.723-0.883,2.452-1.523l0.384-0.339l0.508,0.055c0.41,0.048,0.798,0.071,1.159,0.071c1.213,0,2.348-0.207,3.401-0.621
	c1.055-0.413,1.893-0.971,2.515-1.671c0.621-0.702,0.933-1.46,0.933-2.273c0-0.813-0.312-1.571-0.933-2.271
	c-0.622-0.701-1.46-1.258-2.515-1.672C14.036,385.031,12.902,384.823,11.689,384.823z M19.678,389.388
	c0,1.035-0.356,1.99-1.07,2.867c-0.713,0.876-1.683,1.568-2.904,2.075c-1.227,0.51-2.563,0.764-4.014,0.764
	c-0.415,0-0.846-0.022-1.292-0.07c-1.177,1.041-2.544,1.76-4.101,2.157c-0.292,0.082-0.63,0.147-1.019,0.195H5.235
	c-0.089,0-0.17-0.031-0.239-0.094c-0.071-0.063-0.119-0.146-0.144-0.246v-0.009c-0.018-0.023-0.02-0.06-0.004-0.105
	c0.014-0.049,0.021-0.077,0.02-0.089c-0.005-0.014,0.01-0.04,0.041-0.085l0.053-0.081c0,0,0.021-0.024,0.063-0.075
	c0.041-0.051,0.065-0.077,0.071-0.079c0.042-0.049,0.134-0.15,0.277-0.311c0.143-0.155,0.245-0.271,0.307-0.338
	c0.063-0.068,0.154-0.188,0.276-0.353c0.122-0.166,0.219-0.316,0.29-0.454c0.069-0.139,0.15-0.313,0.238-0.525
	c0.092-0.215,0.167-0.439,0.232-0.678c-0.933-0.529-1.668-1.185-2.206-1.962c-0.538-0.778-0.807-1.614-0.807-2.507
	c0-1.033,0.354-1.989,1.068-2.864c0.713-0.876,1.685-1.57,2.906-2.077c1.225-0.51,2.563-0.764,4.012-0.764
	c1.45,0,2.788,0.254,4.014,0.764c1.224,0.507,2.191,1.201,2.904,2.077S19.678,388.355,19.678,389.388z"/>
<path fill="#3E3E3F" stroke="#3E3E3F" stroke-width="0.5" stroke-miterlimit="10" d="M18.714,422.267v-6.396
	c-0.178,0.199-0.369,0.384-0.574,0.551c-1.489,1.144-2.672,2.082-3.55,2.813c-0.283,0.24-0.514,0.427-0.692,0.561
	c-0.178,0.133-0.417,0.267-0.72,0.403c-0.302,0.136-0.587,0.203-0.854,0.203h-0.011h-0.009c-0.267,0-0.551-0.066-0.854-0.203
	c-0.304-0.139-0.542-0.271-0.722-0.403c-0.177-0.134-0.408-0.318-0.689-0.561c-0.878-0.731-2.063-1.673-3.55-2.813
	c-0.206-0.167-0.396-0.352-0.575-0.551v6.396c0,0.072,0.025,0.146,0.079,0.188c0.053,0.054,0.113,0.08,0.188,0.08h12.267
	c0.071,0,0.135-0.026,0.188-0.08C18.688,422.403,18.714,422.339,18.714,422.267z M18.714,413.511v-0.093v-0.111
	c0,0-0.001-0.035-0.004-0.107c-0.002-0.072-0.01-0.106-0.024-0.104s-0.027-0.021-0.046-0.075c-0.016-0.053-0.041-0.072-0.075-0.062
	c-0.034,0.011-0.071,0.004-0.115-0.021H6.183c-0.073,0-0.135,0.027-0.188,0.078c-0.054,0.055-0.079,0.117-0.079,0.188
	c0,0.937,0.409,1.724,1.225,2.368c1.072,0.845,2.188,1.727,3.341,2.641c0.033,0.029,0.131,0.111,0.292,0.245
	c0.162,0.139,0.289,0.241,0.385,0.313c0.095,0.073,0.218,0.162,0.369,0.266c0.152,0.103,0.293,0.178,0.422,0.228
	c0.128,0.053,0.246,0.076,0.356,0.076h0.009h0.011c0.108,0,0.229-0.023,0.356-0.076c0.127-0.05,0.27-0.125,0.42-0.228
	c0.153-0.104,0.277-0.19,0.371-0.266c0.094-0.07,0.223-0.175,0.383-0.313c0.161-0.134,0.258-0.216,0.292-0.245
	c1.155-0.914,2.271-1.796,3.341-2.641c0.302-0.239,0.579-0.561,0.838-0.962C18.585,414.202,18.714,413.839,18.714,413.511z
	 M19.781,413.2v9.063c0,0.367-0.13,0.688-0.392,0.941c-0.261,0.262-0.575,0.393-0.939,0.393H6.183c-0.366,0-0.68-0.131-0.939-0.393
	c-0.264-0.262-0.394-0.574-0.394-0.941V413.2c0-0.364,0.13-0.678,0.394-0.938c0.261-0.261,0.573-0.393,0.939-0.393H18.45
	c0.365,0,0.681,0.132,0.939,0.393C19.65,412.523,19.781,412.835,19.781,413.2z"/>
<path fill="#B0B0B0" stroke="#B0B0B0" stroke-width="0.5" stroke-miterlimit="10" d="M89.392,383.052
	c-1.212,0-2.346,0.207-3.398,0.62c-1.057,0.414-1.896,0.971-2.517,1.672c-0.621,0.7-0.931,1.458-0.931,2.271
	c0,0.666,0.212,1.3,0.637,1.903c0.425,0.604,1.024,1.125,1.796,1.563l0.775,0.447l-0.241,0.854c-0.142,0.542-0.35,1.053-0.624,1.532
	c0.904-0.372,1.721-0.882,2.452-1.522l0.384-0.339l0.508,0.055c0.41,0.048,0.796,0.071,1.159,0.071c1.213,0,2.346-0.207,3.401-0.621
	c1.055-0.413,1.893-0.971,2.515-1.671c0.621-0.702,0.931-1.46,0.931-2.272c0-0.813-0.31-1.571-0.931-2.271
	c-0.622-0.701-1.46-1.258-2.515-1.672C91.738,383.259,90.604,383.052,89.392,383.052z M97.38,387.616c0,1.035-0.356,1.99-1.07,2.867
	c-0.713,0.876-1.683,1.568-2.906,2.075c-1.225,0.51-2.562,0.764-4.012,0.764c-0.415,0-0.846-0.022-1.292-0.07
	c-1.177,1.041-2.544,1.76-4.101,2.157c-0.292,0.082-0.63,0.147-1.019,0.195h-0.044c-0.089,0-0.17-0.031-0.241-0.094
	c-0.069-0.063-0.117-0.146-0.142-0.246v-0.009c-0.018-0.023-0.02-0.06-0.004-0.105c0.014-0.049,0.021-0.077,0.018-0.089
	c-0.003-0.014,0.012-0.04,0.041-0.086l0.055-0.08c0,0,0.021-0.024,0.063-0.075c0.041-0.052,0.065-0.077,0.071-0.079
	c0.042-0.049,0.134-0.15,0.277-0.311c0.143-0.155,0.243-0.271,0.307-0.338c0.063-0.068,0.154-0.187,0.276-0.353
	c0.12-0.166,0.219-0.316,0.288-0.454c0.071-0.139,0.152-0.313,0.24-0.525c0.09-0.215,0.167-0.438,0.232-0.679
	c-0.935-0.528-1.668-1.184-2.206-1.961c-0.538-0.778-0.808-1.614-0.808-2.507c0-1.033,0.355-1.989,1.069-2.864
	c0.713-0.877,1.685-1.57,2.906-2.077c1.225-0.51,2.562-0.764,4.012-0.764c1.45,0,2.788,0.254,4.013,0.764
	c1.225,0.507,2.192,1.2,2.905,2.077C97.024,385.626,97.38,386.582,97.38,387.616z"/>
<path fill="#5C85B1" stroke="#5C85B1" stroke-width="0.5" stroke-miterlimit="10" d="M142.703,383.226
	c-1.212,0-2.348,0.207-3.4,0.62c-1.055,0.414-1.894,0.972-2.515,1.672c-0.621,0.7-0.933,1.458-0.933,2.271
	c0,0.666,0.211,1.301,0.639,1.904c0.425,0.604,1.021,1.125,1.796,1.563l0.772,0.446l-0.238,0.854
	c-0.145,0.542-0.352,1.054-0.624,1.533c0.901-0.373,1.721-0.882,2.45-1.522l0.386-0.34l0.508,0.055
	c0.41,0.048,0.796,0.071,1.159,0.071c1.213,0,2.346-0.206,3.398-0.62c1.058-0.413,1.896-0.972,2.518-1.672
	c0.621-0.701,0.931-1.46,0.931-2.273s-0.31-1.571-0.931-2.271c-0.622-0.7-1.46-1.258-2.518-1.672
	C145.049,383.433,143.916,383.226,142.703,383.226z M150.691,387.79c0,1.035-0.354,1.99-1.068,2.867
	c-0.713,0.876-1.686,1.568-2.906,2.076c-1.227,0.509-2.563,0.763-4.012,0.763c-0.415,0-0.848-0.022-1.292-0.07
	c-1.179,1.041-2.544,1.76-4.103,2.157c-0.293,0.082-0.631,0.148-1.018,0.195h-0.044c-0.089,0-0.17-0.031-0.241-0.094
	c-0.07-0.063-0.119-0.146-0.144-0.245v-0.01c-0.019-0.023-0.021-0.06-0.005-0.105c0.017-0.048,0.021-0.077,0.021-0.089
	c-0.003-0.014,0.011-0.04,0.041-0.085l0.054-0.081c0,0,0.021-0.023,0.063-0.075c0.041-0.051,0.063-0.076,0.068-0.079
	c0.043-0.049,0.137-0.15,0.277-0.31c0.143-0.156,0.245-0.271,0.307-0.339c0.063-0.068,0.154-0.187,0.276-0.353
	s0.22-0.316,0.29-0.453c0.071-0.14,0.151-0.313,0.24-0.526c0.09-0.215,0.167-0.439,0.23-0.678c-0.934-0.529-1.668-1.185-2.207-1.961
	c-0.537-0.779-0.807-1.615-0.807-2.508c0-1.032,0.354-1.989,1.07-2.864c0.713-0.876,1.684-1.569,2.904-2.077
	c1.227-0.509,2.563-0.763,4.014-0.763c1.447,0,2.786,0.254,4.012,0.763c1.225,0.508,2.191,1.201,2.906,2.077
	C150.333,385.8,150.691,386.757,150.691,387.79z"/>
<path fill="#005BAA" stroke="#005BAA" stroke-width="0.5" stroke-miterlimit="10" d="M194.195,383.4
	c-1.211,0-2.346,0.207-3.397,0.619c-1.055,0.414-1.896,0.972-2.519,1.673c-0.617,0.699-0.93,1.458-0.93,2.271
	c0,0.666,0.213,1.3,0.637,1.903c0.428,0.604,1.021,1.125,1.8,1.563l0.772,0.447l-0.242,0.854c-0.146,0.542-0.354,1.053-0.623,1.532
	c0.904-0.373,1.724-0.882,2.451-1.522l0.385-0.339l0.511,0.054c0.407,0.049,0.796,0.072,1.155,0.072
	c1.216,0,2.349-0.207,3.402-0.621c1.055-0.413,1.896-0.972,2.514-1.671c0.621-0.702,0.935-1.46,0.935-2.273
	s-0.313-1.572-0.935-2.271c-0.618-0.701-1.459-1.259-2.514-1.673C196.542,383.607,195.409,383.4,194.195,383.4z M202.186,387.964
	c0,1.034-0.354,1.989-1.063,2.866c-0.721,0.876-1.688,1.569-2.906,2.076c-1.229,0.509-2.563,0.764-4.012,0.764
	c-0.415,0-0.854-0.023-1.295-0.071c-1.182,1.041-2.549,1.761-4.104,2.158c-0.292,0.082-0.632,0.147-1.019,0.194h-0.044
	c-0.092,0-0.172-0.03-0.241-0.093c-0.071-0.063-0.119-0.146-0.144-0.246v-0.01c-0.021-0.023-0.021-0.059-0.004-0.105
	c0.016-0.048,0.021-0.076,0.02-0.089c-0.003-0.013,0.01-0.04,0.041-0.085l0.053-0.081c0,0,0.021-0.023,0.063-0.074
	c0.044-0.052,0.066-0.077,0.072-0.079c0.041-0.05,0.133-0.151,0.275-0.311c0.145-0.156,0.245-0.271,0.309-0.338
	c0.063-0.069,0.152-0.187,0.275-0.353c0.121-0.166,0.221-0.316,0.289-0.454c0.068-0.14,0.148-0.313,0.24-0.525
	c0.09-0.216,0.167-0.44,0.229-0.679c-0.938-0.528-1.668-1.185-2.206-1.961c-0.539-0.778-0.812-1.614-0.812-2.507
	c0-1.033,0.354-1.99,1.063-2.865c0.717-0.876,1.688-1.569,2.906-2.076c1.229-0.51,2.563-0.764,4.012-0.764
	c1.451,0,2.787,0.254,4.02,0.764c1.229,0.507,2.188,1.2,2.902,2.076C201.829,385.974,202.186,386.931,202.186,387.964z"/>
<path fill="#3E3E3F" d="M132.744,16.446c0,0.274-0.1,0.508-0.29,0.7l-1.401,1.403c-0.193,0.189-0.425,0.288-0.701,0.288
	c-0.273,0-0.509-0.099-0.699-0.288l-3.03-3.033l-3.031,3.033c-0.192,0.189-0.425,0.288-0.701,0.288c-0.274,0-0.508-0.099-0.7-0.288
	l-1.399-1.403c-0.192-0.192-0.29-0.426-0.29-0.7c0-0.273,0.097-0.51,0.29-0.701l3.028-3.028l-3.028-3.031
	c-0.192-0.192-0.29-0.427-0.29-0.701s0.097-0.509,0.29-0.698l1.399-1.405c0.192-0.192,0.426-0.289,0.7-0.289
	c0.275,0,0.509,0.097,0.701,0.289l3.031,3.031l3.03-3.031c0.19-0.192,0.426-0.289,0.699-0.289c0.275,0,0.508,0.097,0.701,0.289
	l1.401,1.405c0.19,0.189,0.29,0.424,0.29,0.698s-0.1,0.509-0.29,0.701l-3.03,3.031l3.03,3.028
	C132.646,15.937,132.744,16.172,132.744,16.446z"/>
<circle fill="none" stroke="#3E3E3F" stroke-width="2" stroke-miterlimit="10" cx="126.621" cy="12.714" r="11.714"/>
<path fill="#3E3E3F" d="M171.17,12.828c0,0.16-0.061,0.298-0.171,0.413l-0.83,0.831c-0.114,0.111-0.251,0.171-0.414,0.171
	c-0.165,0-0.303-0.06-0.416-0.171l-1.794-1.796l-1.794,1.796c-0.114,0.111-0.252,0.171-0.415,0.171s-0.301-0.06-0.415-0.171
	l-0.83-0.831c-0.114-0.115-0.171-0.253-0.171-0.413c0-0.163,0.059-0.304,0.171-0.417l1.794-1.792l-1.794-1.794
	c-0.114-0.115-0.171-0.255-0.171-0.416c0-0.162,0.059-0.302,0.171-0.413l0.83-0.833c0.114-0.113,0.251-0.172,0.415-0.172
	s0.301,0.059,0.415,0.172l1.794,1.795l1.794-1.795c0.113-0.113,0.251-0.172,0.416-0.172c0.163,0,0.3,0.059,0.414,0.172L171,7.996
	c0.111,0.111,0.171,0.251,0.171,0.413c0,0.161-0.06,0.301-0.171,0.416l-1.793,1.794L171,12.411
	C171.113,12.525,171.17,12.665,171.17,12.828z"/>
<circle fill="none" stroke="#3E3E3F" stroke-width="2" stroke-miterlimit="10" cx="167.545" cy="10.617" r="6.935"/>
<path fill="#3E3E3F" d="M5.887,263.517h7.969v-2.275H5.887V263.517z M5.887,257.826h7.969v-3.416h-1.423
	c-0.237,0-0.438-0.082-0.604-0.248c-0.166-0.167-0.249-0.368-0.249-0.605v-1.423H5.887V257.826z M16.133,258.394
	c0-0.152-0.056-0.287-0.169-0.398c-0.113-0.113-0.246-0.169-0.4-0.169c-0.152,0-0.287,0.056-0.398,0.169
	c-0.113,0.111-0.169,0.246-0.169,0.398c0,0.155,0.056,0.288,0.169,0.4c0.111,0.113,0.246,0.17,0.398,0.17
	c0.154,0,0.288-0.057,0.4-0.17C16.077,258.682,16.133,258.549,16.133,258.394z M17.271,258.394v3.7c0,0.077-0.026,0.146-0.084,0.2
	c-0.057,0.057-0.123,0.084-0.2,0.084h-1.99v1.423c0,0.237-0.083,0.439-0.249,0.605s-0.368,0.249-0.605,0.249h-8.54
	c-0.235,0-0.438-0.083-0.604-0.249s-0.249-0.368-0.249-0.605v-1.423H2.757c-0.077,0-0.146-0.027-0.2-0.084
	c-0.057-0.058-0.084-0.123-0.084-0.2v-3.7c0-0.468,0.167-0.869,0.502-1.204s0.737-0.503,1.205-0.503h0.569v-4.838
	c0-0.237,0.083-0.438,0.249-0.604c0.166-0.167,0.368-0.25,0.604-0.25h5.979c0.235,0,0.498,0.06,0.78,0.179
	c0.285,0.118,0.512,0.261,0.678,0.427l1.352,1.353c0.166,0.166,0.31,0.391,0.427,0.676c0.119,0.285,0.18,0.545,0.18,0.782v2.276
	h0.567c0.471,0,0.87,0.168,1.206,0.503C17.104,257.525,17.271,257.926,17.271,258.394z"/>
<path fill="#B0B0B0" d="M84.781,263.517h7.971v-2.275h-7.971V263.517z M84.781,257.826h7.971v-3.416h-1.423
	c-0.237,0-0.438-0.082-0.604-0.248c-0.166-0.167-0.249-0.368-0.249-0.605v-1.423h-5.69L84.781,257.826L84.781,257.826z
	 M95.026,258.394c0-0.152-0.056-0.287-0.169-0.398c-0.111-0.113-0.246-0.169-0.398-0.169c-0.154,0-0.287,0.056-0.4,0.169
	c-0.113,0.111-0.169,0.246-0.169,0.398c0,0.155,0.056,0.288,0.169,0.4c0.113,0.113,0.246,0.17,0.4,0.17
	c0.152,0,0.288-0.057,0.398-0.17C94.97,258.682,95.026,258.549,95.026,258.394z M96.165,258.394v3.7c0,0.077-0.028,0.146-0.084,0.2
	c-0.059,0.057-0.123,0.084-0.2,0.084h-1.992v1.423c0,0.237-0.083,0.439-0.249,0.605s-0.368,0.249-0.604,0.249h-8.538
	c-0.237,0-0.439-0.083-0.605-0.249s-0.249-0.368-0.249-0.605v-1.423H81.65c-0.077,0-0.144-0.027-0.198-0.084
	c-0.059-0.058-0.084-0.123-0.084-0.2v-3.7c0-0.468,0.167-0.869,0.502-1.204s0.735-0.503,1.205-0.503h0.567v-4.838
	c0-0.237,0.083-0.438,0.249-0.604c0.166-0.167,0.368-0.25,0.605-0.25h5.977c0.237,0,0.498,0.06,0.782,0.179
	c0.285,0.118,0.51,0.261,0.676,0.427l1.354,1.353c0.166,0.166,0.308,0.391,0.427,0.676c0.119,0.285,0.178,0.545,0.178,0.782v2.276
	h0.569c0.469,0,0.87,0.168,1.206,0.503C95.998,257.525,96.165,257.926,96.165,258.394z"/>
<path fill="#5C85B1" d="M139.084,262.687h7.969v-2.275h-7.969V262.687z M139.084,256.996h7.969v-3.416h-1.423
	c-0.237,0-0.438-0.082-0.604-0.248c-0.166-0.167-0.248-0.368-0.248-0.605v-1.423h-5.689L139.084,256.996L139.084,256.996z
	 M149.33,257.564c0-0.152-0.059-0.287-0.169-0.398c-0.113-0.113-0.246-0.169-0.399-0.169c-0.154,0-0.287,0.056-0.4,0.169
	c-0.11,0.111-0.17,0.246-0.17,0.398c0,0.155,0.06,0.288,0.17,0.4c0.113,0.113,0.246,0.17,0.4,0.17c0.153,0,0.287-0.057,0.399-0.17
	C149.273,257.852,149.33,257.719,149.33,257.564z M150.468,257.564v3.7c0,0.077-0.028,0.145-0.084,0.2
	c-0.057,0.057-0.122,0.084-0.2,0.084h-1.992v1.423c0,0.237-0.082,0.439-0.248,0.605s-0.365,0.249-0.604,0.249h-8.54
	c-0.237,0-0.438-0.083-0.604-0.249s-0.25-0.368-0.25-0.605v-1.423h-1.989c-0.077,0-0.146-0.027-0.2-0.084
	c-0.059-0.057-0.084-0.123-0.084-0.2v-3.7c0-0.468,0.167-0.869,0.502-1.204s0.737-0.503,1.205-0.503h0.566v-4.838
	c0-0.237,0.084-0.438,0.25-0.604c0.166-0.167,0.367-0.25,0.604-0.25h5.978c0.236,0,0.498,0.06,0.781,0.179
	c0.285,0.118,0.51,0.261,0.676,0.427l1.354,1.353c0.166,0.166,0.309,0.391,0.428,0.676c0.118,0.285,0.178,0.545,0.178,0.782v2.276
	h0.57c0.469,0,0.868,0.168,1.204,0.503C150.301,256.695,150.468,257.096,150.468,257.564z"/>
<path fill="#005BAA" d="M189.503,262.857h7.97v-2.275h-7.97V262.857z M189.503,257.166h7.97v-3.416h-1.424
	c-0.236,0-0.438-0.082-0.604-0.248c-0.166-0.167-0.25-0.368-0.25-0.605v-1.423h-5.689L189.503,257.166L189.503,257.166z
	 M199.749,257.734c0-0.152-0.06-0.287-0.17-0.398c-0.112-0.113-0.246-0.169-0.399-0.169c-0.154,0-0.287,0.056-0.4,0.169
	c-0.104,0.111-0.168,0.246-0.168,0.398c0,0.155,0.063,0.288,0.168,0.4c0.113,0.113,0.246,0.17,0.4,0.17
	c0.153,0,0.287-0.057,0.399-0.17C199.691,258.022,199.749,257.889,199.749,257.734z M200.889,257.734v3.7
	c0,0.077-0.029,0.145-0.086,0.2c-0.057,0.057-0.123,0.084-0.199,0.084h-1.992v1.423c0,0.237-0.084,0.439-0.25,0.605
	s-0.359,0.249-0.604,0.249h-8.537c-0.238,0-0.438-0.083-0.604-0.249s-0.25-0.368-0.25-0.605v-1.423h-1.992
	c-0.077,0-0.146-0.027-0.2-0.084c-0.057-0.057-0.084-0.123-0.084-0.2v-3.7c0-0.468,0.167-0.868,0.502-1.204
	c0.335-0.335,0.737-0.503,1.206-0.503h0.568v-4.838c0-0.236,0.084-0.438,0.25-0.604c0.166-0.167,0.363-0.25,0.604-0.25h5.979
	c0.231,0,0.493,0.06,0.776,0.179c0.285,0.118,0.51,0.261,0.676,0.427l1.354,1.353c0.165,0.166,0.311,0.391,0.43,0.676
	c0.119,0.285,0.184,0.545,0.184,0.782v2.276h0.563c0.469,0,0.868,0.168,1.205,0.503
	C200.723,256.866,200.889,257.266,200.889,257.734z"/>
<path fill="none" stroke="#3E3E3F" stroke-width="1.8" stroke-miterlimit="10" d="M18.822,363.002c0.402,0.4,0.402,1.053,0,1.453
	l-4.725,4.726c-0.401,0.399-1.052,0.401-1.453,0l-8.087-8.087c-0.401-0.4-0.401-1.052,0-1.453l4.727-4.724
	c0.4-0.401,1.052-0.402,1.452,0L18.822,363.002z M5.284,355.644c-0.903,0.901-0.903,2.368,0,3.271c0.901,0.901,2.366,0.902,3.271,0
	c0.904-0.902,0.903-2.368,0-3.271C7.652,354.74,6.188,354.74,5.284,355.644z"/>
<path fill="none" stroke="#B0B0B0" stroke-width="1.8" stroke-miterlimit="10" d="M98.856,363.002c0.402,0.4,0.402,1.053,0,1.453
	l-4.725,4.726c-0.401,0.399-1.052,0.401-1.453,0l-8.087-8.087c-0.401-0.4-0.401-1.052,0-1.453l4.725-4.724
	c0.402-0.401,1.054-0.402,1.454,0L98.856,363.002z M85.319,355.644c-0.901,0.901-0.901,2.368,0,3.271
	c0.903,0.901,2.368,0.902,3.271,0c0.904-0.902,0.903-2.368,0-3.271C87.687,354.74,86.223,354.74,85.319,355.644z"/>
<path fill="none" stroke="#5C85B1" stroke-width="1.8" stroke-miterlimit="10" d="M151.078,363.002c0.4,0.4,0.4,1.053,0,1.453
	l-4.727,4.726c-0.399,0.399-1.054,0.401-1.453,0l-8.088-8.087c-0.398-0.4-0.398-1.052,0-1.453l4.728-4.724
	c0.399-0.401,1.052-0.402,1.454,0L151.078,363.002z M137.541,355.644c-0.902,0.901-0.902,2.368,0,3.271
	c0.9,0.901,2.368,0.902,3.271,0c0.902-0.902,0.901-2.368,0-3.271C139.909,354.74,138.443,354.74,137.541,355.644z"/>
<path fill="none" stroke="#005BAA" stroke-width="1.8" stroke-miterlimit="10" d="M201.354,363.002c0.401,0.4,0.401,1.053,0,1.453
	l-4.726,4.726c-0.399,0.399-1.052,0.401-1.453,0l-8.086-8.087c-0.401-0.4-0.401-1.052,0-1.453l4.726-4.724
	c0.4-0.401,1.06-0.402,1.453,0L201.354,363.002z M187.814,355.644c-0.9,0.901-0.9,2.368,0,3.271c0.898,0.901,2.368,0.902,3.271,0
	c0.899-0.902,0.899-2.368,0-3.271C190.184,354.74,188.721,354.74,187.814,355.644z"/>
<path fill="#B0B0B0" stroke="#B0B0B0" stroke-width="0.5" stroke-miterlimit="10" d="M97.034,422.267v-6.396
	c-0.18,0.199-0.369,0.384-0.574,0.551c-1.489,1.144-2.672,2.082-3.55,2.813c-0.283,0.24-0.516,0.427-0.692,0.561
	c-0.176,0.133-0.417,0.267-0.72,0.403c-0.304,0.136-0.587,0.203-0.854,0.203h-0.009h-0.009c-0.269,0-0.551-0.066-0.854-0.203
	c-0.302-0.139-0.542-0.271-0.72-0.403c-0.177-0.134-0.409-0.318-0.691-0.561c-0.878-0.731-2.062-1.673-3.55-2.813
	c-0.206-0.167-0.396-0.352-0.575-0.551v6.396c0,0.072,0.027,0.146,0.079,0.188c0.055,0.054,0.115,0.08,0.188,0.08h12.265
	c0.073,0,0.135-0.026,0.188-0.08C97.007,422.403,97.034,422.339,97.034,422.267z M97.034,413.511v-0.093v-0.111
	c0,0-0.001-0.035-0.006-0.107c-0.002-0.072-0.01-0.106-0.022-0.104c-0.014,0.003-0.029-0.021-0.046-0.075
	c-0.018-0.053-0.041-0.072-0.075-0.062c-0.034,0.011-0.073,0.004-0.117-0.021H84.502c-0.073,0-0.135,0.027-0.188,0.078
	c-0.052,0.055-0.079,0.117-0.079,0.188c0,0.937,0.409,1.724,1.227,2.368c1.072,0.845,2.186,1.727,3.341,2.641
	c0.033,0.029,0.131,0.111,0.292,0.245c0.162,0.139,0.289,0.241,0.383,0.313c0.095,0.073,0.218,0.162,0.371,0.266
	c0.152,0.103,0.293,0.178,0.42,0.228c0.128,0.053,0.248,0.076,0.358,0.076h0.009h0.009c0.11,0,0.229-0.023,0.358-0.076
	c0.127-0.05,0.268-0.125,0.42-0.228c0.153-0.104,0.277-0.19,0.371-0.266c0.094-0.07,0.223-0.175,0.383-0.313
	c0.161-0.134,0.258-0.216,0.292-0.245c1.155-0.914,2.269-1.796,3.341-2.641c0.3-0.239,0.579-0.561,0.836-0.962
	C96.905,414.202,97.034,413.839,97.034,413.511z M98.101,413.2v9.063c0,0.367-0.13,0.688-0.392,0.941
	c-0.263,0.262-0.575,0.393-0.941,0.393H84.502c-0.366,0-0.682-0.131-0.941-0.393c-0.262-0.262-0.392-0.574-0.392-0.941V413.2
	c0-0.364,0.13-0.678,0.392-0.938c0.261-0.261,0.575-0.393,0.941-0.393h12.265c0.367,0,0.681,0.132,0.941,0.393
	C97.97,412.523,98.101,412.835,98.101,413.2z"/>
<path fill="#5C85B1" stroke="#5C85B1" stroke-width="0.5" stroke-miterlimit="10" d="M149.496,422.267v-6.396
	c-0.18,0.199-0.369,0.384-0.574,0.551c-1.488,1.144-2.672,2.082-3.55,2.813c-0.283,0.24-0.517,0.427-0.692,0.561
	c-0.175,0.133-0.416,0.267-0.72,0.403c-0.302,0.136-0.587,0.203-0.854,0.203h-0.008h-0.01c-0.27,0-0.551-0.066-0.854-0.203
	c-0.303-0.139-0.543-0.271-0.721-0.403c-0.178-0.134-0.408-0.318-0.691-0.561c-0.877-0.731-2.063-1.673-3.549-2.813
	c-0.207-0.167-0.396-0.352-0.576-0.551v6.396c0,0.072,0.027,0.146,0.08,0.188c0.055,0.054,0.115,0.08,0.188,0.08h12.266
	c0.072,0,0.138-0.026,0.188-0.08C149.469,422.403,149.496,422.339,149.496,422.267z M149.496,413.511v-0.093v-0.111
	c0,0-0.001-0.035-0.004-0.107c-0.002-0.072-0.012-0.106-0.024-0.104c-0.014,0.003-0.028-0.021-0.046-0.075
	c-0.018-0.053-0.041-0.072-0.074-0.062c-0.035,0.011-0.074,0.004-0.117-0.021h-12.266c-0.072,0-0.135,0.027-0.188,0.078
	c-0.053,0.055-0.079,0.117-0.079,0.188c0,0.937,0.409,1.724,1.227,2.368c1.072,0.845,2.187,1.727,3.341,2.641
	c0.033,0.029,0.131,0.111,0.293,0.245c0.161,0.139,0.289,0.241,0.383,0.313c0.098,0.073,0.221,0.162,0.371,0.266
	c0.151,0.103,0.293,0.178,0.42,0.228c0.127,0.053,0.248,0.076,0.357,0.076h0.01h0.008c0.11,0,0.229-0.023,0.358-0.076
	c0.127-0.05,0.269-0.125,0.42-0.228c0.153-0.104,0.277-0.19,0.371-0.266c0.095-0.07,0.224-0.175,0.384-0.313
	c0.16-0.134,0.258-0.216,0.291-0.245c1.155-0.914,2.271-1.796,3.342-2.641c0.299-0.239,0.578-0.561,0.836-0.962
	C149.367,414.202,149.496,413.839,149.496,413.511z M150.563,413.2v9.063c0,0.367-0.129,0.688-0.392,0.941
	c-0.261,0.262-0.575,0.393-0.94,0.393h-12.266c-0.365,0-0.68-0.131-0.941-0.393c-0.262-0.262-0.392-0.574-0.392-0.941V413.2
	c0-0.364,0.13-0.678,0.392-0.938c0.264-0.261,0.576-0.393,0.941-0.393h12.266c0.367,0,0.684,0.132,0.94,0.393
	C150.432,412.523,150.563,412.835,150.563,413.2z"/>
<path fill="#005BAA" stroke="#005BAA" stroke-width="0.5" stroke-miterlimit="10" d="M200.596,422.267v-6.396
	c-0.179,0.199-0.369,0.384-0.574,0.551c-1.48,1.144-2.672,2.082-3.549,2.813c-0.283,0.24-0.516,0.427-0.693,0.561
	c-0.176,0.133-0.41,0.267-0.719,0.403c-0.304,0.136-0.588,0.203-0.854,0.203h-0.014h-0.008c-0.271,0-0.551-0.066-0.854-0.203
	c-0.304-0.139-0.542-0.271-0.724-0.403c-0.178-0.134-0.405-0.318-0.688-0.561c-0.879-0.731-2.063-1.673-3.551-2.813
	c-0.205-0.167-0.396-0.352-0.574-0.551v6.396c0,0.072,0.025,0.146,0.078,0.188c0.056,0.054,0.114,0.08,0.188,0.08h12.269
	c0.069,0,0.135-0.026,0.188-0.08C200.568,422.403,200.596,422.339,200.596,422.267z M200.596,413.511v-0.093v-0.111
	c0,0-0.002-0.035-0.005-0.107c-0.002-0.072-0.01-0.106-0.024-0.104s-0.021-0.021-0.045-0.075c-0.018-0.053-0.041-0.072-0.076-0.062
	c-0.025,0.011-0.064,0.004-0.107-0.021h-12.271c-0.065,0-0.135,0.027-0.188,0.078c-0.052,0.055-0.078,0.117-0.078,0.188
	c0,0.937,0.408,1.724,1.227,2.368c1.072,0.845,2.188,1.727,3.347,2.641c0.026,0.029,0.132,0.111,0.293,0.245
	c0.153,0.139,0.284,0.241,0.383,0.313c0.101,0.073,0.22,0.162,0.371,0.266c0.146,0.103,0.293,0.178,0.42,0.228
	c0.129,0.053,0.248,0.076,0.354,0.076h0.015h0.01c0.104,0,0.229-0.023,0.354-0.076c0.128-0.05,0.271-0.125,0.421-0.228
	c0.153-0.104,0.274-0.19,0.37-0.266c0.1-0.07,0.229-0.175,0.388-0.313c0.158-0.134,0.26-0.216,0.294-0.245
	c1.148-0.914,2.27-1.796,3.341-2.641c0.3-0.239,0.579-0.561,0.837-0.962C200.467,414.202,200.596,413.839,200.596,413.511z
	 M201.662,413.2v9.063c0,0.367-0.13,0.688-0.395,0.941c-0.269,0.262-0.575,0.393-0.938,0.393H188.06
	c-0.365,0-0.685-0.131-0.938-0.393c-0.264-0.262-0.395-0.574-0.395-0.941V413.2c0-0.364,0.131-0.678,0.395-0.938
	c0.261-0.261,0.573-0.393,0.938-0.393h12.269c0.364,0,0.68,0.132,0.938,0.393C201.532,412.523,201.662,412.835,201.662,413.2z"/>
<path fill="#3E3E3F" d="M15.08,164.659c0,1.538-1.248,2.785-2.786,2.785h-1.631l0.816-0.817c0.299-0.3,0.521-0.655,0.654-1.039
	h0.159c0.514,0,0.929-0.415,0.929-0.929V156.3H2.076v8.358c0,0.514,0.416,0.929,0.929,0.929h0.158
	c0.135,0.385,0.354,0.743,0.656,1.044l0.815,0.813h-1.63c-1.54,0-2.787-1.247-2.787-2.785v-9.288c0-1.538,1.247-2.786,2.787-2.786
	h9.289c1.539,0,2.786,1.248,2.786,2.786L15.08,164.659L15.08,164.659z M3.005,153.513c-0.513,0-0.929,0.416-0.929,0.929
	c0,0.514,0.416,0.93,0.929,0.93c0.512,0,0.929-0.416,0.929-0.93C3.934,153.929,3.517,153.513,3.005,153.513z M5.792,163.73H6.72
	v-2.786c0-0.514,0.416-0.929,0.929-0.929c0.516,0,0.931,0.415,0.931,0.929v2.786h0.929c0.375,0,0.715,0.227,0.855,0.574
	c0.146,0.349,0.063,0.748-0.199,1.013l-1.857,1.857c-0.182,0.182-0.419,0.271-0.657,0.271c-0.236,0-0.476-0.091-0.655-0.271
	l-1.858-1.857c-0.265-0.265-0.344-0.667-0.201-1.013C5.076,163.956,5.416,163.73,5.792,163.73z"/>
<path fill="#5C85B1" d="M160.604,191.925l-1.373,1.372c-0.854,0.855-2.129,1.027-3.162,0.538l3.162-3.163
	c0.362-0.364,0.362-0.95,0-1.313l-1.313-1.315c-0.361-0.364-0.95-0.364-1.313,0l-3.162,3.164c-0.491-1.033-0.319-2.308,0.535-3.164
	l1.371-1.372c1.088-1.087,2.854-1.087,3.938,0l1.313,1.313C161.691,189.075,161.691,190.837,160.604,191.925z M151.35,195.922
	c-0.363-0.361-0.363-0.947,0-1.313l3.94-3.938c0.362-0.364,0.95-0.364,1.313,0c0.36,0.361,0.36,0.947,0,1.312l-3.938,3.938
	C152.301,196.288,151.712,196.288,151.35,195.922z M148.723,197.239l1.313,1.313c0.36,0.363,0.948,0.363,1.313,0l3.163-3.164
	c0.491,1.033,0.319,2.307-0.535,3.164l-1.256,1.372c-1.091,1.089-2.854,1.089-3.938,0l-1.434-1.429
	c-1.088-1.091-1.088-2.854,0-3.941l1.373-1.257c0.857-0.856,2.129-1.028,3.166-0.536l-3.166,3.161
	C148.359,196.288,148.359,196.877,148.723,197.239z M161.419,195.364v3.486c0,0.135-0.049,0.251-0.147,0.351
	c-0.099,0.099-0.215,0.146-0.351,0.146c-0.135,0-0.251-0.049-0.353-0.146l-1.118-1.12l-2.583,2.583
	c-0.055,0.052-0.111,0.078-0.182,0.078c-0.065,0-0.127-0.026-0.182-0.078l-0.887-0.888c-0.057-0.052-0.078-0.11-0.078-0.179
	c0-0.069,0.021-0.128,0.078-0.18l2.583-2.583l-1.12-1.121c-0.104-0.098-0.146-0.215-0.146-0.351c0-0.135,0.049-0.251,0.146-0.351
	c0.102-0.099,0.215-0.146,0.354-0.146h3.482c0.139,0,0.252,0.049,0.354,0.146C161.37,195.113,161.419,195.229,161.419,195.364z"/>
<path fill="#3E3E3F" d="M15.316,191.925l-1.374,1.372c-0.855,0.855-2.128,1.027-3.162,0.538l3.162-3.163
	c0.363-0.364,0.363-0.95,0-1.313l-1.313-1.315c-0.363-0.364-0.95-0.364-1.313,0l-3.163,3.164c-0.491-1.033-0.319-2.308,0.536-3.164
	l1.371-1.372c1.088-1.087,2.854-1.087,3.94,0l1.313,1.313C16.403,189.075,16.403,190.837,15.316,191.925z M6.063,195.922
	c-0.361-0.361-0.361-0.947,0-1.313l3.94-3.938c0.364-0.364,0.95-0.364,1.313,0c0.363,0.361,0.363,0.947,0,1.312l-3.938,3.938
	C7.014,196.288,6.425,196.288,6.063,195.922z M3.435,197.239l1.313,1.313c0.361,0.363,0.95,0.363,1.313,0l3.163-3.164
	c0.493,1.033,0.321,2.307-0.535,3.164l-1.256,1.372c-1.089,1.089-2.852,1.089-3.938,0l-1.433-1.429
	c-1.088-1.091-1.088-2.854,0-3.941l1.373-1.257c0.858-0.856,2.128-1.028,3.164-0.536l-3.164,3.161
	C3.073,196.288,3.073,196.877,3.435,197.239z"/>
<path fill="#5C85B1" d="M51.8,191.925l-1.374,1.372c-0.857,0.855-2.128,1.027-3.162,0.538l3.162-3.163
	c0.363-0.364,0.363-0.95,0-1.313l-1.313-1.315c-0.361-0.364-0.948-0.364-1.313,0l-3.163,3.164c-0.493-1.033-0.321-2.308,0.536-3.164
	l1.371-1.372c1.088-1.087,2.854-1.087,3.938,0l1.315,1.313C52.887,189.075,52.887,190.837,51.8,191.925z M42.546,195.922
	c-0.363-0.361-0.363-0.947,0-1.313l3.938-3.938c0.364-0.364,0.95-0.364,1.314,0c0.363,0.361,0.363,0.947,0,1.312l-3.94,3.938
	C43.498,196.288,42.909,196.288,42.546,195.922z M39.919,197.239l1.313,1.313c0.363,0.363,0.95,0.363,1.313,0l3.163-3.164
	c0.493,1.033,0.319,2.307-0.535,3.164l-1.256,1.372c-1.089,1.089-2.854,1.089-3.94,0l-1.431-1.429c-1.088-1.091-1.088-2.854,0-3.941
	l1.373-1.257c0.856-0.856,2.128-1.028,3.164-0.536l-3.164,3.161C39.557,196.288,39.557,196.877,39.919,197.239z"/>
<path fill="#005BAA" d="M87.993,191.925l-1.374,1.372c-0.857,0.855-2.128,1.027-3.162,0.538l3.162-3.163
	c0.361-0.364,0.361-0.95,0-1.313l-1.313-1.315c-0.363-0.364-0.95-0.364-1.313,0l-3.163,3.164c-0.493-1.033-0.321-2.308,0.536-3.164
	l1.369-1.372c1.09-1.087,2.854-1.087,3.94,0l1.315,1.313C89.08,189.075,89.08,190.837,87.993,191.925z M78.739,195.922
	c-0.361-0.361-0.361-0.947,0-1.313l3.94-3.938c0.364-0.364,0.95-0.364,1.314,0c0.361,0.361,0.361,0.947,0,1.312l-3.94,3.938
	C79.69,196.288,79.102,196.288,78.739,195.922z M76.112,197.239l1.313,1.313c0.363,0.363,0.95,0.363,1.313,0l3.163-3.164
	c0.493,1.033,0.321,2.307-0.533,3.164l-1.258,1.372c-1.089,1.089-2.852,1.089-3.938,0l-1.433-1.429
	c-1.088-1.091-1.088-2.854,0-3.941l1.373-1.257c0.858-0.856,2.13-1.028,3.164-0.536l-3.164,3.161
	C75.75,196.288,75.75,196.877,76.112,197.239z"/>
<path fill="#3E3E3F" d="M122.816,191.925l-1.374,1.372c-0.855,0.855-2.128,1.027-3.162,0.538l3.162-3.163
	c0.363-0.364,0.363-0.95,0-1.313l-1.313-1.315c-0.363-0.364-0.95-0.364-1.313,0l-3.163,3.164c-0.491-1.033-0.319-2.308,0.536-3.164
	l1.371-1.372c1.088-1.087,2.854-1.087,3.94,0l1.313,1.313C123.904,189.075,123.904,190.837,122.816,191.925z M113.563,195.922
	c-0.361-0.361-0.361-0.947,0-1.313l3.94-3.938c0.364-0.364,0.95-0.364,1.313,0c0.363,0.361,0.363,0.947,0,1.312l-3.938,3.938
	C114.514,196.288,113.925,196.288,113.563,195.922z M110.936,197.239l1.313,1.313c0.361,0.363,0.95,0.363,1.313,0l3.163-3.164
	c0.493,1.033,0.321,2.307-0.535,3.164l-1.256,1.372c-1.089,1.089-2.852,1.089-3.938,0l-1.433-1.429
	c-1.088-1.091-1.088-2.854,0-3.941l1.373-1.257c0.858-0.856,2.128-1.028,3.164-0.536l-3.164,3.161
	C110.573,196.288,110.573,196.877,110.936,197.239z M123.632,195.364v3.486c0,0.135-0.049,0.251-0.148,0.351
	c-0.098,0.099-0.215,0.146-0.35,0.146c-0.135,0-0.251-0.049-0.35-0.146l-1.121-1.12l-2.583,2.583
	c-0.054,0.052-0.111,0.078-0.181,0.078c-0.066,0-0.127-0.026-0.179-0.078l-0.887-0.888c-0.052-0.052-0.078-0.11-0.078-0.179
	c0-0.069,0.026-0.128,0.078-0.18l2.583-2.583l-1.12-1.121c-0.1-0.098-0.148-0.215-0.148-0.351c0-0.135,0.051-0.251,0.148-0.351
	c0.098-0.099,0.215-0.146,0.35-0.146h3.486c0.135,0,0.252,0.049,0.35,0.146C123.583,195.113,123.632,195.229,123.632,195.364z"/>
<path fill="#005BAA" d="M199.975,191.925l-1.373,1.372c-0.854,0.855-2.127,1.027-3.162,0.538l3.162-3.163
	c0.362-0.364,0.362-0.95,0-1.313l-1.313-1.315c-0.363-0.364-0.949-0.364-1.313,0l-3.162,3.164c-0.492-1.033-0.319-2.308,0.535-3.164
	l1.371-1.372c1.088-1.087,2.854-1.087,3.938,0l1.313,1.313C201.063,189.075,201.063,190.837,199.975,191.925z M190.723,195.922
	c-0.363-0.361-0.363-0.947,0-1.313l3.938-3.938c0.36-0.364,0.948-0.364,1.313,0c0.357,0.361,0.357,0.947,0,1.312l-3.938,3.938
	C191.673,196.288,191.083,196.288,190.723,195.922z M188.094,197.239l1.313,1.313c0.36,0.363,0.948,0.363,1.313,0l3.156-3.164
	c0.493,1.033,0.319,2.307-0.529,3.164l-1.262,1.372c-1.09,1.089-2.854,1.089-3.938,0l-1.43-1.429c-1.092-1.091-1.092-2.854,0-3.941
	l1.369-1.257c0.854-0.856,2.134-1.028,3.164-0.536l-3.164,3.161C187.73,196.288,187.73,196.877,188.094,197.239z M200.79,195.364
	v3.486c0,0.135-0.049,0.251-0.147,0.351c-0.099,0.099-0.216,0.146-0.351,0.146s-0.252-0.049-0.353-0.146l-1.121-1.12l-2.584,2.583
	c-0.051,0.052-0.108,0.078-0.178,0.078c-0.067,0-0.127-0.026-0.186-0.078l-0.891-0.888c-0.057-0.052-0.076-0.11-0.076-0.179
	c0-0.069,0.021-0.128,0.076-0.18l2.582-2.583l-1.117-1.121c-0.104-0.098-0.146-0.215-0.146-0.351c0-0.135,0.049-0.251,0.146-0.351
	c0.101-0.099,0.217-0.146,0.354-0.146h3.48c0.136,0,0.253,0.049,0.354,0.146C200.741,195.113,200.79,195.229,200.79,195.364z"/>
<path fill="#5C85B1" d="M54.052,164.659c0,1.538-1.248,2.785-2.786,2.785h-1.631l0.818-0.817c0.299-0.3,0.52-0.655,0.652-1.039
	h0.159c0.514,0,0.929-0.415,0.929-0.929V156.3H41.049v8.358c0,0.514,0.416,0.929,0.929,0.929h0.158
	c0.135,0.385,0.356,0.743,0.658,1.044l0.813,0.813h-1.631c-1.54,0-2.787-1.247-2.787-2.785v-9.288c0-1.538,1.247-2.786,2.787-2.786
	h9.289c1.539,0,2.786,1.248,2.786,2.786L54.052,164.659L54.052,164.659L54.052,164.659z M41.978,153.513
	c-0.513,0-0.929,0.416-0.929,0.929c0,0.514,0.416,0.93,0.929,0.93c0.514,0,0.931-0.416,0.931-0.93
	C42.907,153.929,42.49,153.513,41.978,153.513z M44.764,163.73h0.929v-2.786c0-0.514,0.416-0.929,0.931-0.929
	c0.514,0,0.929,0.415,0.929,0.929v2.786h0.929c0.375,0,0.715,0.227,0.857,0.574c0.144,0.349,0.063,0.748-0.201,1.013l-1.857,1.857
	c-0.182,0.182-0.419,0.271-0.655,0.271c-0.238,0-0.478-0.091-0.657-0.271l-1.858-1.857c-0.265-0.265-0.344-0.667-0.2-1.013
	C44.048,163.956,44.388,163.73,44.764,163.73z"/>
<path fill="#005BAA" d="M90.188,164.659c0,1.538-1.248,2.785-2.786,2.785H85.77l0.818-0.817c0.299-0.3,0.52-0.655,0.654-1.039H87.4
	c0.516,0,0.931-0.415,0.931-0.929V156.3H77.184v8.358c0,0.514,0.416,0.929,0.929,0.929h0.158c0.135,0.385,0.356,0.743,0.658,1.044
	l0.815,0.813h-1.633c-1.54,0-2.785-1.247-2.785-2.785v-9.288c0-1.538,1.245-2.786,2.785-2.786H87.4c1.539,0,2.786,1.248,2.786,2.786
	L90.188,164.659L90.188,164.659z M78.113,153.513c-0.513,0-0.929,0.416-0.929,0.929c0,0.514,0.416,0.93,0.929,0.93
	c0.514,0,0.931-0.416,0.931-0.93C79.042,153.929,78.625,153.513,78.113,153.513z M80.899,163.73h0.931v-2.786
	c0-0.514,0.416-0.929,0.929-0.929c0.514,0,0.929,0.415,0.929,0.929v2.786h0.931c0.375,0,0.715,0.227,0.855,0.574
	c0.146,0.349,0.063,0.748-0.201,1.013l-1.855,1.857c-0.184,0.182-0.419,0.271-0.657,0.271c-0.238,0-0.476-0.091-0.657-0.271
	l-1.856-1.857c-0.267-0.265-0.346-0.667-0.201-1.013C80.184,163.956,80.523,163.73,80.899,163.73z"/>
<path fill="#FFFFFF" d="M30.462,721.261v-1.896c0-0.276-0.09-0.517-0.27-0.688c-0.179-0.181-0.405-0.269-0.685-0.269h-2.856V704.13
	c0-0.278-0.089-0.508-0.268-0.687c-0.179-0.188-0.407-0.271-0.684-0.271H16.18c-0.278,0-0.506,0.09-0.685,0.271
	c-0.18,0.18-0.27,0.396-0.27,0.687v1.902c0,0.271,0.09,0.506,0.27,0.685c0.179,0.187,0.405,0.271,0.685,0.271h2.856v11.425H16.18
	c-0.278,0-0.506,0.089-0.685,0.269c-0.18,0.187-0.27,0.406-0.27,0.688v1.896c0,0.276,0.09,0.515,0.27,0.688
	c0.179,0.181,0.405,0.269,0.685,0.269h13.33c0.278,0,0.506-0.088,0.685-0.269C30.373,721.767,30.462,721.538,30.462,721.261z
	 M26.654,698.413v-5.71c0-0.277-0.089-0.508-0.268-0.688c-0.179-0.178-0.407-0.269-0.684-0.269h-5.711
	c-0.277,0-0.507,0.091-0.686,0.269c-0.179,0.188-0.268,0.407-0.268,0.688v5.71c0,0.278,0.089,0.508,0.268,0.687
	c0.179,0.188,0.407,0.271,0.686,0.271h5.711c0.275,0,0.505-0.09,0.684-0.271C26.565,698.921,26.654,698.692,26.654,698.413z
	 M45.693,706.981c0,4.146-1.021,7.969-3.063,11.469s-4.815,6.271-8.314,8.313c-3.5,2.043-7.321,3.063-11.468,3.063
	c-4.145,0-7.967-1.021-11.468-3.063c-3.5-2.042-6.271-4.813-8.314-8.313C1.021,714.949,0,711.125,0,706.981
	c0-4.146,1.021-7.978,3.063-11.478c2.043-3.501,4.814-6.271,8.314-8.313s7.323-3.063,11.468-3.063c4.146,0,7.968,1.021,11.468,3.063
	s6.271,4.813,8.314,8.313S45.693,702.837,45.693,706.981z"/>
<path fill="#5C85B1" d="M126.703,687.904H93.545V725.6l13.697-12.313l2.882-2.582l2.882,2.582l13.697,12.313V687.904z
	 M127.092,684.018c0.496,0,0.973,0.101,1.424,0.273c0.715,0.263,1.28,0.677,1.701,1.242c0.42,0.563,0.631,1.188,0.631,1.883v39.128
	c0,0.688-0.211,1.316-0.631,1.883c-0.421,0.564-0.986,0.979-1.701,1.243c-0.41,0.164-0.884,0.243-1.424,0.243
	c-1.036,0-1.932-0.322-2.688-0.971l-14.278-12.871l-14.28,12.871c-0.777,0.668-1.673,1.001-2.688,1.001
	c-0.497,0-0.973-0.103-1.426-0.273c-0.712-0.264-1.278-0.679-1.699-1.243c-0.422-0.563-0.633-1.188-0.633-1.883v-39.128
	c0-0.688,0.21-1.315,0.633-1.883c0.421-0.565,0.987-0.979,1.699-1.242c0.453-0.185,0.929-0.273,1.426-0.273H127.092L127.092,684.018
	z"/>
<path fill="#FFFFFF" d="M54.718,229.271c0,0.582-0.47,1.052-1.053,1.052h-10.53c-0.581,0-1.053-0.47-1.053-1.052
	c0-2.108,2.034-4.07,4.114-4.851c-1.2-0.743-2.011-2.061-2.011-3.575v-1.053c0-2.328,1.886-4.214,4.213-4.214
	c2.325,0,4.211,1.886,4.211,4.214v1.053c0,1.516-0.807,2.832-2.009,3.575C52.684,225.2,54.718,227.162,54.718,229.271z"/>
<path fill="#FFFFFF" d="M52.787,305.703v-1.937c2.139-0.762,3.679-2.782,3.679-5.183s-1.54-4.424-3.679-5.188v-1.937
	c3.173,0.816,5.521,3.689,5.521,7.122C58.309,302.014,55.96,304.886,52.787,305.703z M46.344,302.263
	c-1.525,0-2.761-1.232-2.761-2.759v-1.841c0-1.523,1.234-2.761,2.761-2.761h0.921l4.603-3.683v14.727l-4.603-3.685L46.344,302.263
	L46.344,302.263L46.344,302.263z M50.025,302.263v-2.759v-1.841v-2.761l-1.839,1.84h-1.842c-0.509,0-0.919,0.411-0.919,0.921v1.841
	c0,0.508,0.41,0.923,0.919,0.923h1.842L50.025,302.263z M55.546,298.585c0,1.71-1.175,3.139-2.759,3.547v-1.963
	c0.548-0.32,0.918-0.906,0.918-1.585c0-0.681-0.37-1.269-0.918-1.587v-1.965C54.372,295.444,55.546,296.869,55.546,298.585z"/>
<path fill="#FFFFFF" d="M50.633,335.916c-5.757,0-8.521-7.456-8.521-7.456s2.766-7.457,8.521-7.457c5.762,0,8.525,7.457,8.525,7.457
	S56.395,335.916,50.633,335.916z M50.633,323.134c-2.941,0-5.325,2.384-5.325,5.326c0,2.941,2.384,5.325,5.325,5.325
	c2.944,0,5.328-2.384,5.328-5.325C55.961,325.518,53.577,323.134,50.633,323.134z M50.633,331.656c-1.764,0-3.195-1.433-3.195-3.194
	c0-0.376,0.077-0.73,0.197-1.066h1.935v-1.934c0.333-0.122,0.688-0.195,1.063-0.195c1.768,0,3.198,1.433,3.198,3.195
	C53.831,330.223,52.4,331.656,50.633,331.656z"/>
<path fill="#FFFFFF" stroke="#FFFFFF" stroke-width="0.5" stroke-miterlimit="10" d="M49.392,383.052
	c-1.212,0-2.346,0.207-3.398,0.62c-1.057,0.414-1.896,0.971-2.517,1.672c-0.621,0.7-0.931,1.458-0.931,2.271
	c0,0.666,0.212,1.3,0.637,1.903c0.425,0.604,1.024,1.125,1.796,1.563l0.775,0.447l-0.241,0.854c-0.142,0.542-0.35,1.053-0.624,1.532
	c0.904-0.372,1.721-0.882,2.452-1.522l0.384-0.339l0.508,0.055c0.41,0.048,0.796,0.071,1.159,0.071c1.213,0,2.346-0.207,3.401-0.621
	c1.055-0.413,1.893-0.971,2.516-1.671c0.621-0.702,0.93-1.46,0.93-2.272c0-0.813-0.309-1.571-0.93-2.271
	c-0.623-0.701-1.461-1.258-2.516-1.672C51.738,383.259,50.604,383.052,49.392,383.052z M57.38,387.616
	c0,1.035-0.356,1.99-1.069,2.867c-0.713,0.876-1.684,1.568-2.906,2.075c-1.225,0.51-2.563,0.764-4.012,0.764
	c-0.415,0-0.846-0.022-1.292-0.07c-1.177,1.041-2.544,1.76-4.101,2.157c-0.292,0.082-0.63,0.147-1.019,0.195h-0.044
	c-0.089,0-0.17-0.031-0.24-0.094c-0.07-0.063-0.118-0.146-0.143-0.246v-0.009c-0.018-0.023-0.02-0.06-0.004-0.105
	c0.014-0.049,0.021-0.077,0.018-0.089c-0.003-0.014,0.012-0.04,0.041-0.086l0.055-0.08c0,0,0.021-0.024,0.063-0.075
	c0.041-0.052,0.065-0.077,0.071-0.079c0.042-0.049,0.134-0.15,0.277-0.311c0.143-0.155,0.243-0.271,0.307-0.338
	c0.063-0.068,0.154-0.187,0.276-0.353c0.12-0.166,0.219-0.316,0.289-0.454c0.07-0.139,0.151-0.313,0.239-0.525
	c0.09-0.215,0.167-0.438,0.232-0.679c-0.935-0.528-1.668-1.184-2.206-1.961c-0.538-0.778-0.808-1.614-0.808-2.507
	c0-1.033,0.355-1.989,1.069-2.864c0.713-0.877,1.685-1.57,2.906-2.077c1.225-0.51,2.562-0.764,4.012-0.764
	c1.45,0,2.788,0.254,4.013,0.764c1.225,0.507,2.192,1.2,2.905,2.077C57.023,385.626,57.38,386.582,57.38,387.616z"/>
<path fill="#FFFFFF" d="M44.781,263.517h7.971v-2.275h-7.971V263.517z M44.781,257.826h7.971v-3.416h-1.423
	c-0.237,0-0.438-0.082-0.604-0.248c-0.166-0.167-0.249-0.368-0.249-0.605v-1.423h-5.69L44.781,257.826L44.781,257.826z
	 M55.025,258.394c0-0.152-0.055-0.287-0.168-0.398c-0.111-0.113-0.246-0.169-0.398-0.169c-0.154,0-0.287,0.056-0.4,0.169
	c-0.113,0.111-0.168,0.246-0.168,0.398c0,0.155,0.055,0.288,0.168,0.4c0.113,0.113,0.246,0.17,0.4,0.17
	c0.152,0,0.288-0.057,0.398-0.17C54.971,258.682,55.025,258.549,55.025,258.394z M56.165,258.394v3.7c0,0.077-0.028,0.146-0.084,0.2
	c-0.06,0.057-0.123,0.084-0.2,0.084h-1.992v1.423c0,0.237-0.082,0.439-0.248,0.605s-0.369,0.249-0.604,0.249h-8.538
	c-0.237,0-0.439-0.083-0.605-0.249s-0.249-0.368-0.249-0.605v-1.423H41.65c-0.075,0-0.144-0.027-0.198-0.084
	c-0.059-0.058-0.084-0.123-0.084-0.2v-3.7c0-0.468,0.167-0.869,0.502-1.204s0.735-0.503,1.205-0.503h0.567v-4.838
	c0-0.237,0.083-0.438,0.249-0.604c0.166-0.167,0.368-0.25,0.605-0.25h5.977c0.237,0,0.498,0.06,0.782,0.179
	c0.285,0.118,0.511,0.261,0.677,0.427l1.354,1.353c0.166,0.166,0.308,0.391,0.427,0.676c0.119,0.285,0.179,0.545,0.179,0.782v2.276
	h0.568c0.469,0,0.87,0.168,1.206,0.503C55.998,257.525,56.165,257.926,56.165,258.394z"/>
<path fill="none" stroke="#FFFFFF" stroke-width="1.8" stroke-miterlimit="10" d="M58.855,363.002c0.402,0.4,0.402,1.053,0,1.453
	l-4.725,4.726c-0.4,0.399-1.052,0.401-1.453,0l-8.087-8.087c-0.401-0.4-0.401-1.052,0-1.453l4.725-4.724
	c0.402-0.401,1.054-0.402,1.454,0L58.855,363.002z M45.319,355.644c-0.901,0.901-0.901,2.368,0,3.271
	c0.903,0.901,2.368,0.902,3.271,0c0.904-0.902,0.903-2.368,0-3.271C47.687,354.74,46.223,354.74,45.319,355.644z"/>
<path fill="#FFFFFF" stroke="#FFFFFF" stroke-width="0.5" stroke-miterlimit="10" d="M57.034,422.267v-6.396
	c-0.181,0.199-0.369,0.384-0.574,0.551c-1.489,1.144-2.672,2.082-3.55,2.813c-0.283,0.24-0.516,0.427-0.692,0.561
	c-0.176,0.133-0.417,0.267-0.72,0.403c-0.304,0.136-0.587,0.203-0.854,0.203h-0.009h-0.009c-0.269,0-0.551-0.066-0.854-0.203
	c-0.302-0.139-0.542-0.271-0.72-0.403c-0.177-0.134-0.409-0.318-0.691-0.561c-0.878-0.731-2.062-1.673-3.55-2.813
	c-0.206-0.167-0.396-0.352-0.575-0.551v6.396c0,0.072,0.027,0.146,0.079,0.188c0.055,0.054,0.115,0.08,0.188,0.08h12.265
	c0.073,0,0.135-0.026,0.188-0.08C57.007,422.403,57.034,422.339,57.034,422.267z M57.034,413.511v-0.093v-0.111
	c0,0-0.001-0.035-0.007-0.107c-0.002-0.072-0.01-0.106-0.021-0.104c-0.014,0.003-0.029-0.021-0.046-0.075
	c-0.019-0.054-0.041-0.072-0.075-0.062c-0.033,0.011-0.072,0.004-0.117-0.021H44.502c-0.073,0-0.135,0.027-0.188,0.078
	c-0.052,0.055-0.079,0.117-0.079,0.188c0,0.937,0.409,1.724,1.227,2.368c1.072,0.845,2.186,1.727,3.341,2.641
	c0.033,0.029,0.131,0.111,0.292,0.245c0.162,0.139,0.289,0.241,0.383,0.313c0.095,0.073,0.218,0.162,0.371,0.266
	c0.152,0.103,0.293,0.178,0.42,0.228c0.128,0.053,0.248,0.076,0.358,0.076h0.009h0.009c0.11,0,0.229-0.023,0.358-0.076
	c0.127-0.05,0.268-0.125,0.42-0.228c0.153-0.104,0.275-0.19,0.371-0.266c0.095-0.07,0.224-0.175,0.383-0.313
	c0.161-0.134,0.259-0.216,0.292-0.245c1.155-0.914,2.27-1.796,3.342-2.641c0.299-0.239,0.578-0.561,0.836-0.962
	C56.904,414.202,57.034,413.839,57.034,413.511z M58.102,413.2v9.063c0,0.367-0.131,0.688-0.393,0.941
	c-0.263,0.262-0.575,0.393-0.941,0.393H44.502c-0.366,0-0.682-0.131-0.941-0.393c-0.262-0.262-0.392-0.574-0.392-0.941V413.2
	c0-0.364,0.13-0.678,0.392-0.938c0.261-0.261,0.575-0.393,0.941-0.393h12.266c0.366,0,0.683,0.132,0.94,0.393
	C57.971,412.523,58.102,412.835,58.102,413.2z"/>
<rect x="-24.75" y="-12.5" width="3.125" height="3.125"/>
<path d="M245.924,57.313c-0.156,0-0.292-0.058-0.402-0.17l-4.025-4.033c-0.116-0.113-0.182-0.25-0.182-0.404
	c0-0.156,0.063-0.291,0.182-0.405l4.025-4.033c0.11-0.115,0.246-0.172,0.402-0.172c0.157,0,0.293,0.059,0.405,0.172
	c0.114,0.113,0.172,0.248,0.172,0.404v8.065c0,0.158-0.058,0.293-0.172,0.406C246.218,57.256,246.081,57.313,245.924,57.313z"/>
<path fill="#FFFFFF" d="M245.798,36.439c-0.157,0-0.292-0.058-0.403-0.172l-4.033-4.033c-0.107-0.112-0.172-0.248-0.172-0.403
	c0-0.156,0.063-0.291,0.172-0.405l4.033-4.032c0.112-0.115,0.246-0.172,0.403-0.172c0.157,0,0.293,0.057,0.406,0.172
	c0.112,0.112,0.171,0.248,0.171,0.403v8.066c0,0.156-0.059,0.291-0.171,0.404C246.091,36.383,245.955,36.439,245.798,36.439z"/>
<path fill="#B0B0B0" d="M245.797,13.719c-0.156,0-0.292-0.057-0.402-0.171l-4.035-4.032c-0.107-0.115-0.172-0.25-0.172-0.406
	c0-0.155,0.063-0.291,0.172-0.403l4.035-4.034c0.11-0.112,0.246-0.17,0.402-0.17c0.157,0,0.293,0.058,0.405,0.17
	c0.114,0.114,0.171,0.249,0.171,0.405v8.065c0,0.157-0.059,0.293-0.171,0.405C246.091,13.662,245.954,13.719,245.797,13.719z"/>
<path fill="#B0B0B0" d="M262.465,4.5c0.157,0,0.292,0.057,0.403,0.171l4.032,4.033c0.115,0.113,0.174,0.249,0.174,0.404
	c0,0.156-0.059,0.291-0.174,0.404l-4.032,4.034c-0.112,0.114-0.246,0.171-0.403,0.171c-0.156,0-0.293-0.057-0.404-0.171
	c-0.115-0.114-0.172-0.248-0.172-0.405V5.076c0-0.157,0.057-0.292,0.172-0.405C262.172,4.557,262.309,4.5,262.465,4.5z"/>
<path fill="#FFFFFF" d="M262.465,27.221c0.157,0,0.292,0.057,0.403,0.172l4.032,4.033c0.115,0.114,0.174,0.249,0.174,0.405
	c0,0.154-0.059,0.291-0.174,0.404l-4.032,4.033c-0.112,0.114-0.246,0.172-0.403,0.172c-0.156,0-0.293-0.059-0.404-0.172
	c-0.115-0.113-0.172-0.248-0.172-0.404v-8.066c0-0.157,0.057-0.292,0.172-0.403C262.172,27.277,262.309,27.221,262.465,27.221z"/>
<path d="M262.807,48.094c0.157,0,0.293,0.059,0.404,0.172l4.035,4.033c0.113,0.114,0.172,0.249,0.172,0.405
	c0,0.156-0.059,0.291-0.172,0.404l-4.034,4.033c-0.11,0.113-0.247,0.17-0.403,0.17s-0.293-0.058-0.404-0.17
	c-0.106-0.113-0.172-0.248-0.172-0.404v-8.066c0-0.157,0.063-0.292,0.172-0.405C262.516,48.15,262.65,48.094,262.807,48.094z"/>
<circle fill="none" stroke="#B0B0B0" stroke-width="2" stroke-miterlimit="10" cx="222.186" cy="90.617" r="5.333"/>
<circle fill="none" stroke="#B0B0B0" stroke-width="2" stroke-miterlimit="10" cx="255.186" cy="90.617" r="6.935"/>
<circle fill="#B0B0B0" cx="255.186" cy="125.617" r="6.935"/>
<path fill="#3E3E3F" d="M201.462,721.261v-1.896c0-0.276-0.09-0.517-0.271-0.688c-0.178-0.181-0.404-0.269-0.688-0.269h-2.854
	V704.13c0-0.278-0.088-0.508-0.271-0.687c-0.179-0.188-0.403-0.271-0.687-0.271h-9.521c-0.276,0-0.506,0.09-0.687,0.271
	c-0.18,0.18-0.27,0.396-0.27,0.687v1.902c0,0.271,0.09,0.506,0.27,0.685c0.181,0.187,0.406,0.271,0.687,0.271h2.854v11.425h-2.854
	c-0.276,0-0.506,0.089-0.687,0.269c-0.18,0.187-0.27,0.406-0.27,0.688v1.896c0,0.276,0.09,0.515,0.27,0.688
	c0.181,0.181,0.406,0.269,0.687,0.269h13.33c0.275,0,0.507-0.088,0.688-0.269C201.373,721.767,201.462,721.538,201.462,721.261z
	 M197.654,698.413v-5.71c0-0.277-0.09-0.508-0.271-0.688c-0.181-0.178-0.404-0.269-0.688-0.269h-5.713
	c-0.273,0-0.508,0.091-0.688,0.269c-0.179,0.188-0.27,0.407-0.27,0.688v5.71c0,0.278,0.091,0.508,0.27,0.687
	c0.18,0.188,0.407,0.271,0.688,0.271h5.713c0.271,0,0.507-0.09,0.688-0.271C197.564,698.921,197.654,698.692,197.654,698.413z
	 M216.693,706.981c0,4.146-1.021,7.969-3.063,11.469s-4.814,6.271-8.314,8.313c-3.5,2.043-7.314,3.063-11.466,3.063
	c-4.146,0-7.968-1.021-11.469-3.063c-3.5-2.042-6.271-4.813-8.314-8.313S171,711.125,171,706.981c0-4.146,1.021-7.978,3.063-11.478
	c2.043-3.501,4.813-6.271,8.313-8.313s7.323-3.063,11.469-3.063s7.968,1.021,11.468,3.063s6.271,4.813,8.313,8.313
	S216.693,702.837,216.693,706.981z"/>
<circle fill="none" stroke="#FFFFFF" stroke-width="2" stroke-miterlimit="10" cx="288.186" cy="90.617" r="6.935"/>
<circle fill="#FFFFFF" cx="288.186" cy="125.617" r="6.935"/>
<path fill="#3E3E3F" d="M213.887,643.079c0,1.813-1.467,3.271-3.281,3.271H177.79c-1.813,0-3.281-1.462-3.281-3.271
	c0-6.565,6.341-12.688,12.826-15.11c-3.742-2.313-6.265-6.424-6.265-11.146v-3.271c0-7.265,5.873-13.142,13.126-13.142
	c7.25,0,13.131,5.877,13.131,13.142v3.271c0,4.729-2.521,8.828-6.266,11.146C207.543,630.396,213.887,636.514,213.887,643.079z"/>
<path fill="#5C85B1" d="M265.333,497.587c0-1.696-0.606-3.154-1.819-4.367c-1.212-1.209-2.668-1.825-4.382-1.825
	c-1.702,0-3.163,0.61-4.377,1.825c-1.212,1.213-1.823,2.655-1.823,4.367c0,1.72,0.608,3.161,1.823,4.375
	c1.214,1.211,2.665,1.822,4.377,1.822s3.171-0.607,4.382-1.822C264.729,500.748,265.333,499.29,265.333,497.587z M272.406,509.079
	c0,0.478-0.176,0.895-0.521,1.252c-0.354,0.347-0.765,0.521-1.248,0.521c-0.498,0-0.908-0.179-1.246-0.521l-4.74-4.729
	c-1.641,1.146-3.49,1.723-5.518,1.723c-1.313,0-2.58-0.265-3.777-0.773c-1.189-0.505-2.229-1.196-3.109-2.076
	c-0.863-0.865-1.563-1.896-2.071-3.109c-0.513-1.197-0.768-2.458-0.768-3.773c0-1.313,0.255-2.571,0.768-3.773
	c0.515-1.197,1.194-2.233,2.071-3.104c0.865-0.87,1.902-1.568,3.109-2.083c1.197-0.511,2.473-0.767,3.777-0.767
	c1.316,0,2.585,0.256,3.777,0.767c1.206,0.513,2.238,1.2,3.111,2.083c0.86,0.864,1.569,1.896,2.076,3.104
	c0.512,1.213,0.771,2.467,0.771,3.773c0,2.021-0.576,3.859-1.706,5.518l4.728,4.729
	C272.232,508.178,272.406,508.591,272.406,509.079z"/>
<path fill="#3E3E3F" d="M265.332,547.587c0-1.696-0.605-3.154-1.818-4.367c-1.212-1.209-2.668-1.825-4.382-1.825
	c-1.702,0-3.163,0.61-4.377,1.825c-1.212,1.213-1.823,2.655-1.823,4.367c0,1.72,0.607,3.161,1.823,4.375
	c1.214,1.211,2.665,1.822,4.377,1.822s3.171-0.607,4.382-1.822C264.729,550.748,265.332,549.291,265.332,547.587z M272.406,559.079
	c0,0.478-0.176,0.895-0.521,1.253c-0.354,0.346-0.766,0.521-1.248,0.521c-0.498,0-0.908-0.179-1.246-0.521l-4.74-4.729
	c-1.641,1.146-3.491,1.723-5.518,1.723c-1.313,0-2.58-0.264-3.777-0.773c-1.19-0.505-2.229-1.197-3.11-2.076
	c-0.862-0.865-1.562-1.896-2.07-3.109c-0.514-1.197-0.768-2.458-0.768-3.773c0-1.313,0.254-2.57,0.768-3.773
	c0.515-1.197,1.193-2.233,2.07-3.104c0.866-0.87,1.903-1.569,3.11-2.083c1.197-0.511,2.472-0.767,3.777-0.767
	c1.314,0,2.585,0.256,3.776,0.767c1.204,0.513,2.239,1.201,3.112,2.083c0.86,0.864,1.569,1.896,2.076,3.104
	c0.512,1.213,0.771,2.467,0.771,3.773c0,2.021-0.575,3.859-1.705,5.518l4.728,4.729
	C272.232,558.178,272.406,558.591,272.406,559.079z"/>
<polygon fill="#005BAA" points="318.036,12.617 314.307,12.617 314.307,8.125 310.805,8.125 310.799,12.617 306.896,12.617 
	306.896,5.638 305.246,5.638 312.501,-0.5 319.755,5.638 318.036,5.638 "/>
<path id="rss-icon" d="M334.358,10.843c0,0.98-0.794,1.775-1.774,1.775c-0.979,0-1.775-0.795-1.775-1.775
	c0-0.98,0.796-1.775,1.775-1.775C333.564,9.068,334.358,9.862,334.358,10.843z M330.809,3.971v2.63
	c3.304,0.034,5.983,2.714,6.018,6.017h2.63C339.421,7.857,335.568,4.005,330.809,3.971z M330.809,2.13
	c2.792,0.012,5.415,1.104,7.392,3.08c1.979,1.979,3.071,4.609,3.081,7.407h2.629c-0.018-7.231-5.871-13.092-13.102-13.117V2.13
	L330.809,2.13z"/>
<path fill="#B0B0B0" d="M324.79,132.526h-2.763c-0.765,0-1.382-0.618-1.382-1.382V120.09c0-0.764,0.617-1.382,1.382-1.382h2.763
	c0.764,0,1.382,0.618,1.382,1.382v11.054C326.172,131.908,325.554,132.526,324.79,132.526z M316.5,132.526h-2.764
	c-0.764,0-1.382-0.618-1.382-1.382V120.09c0-0.764,0.618-1.382,1.382-1.382h2.764c0.764,0,1.381,0.618,1.381,1.382v11.054
	C317.881,131.908,317.264,132.526,316.5,132.526z"/>
<path fill="#B0B0B0" d="M313.646,97.638c-0.257,0-0.513-0.07-0.738-0.209c-0.414-0.257-0.666-0.708-0.666-1.195V85
	c0-0.488,0.252-0.94,0.666-1.195c0.226-0.138,0.481-0.209,0.738-0.209c0.213,0,0.431,0.049,0.627,0.148l11.236,5.617
	c0.476,0.239,0.775,0.725,0.775,1.257s-0.3,1.02-0.775,1.257l-11.236,5.617C314.076,97.589,313.858,97.638,313.646,97.638z"/>
<circle fill="#B0B0B0" cx="222.186" cy="125.617" r="6.435"/>
</svg>
