<?xml version="1.0" encoding="utf-8"?>
<!-- Generator: Adobe Illustrator 15.0.2, SVG Export Plug-In  -->
<!DOCTYPE svg PUBLIC "-//W3C//DTD SVG 1.1//EN" "http://www.w3.org/Graphics/SVG/1.1/DTD/svg11.dtd" [
	<!ENTITY ns_flows "http://ns.adobe.com/Flows/1.0/">
]>
<svg version="1.1"
	 xmlns="http://www.w3.org/2000/svg" xmlns:xlink="http://www.w3.org/1999/xlink" xmlns:a="http://ns.adobe.com/AdobeSVGViewerExtensions/3.0/"
	 x="0px" y="0px" width="252px" height="909px" viewBox="-24.753 -13.069 252 909" enable-background="new -24.753 -13.069 252 909"
	 xml:space="preserve">
<defs>
</defs>
<text transform="matrix(1 0 0 1 182.4604 136.0942)" fill="#005BAA" font-family="'MyriadPro-BoldCond'" font-size="9.4451">JPG</text>
<text transform="matrix(1 0 0 1 182.4609 121.0308)" fill="#005BAA" font-family="'MyriadPro-BoldCond'" font-size="9.4451">XLS</text>
<text transform="matrix(1 0 0 1 182.4604 106.3325)" fill="#005BAA" font-family="'MyriadPro-BoldCond'" font-size="9.4451">DOC</text>
<text transform="matrix(1 0 0 1 182.4604 91.1479)" fill="#005BAA" font-family="'MyriadPro-BoldCond'" font-size="9.4451">PDF</text>
<text transform="matrix(1 0 0 1 150.46 136.0942)" fill="#5C85B1" font-family="'MyriadPro-BoldCond'" font-size="9.4451">JPG</text>
<text transform="matrix(1 0 0 1 150.4604 121.0308)" fill="#5C85B1" font-family="'MyriadPro-BoldCond'" font-size="9.4451">XLS</text>
<text transform="matrix(1 0 0 1 150.46 106.3325)" fill="#5C85B1" font-family="'MyriadPro-BoldCond'" font-size="9.4451">DOC</text>
<text transform="matrix(1 0 0 1 150.46 91.1479)" fill="#5C85B1" font-family="'MyriadPro-BoldCond'" font-size="9.4451">PDF</text>
<text transform="matrix(1 0 0 1 119.4971 136.0942)" fill="#3E3E3F" font-family="'MyriadPro-BoldCond'" font-size="9.4451">JPG</text>
<text transform="matrix(1 0 0 1 119.4976 121.0308)" fill="#3E3E3F" font-family="'MyriadPro-BoldCond'" font-size="9.4451">XLS</text>
<text transform="matrix(1 0 0 1 119.4971 106.3325)" fill="#3E3E3F" font-family="'MyriadPro-BoldCond'" font-size="9.4451">DOC</text>
<text transform="matrix(1 0 0 1 119.4971 91.1479)" fill="#3E3E3F" font-family="'MyriadPro-BoldCond'" font-size="9.4451">PDF</text>
<path fill="#B0B0B0" d="M96.147,504.865v1.169c0,0.157-0.076,0.294-0.229,0.409c-0.151,0.117-0.331,0.174-0.54,0.174H78.466
	c-0.207,0-0.389-0.057-0.54-0.174c-0.151-0.115-0.229-0.252-0.229-0.409v-1.169c0-0.157,0.077-0.293,0.229-0.41
	c0.151-0.114,0.333-0.173,0.54-0.173h16.912c0.209,0,0.389,0.059,0.54,0.173C96.071,504.572,96.147,504.708,96.147,504.865z
	 M96.147,500.36v1.168c0,0.157-0.076,0.294-0.229,0.41c-0.151,0.116-0.331,0.174-0.54,0.174H78.466c-0.207,0-0.389-0.058-0.54-0.174
	s-0.229-0.253-0.229-0.41v-1.168c0-0.157,0.077-0.294,0.229-0.41c0.151-0.114,0.333-0.174,0.54-0.174h16.912
	c0.209,0,0.389,0.06,0.54,0.174C96.071,500.066,96.147,500.203,96.147,500.36z M96.147,496.233v1.169
	c0,0.157-0.076,0.295-0.229,0.41c-0.151,0.115-0.331,0.173-0.54,0.173H78.466c-0.207,0-0.389-0.058-0.54-0.173
	s-0.229-0.253-0.229-0.41v-1.169c0-0.157,0.077-0.294,0.229-0.409s0.333-0.174,0.54-0.174h16.912c0.209,0,0.389,0.059,0.54,0.174
	C96.071,495.939,96.147,496.076,96.147,496.233z M96.147,509.374v1.168c0,0.158-0.076,0.295-0.229,0.409
	c-0.151,0.117-0.331,0.174-0.54,0.174H78.466c-0.207,0-0.389-0.057-0.54-0.174c-0.151-0.114-0.229-0.251-0.229-0.409v-1.168
	c0-0.158,0.077-0.294,0.229-0.411c0.151-0.114,0.333-0.172,0.54-0.172h16.912c0.209,0,0.389,0.058,0.54,0.172
	C96.071,509.08,96.147,509.215,96.147,509.374z"/>
<path fill="#B0B0B0" d="M81.52,471.671v2.9c0,0.131-0.048,0.244-0.14,0.34c-0.094,0.098-0.205,0.145-0.334,0.145h-2.841
	c-0.128,0-0.238-0.047-0.332-0.145c-0.095-0.096-0.142-0.209-0.142-0.34v-2.9c0-0.131,0.047-0.245,0.142-0.34
	c0.094-0.096,0.204-0.144,0.332-0.144h2.841c0.129,0,0.24,0.048,0.334,0.144C81.472,471.426,81.52,471.541,81.52,471.671z
	 M81.52,465.869v2.9c0,0.132-0.048,0.246-0.14,0.341c-0.094,0.096-0.205,0.144-0.334,0.144h-2.841c-0.128,0-0.238-0.048-0.332-0.144
	c-0.095-0.095-0.142-0.209-0.142-0.341v-2.9c0-0.131,0.047-0.245,0.142-0.34c0.094-0.098,0.204-0.146,0.332-0.146h2.841
	c0.129,0,0.24,0.049,0.334,0.146C81.472,465.624,81.52,465.738,81.52,465.869z M81.52,460.067v2.9c0,0.131-0.048,0.244-0.14,0.342
	c-0.094,0.094-0.205,0.142-0.334,0.142h-2.841c-0.128,0-0.238-0.048-0.332-0.142c-0.095-0.098-0.142-0.211-0.142-0.342v-2.9
	c0-0.133,0.047-0.246,0.142-0.341c0.094-0.097,0.204-0.145,0.332-0.145h2.841c0.129,0,0.24,0.048,0.334,0.145
	C81.472,459.821,81.52,459.934,81.52,460.067z M96.112,471.671v2.9c0,0.131-0.028,0.244-0.086,0.34
	c-0.059,0.098-0.125,0.145-0.204,0.145H83.657c-0.079,0-0.146-0.047-0.203-0.145c-0.059-0.096-0.087-0.209-0.087-0.34v-2.9
	c0-0.131,0.028-0.245,0.087-0.34c0.057-0.096,0.124-0.144,0.203-0.144h12.165c0.079,0,0.146,0.048,0.204,0.144
	C96.084,471.426,96.112,471.541,96.112,471.671z M96.112,465.869v2.9c0,0.132-0.028,0.246-0.086,0.341
	c-0.059,0.096-0.125,0.144-0.204,0.144H83.657c-0.079,0-0.146-0.048-0.203-0.144c-0.059-0.095-0.087-0.209-0.087-0.341v-2.9
	c0-0.131,0.028-0.245,0.087-0.34c0.057-0.098,0.124-0.146,0.203-0.146h12.165c0.079,0,0.146,0.049,0.204,0.146
	C96.084,465.624,96.112,465.738,96.112,465.869z M96.112,460.067v2.9c0,0.131-0.028,0.244-0.086,0.342
	c-0.059,0.094-0.125,0.142-0.204,0.142H83.657c-0.079,0-0.146-0.048-0.203-0.142c-0.059-0.098-0.087-0.211-0.087-0.342v-2.9
	c0-0.133,0.028-0.246,0.087-0.341c0.057-0.097,0.124-0.145,0.203-0.145h12.165c0.079,0,0.146,0.048,0.204,0.145
	C96.084,459.821,96.112,459.934,96.112,460.067z"/>
<path fill="#FFFFFF" d="M60.292,504.865v1.169c0,0.157-0.076,0.294-0.229,0.409c-0.152,0.117-0.332,0.174-0.541,0.174H42.61
	c-0.207,0-0.388-0.057-0.539-0.174c-0.152-0.115-0.229-0.252-0.229-0.409v-1.169c0-0.157,0.076-0.293,0.229-0.41
	c0.151-0.114,0.332-0.173,0.539-0.173h16.912c0.209,0,0.389,0.059,0.541,0.173C60.216,504.572,60.292,504.708,60.292,504.865z
	 M60.292,500.36v1.168c0,0.157-0.076,0.294-0.229,0.41s-0.332,0.174-0.541,0.174H42.61c-0.207,0-0.388-0.058-0.539-0.174
	c-0.152-0.116-0.229-0.253-0.229-0.41v-1.168c0-0.157,0.076-0.294,0.229-0.41c0.151-0.114,0.332-0.174,0.539-0.174h16.912
	c0.209,0,0.389,0.06,0.541,0.174C60.216,500.066,60.292,500.203,60.292,500.36z M60.292,496.233v1.169
	c0,0.157-0.076,0.295-0.229,0.41s-0.332,0.173-0.541,0.173H42.61c-0.207,0-0.388-0.058-0.539-0.173
	c-0.152-0.115-0.229-0.253-0.229-0.41v-1.169c0-0.157,0.076-0.294,0.229-0.409c0.151-0.115,0.332-0.174,0.539-0.174h16.912
	c0.209,0,0.389,0.059,0.541,0.174S60.292,496.076,60.292,496.233z M60.292,509.374v1.168c0,0.158-0.076,0.295-0.229,0.409
	c-0.152,0.117-0.332,0.174-0.541,0.174H42.61c-0.207,0-0.388-0.057-0.539-0.174c-0.152-0.114-0.229-0.251-0.229-0.409v-1.168
	c0-0.158,0.076-0.294,0.229-0.411c0.151-0.114,0.332-0.172,0.539-0.172h16.912c0.209,0,0.389,0.058,0.541,0.172
	C60.216,509.08,60.292,509.215,60.292,509.374z"/>
<path fill="#FFFFFF" d="M45.665,471.671v2.9c0,0.131-0.048,0.244-0.141,0.34c-0.094,0.098-0.205,0.145-0.333,0.145h-2.841
	c-0.128,0-0.238-0.047-0.332-0.145c-0.095-0.096-0.142-0.209-0.142-0.34v-2.9c0-0.131,0.047-0.245,0.142-0.34
	c0.094-0.096,0.204-0.144,0.332-0.144h2.841c0.128,0,0.239,0.048,0.333,0.144C45.617,471.426,45.665,471.541,45.665,471.671z
	 M45.665,465.869v2.9c0,0.132-0.048,0.246-0.141,0.341c-0.094,0.096-0.205,0.144-0.333,0.144h-2.841
	c-0.128,0-0.238-0.048-0.332-0.144c-0.095-0.095-0.142-0.209-0.142-0.341v-2.9c0-0.131,0.047-0.245,0.142-0.34
	c0.094-0.098,0.204-0.146,0.332-0.146h2.841c0.128,0,0.239,0.049,0.333,0.146C45.617,465.624,45.665,465.738,45.665,465.869z
	 M45.665,460.067v2.9c0,0.131-0.048,0.244-0.141,0.342c-0.094,0.094-0.205,0.142-0.333,0.142h-2.841
	c-0.128,0-0.238-0.048-0.332-0.142c-0.095-0.098-0.142-0.211-0.142-0.342v-2.9c0-0.133,0.047-0.246,0.142-0.341
	c0.094-0.097,0.204-0.145,0.332-0.145h2.841c0.128,0,0.239,0.048,0.333,0.145C45.617,459.821,45.665,459.934,45.665,460.067z
	 M60.257,471.671v2.9c0,0.131-0.027,0.244-0.086,0.34c-0.057,0.098-0.125,0.145-0.203,0.145H47.802
	c-0.078,0-0.146-0.047-0.203-0.145c-0.058-0.096-0.086-0.209-0.086-0.34v-2.9c0-0.131,0.028-0.245,0.086-0.34
	c0.057-0.096,0.125-0.144,0.203-0.144h12.166c0.078,0,0.146,0.048,0.203,0.144C60.229,471.426,60.257,471.541,60.257,471.671z
	 M60.257,465.869v2.9c0,0.132-0.027,0.246-0.086,0.341c-0.057,0.096-0.125,0.144-0.203,0.144H47.802
	c-0.078,0-0.146-0.048-0.203-0.144c-0.058-0.095-0.086-0.209-0.086-0.341v-2.9c0-0.131,0.028-0.245,0.086-0.34
	c0.057-0.098,0.125-0.146,0.203-0.146h12.166c0.078,0,0.146,0.049,0.203,0.146C60.229,465.624,60.257,465.738,60.257,465.869z
	 M60.257,460.067v2.9c0,0.131-0.027,0.244-0.086,0.342c-0.057,0.094-0.125,0.142-0.203,0.142H47.802
	c-0.078,0-0.146-0.048-0.203-0.142c-0.058-0.098-0.086-0.211-0.086-0.342v-2.9c0-0.133,0.028-0.246,0.086-0.341
	c0.057-0.097,0.125-0.145,0.203-0.145h12.166c0.078,0,0.146,0.048,0.203,0.145C60.229,459.821,60.257,459.934,60.257,460.067z"/>
<path fill="#3E3E3F" d="M9.764,471.99v2.9c0,0.131-0.047,0.243-0.14,0.339c-0.094,0.098-0.205,0.146-0.334,0.146H6.449
	c-0.128,0-0.238-0.048-0.332-0.146c-0.094-0.096-0.141-0.208-0.141-0.339v-2.9c0-0.132,0.047-0.246,0.141-0.34
	c0.094-0.097,0.204-0.145,0.332-0.145H9.29c0.129,0,0.24,0.048,0.334,0.145C9.717,471.744,9.764,471.858,9.764,471.99z
	 M9.764,466.186v2.9c0,0.132-0.047,0.246-0.14,0.341c-0.094,0.097-0.205,0.144-0.334,0.144H6.449c-0.128,0-0.238-0.047-0.332-0.144
	c-0.094-0.095-0.141-0.209-0.141-0.341v-2.9c0-0.131,0.047-0.244,0.141-0.34c0.094-0.097,0.204-0.146,0.332-0.146H9.29
	c0.129,0,0.24,0.049,0.334,0.146C9.717,465.942,9.764,466.055,9.764,466.186z M9.764,460.384v2.9c0,0.131-0.047,0.244-0.14,0.342
	c-0.094,0.094-0.205,0.142-0.334,0.142H6.449c-0.128,0-0.238-0.048-0.332-0.142c-0.094-0.098-0.141-0.211-0.141-0.342v-2.9
	c0-0.132,0.047-0.246,0.141-0.341c0.094-0.097,0.204-0.144,0.332-0.144H9.29c0.129,0,0.24,0.047,0.334,0.144
	C9.717,460.138,9.764,460.252,9.764,460.384z M24.356,471.99v2.9c0,0.131-0.028,0.243-0.086,0.339
	c-0.058,0.098-0.125,0.146-0.203,0.146H11.901c-0.079,0-0.146-0.048-0.203-0.146c-0.059-0.096-0.087-0.208-0.087-0.339v-2.9
	c0-0.132,0.028-0.246,0.087-0.34c0.057-0.097,0.124-0.145,0.203-0.145h12.166c0.078,0,0.146,0.048,0.203,0.145
	C24.328,471.744,24.356,471.858,24.356,471.99z M24.356,466.186v2.9c0,0.132-0.028,0.246-0.086,0.341
	c-0.058,0.097-0.125,0.144-0.203,0.144H11.901c-0.079,0-0.146-0.047-0.203-0.144c-0.059-0.095-0.087-0.209-0.087-0.341v-2.9
	c0-0.131,0.028-0.244,0.087-0.34c0.057-0.097,0.124-0.146,0.203-0.146h12.166c0.078,0,0.146,0.049,0.203,0.146
	C24.328,465.942,24.356,466.055,24.356,466.186z M24.356,460.384v2.9c0,0.131-0.028,0.244-0.086,0.342
	c-0.058,0.094-0.125,0.142-0.203,0.142H11.901c-0.079,0-0.146-0.048-0.203-0.142c-0.059-0.098-0.087-0.211-0.087-0.342v-2.9
	c0-0.132,0.028-0.246,0.087-0.341c0.057-0.097,0.124-0.144,0.203-0.144h12.166c0.078,0,0.146,0.047,0.203,0.144
	C24.328,460.138,24.356,460.252,24.356,460.384z"/>
<path fill="#3E3E3F" d="M24.392,505.183v1.168c0,0.158-0.076,0.295-0.229,0.409c-0.152,0.117-0.332,0.174-0.541,0.174H6.71
	c-0.207,0-0.389-0.057-0.54-0.174c-0.151-0.114-0.229-0.251-0.229-0.409v-1.168c0-0.158,0.077-0.294,0.229-0.411
	c0.151-0.114,0.333-0.173,0.54-0.173h16.912c0.209,0,0.389,0.059,0.541,0.173C24.315,504.889,24.392,505.025,24.392,505.183z
	 M24.392,500.678v1.167c0,0.157-0.076,0.295-0.229,0.41c-0.152,0.116-0.332,0.174-0.541,0.174H6.71c-0.207,0-0.389-0.058-0.54-0.174
	c-0.151-0.115-0.229-0.253-0.229-0.41v-1.167c0-0.158,0.077-0.295,0.229-0.411c0.151-0.114,0.333-0.174,0.54-0.174h16.912
	c0.209,0,0.389,0.06,0.541,0.174C24.315,500.383,24.392,500.52,24.392,500.678z M24.392,496.551v1.168
	c0,0.158-0.076,0.295-0.229,0.411c-0.152,0.114-0.332,0.172-0.541,0.172H6.71c-0.207,0-0.389-0.058-0.54-0.172
	c-0.151-0.116-0.229-0.253-0.229-0.411v-1.168c0-0.158,0.077-0.295,0.229-0.409c0.151-0.116,0.333-0.174,0.54-0.174h16.912
	c0.209,0,0.389,0.058,0.541,0.174C24.315,496.256,24.392,496.393,24.392,496.551z M24.392,509.691v1.168
	c0,0.158-0.076,0.295-0.229,0.41c-0.152,0.116-0.332,0.174-0.541,0.174H6.71c-0.207,0-0.389-0.058-0.54-0.174
	c-0.151-0.115-0.229-0.252-0.229-0.41v-1.168c0-0.158,0.077-0.293,0.229-0.41c0.151-0.115,0.333-0.173,0.54-0.173h16.912
	c0.209,0,0.389,0.058,0.541,0.173C24.315,509.398,24.392,509.533,24.392,509.691z"/>
<path fill="#3E3E3F" d="M13.178,133.827c0,0.26-0.092,0.48-0.275,0.664l-1.329,1.33c-0.183,0.181-0.403,0.273-0.665,0.273
	s-0.482-0.093-0.664-0.273l-2.875-2.876l-2.875,2.876c-0.182,0.181-0.403,0.273-0.664,0.273s-0.482-0.093-0.664-0.273l-1.329-1.33
	c-0.182-0.184-0.274-0.404-0.274-0.664c0-0.261,0.092-0.483,0.274-0.666l2.874-2.872l-2.874-2.874
	c-0.182-0.184-0.274-0.404-0.274-0.665s0.092-0.482,0.274-0.663l1.329-1.332c0.182-0.183,0.403-0.274,0.664-0.274
	s0.482,0.092,0.664,0.274l2.875,2.874l2.875-2.874c0.181-0.183,0.402-0.274,0.664-0.274s0.482,0.092,0.665,0.274l1.329,1.332
	c0.183,0.181,0.275,0.402,0.275,0.663s-0.092,0.481-0.275,0.665l-2.873,2.874l2.873,2.872
	C13.085,133.343,13.178,133.566,13.178,133.827z"/>
<path d="M0.896,5.369c0-0.157,0.058-0.292,0.171-0.403L5.1,0.932C5.214,0.816,5.349,0.76,5.505,0.76S5.796,0.816,5.91,0.932
	l4.034,4.034c0.114,0.111,0.171,0.246,0.171,0.403c0,0.157-0.058,0.293-0.171,0.405C9.83,5.89,9.696,5.946,9.539,5.946H1.472
	c-0.157,0-0.292-0.056-0.405-0.172C0.953,5.663,0.896,5.526,0.896,5.369z"/>
<path fill="#FFFFFF" d="M31.769,5.243c0-0.157,0.058-0.292,0.172-0.403l4.033-4.034c0.114-0.116,0.249-0.171,0.405-0.171
	s0.291,0.056,0.405,0.171l4.033,4.034c0.114,0.112,0.171,0.246,0.171,0.403s-0.057,0.293-0.171,0.406
	c-0.113,0.115-0.248,0.171-0.404,0.171h-8.067c-0.157,0-0.292-0.056-0.405-0.171C31.826,5.536,31.769,5.4,31.769,5.243z"/>
<path fill="#B0B0B0" d="M64.49,5.242c0-0.157,0.057-0.292,0.171-0.403l4.033-4.035c0.114-0.116,0.249-0.171,0.406-0.171
	c0.156,0,0.291,0.056,0.404,0.171l4.034,4.035c0.113,0.111,0.17,0.246,0.17,0.403s-0.057,0.293-0.17,0.405
	c-0.114,0.116-0.249,0.171-0.405,0.171h-8.067c-0.157,0-0.292-0.056-0.405-0.171C64.547,5.536,64.49,5.399,64.49,5.242z"/>
<path fill="#B0B0B0" d="M73.709,21.91c0,0.157-0.057,0.292-0.171,0.403l-4.033,4.034c-0.114,0.116-0.249,0.172-0.405,0.172
	c-0.156,0-0.291-0.056-0.405-0.172l-4.034-4.034c-0.114-0.112-0.171-0.246-0.171-0.403s0.057-0.293,0.171-0.405
	c0.114-0.116,0.248-0.171,0.405-0.171h8.067c0.157,0,0.292,0.056,0.405,0.171C73.652,21.617,73.709,21.753,73.709,21.91z"/>
<path fill="#FFFFFF" d="M40.988,21.91c0,0.157-0.057,0.292-0.172,0.403l-4.033,4.034c-0.114,0.116-0.249,0.172-0.405,0.172
	s-0.291-0.056-0.405-0.172l-4.034-4.034c-0.114-0.112-0.171-0.246-0.171-0.403s0.058-0.293,0.171-0.405
	c0.114-0.116,0.248-0.171,0.405-0.171h8.067c0.157,0,0.292,0.056,0.404,0.171C40.931,21.617,40.988,21.753,40.988,21.91z"/>
<path d="M10.115,22.252c0,0.157-0.058,0.293-0.172,0.404L5.91,26.691c-0.114,0.116-0.249,0.172-0.405,0.172
	c-0.157,0-0.291-0.056-0.405-0.172l-4.033-4.034c-0.114-0.111-0.171-0.247-0.171-0.404c0-0.156,0.058-0.292,0.171-0.404
	c0.113-0.116,0.248-0.172,0.404-0.172h8.067c0.157,0,0.292,0.056,0.405,0.172C10.058,21.96,10.115,22.096,10.115,22.252z"/>
<path fill="#3E3E3F" d="M15.108,229.868c0,0.582-0.47,1.052-1.053,1.052H3.525c-0.581,0-1.053-0.47-1.053-1.052
	c0-2.108,2.034-4.071,4.116-4.851c-1.202-0.743-2.01-2.06-2.01-3.575v-1.052c0-2.33,1.886-4.213,4.213-4.213
	c2.325,0,4.211,1.883,4.211,4.213v1.052c0,1.516-0.807,2.832-2.009,3.575C13.074,225.796,15.108,227.759,15.108,229.868z"/>
<path fill="#FFFFFF" d="M44.54,644.23c0,1.815-1.467,3.277-3.282,3.277H8.439c-1.813,0-3.282-1.462-3.282-3.277
	c0-6.568,6.341-12.687,12.826-15.112c-3.742-2.318-6.262-6.424-6.262-11.147v-3.275c0-7.26,5.874-13.136,13.127-13.136
	c7.251,0,13.127,5.876,13.127,13.136v3.275c0,4.724-2.52,8.829-6.262,11.147C38.196,631.543,44.54,637.662,44.54,644.23z"/>
<path fill="#3E3E3F" d="M52.493,565.332c0,0.953-0.333,1.758-0.997,2.431l-2.888,2.911c-0.703,0.665-1.521,0.999-2.454,0.999
	c-0.956,0-1.764-0.334-2.428-0.999l-9.794-9.822c-0.686-0.645-1.027-1.458-1.027-2.429c0-0.953,0.388-1.816,1.16-2.589l-6.906-6.908
	l-3.399,3.398c-0.253,0.251-0.56,0.379-0.917,0.379c-0.36,0-0.667-0.128-0.918-0.379c0.036,0.036,0.148,0.144,0.335,0.328
	c0.189,0.178,0.304,0.294,0.34,0.35c0.035,0.052,0.122,0.153,0.268,0.312c0.143,0.149,0.235,0.271,0.268,0.36
	c0.039,0.092,0.093,0.212,0.164,0.36c0.071,0.159,0.123,0.305,0.147,0.447c0.026,0.146,0.042,0.31,0.042,0.489
	c0,0.682-0.253,1.293-0.757,1.834c-0.054,0.052-0.202,0.215-0.444,0.485c-0.241,0.272-0.414,0.456-0.514,0.553
	c-0.097,0.099-0.263,0.247-0.498,0.447c-0.235,0.197-0.433,0.334-0.593,0.417c-0.164,0.084-0.361,0.16-0.595,0.242
	c-0.232,0.083-0.466,0.122-0.7,0.122c-0.719,0-1.332-0.253-1.833-0.759L6.542,547.307c-0.506-0.502-0.757-1.115-0.757-1.839
	c0-0.229,0.041-0.465,0.123-0.7c0.082-0.229,0.161-0.428,0.243-0.593c0.082-0.157,0.222-0.36,0.419-0.593
	c0.197-0.237,0.345-0.401,0.445-0.499c0.097-0.099,0.283-0.273,0.554-0.514c0.269-0.242,0.43-0.388,0.483-0.446
	c0.539-0.501,1.152-0.752,1.837-0.752c0.179,0,0.34,0.01,0.485,0.038c0.144,0.031,0.292,0.076,0.442,0.148
	c0.154,0.073,0.274,0.128,0.366,0.163c0.087,0.038,0.209,0.124,0.363,0.271c0.153,0.145,0.258,0.231,0.312,0.267
	c0.054,0.038,0.171,0.146,0.35,0.34c0.182,0.187,0.286,0.302,0.324,0.339c-0.25-0.257-0.378-0.558-0.378-0.918
	s0.128-0.665,0.378-0.918l9.391-9.39c0.25-0.252,0.558-0.38,0.918-0.38c0.357,0,0.664,0.128,0.917,0.38
	c-0.038-0.037-0.151-0.146-0.337-0.325c-0.189-0.18-0.301-0.298-0.337-0.348c-0.039-0.059-0.128-0.161-0.271-0.314
	s-0.233-0.273-0.271-0.363c-0.036-0.09-0.089-0.212-0.164-0.365c-0.071-0.151-0.12-0.302-0.146-0.445
	c-0.028-0.143-0.041-0.307-0.041-0.485c0-0.68,0.253-1.296,0.757-1.833c0.054-0.053,0.201-0.217,0.442-0.485
	c0.246-0.271,0.414-0.455,0.516-0.552c0.097-0.101,0.266-0.247,0.496-0.444c0.235-0.203,0.435-0.34,0.598-0.419
	c0.159-0.08,0.358-0.164,0.593-0.243c0.23-0.082,0.466-0.125,0.7-0.125c0.719,0,1.33,0.255,1.836,0.756l11.008,11.008
	c0.504,0.506,0.754,1.115,0.754,1.839c0,0.232-0.04,0.462-0.122,0.7c-0.077,0.232-0.159,0.435-0.24,0.59
	c-0.082,0.163-0.22,0.365-0.419,0.596c-0.199,0.232-0.348,0.403-0.445,0.501c-0.097,0.097-0.283,0.266-0.552,0.509
	c-0.271,0.242-0.432,0.396-0.485,0.447c-0.542,0.506-1.15,0.759-1.835,0.759c-0.182,0-0.343-0.015-0.486-0.041
	c-0.146-0.028-0.292-0.081-0.444-0.15c-0.154-0.075-0.276-0.125-0.366-0.162c-0.089-0.035-0.212-0.126-0.365-0.271
	c-0.154-0.143-0.253-0.232-0.31-0.268c-0.054-0.038-0.17-0.151-0.35-0.335c-0.179-0.194-0.286-0.305-0.322-0.34
	c0.248,0.253,0.374,0.558,0.374,0.918s-0.126,0.661-0.374,0.918l-3.404,3.397l6.911,6.91c0.772-0.777,1.636-1.164,2.587-1.164
	c0.938,0,1.758,0.335,2.459,0.997l9.794,9.795C52.16,563.576,52.493,564.396,52.493,565.332z"/>
<path fill="#3E3E3F" d="M32.292,776.962c0.215,0.21,0.288,0.39,0.22,0.53c-0.068,0.149-0.248,0.223-0.54,0.223H7.193
	c-0.29,0-0.468-0.073-0.536-0.223c-0.07-0.141,0.005-0.32,0.219-0.53l11.95-11.961c0.102-0.097,0.209-0.166,0.321-0.212H7.733
	c-0.29,0-0.545-0.108-0.757-0.319c-0.214-0.221-0.319-0.468-0.319-0.76v-2.153c0-0.292,0.105-0.545,0.319-0.759
	c0.212-0.212,0.467-0.32,0.757-0.32h23.7c0.292,0,0.545,0.108,0.759,0.32c0.213,0.214,0.32,0.467,0.32,0.759v2.153
	c0,0.292-0.107,0.539-0.32,0.76c-0.214,0.211-0.467,0.319-0.759,0.319H20.024c0.122,0.046,0.227,0.115,0.315,0.212L32.292,776.962z"
	/>
<path fill="#FFFFFF" d="M101.939,567.26h7.103v-7.103h-7.103V567.26z M110.62,567.26h7.893v-7.103h-7.893V567.26z M101.939,558.576
	h7.103v-7.89h-7.103V558.576z M110.62,558.576h7.893v-7.89h-7.893V558.576z M101.939,549.103h7.103v-7.098h-7.103V549.103z
	 M120.092,567.26h7.893v-7.103h-7.893V567.26z M110.62,549.103h7.893v-7.098h-7.893V549.103z M129.562,567.26h7.103v-7.103h-7.103
	V567.26z M120.092,558.576h7.893v-7.89h-7.893V558.576z M111.412,537.27v-7.104c0-0.212-0.082-0.398-0.234-0.555
	c-0.156-0.159-0.343-0.235-0.558-0.235h-1.577c-0.215,0-0.396,0.076-0.554,0.235c-0.158,0.156-0.235,0.343-0.235,0.555v7.104
	c0,0.212,0.077,0.396,0.235,0.552c0.158,0.16,0.339,0.235,0.554,0.235h1.577c0.215,0,0.401-0.075,0.558-0.235
	C111.33,537.666,111.412,537.482,111.412,537.27z M129.562,558.576h7.103v-7.89h-7.103V558.576z M120.092,549.103h7.893v-7.098
	h-7.893V549.103z M129.562,549.103h7.103v-7.098h-7.103V549.103z M130.352,537.27v-7.104c0-0.212-0.077-0.398-0.235-0.555
	c-0.156-0.159-0.342-0.235-0.555-0.235h-1.577c-0.215,0-0.398,0.076-0.557,0.235c-0.156,0.156-0.233,0.343-0.233,0.555v7.104
	c0,0.212,0.078,0.396,0.233,0.552c0.158,0.16,0.342,0.235,0.557,0.235h1.577c0.212,0,0.398-0.075,0.555-0.235
	C130.275,537.666,130.352,537.482,130.352,537.27z M139.821,535.69v31.57c0,0.856-0.312,1.596-0.938,2.222
	c-0.623,0.62-1.362,0.933-2.218,0.933h-34.725c-0.856,0-1.594-0.313-2.221-0.933c-0.626-0.626-0.936-1.365-0.936-2.222v-31.57
	c0-0.853,0.31-1.593,0.936-2.218c0.627-0.627,1.365-0.938,2.221-0.938h3.157v-2.367c0-1.086,0.385-2.011,1.158-2.788
	c0.771-0.771,1.702-1.159,2.788-1.159h1.577c1.083,0,2.014,0.388,2.789,1.159c0.772,0.777,1.157,1.702,1.157,2.788v2.367h9.47
	v-2.367c0-1.086,0.386-2.011,1.161-2.788c0.774-0.771,1.702-1.159,2.788-1.159h1.577c1.086,0,2.014,0.388,2.788,1.159
	c0.772,0.777,1.156,1.702,1.156,2.788v2.367h3.159c0.856,0,1.595,0.312,2.218,0.938C139.509,534.097,139.821,534.837,139.821,535.69
	z"/>
<path fill="#3E3E3F" d="M132.021,639.779h-3.277v3.278c0,1.815-1.465,3.276-3.28,3.276c-1.813,0-3.278-1.461-3.278-3.276v-3.278
	h-3.277c-1.815,0-3.28-1.466-3.28-3.277c0-1.814,1.465-3.282,3.28-3.282h3.277v-3.276c0-1.812,1.465-3.281,3.278-3.281
	c1.815,0,3.28,1.47,3.28,3.281v3.276h3.277c1.813,0,3.277,1.468,3.277,3.282C135.298,638.313,133.833,639.779,132.021,639.779z
	 M116.09,627.126c-4.054,1.213-7.02,4.928-7.02,9.375c0,4.279,2.748,7.88,6.558,9.228v0.604H92.677
	c-1.807,0-3.277-1.461-3.277-3.276c0-6.556,6.336-12.674,12.815-15.096c-3.742-2.315-6.258-6.419-6.258-11.136v-3.275
	c0-7.247,5.869-13.118,13.113-13.118s13.116,5.871,13.116,13.118v3.275c0,1.528-0.341,2.946-0.827,4.309
	C118.864,622.322,116.899,624.436,116.09,627.126z"/>
<path fill="#3E3E3F" d="M12.334,306.513v-1.934c2.138-0.762,3.681-2.783,3.681-5.183c0-2.4-1.542-4.427-3.681-5.187v-1.936
	c3.173,0.816,5.521,3.689,5.521,7.122C17.855,302.826,15.507,305.698,12.334,306.513z M5.89,303.076
	c-1.523,0-2.761-1.234-2.761-2.76v-1.841c0-1.523,1.238-2.761,2.761-2.761h0.922l4.6-3.683v14.725l-4.6-3.681H5.89z M9.574,303.076
	v-2.76v-1.841v-2.761l-1.842,1.84H5.89c-0.508,0-0.919,0.413-0.919,0.921v1.841c0,0.507,0.412,0.921,0.919,0.921h1.842
	L9.574,303.076z M15.094,299.397c0,1.711-1.174,3.139-2.76,3.547v-1.962c0.547-0.321,0.92-0.907,0.92-1.585
	c0-0.681-0.373-1.269-0.92-1.589v-1.962C13.919,296.255,15.094,297.68,15.094,299.397z"/>
<path fill="#3E3E3F" d="M11.689,336.614c-5.758,0-8.523-7.457-8.523-7.457s2.765-7.458,8.523-7.458c5.76,0,8.523,7.458,8.523,7.458
	S17.449,336.614,11.689,336.614z M11.689,323.83c-2.942,0-5.326,2.385-5.326,5.327c0,2.941,2.384,5.326,5.326,5.326
	c2.943,0,5.328-2.385,5.328-5.326C17.017,326.214,14.632,323.83,11.689,323.83z M11.689,332.352c-1.766,0-3.195-1.432-3.195-3.195
	c0-0.376,0.078-0.731,0.196-1.066h1.935v-1.934c0.333-0.123,0.69-0.196,1.065-0.196c1.767,0,3.197,1.432,3.197,3.196
	C14.886,330.92,13.456,332.352,11.689,332.352z"/>
<path fill="#FFFFFF" d="M49.787,133.827c0,0.26-0.092,0.48-0.275,0.664l-1.329,1.33c-0.183,0.181-0.403,0.273-0.665,0.273
	s-0.482-0.093-0.664-0.273l-2.875-2.876l-2.875,2.876c-0.182,0.181-0.403,0.273-0.664,0.273s-0.482-0.093-0.664-0.273l-1.33-1.33
	c-0.182-0.184-0.274-0.404-0.274-0.664c0-0.261,0.092-0.483,0.274-0.666l2.874-2.872l-2.874-2.874
	c-0.182-0.184-0.274-0.404-0.274-0.665s0.092-0.482,0.274-0.663l1.33-1.332c0.182-0.183,0.403-0.274,0.664-0.274
	s0.482,0.092,0.664,0.274l2.875,2.874l2.875-2.874c0.181-0.183,0.402-0.274,0.664-0.274s0.482,0.092,0.665,0.274l1.329,1.332
	c0.183,0.181,0.275,0.402,0.275,0.663s-0.092,0.481-0.275,0.665l-2.873,2.874l2.873,2.872
	C49.695,133.343,49.787,133.566,49.787,133.827z"/>
<path fill="#B0B0B0" d="M94.369,133.827c0,0.26-0.092,0.48-0.275,0.664l-1.328,1.33c-0.183,0.181-0.404,0.273-0.666,0.273
	s-0.481-0.093-0.664-0.273l-2.875-2.876l-2.875,2.876c-0.182,0.181-0.403,0.273-0.664,0.273s-0.482-0.093-0.665-0.273l-1.329-1.33
	c-0.181-0.184-0.273-0.404-0.273-0.664c0-0.261,0.092-0.483,0.273-0.666l2.874-2.872l-2.874-2.874
	c-0.181-0.184-0.273-0.404-0.273-0.665s0.092-0.482,0.273-0.663l1.329-1.332c0.183-0.183,0.404-0.274,0.665-0.274
	s0.482,0.092,0.664,0.274l2.875,2.874l2.875-2.874c0.182-0.183,0.402-0.274,0.664-0.274s0.482,0.092,0.666,0.274l1.328,1.332
	c0.183,0.181,0.275,0.402,0.275,0.663s-0.092,0.481-0.275,0.665l-2.872,2.874l2.872,2.872
	C94.277,133.343,94.369,133.566,94.369,133.827z"/>
<path fill="#B0B0B0" d="M94.718,229.271c0,0.582-0.47,1.052-1.053,1.052h-10.53c-0.581,0-1.053-0.47-1.053-1.052
	c0-2.109,2.034-4.071,4.116-4.851c-1.202-0.743-2.011-2.06-2.011-3.575v-1.053c0-2.328,1.886-4.214,4.213-4.214
	c2.325,0,4.211,1.886,4.211,4.214v1.053c0,1.516-0.807,2.832-2.009,3.575C92.684,225.2,94.718,227.162,94.718,229.271z"/>
<path fill="#5C85B1" d="M150.641,229.071c0,0.583-0.469,1.054-1.051,1.054h-10.532c-0.579,0-1.05-0.471-1.05-1.054
	c0-2.106,2.034-4.07,4.114-4.85c-1.203-0.742-2.009-2.06-2.009-3.574v-1.053c0-2.328,1.885-4.214,4.212-4.214
	c2.326,0,4.212,1.886,4.212,4.214v1.053c0,1.515-0.808,2.832-2.009,3.574C148.607,225,150.641,226.964,150.641,229.071z"/>
<path fill="#005BAA" d="M200.54,229.112c0,0.583-0.473,1.052-1.055,1.052h-10.529c-0.583,0-1.054-0.469-1.054-1.052
	c0-2.108,2.035-4.071,4.117-4.848c-1.202-0.744-2.013-2.063-2.013-3.577v-1.052c0-2.328,1.887-4.214,4.214-4.214
	c2.325,0,4.213,1.886,4.213,4.214v1.052c0,1.515-0.809,2.833-2.011,3.577C198.504,225.041,200.54,227.003,200.54,229.112z"/>
<path fill="#B0B0B0" d="M89.039,776.962c0.214,0.21,0.289,0.39,0.221,0.53c-0.068,0.149-0.248,0.223-0.54,0.223H63.94
	c-0.29,0-0.468-0.073-0.536-0.223c-0.07-0.141,0.005-0.32,0.219-0.53l11.95-11.961c0.102-0.097,0.209-0.166,0.321-0.212H64.479
	c-0.29,0-0.544-0.108-0.757-0.319c-0.214-0.221-0.319-0.468-0.319-0.76v-2.153c0-0.292,0.105-0.545,0.319-0.759
	c0.212-0.212,0.467-0.32,0.757-0.32H88.18c0.292,0,0.544,0.108,0.758,0.32c0.214,0.214,0.321,0.467,0.321,0.759v2.153
	c0,0.292-0.107,0.539-0.321,0.76c-0.214,0.211-0.467,0.319-0.758,0.319H76.771c0.122,0.046,0.227,0.115,0.315,0.212L89.039,776.962z
	"/>
<path fill="#5C85B1" d="M155.258,776.962c0.215,0.21,0.287,0.39,0.221,0.53c-0.07,0.149-0.248,0.223-0.54,0.223h-24.78
	c-0.29,0-0.47-0.073-0.538-0.223c-0.068-0.141,0.006-0.32,0.22-0.53l11.951-11.961c0.1-0.097,0.208-0.166,0.32-0.212h-11.416
	c-0.289,0-0.543-0.108-0.755-0.319c-0.214-0.221-0.32-0.468-0.32-0.76v-2.153c0-0.292,0.106-0.545,0.32-0.759
	c0.212-0.212,0.467-0.32,0.755-0.32h23.7c0.293,0,0.546,0.108,0.76,0.32c0.214,0.214,0.321,0.467,0.321,0.759v2.153
	c0,0.292-0.107,0.539-0.321,0.76c-0.214,0.211-0.467,0.319-0.76,0.319h-11.409c0.124,0.046,0.229,0.115,0.316,0.212L155.258,776.962
	z"/>
<path fill="#B0B0B0" d="M92.787,305.704v-1.936c2.139-0.762,3.679-2.783,3.679-5.183c0-2.4-1.54-4.424-3.679-5.187v-1.937
	c3.173,0.817,5.521,3.69,5.521,7.123C98.308,302.014,95.96,304.886,92.787,305.704z M86.344,302.263
	c-1.525,0-2.761-1.233-2.761-2.759v-1.841c0-1.523,1.236-2.76,2.761-2.76h0.921l4.601-3.683v14.726l-4.601-3.684H86.344z
	 M90.025,302.263v-2.759v-1.841v-2.76l-1.839,1.839h-1.842c-0.509,0-0.919,0.412-0.919,0.921v1.841c0,0.508,0.41,0.923,0.919,0.923
	h1.842L90.025,302.263z M95.546,298.585c0,1.71-1.175,3.139-2.759,3.547v-1.963c0.548-0.32,0.918-0.906,0.918-1.584
	c0-0.681-0.37-1.269-0.918-1.588v-1.964C94.372,295.444,95.546,296.869,95.546,298.585z"/>
<path fill="#005BAA" d="M195.189,304.949v-1.936c2.139-0.76,3.68-2.783,3.68-5.184s-1.541-4.424-3.68-5.186v-1.934
	c3.173,0.814,5.521,3.688,5.521,7.119C200.711,301.259,198.362,304.131,195.189,304.949z M188.745,301.509
	c-1.524,0-2.76-1.235-2.76-2.761v-1.841c0-1.523,1.236-2.76,2.76-2.76h0.921l4.602-3.682v14.725l-4.602-3.682H188.745z
	 M192.428,301.509v-2.761v-1.841v-2.76l-1.841,1.839h-1.842c-0.507,0-0.919,0.414-0.919,0.921v1.841
	c0,0.509,0.412,0.923,0.919,0.923h1.842L192.428,301.509z M197.948,297.83c0,1.713-1.174,3.139-2.759,3.548v-1.963
	c0.548-0.32,0.918-0.907,0.918-1.585c0-0.681-0.37-1.268-0.918-1.588v-1.961C196.774,294.688,197.948,296.115,197.948,297.83z"/>
<path fill="#B0B0B0" d="M90.633,335.917c-5.757,0-8.521-7.457-8.521-7.457s2.764-7.457,8.521-7.457c5.762,0,8.525,7.457,8.525,7.457
	S96.395,335.917,90.633,335.917z M90.633,323.134c-2.941,0-5.325,2.384-5.325,5.326s2.384,5.326,5.325,5.326
	c2.944,0,5.328-2.384,5.328-5.326S93.577,323.134,90.633,323.134z M90.633,331.656c-1.764,0-3.195-1.432-3.195-3.195
	c0-0.376,0.077-0.731,0.197-1.066h1.935v-1.934c0.333-0.122,0.688-0.195,1.063-0.195c1.768,0,3.198,1.432,3.198,3.195
	S92.401,331.656,90.633,331.656z"/>
<path fill="#005BAA" d="M194.196,335.222c-5.759,0-8.523-7.457-8.523-7.457s2.764-7.459,8.523-7.459
	c5.761,0,8.524,7.459,8.524,7.459S199.957,335.222,194.196,335.222z M194.196,322.436c-2.941,0-5.326,2.386-5.326,5.329
	c0,2.94,2.385,5.325,5.326,5.325c2.943,0,5.328-2.385,5.328-5.325C199.524,324.822,197.14,322.436,194.196,322.436z
	 M194.196,330.959c-1.765,0-3.195-1.433-3.195-3.194c0-0.377,0.076-0.731,0.196-1.067h1.935v-1.935
	c0.334-0.121,0.689-0.196,1.064-0.196c1.767,0,3.198,1.434,3.198,3.198C197.395,329.527,195.963,330.959,194.196,330.959z"/>
<path fill="#5C85B1" d="M144.94,305.007v-1.934c2.137-0.763,3.678-2.784,3.678-5.186c0-2.4-1.541-4.424-3.678-5.186v-1.935
	c3.173,0.816,5.52,3.69,5.52,7.12C150.46,301.32,148.113,304.191,144.94,305.007z M138.495,301.569
	c-1.524,0-2.761-1.237-2.761-2.763v-1.838c0-1.525,1.237-2.76,2.761-2.76h0.921l4.602-3.683v14.724l-4.602-3.681H138.495z
	 M142.177,301.569v-2.763v-1.838v-2.76l-1.84,1.836h-1.842c-0.507,0-0.919,0.414-0.919,0.924v1.838c0,0.511,0.412,0.924,0.919,0.924
	h1.842L142.177,301.569z M147.697,297.888c0,1.713-1.173,3.138-2.757,3.549v-1.964c0.547-0.319,0.917-0.907,0.917-1.585
	c0-0.679-0.37-1.267-0.917-1.586v-1.964C146.524,294.749,147.697,296.174,147.697,297.888z"/>
<path fill="#5C85B1" d="M143.946,335.28c-5.759,0-8.523-7.457-8.523-7.457s2.764-7.457,8.523-7.457c5.76,0,8.524,7.457,8.524,7.457
	S149.706,335.28,143.946,335.28z M143.946,322.496c-2.942,0-5.326,2.385-5.326,5.327c0,2.943,2.384,5.327,5.326,5.327
	c2.942,0,5.327-2.384,5.327-5.327C149.273,324.88,146.889,322.496,143.946,322.496z M143.946,331.019
	c-1.766,0-3.195-1.433-3.195-3.196c0-0.375,0.076-0.731,0.196-1.065h1.935v-1.934c0.333-0.122,0.689-0.197,1.064-0.197
	c1.767,0,3.198,1.434,3.198,3.196C147.144,329.586,145.713,331.019,143.946,331.019z"/>
<path d="M11.069,65.814c-0.269,0-0.499-0.099-0.69-0.296l-6.925-6.923c-0.2-0.197-0.296-0.427-0.296-0.696s0.096-0.498,0.296-0.693
	l6.925-6.926c0.191-0.194,0.421-0.293,0.69-0.293c0.27,0,0.505,0.099,0.697,0.293c0.197,0.196,0.293,0.428,0.293,0.695v13.849
	c0,0.27-0.096,0.5-0.293,0.694C11.574,65.715,11.338,65.814,11.069,65.814z"/>
<path fill="#FFFFFF" d="M44.142,63.772c-0.269,0-0.499-0.099-0.69-0.297l-6.925-6.922c-0.2-0.197-0.296-0.428-0.296-0.696
	c0-0.27,0.096-0.498,0.296-0.694l6.925-6.925c0.191-0.194,0.421-0.293,0.69-0.293s0.505,0.099,0.697,0.293
	c0.197,0.196,0.293,0.428,0.293,0.695v13.849c0,0.27-0.096,0.499-0.293,0.693C44.647,63.673,44.411,63.772,44.142,63.772z"/>
<path fill="#B0B0B0" d="M80.831,63.772c-0.269,0-0.5-0.099-0.691-0.297l-6.925-6.922c-0.2-0.197-0.296-0.428-0.296-0.696
	c0-0.27,0.096-0.498,0.296-0.694l6.925-6.925c0.191-0.194,0.422-0.293,0.691-0.293s0.505,0.099,0.697,0.293
	c0.197,0.196,0.293,0.428,0.293,0.695v13.849c0,0.27-0.096,0.499-0.293,0.693C81.336,63.673,81.1,63.772,80.831,63.772z"/>
<path d="M4.188,81.406c0.269,0,0.5,0.099,0.691,0.296l6.925,6.922c0.2,0.197,0.296,0.428,0.296,0.697
	c0,0.269-0.096,0.497-0.296,0.693l-6.925,6.925c-0.191,0.194-0.422,0.293-0.691,0.293s-0.505-0.099-0.697-0.293
	c-0.197-0.195-0.293-0.428-0.293-0.695V82.395c0-0.269,0.096-0.499,0.293-0.693C3.683,81.504,3.919,81.406,4.188,81.406z"/>
<path fill="#FFFFFF" d="M46.163,81.406c0.269,0,0.5,0.099,0.691,0.296l6.925,6.922c0.2,0.197,0.296,0.428,0.296,0.697
	c0,0.269-0.096,0.497-0.296,0.693l-6.925,6.925c-0.191,0.194-0.422,0.293-0.691,0.293s-0.505-0.099-0.697-0.293
	c-0.197-0.195-0.293-0.428-0.293-0.695V82.395c0-0.269,0.096-0.499,0.293-0.693C45.657,81.504,45.894,81.406,46.163,81.406z"/>
<path fill="#B0B0B0" d="M76.592,81.406c0.269,0,0.5,0.099,0.691,0.296l6.925,6.922c0.2,0.197,0.296,0.428,0.296,0.697
	c0,0.269-0.096,0.497-0.296,0.693l-6.925,6.925c-0.191,0.194-0.422,0.293-0.691,0.293s-0.505-0.099-0.697-0.293
	c-0.197-0.195-0.293-0.428-0.293-0.695V82.395c0-0.269,0.096-0.499,0.293-0.693C76.087,81.504,76.323,81.406,76.592,81.406z"/>
<path fill="#3E3E3F" d="M133.75,53.99c0,0.285-0.102,0.529-0.303,0.73l-1.465,1.468c-0.202,0.199-0.445,0.301-0.733,0.301
	c-0.289,0-0.532-0.102-0.732-0.301l-3.17-3.172l-3.169,3.172c-0.2,0.199-0.445,0.301-0.732,0.301s-0.531-0.102-0.732-0.301
	l-1.466-1.468c-0.2-0.201-0.302-0.445-0.302-0.73c0-0.289,0.102-0.534,0.302-0.735l3.169-3.166l-3.169-3.171
	c-0.2-0.201-0.302-0.445-0.302-0.733c0-0.287,0.102-0.53,0.302-0.73l1.466-1.47c0.201-0.199,0.445-0.302,0.732-0.302
	s0.532,0.103,0.732,0.302l3.169,3.171l3.17-3.171c0.2-0.199,0.443-0.302,0.732-0.302c0.288,0,0.531,0.103,0.733,0.302l1.465,1.47
	c0.201,0.2,0.303,0.443,0.303,0.73c0,0.288-0.102,0.532-0.303,0.733l-3.168,3.171l3.168,3.166
	C133.648,53.456,133.75,53.701,133.75,53.99z M127.347,38.002c-6.494,0-11.76,5.265-11.76,11.761c0,6.492,5.266,11.759,11.76,11.759
	c6.494,0,11.759-5.267,11.759-11.759C139.106,43.267,133.841,38.002,127.347,38.002z"/>
<path fill="#005BAA" d="M210.618,776.962c0.215,0.21,0.287,0.39,0.221,0.53c-0.07,0.149-0.248,0.223-0.539,0.223h-24.78
	c-0.29,0-0.47-0.073-0.538-0.223c-0.068-0.141,0.006-0.32,0.22-0.53l11.951-11.961c0.1-0.097,0.209-0.166,0.32-0.212h-11.417
	c-0.288,0-0.542-0.108-0.755-0.319c-0.214-0.221-0.32-0.468-0.32-0.76v-2.153c0-0.292,0.106-0.545,0.32-0.759
	c0.212-0.212,0.467-0.32,0.755-0.32h23.702c0.293,0,0.545,0.108,0.76,0.32c0.213,0.214,0.32,0.467,0.32,0.759v2.153
	c0,0.292-0.107,0.539-0.32,0.76c-0.215,0.211-0.467,0.319-0.76,0.319h-11.41c0.125,0.046,0.23,0.115,0.316,0.212L210.618,776.962z"
	/>
<path fill="#3E3E3F" d="M150.659,472.585v1.648c0,0.223-0.076,0.416-0.229,0.577c-0.152,0.165-0.332,0.245-0.541,0.245h-16.912
	c-0.207,0-0.389-0.08-0.54-0.245c-0.151-0.161-0.229-0.354-0.229-0.577v-1.648c0-0.224,0.077-0.415,0.229-0.58
	c0.151-0.162,0.333-0.244,0.54-0.244h16.912c0.209,0,0.389,0.082,0.541,0.244C150.583,472.17,150.659,472.362,150.659,472.585z
	 M150.659,466.228v1.647c0,0.221-0.076,0.416-0.229,0.579s-0.332,0.245-0.541,0.245h-16.912c-0.207,0-0.389-0.082-0.54-0.245
	s-0.229-0.358-0.229-0.579v-1.647c0-0.223,0.077-0.416,0.229-0.58c0.151-0.161,0.333-0.245,0.54-0.245h16.912
	c0.209,0,0.389,0.084,0.541,0.245C150.583,465.812,150.659,466.005,150.659,466.228z M150.659,460.404v1.648
	c0,0.224-0.076,0.416-0.229,0.58c-0.152,0.162-0.332,0.242-0.541,0.242h-16.912c-0.207,0-0.389-0.08-0.54-0.242
	c-0.151-0.164-0.229-0.356-0.229-0.58v-1.648c0-0.223,0.077-0.416,0.229-0.577c0.151-0.164,0.333-0.245,0.54-0.245h16.912
	c0.209,0,0.389,0.081,0.541,0.245C150.583,459.988,150.659,460.181,150.659,460.404z"/>
<path fill="#FFFFFF" d="M201.983,472.585v1.648c0,0.223-0.076,0.416-0.229,0.577c-0.152,0.165-0.332,0.245-0.541,0.245h-16.912
	c-0.207,0-0.389-0.08-0.54-0.245c-0.151-0.161-0.229-0.354-0.229-0.577v-1.648c0-0.224,0.077-0.415,0.229-0.58
	c0.151-0.162,0.333-0.244,0.54-0.244h16.912c0.209,0,0.389,0.082,0.541,0.244C201.907,472.17,201.983,472.362,201.983,472.585z
	 M201.983,466.228v1.647c0,0.221-0.076,0.416-0.229,0.579s-0.332,0.245-0.541,0.245h-16.912c-0.207,0-0.389-0.082-0.54-0.245
	s-0.229-0.358-0.229-0.579v-1.647c0-0.223,0.077-0.416,0.229-0.58c0.151-0.161,0.333-0.245,0.54-0.245h16.912
	c0.209,0,0.389,0.084,0.541,0.245C201.907,465.812,201.983,466.005,201.983,466.228z M201.983,460.404v1.648
	c0,0.224-0.076,0.416-0.229,0.58c-0.152,0.162-0.332,0.242-0.541,0.242h-16.912c-0.207,0-0.389-0.08-0.54-0.242
	c-0.151-0.164-0.229-0.356-0.229-0.58v-1.648c0-0.223,0.077-0.416,0.229-0.577c0.151-0.164,0.333-0.245,0.54-0.245h16.912
	c0.209,0,0.389,0.081,0.541,0.245C201.907,459.988,201.983,460.181,201.983,460.404z"/>
<path fill="#3E3E3F" d="M173.102,48.997c0,0.196-0.07,0.364-0.208,0.503l-1.007,1.01c-0.139,0.138-0.306,0.207-0.504,0.207
	s-0.366-0.069-0.503-0.207l-2.18-2.181l-2.18,2.181c-0.138,0.138-0.306,0.207-0.504,0.207s-0.365-0.069-0.504-0.207l-1.008-1.01
	c-0.138-0.139-0.208-0.307-0.208-0.503c0-0.198,0.07-0.366,0.208-0.505l2.18-2.177l-2.18-2.182
	c-0.138-0.138-0.208-0.307-0.208-0.504s0.07-0.365,0.208-0.502l1.008-1.012c0.139-0.137,0.306-0.206,0.504-0.206
	s0.366,0.069,0.504,0.206l2.18,2.182l2.18-2.182c0.138-0.137,0.305-0.206,0.503-0.206s0.365,0.069,0.504,0.206l1.007,1.012
	c0.139,0.137,0.208,0.305,0.208,0.502s-0.07,0.366-0.208,0.504l-2.179,2.182l2.179,2.177
	C173.032,48.63,173.102,48.798,173.102,48.997z M168.698,38.003c-4.466,0-8.087,3.62-8.087,8.087c0,4.465,3.621,8.087,8.087,8.087
	c4.466,0,8.087-3.622,8.087-8.087C176.785,41.624,173.164,38.003,168.698,38.003z"/>
<path fill="#3E3E3F" d="M144.86,499.958c0-1.107-0.393-2.056-1.181-2.844c-0.788-0.786-1.734-1.18-2.842-1.18
	s-2.056,0.394-2.843,1.18c-0.788,0.788-1.182,1.736-1.182,2.844s0.394,2.055,1.182,2.843c0.788,0.787,1.735,1.182,2.843,1.182
	s2.055-0.395,2.842-1.182C144.467,502.012,144.86,501.065,144.86,499.958z M149.458,507.43c0,0.311-0.113,0.581-0.341,0.809
	c-0.228,0.228-0.497,0.341-0.809,0.341c-0.324,0-0.592-0.113-0.808-0.341l-3.081-3.072c-1.071,0.742-2.266,1.114-3.583,1.114
	c-0.856,0-1.676-0.167-2.457-0.499s-1.455-0.781-2.021-1.347c-0.566-0.566-1.015-1.239-1.347-2.021
	c-0.331-0.781-0.498-1.6-0.498-2.456s0.167-1.675,0.498-2.456c0.333-0.781,0.781-1.455,1.347-2.021
	c0.566-0.565,1.24-1.015,2.021-1.347c0.781-0.333,1.601-0.499,2.457-0.499c0.856,0,1.675,0.166,2.456,0.499
	c0.781,0.332,1.455,0.781,2.021,1.347c0.565,0.566,1.015,1.24,1.347,2.021c0.333,0.781,0.5,1.6,0.5,2.456
	c0,1.317-0.371,2.511-1.114,3.584l3.081,3.08C149.348,506.843,149.458,507.113,149.458,507.43z"/>
<path fill="#FFFFFF" d="M194.784,498.208c0-1.107-0.393-2.056-1.182-2.844c-0.787-0.786-1.734-1.18-2.842-1.18
	s-2.055,0.394-2.844,1.18c-0.788,0.788-1.181,1.736-1.181,2.844s0.394,2.055,1.181,2.843c0.789,0.787,1.736,1.182,2.844,1.182
	s2.055-0.395,2.842-1.182C194.392,500.262,194.784,499.315,194.784,498.208z M199.382,505.68c0,0.311-0.113,0.581-0.34,0.809
	c-0.229,0.228-0.498,0.341-0.809,0.341c-0.324,0-0.594-0.113-0.809-0.341l-3.08-3.072c-1.072,0.742-2.268,1.114-3.584,1.114
	c-0.855,0-1.676-0.167-2.457-0.499c-0.782-0.332-1.455-0.781-2.021-1.347c-0.566-0.566-1.015-1.239-1.347-2.021
	c-0.331-0.781-0.498-1.6-0.498-2.456s0.167-1.675,0.498-2.456c0.333-0.781,0.781-1.455,1.347-2.021
	c0.566-0.565,1.239-1.015,2.021-1.347c0.781-0.333,1.602-0.499,2.457-0.499s1.676,0.166,2.457,0.499
	c0.781,0.332,1.455,0.781,2.02,1.347c0.566,0.566,1.016,1.24,1.348,2.021s0.498,1.6,0.498,2.456c0,1.317-0.371,2.511-1.113,3.584
	l3.08,3.08C199.272,505.093,199.382,505.363,199.382,505.68z"/>
<path fill="#3E3E3F" stroke="#3E3E3F" stroke-width="0.5" stroke-miterlimit="10" d="M11.689,384.824c-1.212,0-2.346,0.207-3.4,0.62
	c-1.055,0.414-1.894,0.971-2.515,1.672c-0.621,0.7-0.931,1.458-0.931,2.272c0,0.666,0.212,1.3,0.637,1.904
	c0.425,0.604,1.024,1.125,1.796,1.563l0.775,0.447l-0.241,0.854c-0.142,0.542-0.35,1.053-0.624,1.533
	c0.904-0.373,1.721-0.882,2.452-1.523l0.384-0.339l0.508,0.054c0.41,0.048,0.796,0.072,1.159,0.072c1.213,0,2.346-0.207,3.401-0.621
	c1.055-0.413,1.893-0.971,2.515-1.671c0.621-0.702,0.931-1.46,0.931-2.274s-0.31-1.572-0.931-2.272
	c-0.622-0.701-1.46-1.258-2.515-1.672C14.036,385.031,12.902,384.824,11.689,384.824z M19.678,389.388
	c0,1.035-0.356,1.99-1.07,2.867c-0.713,0.876-1.683,1.569-2.906,2.076c-1.225,0.509-2.562,0.763-4.012,0.763
	c-0.415,0-0.846-0.023-1.292-0.071c-1.177,1.041-2.544,1.76-4.101,2.158c-0.292,0.082-0.63,0.148-1.017,0.195H5.235
	c-0.089,0-0.17-0.031-0.241-0.093c-0.071-0.063-0.119-0.145-0.142-0.246v-0.009c-0.018-0.024-0.02-0.059-0.004-0.106
	c0.014-0.048,0.021-0.077,0.018-0.089c-0.003-0.013,0.01-0.04,0.041-0.085l0.053-0.081c0,0,0.021-0.024,0.063-0.075
	c0.041-0.051,0.065-0.077,0.071-0.079c0.042-0.049,0.134-0.151,0.277-0.31c0.143-0.156,0.245-0.27,0.307-0.338
	c0.063-0.069,0.154-0.186,0.276-0.352s0.219-0.317,0.29-0.454c0.071-0.139,0.152-0.313,0.24-0.526
	c0.09-0.215,0.167-0.44,0.232-0.678c-0.933-0.529-1.668-1.184-2.206-1.961c-0.538-0.779-0.807-1.615-0.807-2.507
	c0-1.033,0.356-1.99,1.07-2.865c0.713-0.876,1.683-1.57,2.906-2.077c1.225-0.509,2.562-0.763,4.012-0.763
	c1.45,0,2.788,0.254,4.012,0.763c1.224,0.507,2.193,1.201,2.906,2.077C19.322,387.398,19.678,388.355,19.678,389.388z"/>
<path fill="#3E3E3F" stroke="#3E3E3F" stroke-width="0.5" stroke-miterlimit="10" d="M18.714,422.267v-6.397
	c-0.178,0.199-0.369,0.383-0.574,0.55c-1.489,1.143-2.672,2.082-3.55,2.814c-0.283,0.241-0.514,0.427-0.692,0.56
	s-0.417,0.267-0.72,0.404c-0.302,0.136-0.587,0.203-0.854,0.203h-0.009h-0.009c-0.267,0-0.551-0.067-0.854-0.203
	c-0.302-0.138-0.542-0.271-0.72-0.404c-0.177-0.133-0.409-0.318-0.691-0.56c-0.878-0.732-2.062-1.672-3.55-2.814
	c-0.206-0.167-0.396-0.351-0.575-0.55v6.397c0,0.072,0.027,0.136,0.079,0.188c0.053,0.053,0.115,0.08,0.188,0.08h12.265
	c0.073,0,0.135-0.027,0.188-0.08C18.688,422.403,18.714,422.339,18.714,422.267z M18.714,413.511v-0.093v-0.111
	c0,0-0.001-0.036-0.004-0.108c-0.002-0.073-0.01-0.107-0.024-0.104c-0.014,0.003-0.029-0.022-0.046-0.075
	c-0.016-0.053-0.041-0.073-0.075-0.062c-0.034,0.011-0.073,0.004-0.117-0.021H6.183c-0.073,0-0.135,0.027-0.188,0.078
	c-0.052,0.054-0.079,0.117-0.079,0.187c0,0.936,0.409,1.723,1.225,2.368c1.072,0.845,2.186,1.726,3.341,2.64
	c0.033,0.03,0.131,0.112,0.292,0.246c0.162,0.138,0.289,0.241,0.383,0.313c0.095,0.073,0.218,0.162,0.371,0.265
	c0.152,0.102,0.293,0.177,0.42,0.227c0.128,0.052,0.248,0.076,0.358,0.076h0.009h0.009c0.11,0,0.229-0.024,0.358-0.076
	c0.127-0.05,0.268-0.125,0.42-0.227c0.153-0.103,0.277-0.191,0.371-0.265c0.094-0.071,0.223-0.175,0.383-0.313
	c0.161-0.134,0.258-0.216,0.292-0.246c1.155-0.914,2.269-1.795,3.341-2.64c0.3-0.239,0.579-0.56,0.836-0.962
	C18.585,414.203,18.714,413.839,18.714,413.511z M19.781,413.201v9.066c0,0.367-0.13,0.681-0.392,0.942
	c-0.261,0.261-0.575,0.392-0.941,0.392H6.183c-0.366,0-0.68-0.131-0.941-0.392c-0.262-0.262-0.392-0.575-0.392-0.942v-9.066
	c0-0.365,0.13-0.678,0.392-0.939c0.261-0.261,0.575-0.392,0.941-0.392h12.265c0.367,0,0.681,0.131,0.941,0.392
	C19.65,412.523,19.781,412.835,19.781,413.201z"/>
<path fill="#B0B0B0" stroke="#B0B0B0" stroke-width="0.5" stroke-miterlimit="10" d="M89.392,383.052c-1.212,0-2.346,0.207-3.4,0.62
	c-1.055,0.414-1.894,0.971-2.515,1.672c-0.621,0.7-0.931,1.458-0.931,2.272c0,0.666,0.212,1.3,0.637,1.904
	c0.425,0.604,1.024,1.125,1.796,1.563l0.775,0.447l-0.241,0.854c-0.142,0.542-0.35,1.053-0.624,1.533
	c0.904-0.373,1.721-0.882,2.452-1.523l0.384-0.339l0.508,0.054c0.41,0.048,0.796,0.072,1.159,0.072c1.213,0,2.346-0.207,3.401-0.621
	c1.055-0.413,1.893-0.971,2.515-1.671c0.621-0.702,0.931-1.46,0.931-2.274s-0.31-1.572-0.931-2.272
	c-0.622-0.701-1.46-1.258-2.515-1.672C91.738,383.259,90.604,383.052,89.392,383.052z M97.38,387.617c0,1.035-0.356,1.99-1.07,2.867
	c-0.713,0.876-1.683,1.569-2.906,2.076c-1.225,0.509-2.562,0.763-4.012,0.763c-0.415,0-0.846-0.023-1.292-0.071
	c-1.177,1.041-2.544,1.76-4.101,2.158c-0.292,0.082-0.63,0.148-1.017,0.195h-0.044c-0.089,0-0.17-0.031-0.241-0.093
	c-0.071-0.063-0.119-0.145-0.142-0.246v-0.009c-0.018-0.024-0.02-0.059-0.004-0.106c0.014-0.048,0.021-0.077,0.018-0.089
	c-0.003-0.013,0.01-0.04,0.041-0.085l0.053-0.081c0,0,0.021-0.024,0.063-0.075c0.041-0.051,0.065-0.077,0.071-0.079
	c0.042-0.049,0.134-0.151,0.277-0.31c0.143-0.156,0.245-0.27,0.307-0.338c0.063-0.069,0.154-0.186,0.276-0.352
	s0.219-0.317,0.29-0.454c0.071-0.139,0.152-0.313,0.24-0.526c0.09-0.215,0.167-0.44,0.232-0.678
	c-0.933-0.529-1.668-1.184-2.206-1.961c-0.538-0.779-0.807-1.615-0.807-2.507c0-1.033,0.356-1.99,1.07-2.865
	c0.713-0.876,1.683-1.57,2.906-2.077c1.225-0.509,2.562-0.763,4.012-0.763c1.45,0,2.788,0.254,4.012,0.763
	c1.224,0.507,2.193,1.201,2.906,2.077C97.024,385.626,97.38,386.583,97.38,387.617z"/>
<path fill="#5C85B1" stroke="#5C85B1" stroke-width="0.5" stroke-miterlimit="10" d="M142.703,383.226
	c-1.212,0-2.346,0.207-3.4,0.62c-1.055,0.414-1.894,0.971-2.515,1.672c-0.621,0.7-0.931,1.458-0.931,2.272
	c0,0.666,0.212,1.3,0.637,1.904c0.425,0.604,1.024,1.125,1.796,1.563l0.775,0.447l-0.241,0.854c-0.142,0.542-0.35,1.053-0.624,1.533
	c0.904-0.373,1.721-0.882,2.452-1.523l0.384-0.339l0.508,0.054c0.41,0.048,0.796,0.072,1.159,0.072c1.213,0,2.346-0.207,3.401-0.621
	c1.055-0.413,1.893-0.971,2.515-1.671c0.621-0.702,0.931-1.46,0.931-2.274s-0.31-1.572-0.931-2.272
	c-0.622-0.701-1.46-1.258-2.515-1.672C145.049,383.433,143.916,383.226,142.703,383.226z M150.691,387.791
	c0,1.035-0.356,1.99-1.07,2.867c-0.713,0.876-1.683,1.569-2.906,2.076c-1.225,0.509-2.562,0.763-4.012,0.763
	c-0.415,0-0.846-0.023-1.292-0.071c-1.177,1.041-2.544,1.76-4.101,2.158c-0.292,0.082-0.63,0.148-1.017,0.195h-0.044
	c-0.089,0-0.17-0.031-0.241-0.093c-0.071-0.063-0.119-0.145-0.142-0.246v-0.009c-0.018-0.024-0.02-0.059-0.004-0.106
	c0.014-0.048,0.021-0.077,0.018-0.089c-0.003-0.013,0.01-0.04,0.041-0.085l0.053-0.081c0,0,0.021-0.024,0.063-0.075
	c0.041-0.051,0.065-0.077,0.071-0.079c0.042-0.049,0.134-0.151,0.277-0.31c0.143-0.156,0.245-0.27,0.307-0.338
	c0.063-0.069,0.154-0.186,0.276-0.352s0.219-0.317,0.29-0.454c0.071-0.139,0.152-0.313,0.24-0.526
	c0.09-0.215,0.167-0.44,0.232-0.678c-0.933-0.529-1.668-1.184-2.206-1.961c-0.538-0.779-0.807-1.615-0.807-2.507
	c0-1.033,0.356-1.99,1.07-2.865c0.713-0.876,1.683-1.57,2.906-2.077c1.225-0.509,2.562-0.763,4.012-0.763
	c1.45,0,2.788,0.254,4.012,0.763c1.224,0.507,2.193,1.201,2.906,2.077C150.335,385.8,150.691,386.757,150.691,387.791z"/>
<path fill="#005BAA" stroke="#005BAA" stroke-width="0.5" stroke-miterlimit="10" d="M194.196,383.4c-1.212,0-2.346,0.207-3.4,0.62
	c-1.055,0.414-1.894,0.971-2.516,1.672c-0.62,0.7-0.93,1.458-0.93,2.272c0,0.666,0.212,1.3,0.637,1.904
	c0.425,0.604,1.023,1.125,1.797,1.563l0.775,0.447l-0.242,0.854c-0.142,0.542-0.35,1.053-0.623,1.533
	c0.904-0.373,1.721-0.882,2.451-1.523l0.385-0.339l0.508,0.054c0.409,0.048,0.796,0.072,1.158,0.072
	c1.213,0,2.346-0.207,3.401-0.621c1.055-0.413,1.894-0.971,2.515-1.671c0.621-0.702,0.932-1.46,0.932-2.274
	s-0.311-1.572-0.932-2.272c-0.621-0.701-1.46-1.258-2.515-1.672C196.542,383.607,195.409,383.4,194.196,383.4z M202.185,387.964
	c0,1.035-0.355,1.99-1.07,2.867c-0.713,0.876-1.682,1.569-2.906,2.076c-1.225,0.509-2.562,0.763-4.012,0.763
	c-0.415,0-0.846-0.023-1.292-0.071c-1.177,1.041-2.544,1.76-4.101,2.158c-0.292,0.082-0.631,0.148-1.018,0.195h-0.044
	c-0.089,0-0.17-0.031-0.241-0.093c-0.071-0.063-0.119-0.145-0.142-0.246v-0.009c-0.018-0.024-0.02-0.059-0.004-0.106
	c0.014-0.048,0.021-0.077,0.018-0.089c-0.003-0.013,0.01-0.04,0.041-0.085l0.053-0.081c0,0,0.021-0.024,0.063-0.075
	c0.041-0.051,0.065-0.077,0.071-0.079c0.042-0.049,0.134-0.151,0.277-0.31c0.143-0.156,0.245-0.27,0.307-0.338
	c0.063-0.069,0.154-0.186,0.277-0.352c0.121-0.166,0.219-0.317,0.289-0.454c0.071-0.139,0.152-0.313,0.24-0.526
	c0.09-0.215,0.167-0.44,0.232-0.678c-0.933-0.529-1.668-1.184-2.206-1.961c-0.538-0.779-0.807-1.615-0.807-2.507
	c0-1.033,0.356-1.99,1.07-2.865c0.713-0.876,1.683-1.57,2.906-2.077c1.225-0.509,2.563-0.763,4.012-0.763
	c1.45,0,2.787,0.254,4.012,0.763c1.225,0.507,2.193,1.201,2.906,2.077C201.829,385.974,202.185,386.931,202.185,387.964z"/>
<path fill="#3E3E3F" d="M131.744,16.446c0,0.274-0.097,0.507-0.29,0.7l-1.401,1.403c-0.193,0.19-0.425,0.288-0.701,0.288
	c-0.276,0-0.509-0.098-0.7-0.288l-3.032-3.033l-3.031,3.033c-0.192,0.19-0.425,0.288-0.701,0.288c-0.275,0-0.508-0.098-0.7-0.288
	l-1.401-1.403c-0.192-0.193-0.29-0.426-0.29-0.7s0.097-0.51,0.29-0.702l3.03-3.028l-3.03-3.031c-0.192-0.193-0.29-0.427-0.29-0.701
	c0-0.275,0.097-0.509,0.29-0.699l1.401-1.405c0.192-0.192,0.425-0.289,0.7-0.289c0.275,0,0.509,0.097,0.701,0.289l3.031,3.031
	l3.032-3.031c0.191-0.192,0.424-0.289,0.7-0.289c0.275,0,0.508,0.097,0.701,0.289l1.401,1.405c0.193,0.19,0.29,0.424,0.29,0.699
	c0,0.274-0.097,0.508-0.29,0.701l-3.03,3.031l3.03,3.028C131.647,15.937,131.744,16.172,131.744,16.446z"/>
<circle fill="none" stroke="#3E3E3F" stroke-width="2" stroke-miterlimit="10" cx="125.621" cy="12.714" r="11.714"/>
<path fill="#3E3E3F" d="M171.17,12.828c0,0.161-0.058,0.298-0.171,0.413l-0.83,0.832c-0.114,0.111-0.251,0.17-0.414,0.17
	c-0.165,0-0.303-0.059-0.416-0.17l-1.794-1.796l-1.794,1.796c-0.114,0.111-0.252,0.17-0.415,0.17s-0.301-0.059-0.415-0.17
	l-0.83-0.832c-0.114-0.115-0.171-0.252-0.171-0.413c0-0.163,0.058-0.303,0.171-0.417l1.794-1.792l-1.794-1.794
	c-0.114-0.115-0.171-0.254-0.171-0.416s0.058-0.301,0.171-0.413l0.83-0.833c0.114-0.113,0.251-0.172,0.415-0.172
	s0.301,0.059,0.415,0.172l1.794,1.795l1.794-1.795c0.113-0.113,0.251-0.172,0.416-0.172c0.163,0,0.3,0.059,0.414,0.172L171,7.996
	c0.113,0.112,0.171,0.251,0.171,0.413S171.113,8.71,171,8.825l-1.793,1.794L171,12.411C171.113,12.525,171.17,12.665,171.17,12.828z
	"/>
<circle fill="none" stroke="#3E3E3F" stroke-width="2" stroke-miterlimit="10" cx="167.545" cy="10.617" r="6.935"/>
<path fill="#3E3E3F" d="M5.887,263.517h7.969v-2.276H5.887V263.517z M5.887,257.826h7.969v-3.416h-1.423
	c-0.237,0-0.438-0.082-0.604-0.248c-0.166-0.167-0.249-0.368-0.249-0.605v-1.423H5.887V257.826z M16.133,258.394
	c0-0.153-0.056-0.287-0.169-0.399c-0.113-0.113-0.246-0.169-0.4-0.169c-0.154,0-0.287,0.056-0.4,0.169
	c-0.113,0.112-0.169,0.246-0.169,0.399c0,0.155,0.056,0.288,0.169,0.4c0.113,0.113,0.246,0.17,0.4,0.17
	c0.154,0,0.288-0.057,0.4-0.17C16.077,258.682,16.133,258.549,16.133,258.394z M17.271,258.394v3.7c0,0.077-0.028,0.144-0.084,0.2
	c-0.057,0.057-0.123,0.084-0.2,0.084h-1.992v1.423c0,0.237-0.083,0.439-0.249,0.605s-0.368,0.249-0.605,0.249H5.603
	c-0.237,0-0.439-0.083-0.605-0.249s-0.249-0.368-0.249-0.605v-1.423H2.757c-0.077,0-0.144-0.027-0.2-0.084
	c-0.057-0.057-0.084-0.123-0.084-0.2v-3.7c0-0.468,0.167-0.869,0.502-1.204s0.737-0.503,1.205-0.503h0.569v-4.838
	c0-0.237,0.083-0.439,0.249-0.604c0.166-0.167,0.368-0.25,0.605-0.25h5.977c0.237,0,0.498,0.06,0.782,0.179
	c0.285,0.118,0.51,0.261,0.676,0.427l1.352,1.352c0.166,0.166,0.308,0.391,0.427,0.676s0.178,0.545,0.178,0.782v2.277h0.569
	c0.469,0,0.87,0.168,1.206,0.503C17.104,257.525,17.271,257.926,17.271,258.394z"/>
<path fill="#FFFFFF" d="M42.637,262.687h7.969v-2.276h-7.969V262.687z M42.637,256.996h7.969v-3.416h-1.423
	c-0.237,0-0.438-0.082-0.604-0.248c-0.166-0.167-0.249-0.368-0.249-0.605v-1.423h-5.692V256.996z M52.883,257.564
	c0-0.153-0.056-0.287-0.169-0.399c-0.113-0.113-0.246-0.169-0.4-0.169c-0.154,0-0.287,0.056-0.4,0.169
	c-0.113,0.112-0.169,0.246-0.169,0.399c0,0.155,0.056,0.288,0.169,0.4c0.113,0.113,0.246,0.17,0.4,0.17
	c0.154,0,0.288-0.057,0.4-0.17C52.827,257.852,52.883,257.719,52.883,257.564z M54.021,257.564v3.7c0,0.077-0.028,0.144-0.084,0.2
	c-0.057,0.057-0.123,0.084-0.2,0.084h-1.992v1.423c0,0.237-0.083,0.439-0.249,0.605s-0.368,0.249-0.605,0.249h-8.538
	c-0.237,0-0.439-0.083-0.605-0.249s-0.249-0.368-0.249-0.605v-1.423h-1.992c-0.077,0-0.144-0.027-0.2-0.084
	c-0.057-0.057-0.084-0.123-0.084-0.2v-3.7c0-0.468,0.167-0.869,0.502-1.204s0.737-0.503,1.205-0.503h0.569v-4.838
	c0-0.237,0.083-0.439,0.249-0.604c0.166-0.167,0.368-0.25,0.605-0.25h5.977c0.237,0,0.498,0.06,0.782,0.179
	c0.285,0.118,0.51,0.261,0.676,0.427l1.352,1.352c0.166,0.166,0.308,0.391,0.427,0.676s0.178,0.545,0.178,0.782v2.277h0.569
	c0.469,0,0.87,0.168,1.206,0.503C53.854,256.695,54.021,257.096,54.021,257.564z"/>
<path fill="#B0B0B0" d="M84.781,263.517h7.969v-2.276h-7.969V263.517z M84.781,257.826h7.969v-3.416h-1.423
	c-0.237,0-0.438-0.082-0.604-0.248c-0.166-0.167-0.249-0.368-0.249-0.605v-1.423h-5.692V257.826z M95.026,258.394
	c0-0.153-0.056-0.287-0.169-0.399c-0.113-0.113-0.246-0.169-0.4-0.169c-0.154,0-0.287,0.056-0.4,0.169
	c-0.113,0.112-0.169,0.246-0.169,0.399c0,0.155,0.056,0.288,0.169,0.4c0.113,0.113,0.246,0.17,0.4,0.17
	c0.154,0,0.288-0.057,0.4-0.17C94.97,258.682,95.026,258.549,95.026,258.394z M96.165,258.394v3.7c0,0.077-0.028,0.144-0.084,0.2
	c-0.057,0.057-0.123,0.084-0.2,0.084h-1.992v1.423c0,0.237-0.083,0.439-0.249,0.605s-0.368,0.249-0.605,0.249h-8.538
	c-0.237,0-0.439-0.083-0.605-0.249s-0.249-0.368-0.249-0.605v-1.423H81.65c-0.077,0-0.144-0.027-0.2-0.084
	c-0.057-0.057-0.084-0.123-0.084-0.2v-3.7c0-0.468,0.167-0.869,0.502-1.204s0.737-0.503,1.205-0.503h0.569v-4.838
	c0-0.237,0.083-0.439,0.249-0.604c0.166-0.167,0.368-0.25,0.605-0.25h5.977c0.237,0,0.498,0.06,0.782,0.179
	c0.285,0.118,0.51,0.261,0.676,0.427l1.352,1.352c0.166,0.166,0.308,0.391,0.427,0.676s0.178,0.545,0.178,0.782v2.277h0.569
	c0.469,0,0.87,0.168,1.206,0.503C95.998,257.525,96.165,257.926,96.165,258.394z"/>
<path fill="#5C85B1" d="M139.084,262.687h7.969v-2.276h-7.969V262.687z M139.084,256.996h7.969v-3.416h-1.423
	c-0.237,0-0.438-0.082-0.604-0.248c-0.166-0.167-0.249-0.368-0.249-0.605v-1.423h-5.692V256.996z M149.33,257.564
	c0-0.153-0.056-0.287-0.169-0.399c-0.113-0.113-0.246-0.169-0.4-0.169c-0.154,0-0.287,0.056-0.4,0.169
	c-0.113,0.112-0.169,0.246-0.169,0.399c0,0.155,0.056,0.288,0.169,0.4c0.113,0.113,0.246,0.17,0.4,0.17
	c0.154,0,0.288-0.057,0.4-0.17C149.273,257.852,149.33,257.719,149.33,257.564z M150.468,257.564v3.7c0,0.077-0.028,0.144-0.084,0.2
	c-0.057,0.057-0.123,0.084-0.2,0.084h-1.992v1.423c0,0.237-0.083,0.439-0.249,0.605s-0.368,0.249-0.605,0.249H138.8
	c-0.237,0-0.439-0.083-0.605-0.249s-0.249-0.368-0.249-0.605v-1.423h-1.992c-0.077,0-0.144-0.027-0.2-0.084
	c-0.057-0.057-0.084-0.123-0.084-0.2v-3.7c0-0.468,0.167-0.869,0.502-1.204s0.737-0.503,1.205-0.503h0.569v-4.838
	c0-0.237,0.083-0.439,0.249-0.604c0.166-0.167,0.368-0.25,0.605-0.25h5.977c0.237,0,0.498,0.06,0.782,0.179
	c0.285,0.118,0.51,0.261,0.676,0.427l1.352,1.352c0.166,0.166,0.308,0.391,0.427,0.676s0.178,0.545,0.178,0.782v2.277h0.569
	c0.469,0,0.87,0.168,1.206,0.503C150.301,256.695,150.468,257.096,150.468,257.564z"/>
<path fill="#005BAA" d="M189.503,262.857h7.969v-2.276h-7.969V262.857z M189.503,257.166h7.969v-3.416h-1.423
	c-0.237,0-0.438-0.082-0.604-0.248c-0.166-0.167-0.249-0.368-0.249-0.605v-1.423h-5.692V257.166z M199.749,257.734
	c0-0.153-0.057-0.287-0.17-0.399c-0.112-0.113-0.246-0.169-0.4-0.169c-0.153,0-0.287,0.056-0.399,0.169
	c-0.112,0.112-0.169,0.246-0.169,0.399c0,0.155,0.057,0.288,0.169,0.4c0.112,0.113,0.246,0.17,0.399,0.17
	c0.154,0,0.288-0.057,0.4-0.17C199.692,258.022,199.749,257.889,199.749,257.734z M200.888,257.734v3.7
	c0,0.077-0.029,0.144-0.085,0.2c-0.057,0.057-0.123,0.084-0.2,0.084h-1.992v1.423c0,0.237-0.083,0.439-0.249,0.605
	s-0.368,0.249-0.604,0.249h-8.538c-0.237,0-0.438-0.083-0.604-0.249s-0.25-0.368-0.25-0.605v-1.423h-1.992
	c-0.077,0-0.144-0.027-0.2-0.084c-0.057-0.057-0.084-0.123-0.084-0.2v-3.7c0-0.468,0.167-0.869,0.502-1.204s0.737-0.503,1.206-0.503
	h0.568v-4.838c0-0.237,0.084-0.439,0.25-0.604c0.166-0.167,0.367-0.25,0.604-0.25h5.977c0.237,0,0.498,0.06,0.782,0.179
	c0.285,0.118,0.51,0.261,0.676,0.427l1.353,1.352c0.165,0.166,0.308,0.391,0.427,0.676s0.178,0.545,0.178,0.782v2.277h0.568
	c0.469,0,0.871,0.168,1.206,0.503S200.888,257.266,200.888,257.734z"/>
<path fill="none" stroke="#3E3E3F" stroke-width="1.8" stroke-miterlimit="10" d="M18.822,363.002c0.402,0.401,0.402,1.053,0,1.454
	l-4.725,4.725c-0.401,0.4-1.052,0.401-1.453,0l-8.087-8.087c-0.401-0.401-0.401-1.052,0-1.453l4.725-4.724
	c0.402-0.401,1.052-0.402,1.454,0L18.822,363.002z M5.284,355.644c-0.903,0.901-0.903,2.368,0,3.271
	c0.903,0.901,2.368,0.902,3.271,0c0.904-0.903,0.903-2.369,0-3.271C7.652,354.74,6.188,354.74,5.284,355.644z"/>
<path fill="none" stroke="#B0B0B0" stroke-width="1.8" stroke-miterlimit="10" d="M98.856,363.002c0.402,0.401,0.402,1.053,0,1.454
	l-4.725,4.725c-0.401,0.4-1.052,0.401-1.453,0l-8.087-8.087c-0.401-0.401-0.401-1.052,0-1.453l4.725-4.724
	c0.402-0.401,1.052-0.402,1.454,0L98.856,363.002z M85.319,355.644c-0.903,0.901-0.903,2.368,0,3.271
	c0.903,0.901,2.368,0.902,3.271,0c0.904-0.903,0.903-2.369,0-3.271C87.687,354.74,86.223,354.74,85.319,355.644z"/>
<path fill="none" stroke="#5C85B1" stroke-width="1.8" stroke-miterlimit="10" d="M151.078,363.002c0.402,0.401,0.402,1.053,0,1.454
	l-4.725,4.725c-0.401,0.4-1.052,0.401-1.453,0l-8.087-8.087c-0.401-0.401-0.401-1.052,0-1.453l4.725-4.724
	c0.402-0.401,1.052-0.402,1.454,0L151.078,363.002z M137.541,355.644c-0.903,0.901-0.903,2.368,0,3.271
	c0.903,0.901,2.368,0.902,3.271,0c0.904-0.903,0.903-2.369,0-3.271C139.909,354.74,138.444,354.74,137.541,355.644z"/>
<path fill="none" stroke="#005BAA" stroke-width="1.8" stroke-miterlimit="10" d="M201.353,363.002c0.402,0.401,0.402,1.053,0,1.454
	l-4.725,4.725c-0.4,0.4-1.052,0.401-1.453,0l-8.086-8.087c-0.401-0.401-0.401-1.052,0-1.453l4.725-4.724
	c0.401-0.401,1.052-0.402,1.453,0L201.353,363.002z M187.815,355.644c-0.903,0.901-0.903,2.368,0,3.271
	c0.903,0.901,2.367,0.902,3.271,0c0.903-0.903,0.903-2.369,0-3.271C190.184,354.74,188.72,354.74,187.815,355.644z"/>
<path fill="#B0B0B0" stroke="#B0B0B0" stroke-width="0.5" stroke-miterlimit="10" d="M97.034,422.267v-6.397
	c-0.178,0.199-0.369,0.383-0.574,0.55c-1.489,1.143-2.672,2.082-3.55,2.814c-0.283,0.241-0.514,0.427-0.692,0.56
	s-0.417,0.267-0.72,0.404c-0.302,0.136-0.587,0.203-0.854,0.203h-0.009h-0.009c-0.267,0-0.551-0.067-0.854-0.203
	c-0.302-0.138-0.542-0.271-0.72-0.404c-0.177-0.133-0.409-0.318-0.691-0.56c-0.878-0.732-2.062-1.672-3.55-2.814
	c-0.206-0.167-0.396-0.351-0.575-0.55v6.397c0,0.072,0.027,0.136,0.079,0.188c0.053,0.053,0.115,0.08,0.188,0.08h12.265
	c0.073,0,0.135-0.027,0.188-0.08C97.007,422.403,97.034,422.339,97.034,422.267z M97.034,413.511v-0.093v-0.111
	c0,0-0.001-0.036-0.004-0.108c-0.002-0.073-0.01-0.107-0.024-0.104c-0.014,0.003-0.029-0.022-0.046-0.075
	c-0.016-0.053-0.041-0.073-0.075-0.062c-0.034,0.011-0.073,0.004-0.117-0.021H84.502c-0.073,0-0.135,0.027-0.188,0.078
	c-0.052,0.054-0.079,0.117-0.079,0.187c0,0.936,0.409,1.723,1.225,2.368c1.072,0.845,2.186,1.726,3.341,2.64
	c0.033,0.03,0.131,0.112,0.292,0.246c0.162,0.138,0.289,0.241,0.383,0.313c0.095,0.073,0.218,0.162,0.371,0.265
	c0.152,0.102,0.293,0.177,0.42,0.227c0.128,0.052,0.248,0.076,0.358,0.076h0.009h0.009c0.11,0,0.229-0.024,0.358-0.076
	c0.127-0.05,0.268-0.125,0.42-0.227c0.153-0.103,0.277-0.191,0.371-0.265c0.094-0.071,0.223-0.175,0.383-0.313
	c0.161-0.134,0.258-0.216,0.292-0.246c1.155-0.914,2.269-1.795,3.341-2.64c0.3-0.239,0.579-0.56,0.836-0.962
	C96.905,414.203,97.034,413.839,97.034,413.511z M98.101,413.201v9.066c0,0.367-0.13,0.681-0.392,0.942
	c-0.261,0.261-0.575,0.392-0.941,0.392H84.502c-0.366,0-0.68-0.131-0.941-0.392c-0.262-0.262-0.392-0.575-0.392-0.942v-9.066
	c0-0.365,0.13-0.678,0.392-0.939c0.261-0.261,0.575-0.392,0.941-0.392h12.265c0.367,0,0.681,0.131,0.941,0.392
	C97.97,412.523,98.101,412.835,98.101,413.201z"/>
<path fill="#5C85B1" stroke="#5C85B1" stroke-width="0.5" stroke-miterlimit="10" d="M149.496,422.267v-6.397
	c-0.178,0.199-0.369,0.383-0.574,0.55c-1.489,1.143-2.672,2.082-3.55,2.814c-0.283,0.241-0.514,0.427-0.692,0.56
	s-0.417,0.267-0.72,0.404c-0.302,0.136-0.587,0.203-0.854,0.203h-0.009h-0.009c-0.267,0-0.551-0.067-0.854-0.203
	c-0.302-0.138-0.542-0.271-0.72-0.404c-0.177-0.133-0.409-0.318-0.691-0.56c-0.878-0.732-2.062-1.672-3.55-2.814
	c-0.206-0.167-0.396-0.351-0.575-0.55v6.397c0,0.072,0.027,0.136,0.079,0.188c0.053,0.053,0.115,0.08,0.188,0.08h12.265
	c0.073,0,0.135-0.027,0.188-0.08C149.469,422.403,149.496,422.339,149.496,422.267z M149.496,413.511v-0.093v-0.111
	c0,0-0.001-0.036-0.004-0.108c-0.002-0.073-0.01-0.107-0.024-0.104c-0.014,0.003-0.029-0.022-0.046-0.075
	c-0.016-0.053-0.041-0.073-0.075-0.062c-0.034,0.011-0.073,0.004-0.117-0.021h-12.265c-0.073,0-0.135,0.027-0.188,0.078
	c-0.052,0.054-0.079,0.117-0.079,0.187c0,0.936,0.409,1.723,1.225,2.368c1.072,0.845,2.186,1.726,3.341,2.64
	c0.033,0.03,0.131,0.112,0.292,0.246c0.162,0.138,0.289,0.241,0.383,0.313c0.095,0.073,0.218,0.162,0.371,0.265
	c0.152,0.102,0.293,0.177,0.42,0.227c0.128,0.052,0.248,0.076,0.358,0.076h0.009h0.009c0.11,0,0.229-0.024,0.358-0.076
	c0.127-0.05,0.268-0.125,0.42-0.227c0.153-0.103,0.277-0.191,0.371-0.265c0.094-0.071,0.223-0.175,0.383-0.313
	c0.161-0.134,0.258-0.216,0.292-0.246c1.155-0.914,2.269-1.795,3.341-2.64c0.3-0.239,0.579-0.56,0.836-0.962
	C149.367,414.203,149.496,413.839,149.496,413.511z M150.563,413.201v9.066c0,0.367-0.13,0.681-0.392,0.942
	c-0.261,0.261-0.575,0.392-0.941,0.392h-12.265c-0.366,0-0.68-0.131-0.941-0.392c-0.262-0.262-0.392-0.575-0.392-0.942v-9.066
	c0-0.365,0.13-0.678,0.392-0.939c0.261-0.261,0.575-0.392,0.941-0.392h12.265c0.367,0,0.681,0.131,0.941,0.392
	C150.432,412.523,150.563,412.835,150.563,413.201z"/>
<path fill="#005BAA" stroke="#005BAA" stroke-width="0.5" stroke-miterlimit="10" d="M200.595,422.267v-6.397
	c-0.178,0.199-0.368,0.383-0.574,0.55c-1.488,1.143-2.672,2.082-3.549,2.814c-0.283,0.241-0.515,0.427-0.692,0.56
	s-0.417,0.267-0.72,0.404c-0.303,0.136-0.588,0.203-0.854,0.203h-0.01h-0.008c-0.268,0-0.552-0.067-0.855-0.203
	c-0.302-0.138-0.542-0.271-0.72-0.404c-0.177-0.133-0.409-0.318-0.69-0.56c-0.879-0.732-2.063-1.672-3.551-2.814
	c-0.205-0.167-0.396-0.351-0.574-0.55v6.397c0,0.072,0.026,0.136,0.078,0.188c0.053,0.053,0.115,0.08,0.188,0.08h12.266
	c0.072,0,0.135-0.027,0.188-0.08C200.569,422.403,200.595,422.339,200.595,422.267z M200.595,413.511v-0.093v-0.111
	c0,0-0.001-0.036-0.004-0.108c-0.002-0.073-0.01-0.107-0.024-0.104c-0.014,0.003-0.028-0.022-0.046-0.075
	c-0.017-0.053-0.041-0.073-0.075-0.062c-0.034,0.011-0.073,0.004-0.116-0.021h-12.266c-0.072,0-0.135,0.027-0.188,0.078
	c-0.052,0.054-0.078,0.117-0.078,0.187c0,0.936,0.408,1.723,1.225,2.368c1.072,0.845,2.186,1.726,3.341,2.64
	c0.033,0.03,0.131,0.112,0.292,0.246c0.161,0.138,0.289,0.241,0.383,0.313c0.096,0.073,0.218,0.162,0.371,0.265
	c0.152,0.102,0.293,0.177,0.42,0.227c0.129,0.052,0.248,0.076,0.359,0.076h0.008h0.01c0.109,0,0.229-0.024,0.357-0.076
	c0.127-0.05,0.268-0.125,0.42-0.227c0.154-0.103,0.277-0.191,0.371-0.265c0.094-0.071,0.223-0.175,0.383-0.313
	c0.162-0.134,0.259-0.216,0.293-0.246c1.154-0.914,2.269-1.795,3.341-2.64c0.3-0.239,0.579-0.56,0.837-0.962
	C200.467,414.203,200.595,413.839,200.595,413.511z M201.662,413.201v9.066c0,0.367-0.13,0.681-0.392,0.942
	c-0.262,0.261-0.575,0.392-0.941,0.392h-12.266c-0.366,0-0.68-0.131-0.94-0.392c-0.262-0.262-0.392-0.575-0.392-0.942v-9.066
	c0-0.365,0.13-0.678,0.392-0.939c0.261-0.261,0.575-0.392,0.94-0.392h12.266c0.366,0,0.68,0.131,0.941,0.392
	C201.532,412.523,201.662,412.835,201.662,413.201z"/>
<path fill="#3E3E3F" d="M15.08,164.659c0,1.539-1.248,2.786-2.786,2.786h-1.631l0.818-0.818c0.299-0.3,0.52-0.655,0.654-1.039h0.159
	c0.514,0,0.929-0.415,0.929-0.929V156.3H2.076v8.358c0,0.514,0.416,0.929,0.929,0.929h0.158c0.135,0.385,0.356,0.743,0.658,1.044
	l0.815,0.813H3.005c-1.54,0-2.787-1.247-2.787-2.786v-9.288c0-1.538,1.247-2.786,2.787-2.786h9.289c1.539,0,2.786,1.248,2.786,2.786
	V164.659z M3.005,153.513c-0.513,0-0.929,0.416-0.929,0.929s0.416,0.929,0.929,0.929c0.512,0,0.929-0.416,0.929-0.929
	S3.517,153.513,3.005,153.513z M5.792,163.73H6.72v-2.786c0-0.514,0.416-0.929,0.929-0.929c0.514,0,0.929,0.415,0.929,0.929v2.786
	h0.929c0.375,0,0.715,0.226,0.857,0.574c0.144,0.349,0.063,0.748-0.201,1.013l-1.857,1.857c-0.182,0.182-0.419,0.272-0.657,0.272
	s-0.476-0.091-0.657-0.272l-1.858-1.857c-0.265-0.265-0.344-0.667-0.201-1.013C5.076,163.956,5.416,163.73,5.792,163.73z"/>
<path fill="#5C85B1" d="M160.604,191.925l-1.374,1.372c-0.857,0.856-2.128,1.027-3.162,0.538l3.162-3.163
	c0.363-0.364,0.363-0.95,0-1.313l-1.313-1.316c-0.363-0.364-0.95-0.364-1.313,0l-3.163,3.164c-0.493-1.033-0.321-2.307,0.536-3.164
	l1.371-1.372c1.088-1.087,2.854-1.087,3.94,0l1.315,1.314C161.691,189.075,161.691,190.837,160.604,191.925z M151.35,195.922
	c-0.363-0.361-0.363-0.947,0-1.312l3.94-3.938c0.364-0.364,0.95-0.364,1.314,0c0.363,0.361,0.363,0.947,0,1.312l-3.94,3.938
	C152.301,196.288,151.712,196.288,151.35,195.922z M148.723,197.239l1.313,1.313c0.363,0.363,0.95,0.363,1.313,0l3.163-3.164
	c0.493,1.033,0.321,2.307-0.535,3.164l-1.256,1.372c-1.089,1.089-2.852,1.089-3.94,0l-1.431-1.429c-1.088-1.09-1.088-2.853,0-3.941
	l1.373-1.257c0.858-0.856,2.128-1.028,3.164-0.536l-3.164,3.161C148.36,196.288,148.36,196.877,148.723,197.239z M161.419,195.364
	v3.486c0,0.135-0.049,0.251-0.148,0.35c-0.098,0.099-0.215,0.147-0.35,0.147c-0.135,0-0.251-0.049-0.35-0.147l-1.121-1.12
	l-2.583,2.583c-0.052,0.052-0.111,0.078-0.179,0.078s-0.127-0.026-0.179-0.078l-0.887-0.887c-0.052-0.052-0.078-0.111-0.078-0.179
	c0-0.068,0.026-0.128,0.078-0.18l2.583-2.583l-1.12-1.121c-0.099-0.098-0.148-0.215-0.148-0.35s0.049-0.251,0.148-0.351
	c0.098-0.099,0.215-0.147,0.35-0.147h3.486c0.135,0,0.252,0.049,0.35,0.147C161.37,195.113,161.419,195.229,161.419,195.364z"/>
<path fill="#3E3E3F" d="M15.316,191.925l-1.374,1.372c-0.857,0.856-2.128,1.027-3.162,0.538l3.162-3.163
	c0.363-0.364,0.363-0.95,0-1.313l-1.313-1.316c-0.363-0.364-0.95-0.364-1.313,0l-3.163,3.164c-0.493-1.033-0.321-2.307,0.536-3.164
	l1.371-1.372c1.088-1.087,2.854-1.087,3.94,0l1.315,1.314C16.403,189.075,16.403,190.837,15.316,191.925z M6.063,195.922
	c-0.363-0.361-0.363-0.947,0-1.312l3.94-3.938c0.364-0.364,0.95-0.364,1.314,0c0.363,0.361,0.363,0.947,0,1.312l-3.94,3.938
	C7.014,196.288,6.425,196.288,6.063,195.922z M3.435,197.239l1.313,1.313c0.363,0.363,0.95,0.363,1.313,0l3.163-3.164
	c0.493,1.033,0.321,2.307-0.535,3.164l-1.256,1.372c-1.089,1.089-2.852,1.089-3.94,0l-1.431-1.429c-1.088-1.09-1.088-2.853,0-3.941
	l1.373-1.257c0.858-0.856,2.128-1.028,3.164-0.536l-3.164,3.161C3.073,196.288,3.073,196.877,3.435,197.239z"/>
<path fill="#5C85B1" d="M51.8,191.925l-1.374,1.372c-0.857,0.856-2.128,1.027-3.162,0.538l3.162-3.163
	c0.363-0.364,0.363-0.95,0-1.313l-1.313-1.316c-0.363-0.364-0.95-0.364-1.313,0l-3.163,3.164c-0.493-1.033-0.321-2.307,0.536-3.164
	l1.371-1.372c1.088-1.087,2.854-1.087,3.94,0l1.315,1.314C52.887,189.075,52.887,190.837,51.8,191.925z M42.546,195.922
	c-0.363-0.361-0.363-0.947,0-1.312l3.94-3.938c0.364-0.364,0.95-0.364,1.314,0c0.363,0.361,0.363,0.947,0,1.312l-3.94,3.938
	C43.498,196.288,42.909,196.288,42.546,195.922z M39.919,197.239l1.313,1.313c0.363,0.363,0.95,0.363,1.313,0l3.163-3.164
	c0.493,1.033,0.321,2.307-0.535,3.164l-1.256,1.372c-1.089,1.089-2.852,1.089-3.94,0l-1.431-1.429c-1.088-1.09-1.088-2.853,0-3.941
	l1.373-1.257c0.858-0.856,2.128-1.028,3.164-0.536l-3.164,3.161C39.557,196.288,39.557,196.877,39.919,197.239z"/>
<path fill="#005BAA" d="M87.993,191.925l-1.374,1.372c-0.857,0.856-2.128,1.027-3.162,0.538l3.162-3.163
	c0.363-0.364,0.363-0.95,0-1.313l-1.313-1.316c-0.363-0.364-0.95-0.364-1.313,0l-3.163,3.164c-0.493-1.033-0.321-2.307,0.536-3.164
	l1.371-1.372c1.088-1.087,2.854-1.087,3.94,0l1.315,1.314C89.08,189.075,89.08,190.837,87.993,191.925z M78.739,195.922
	c-0.363-0.361-0.363-0.947,0-1.312l3.94-3.938c0.364-0.364,0.95-0.364,1.314,0c0.363,0.361,0.363,0.947,0,1.312l-3.94,3.938
	C79.69,196.288,79.102,196.288,78.739,195.922z M76.112,197.239l1.313,1.313c0.363,0.363,0.95,0.363,1.313,0l3.163-3.164
	c0.493,1.033,0.321,2.307-0.535,3.164l-1.256,1.372c-1.089,1.089-2.852,1.089-3.94,0l-1.431-1.429c-1.088-1.09-1.088-2.853,0-3.941
	l1.373-1.257c0.858-0.856,2.128-1.028,3.164-0.536l-3.164,3.161C75.75,196.288,75.75,196.877,76.112,197.239z"/>
<path fill="#3E3E3F" d="M122.816,191.925l-1.374,1.372c-0.857,0.856-2.128,1.027-3.162,0.538l3.162-3.163
	c0.363-0.364,0.363-0.95,0-1.313l-1.313-1.316c-0.363-0.364-0.95-0.364-1.313,0l-3.163,3.164c-0.493-1.033-0.321-2.307,0.536-3.164
	l1.371-1.372c1.088-1.087,2.854-1.087,3.94,0l1.315,1.314C123.904,189.075,123.904,190.837,122.816,191.925z M113.563,195.922
	c-0.363-0.361-0.363-0.947,0-1.312l3.94-3.938c0.364-0.364,0.95-0.364,1.314,0c0.363,0.361,0.363,0.947,0,1.312l-3.94,3.938
	C114.514,196.288,113.925,196.288,113.563,195.922z M110.936,197.239l1.313,1.313c0.363,0.363,0.95,0.363,1.313,0l3.163-3.164
	c0.493,1.033,0.321,2.307-0.535,3.164l-1.256,1.372c-1.089,1.089-2.852,1.089-3.94,0l-1.431-1.429c-1.088-1.09-1.088-2.853,0-3.941
	l1.373-1.257c0.858-0.856,2.128-1.028,3.164-0.536l-3.164,3.161C110.573,196.288,110.573,196.877,110.936,197.239z M123.632,195.364
	v3.486c0,0.135-0.049,0.251-0.148,0.35c-0.098,0.099-0.215,0.147-0.35,0.147c-0.135,0-0.251-0.049-0.35-0.147l-1.121-1.12
	l-2.583,2.583c-0.052,0.052-0.111,0.078-0.179,0.078s-0.127-0.026-0.179-0.078l-0.887-0.887c-0.052-0.052-0.078-0.111-0.078-0.179
	c0-0.068,0.026-0.128,0.078-0.18l2.583-2.583l-1.12-1.121c-0.099-0.098-0.148-0.215-0.148-0.35s0.049-0.251,0.148-0.351
	c0.098-0.099,0.215-0.147,0.35-0.147h3.486c0.135,0,0.252,0.049,0.35,0.147C123.583,195.113,123.632,195.229,123.632,195.364z"/>
<path fill="#005BAA" d="M199.975,191.925l-1.374,1.372c-0.856,0.856-2.127,1.027-3.162,0.538l3.162-3.163
	c0.363-0.364,0.363-0.95,0-1.313l-1.313-1.316c-0.363-0.364-0.949-0.364-1.313,0l-3.162,3.164c-0.493-1.033-0.322-2.307,0.535-3.164
	l1.371-1.372c1.088-1.087,2.854-1.087,3.939,0l1.315,1.314C201.062,189.075,201.062,190.837,199.975,191.925z M190.722,195.922
	c-0.363-0.361-0.363-0.947,0-1.312l3.939-3.938c0.363-0.364,0.95-0.364,1.314,0c0.363,0.361,0.363,0.947,0,1.312l-3.939,3.938
	C191.673,196.288,191.083,196.288,190.722,195.922z M188.094,197.239l1.313,1.313c0.363,0.363,0.95,0.363,1.313,0l3.163-3.164
	c0.493,1.033,0.321,2.307-0.535,3.164l-1.256,1.372c-1.09,1.089-2.853,1.089-3.941,0l-1.43-1.429c-1.088-1.09-1.088-2.853,0-3.941
	l1.373-1.257c0.858-0.856,2.128-1.028,3.164-0.536l-3.164,3.161C187.731,196.288,187.731,196.877,188.094,197.239z M200.79,195.364
	v3.486c0,0.135-0.049,0.251-0.148,0.35c-0.098,0.099-0.215,0.147-0.35,0.147s-0.252-0.049-0.35-0.147l-1.121-1.12l-2.584,2.583
	c-0.051,0.052-0.111,0.078-0.178,0.078c-0.068,0-0.128-0.026-0.18-0.078l-0.887-0.887c-0.053-0.052-0.078-0.111-0.078-0.179
	c0-0.068,0.025-0.128,0.078-0.18l2.583-2.583l-1.12-1.121c-0.1-0.098-0.148-0.215-0.148-0.35s0.049-0.251,0.148-0.351
	c0.098-0.099,0.215-0.147,0.35-0.147h3.486c0.135,0,0.252,0.049,0.35,0.147C200.741,195.113,200.79,195.229,200.79,195.364z"/>
<path fill="#5C85B1" d="M54.052,164.659c0,1.539-1.248,2.786-2.786,2.786h-1.631l0.818-0.818c0.299-0.3,0.52-0.655,0.654-1.039
	h0.159c0.514,0,0.929-0.415,0.929-0.929V156.3H41.049v8.358c0,0.514,0.416,0.929,0.929,0.929h0.158
	c0.135,0.385,0.356,0.743,0.658,1.044l0.815,0.813h-1.631c-1.54,0-2.787-1.247-2.787-2.786v-9.288c0-1.538,1.247-2.786,2.787-2.786
	h9.289c1.539,0,2.786,1.248,2.786,2.786V164.659z M41.978,153.513c-0.513,0-0.929,0.416-0.929,0.929s0.416,0.929,0.929,0.929
	c0.512,0,0.929-0.416,0.929-0.929S42.49,153.513,41.978,153.513z M44.764,163.73h0.929v-2.786c0-0.514,0.416-0.929,0.929-0.929
	c0.514,0,0.929,0.415,0.929,0.929v2.786h0.929c0.375,0,0.715,0.226,0.857,0.574c0.144,0.349,0.063,0.748-0.201,1.013l-1.857,1.857
	c-0.182,0.182-0.419,0.272-0.657,0.272s-0.476-0.091-0.657-0.272l-1.858-1.857c-0.265-0.265-0.344-0.667-0.201-1.013
	C44.048,163.956,44.388,163.73,44.764,163.73z"/>
<path fill="#005BAA" d="M90.188,164.659c0,1.539-1.248,2.786-2.786,2.786H85.77l0.818-0.818c0.299-0.3,0.52-0.655,0.654-1.039h0.159
	c0.514,0,0.929-0.415,0.929-0.929V156.3H77.184v8.358c0,0.514,0.416,0.929,0.929,0.929h0.158c0.135,0.385,0.356,0.743,0.658,1.044
	l0.815,0.813h-1.631c-1.54,0-2.787-1.247-2.787-2.786v-9.288c0-1.538,1.247-2.786,2.787-2.786h9.289
	c1.539,0,2.786,1.248,2.786,2.786V164.659z M78.113,153.513c-0.513,0-0.929,0.416-0.929,0.929s0.416,0.929,0.929,0.929
	c0.512,0,0.929-0.416,0.929-0.929S78.625,153.513,78.113,153.513z M80.899,163.73h0.929v-2.786c0-0.514,0.416-0.929,0.929-0.929
	c0.514,0,0.929,0.415,0.929,0.929v2.786h0.929c0.375,0,0.715,0.226,0.857,0.574c0.144,0.349,0.063,0.748-0.201,1.013l-1.857,1.857
	c-0.182,0.182-0.419,0.272-0.657,0.272s-0.476-0.091-0.657-0.272l-1.858-1.857c-0.265-0.265-0.344-0.667-0.201-1.013
	C80.184,163.956,80.523,163.73,80.899,163.73z"/>
<path fill="#FFFFFF" d="M30.462,721.261v-1.904c0-0.277-0.09-0.506-0.268-0.684c-0.179-0.18-0.407-0.268-0.685-0.268h-2.856v-14.279
	c0-0.278-0.089-0.507-0.268-0.686s-0.407-0.269-0.684-0.269h-9.519c-0.278,0-0.506,0.09-0.685,0.269
	c-0.178,0.179-0.268,0.407-0.268,0.686v1.903c0,0.276,0.09,0.506,0.268,0.684c0.179,0.18,0.407,0.268,0.685,0.268h2.856v11.425
	h-2.856c-0.278,0-0.506,0.088-0.685,0.268c-0.178,0.178-0.268,0.406-0.268,0.684v1.904c0,0.277,0.09,0.506,0.268,0.684
	c0.179,0.18,0.407,0.268,0.685,0.268H29.51c0.278,0,0.506-0.088,0.685-0.268C30.373,721.767,30.462,721.539,30.462,721.261z
	 M26.654,698.414v-5.71c0-0.278-0.089-0.508-0.268-0.686s-0.407-0.268-0.684-0.268h-5.711c-0.277,0-0.505,0.09-0.684,0.268
	s-0.268,0.407-0.268,0.686v5.71c0,0.278,0.089,0.507,0.268,0.686s0.407,0.269,0.684,0.269h5.711c0.277,0,0.505-0.09,0.684-0.269
	S26.654,698.692,26.654,698.414z M45.693,706.981c0,4.145-1.021,7.969-3.064,11.469c-2.043,3.5-4.815,6.272-8.314,8.314
	c-3.5,2.043-7.323,3.064-11.468,3.064s-7.967-1.021-11.468-3.064c-3.5-2.042-6.271-4.814-8.314-8.314
	C1.021,714.95,0,711.125,0,706.981c0-4.144,1.021-7.967,3.064-11.467c2.043-3.501,4.814-6.272,8.314-8.315
	c3.5-2.043,7.323-3.063,11.468-3.063s7.968,1.02,11.468,3.063c3.5,2.043,6.271,4.814,8.314,8.315
	C44.671,699.014,45.693,702.837,45.693,706.981z"/>
<path fill="#5C85B1" d="M126.703,687.904H93.545v37.699l13.697-12.322l2.882-2.582l2.882,2.582l13.697,12.322V687.904z
	 M127.092,684.018c0.496,0,0.972,0.09,1.424,0.273c0.714,0.263,1.28,0.677,1.701,1.243c0.42,0.566,0.631,1.194,0.631,1.883v39.127
	c0,0.688-0.211,1.317-0.631,1.883c-0.421,0.565-0.987,0.98-1.701,1.243c-0.41,0.164-0.884,0.244-1.424,0.244
	c-1.036,0-1.932-0.323-2.688-0.971l-14.28-12.871l-14.28,12.871c-0.777,0.668-1.673,1.001-2.688,1.001
	c-0.498,0-0.972-0.092-1.425-0.274c-0.712-0.263-1.28-0.678-1.7-1.243c-0.421-0.565-0.632-1.194-0.632-1.883v-39.127
	c0-0.688,0.21-1.316,0.632-1.883c0.42-0.566,0.988-0.98,1.7-1.243c0.453-0.184,0.927-0.273,1.425-0.273H127.092z"/>
</svg>
